<?xml version="1.0" standalone="no"?>
<!DOCTYPE svg PUBLIC "-//W3C//DTD SVG 1.1//EN" "http://www.w3.org/Graphics/SVG/1.1/DTD/svg11.dtd" >
<svg xmlns="http://www.w3.org/2000/svg" xmlns:xlink="http://www.w3.org/1999/xlink" version="1.1">
<metadata>
Created by FontForge 20170731 at Sat Apr  2 01:12:22 2016
 By Aleksey,,,
(c) 2014 Adobe Systems Incorporated. All Rights Reserved.
</metadata>
<defs>
<font id="AcuminProExtraCond-Bold" horiz-adv-x="387" >
  <font-face 
    font-family="Acumin Pro ExtraCondensed"
    font-weight="700"
    font-stretch="extra-condensed"
    units-per-em="1000"
    panose-1="2 11 8 8 2 2 2 2 2 4"
    ascent="735"
    descent="-265"
    x-height="518"
    cap-height="668"
    bbox="-135 -261 757 951"
    underline-thickness="50"
    underline-position="-200"
    unicode-range="U+0020-FB02"
  />
<missing-glyph horiz-adv-x="500" 
d="M0 0v700h500v-700h-500zM250 395l170 255h-340zM280 350l170 -255v510zM80 50h340l-170 255zM50 605v-510l170 255z" />
    <glyph glyph-name="f_f" unicode="ff" horiz-adv-x="428" 
d="M156 0h-103v427h-51v91h51v51q0 133 120 133q21 0 39 -4v-91q-8 1 -17 1q-24 0 -31.5 -11.5t-7.5 -36.5v-42h104v45q0 139 120 139q26 0 38 -4v-91q-7 1 -17 1q-38 0 -38 -51v-39h62v-91h-62v-427h-103v427h-104v-427z" />
    <glyph glyph-name=".notdef" horiz-adv-x="500" 
d="M0 0v700h500v-700h-500zM250 395l170 255h-340zM280 350l170 -255v510zM80 50h340l-170 255zM50 605v-510l170 255z" />
    <glyph glyph-name=".null" horiz-adv-x="0" 
 />
    <glyph glyph-name="nonmarkingreturn" horiz-adv-x="333" 
 />
    <glyph glyph-name="space" unicode=" " horiz-adv-x="131" 
 />
    <glyph glyph-name="exclam" unicode="!" horiz-adv-x="224" 
d="M170 236h-91l-10 320v112h111v-111zM176 0h-103v125h103v-125z" />
    <glyph glyph-name="quotedbl" unicode="&#x22;" horiz-adv-x="272" 
d="M106 459h-75l-5 146v92h89v-92zM238 459h-75l-6 146v92h89v-92z" />
    <glyph glyph-name="numbersign" unicode="#" horiz-adv-x="411" 
d="M182 0l31 193h-64l-31 -193h-73l32 193h-49v83h62l22 128h-55v82h68l27 164h71l-26 -164h64l27 164h72l-26 -164h49v-82h-63l-20 -128h54v-83h-68l-31 -193h-73zM227 276l21 128h-65l-20 -128h64z" />
    <glyph glyph-name="dollar" unicode="$" horiz-adv-x="361" 
d="M216 -67h-79v68q-120 18 -120 164v17h101v-23q0 -77 58 -77q30 0 43 19.5t13 59.5q0 44 -15.5 72t-63.5 57q-69 42 -99 84t-30 113q0 142 113 160v53h79v-53q34 -6 56.5 -21t33.5 -37t15 -44t4 -49v-17h-101v16q0 74 -50 74t-49 -69q1 -37 17.5 -60t66.5 -55
q70 -44 97.5 -88t27.5 -122t-28.5 -120.5t-89.5 -52.5v-69z" />
    <glyph glyph-name="percent" unicode="%" horiz-adv-x="540" 
d="M134 658q50 0 78 -31t28 -89v-109q0 -61 -27.5 -92.5t-79.5 -31.5q-48 0 -77.5 29t-29.5 89v116q0 61 29.5 90t78.5 29zM134 594q-37 0 -37 -51v-120q0 -53 36 -53t36 54v121q0 49 -35 49zM140 0h-51l308 650h53zM408 345q50 0 77.5 -30t27.5 -90v-109q0 -60 -27.5 -92
t-78.5 -32q-107 0 -107 118v116q0 60 29.5 89.5t78.5 29.5zM407 281q-36 0 -36 -51v-120q0 -53 36 -53t36 54v122q0 48 -36 48z" />
    <glyph glyph-name="ampersand" unicode="&#x26;" horiz-adv-x="463" 
d="M158 528q0 -38 5 -60t22 -50q28 25 38 47.5t10 61.5q0 33 -8 49.5t-29 16.5q-38 0 -38 -65zM182 93q22 0 35 11.5t26 36.5l-91 142q-28 -32 -28 -97q0 -93 58 -93zM355 402h97l-104 -242l101 -160h-115l-39 61q-51 -69 -127 -69q-72 0 -108.5 49.5t-36.5 135.5
q0 62 19 99.5t65 76.5q-26 43 -35 76t-9 88q0 77 34.5 118t96.5 41q131 0 131 -150q0 -60 -20 -96t-76 -82l62 -97z" />
    <glyph glyph-name="quotesingle" unicode="'" horiz-adv-x="145" 
d="M112 459h-81l-5 146v92h94v-92z" />
    <glyph glyph-name="parenleft" unicode="(" horiz-adv-x="267" 
d="M154 706h98q-109 -186 -109 -400q0 -216 109 -413h-98q-105 175 -105 414q0 221 105 399z" />
    <glyph glyph-name="parenright" unicode=")" horiz-adv-x="267" 
d="M113 -106h-97q108 188 108 400q0 216 -108 412h97q106 -172 106 -413q0 -219 -106 -399z" />
    <glyph glyph-name="asterisk" unicode="*" horiz-adv-x="305" 
d="M114 668h74l-12 -105l80 61l40 -62l-95 -42l90 -40l-37 -64l-78 63l13 -107h-75l13 106l-82 -62l-36 66l90 38l-88 39l38 65l77 -61z" />
    <glyph glyph-name="plus" unicode="+" horiz-adv-x="483" 
d="M203 456h79v-168h157v-77h-157v-169h-79v169h-160v77h160v168z" />
    <glyph glyph-name="comma" unicode="," horiz-adv-x="179" 
d="M83 -94h-75q50 127 50 242h94q-1 -65 -21 -132t-48 -110z" />
    <glyph glyph-name="hyphen" unicode="-" horiz-adv-x="223" 
d="M21 312h181v-94h-181v94z" />
    <glyph glyph-name="period" unicode="." horiz-adv-x="174" 
d="M138 0h-103v148h103v-148z" />
    <glyph glyph-name="slash" unicode="/" horiz-adv-x="266" 
d="M95 -30h-79l156 698h78z" />
    <glyph glyph-name="zero" unicode="0" horiz-adv-x="368" 
d="M186 658q150 0 150 -173v-312q0 -84 -34 -132.5t-122 -48.5q-149 0 -149 180v306q0 180 155 180zM184 565q-52 0 -52 -75v-330q0 -75 52 -75q50 0 50 78v330q0 72 -50 72z" />
    <glyph glyph-name="one" unicode="1" horiz-adv-x="225" 
d="M173 0h-103v532q-18 -3 -66 -3v78q59 6 94 46h75v-653z" />
    <glyph glyph-name="two" unicode="2" horiz-adv-x="329" 
d="M307 0h-290v12q1 85 29 149.5t86 147.5q33 46 44.5 64t20 45t8.5 62q0 52 -9 72t-36 20q-46 0 -46 -76v-34h-95v37q0 159 146 159q79 0 111 -44t32 -127q0 -50 -12 -89.5t-27 -63t-49 -68.5q-82 -110 -88 -177h189z" />
    <glyph glyph-name="three" unicode="3" horiz-adv-x="353" 
d="M120 482h-92v21q0 155 143 155q139 0 139 -155v-23q0 -100 -64 -126v-1q79 -27 79 -130v-52q0 -85 -35 -132.5t-120 -47.5q-150 0 -150 153v22h96v-21q0 -70 53 -70q30 0 41.5 21t11.5 61v64q0 45 -17 64.5t-57 19.5h-28v89h27q36 0 49.5 17t13.5 59v34q0 33 -9 51
t-35 18q-46 0 -46 -64v-27z" />
    <glyph glyph-name="four" unicode="4" horiz-adv-x="347" 
d="M293 0h-95v162h-183v76l139 412h139v-404h48l-7 -84h-41v-162zM112 246h86v116q0 37 2 106t2 90h-1q-34 -129 -89 -312z" />
    <glyph glyph-name="five" unicode="5" horiz-adv-x="363" 
d="M323 650l-10 -90h-161q-7 -97 -12 -158q22 30 78 30q120 0 120 -173v-68q0 -95 -35.5 -147t-123.5 -52q-80 0 -116 44.5t-36 118.5v15h102v-24q0 -70 50 -70q31 0 42 23.5t11 79.5v76q0 49 -11 69.5t-41 20.5q-26 0 -37 -14t-17 -47l-92 9q17 159 28 357h261z" />
    <glyph glyph-name="six" unicode="6" horiz-adv-x="362" 
d="M327 498h-97v9q0 66 -46 66q-29 0 -40.5 -22.5t-11.5 -75.5v-87q30 44 90 44q58 0 86 -41.5t28 -112.5v-106q0 -180 -154 -180q-38 0 -65.5 10.5t-44 27.5t-26 42t-12.5 49t-3 54v283q0 94 33.5 147t120.5 53q142 0 142 -156v-4zM183 76q29 0 40 20.5t11 60.5v107
q0 38 -10.5 57.5t-38.5 19.5q-29 0 -41 -19.5t-12 -61.5v-103q0 -81 51 -81z" />
    <glyph glyph-name="seven" unicode="7" horiz-adv-x="302" 
d="M2 650h292v-78q-124 -240 -163 -572h-105q17 154 63 305t101 255h-188v90z" />
    <glyph glyph-name="eight" unicode="8" horiz-adv-x="364" 
d="M180 -8q-70 0 -111.5 36t-41.5 128v64q0 54 17.5 80.5t48.5 45.5q-57 36 -57 127v25q0 80 39 119.5t110 39.5q143 0 143 -161v-23q0 -91 -56 -126q65 -33 65 -128v-56q0 -92 -40 -131.5t-117 -39.5zM182 570q-49 0 -49 -65v-51q0 -30 13 -47.5t37 -17.5q47 0 47 67v49
q0 65 -48 65zM181 80q53 0 53 70v83q0 69 -53 69q-52 0 -52 -68v-85q0 -69 52 -69z" />
    <glyph glyph-name="nine" unicode="9" horiz-adv-x="358" 
d="M31 149h101v-11q0 -61 46 -61q27 0 37 25.5t10 91.5v88q-25 -39 -82 -39q-118 0 -118 160v88q0 79 38.5 123t112.5 44q151 0 151 -172v-269q0 -40 -2 -67t-10.5 -59.5t-24 -52t-44.5 -33t-69 -13.5q-146 0 -146 153v4zM176 574q-49 0 -49 -71v-103q0 -68 48 -68
q29 0 39.5 21.5t10.5 67.5v82q0 36 -11 53.5t-38 17.5z" />
    <glyph glyph-name="colon" unicode=":" horiz-adv-x="205" 
d="M149 344h-94v148h94v-148zM149 0h-94v148h94v-148z" />
    <glyph glyph-name="semicolon" unicode=";" horiz-adv-x="215" 
d="M160 344h-94v148h94v-148zM91 -94h-76q49 131 51 242h94q-1 -67 -21.5 -132.5t-47.5 -109.5z" />
    <glyph glyph-name="less" unicode="&#x3c;" horiz-adv-x="382" 
d="M45 208v82l292 158v-87l-213 -111l213 -112v-88z" />
    <glyph glyph-name="equal" unicode="=" horiz-adv-x="481" 
d="M43 374h395v-77h-395v77zM43 202h395v-77h-395v77z" />
    <glyph glyph-name="greater" unicode="&#x3e;" horiz-adv-x="382" 
d="M337 292v-82l-292 -158v87l213 111l-213 112v88z" />
    <glyph glyph-name="question" unicode="?" horiz-adv-x="334" 
d="M223 208h-103v21q0 87 50 169q23 37 31 63t8 70q0 34 -7.5 48.5t-27.5 14.5q-37 0 -37 -57v-34h-96v27q0 146 138 146q133 0 133 -148q0 -56 -12 -92.5t-48 -98.5q-29 -50 -29 -118v-11zM223 0h-103v145h103v-145z" />
    <glyph glyph-name="at" unicode="@" horiz-adv-x="616" 
d="M440 -46l21 -62q-59 -47 -163 -47q-131 0 -199 89.5t-68 264.5v22q0 113 29.5 200.5t96.5 142t163 54.5q125 0 194.5 -75.5t69.5 -226.5v-21q0 -282 -143 -282q-69 0 -84 63q-26 -63 -93 -63q-44 0 -68 35t-18 107l12 146q12 152 104 152q28 0 45 -13t21 -32l5 36h84
l-30 -290q-6 -59 29 -59q32 0 47.5 59t15.5 139v25q0 124 -47 177.5t-146 53.5q-73 0 -121 -45.5t-67 -115.5t-19 -165v-25q0 -282 193 -282q74 0 136 38zM319 367q-20 0 -30 -16t-14 -58l-10 -118q-7 -73 30 -73q38 0 46 88l9 103q8 74 -31 74z" />
    <glyph glyph-name="A" unicode="A" horiz-adv-x="380" 
d="M238 179h-103l-23 -179h-105l108 668h145l112 -668h-108zM148 273h78q-26 188 -38 297h-4q-1 -32 -36 -297z" />
    <glyph glyph-name="B" unicode="B" horiz-adv-x="379" 
d="M45 0v668h137q85 0 122.5 -38t37.5 -114v-25q0 -109 -62 -134q75 -30 75 -134v-51q0 -86 -39 -129t-125 -43h-146zM145 396h26q43 0 59 17.5t16 66.5v26q0 42 -16 59.5t-53 17.5h-32v-187zM145 313v-229h34q44 0 59 20t15 71v45q0 51 -17 72t-65 21h-26z" />
    <glyph glyph-name="C" unicode="C" horiz-adv-x="350" 
d="M231 200h104v-26q0 -35 -4.5 -62t-19 -57.5t-47.5 -47.5t-83 -17q-86 0 -118 46.5t-32 132.5v337q0 80 38 126t114 46q45 0 75.5 -14t46 -40t21.5 -55t6 -67v-30h-103v42q0 35 -10.5 52.5t-36.5 17.5q-25 0 -35.5 -17t-10.5 -53v-353q0 -78 48 -78q26 0 36.5 20t10.5 59
v38z" />
    <glyph glyph-name="D" unicode="D" horiz-adv-x="396" 
d="M45 0v668h143q101 0 138.5 -48.5t37.5 -148.5v-257q0 -45 -5.5 -77.5t-22.5 -66.5t-54 -52t-94 -18h-143zM148 579v-491h33q47 0 62.5 27t15.5 85v279q0 52 -15.5 76t-62.5 24h-33z" />
    <glyph glyph-name="E" unicode="E" horiz-adv-x="325" 
d="M294 400v-95h-147v-210h170l-13 -95h-260v668h258v-96h-155v-172h147z" />
    <glyph glyph-name="F" unicode="F" horiz-adv-x="317" 
d="M45 0v668h260v-96h-157v-175h150v-96h-150v-301h-103z" />
    <glyph glyph-name="G" unicode="G" horiz-adv-x="386" 
d="M347 374v-374h-80q-3 14 -6 50q-25 -60 -100 -60q-70 0 -100 47t-30 138v313q0 190 159 190q155 0 155 -175v-22h-103v27q0 76 -53 76t-53 -79v-342q0 -82 53 -82q31 0 43 26t12 81v97h-58v89h161z" />
    <glyph glyph-name="H" unicode="H" horiz-adv-x="407" 
d="M45 0v668h103v-264h111v264h103v-668h-103v310h-111v-310h-103z" />
    <glyph glyph-name="I" unicode="I" horiz-adv-x="194" 
d="M45 668h103v-668h-103v668z" />
    <glyph glyph-name="J" unicode="J" horiz-adv-x="223" 
d="M183 668v-516q0 -31 -2 -51.5t-9.5 -43t-21 -35.5t-38 -21.5t-59.5 -8.5q-25 0 -53 5v87q18 -2 31 -2q28 0 38.5 11.5t10.5 46.5v528h103z" />
    <glyph glyph-name="K" unicode="K" horiz-adv-x="373" 
d="M45 0v668h101v-302h1q70 177 120 302h115l-122 -260l129 -408h-112l-87 301l-44 -90v-211h-101z" />
    <glyph glyph-name="L" unicode="L" horiz-adv-x="314" 
d="M45 0v668h103v-576h168l-9 -92h-262z" />
    <glyph glyph-name="M" unicode="M" horiz-adv-x="529" 
d="M386 0v249q0 215 3 331h-1q-38 -294 -81 -580h-97q-32 254 -75 581h-2q6 -234 6 -344v-237h-94v668h154q47 -307 61 -454h1q5 42 17 116t30 178.5t27 159.5h149v-668h-98z" />
    <glyph glyph-name="N" unicode="N" horiz-adv-x="414" 
d="M141 0h-96v668h119l89 -341q4 -15 25 -118h1q-5 82 -5 285v174h95v-668h-115l-98 390q-5 21 -18 84h-1q4 -65 4 -291v-183z" />
    <glyph glyph-name="O" unicode="O" 
d="M195 678q77 0 119 -46.5t42 -140.5v-312q0 -96 -41.5 -142.5t-126.5 -46.5q-80 0 -118.5 46.5t-38.5 140.5v314q0 93 43.5 140t120.5 47zM193 584q-57 0 -57 -83v-336q0 -82 57 -82q58 0 58 83v336q0 82 -58 82z" />
    <glyph glyph-name="P" unicode="P" horiz-adv-x="371" 
d="M45 0v668h149q81 0 120.5 -41.5t39.5 -129.5v-39q0 -89 -38 -136t-128 -47h-40v-275h-103zM148 583v-224h28q46 0 61 24.5t15 78.5v32q0 43 -13.5 66t-52.5 23h-38z" />
    <glyph glyph-name="Q" unicode="Q" horiz-adv-x="389" 
d="M195 678q77 0 119 -46.5t42 -140.5v-312q0 -79 -28 -125l76 -61l-60 -72l-96 76q-25 -7 -60 -7q-80 0 -118.5 46.5t-38.5 140.5v314q0 93 43.5 140t120.5 47zM193 584q-57 0 -57 -83v-336q0 -82 57 -82q58 0 58 83v336q0 82 -58 82z" />
    <glyph glyph-name="R" unicode="R" horiz-adv-x="375" 
d="M45 0v668h143q80 0 121 -37t41 -124v-25q0 -110 -68 -140q31 -15 46 -44t15 -93q0 -171 6 -205h-100q-7 35 -7 199q0 62 -13 81t-57 19h-24v-299h-103zM148 583v-199h24q41 0 57.5 19.5t16.5 73.5v23q0 43 -14 63t-55 20h-29z" />
    <glyph glyph-name="S" unicode="S" horiz-adv-x="344" 
d="M13 197h103v-42q0 -77 54 -77q51 0 51 81q0 53 -16 80t-71 71q-62 49 -86.5 86.5t-24.5 105.5q0 177 148 177q142 0 142 -161v-36h-102v33q0 38 -9 56.5t-33 18.5q-43 0 -43 -73q0 -38 12.5 -60.5t55.5 -53.5q78 -57 104.5 -101.5t26.5 -126.5q0 -185 -158 -185
q-154 0 -154 167v40z" />
    <glyph glyph-name="T" unicode="T" horiz-adv-x="318" 
d="M107 0v572h-107v96h318v-96h-108v-572h-103z" />
    <glyph glyph-name="U" unicode="U" horiz-adv-x="399" 
d="M41 668h103v-508q0 -77 56 -77q54 0 54 77v508h103v-506q0 -172 -159 -172q-157 0 -157 172v506z" />
    <glyph glyph-name="V" unicode="V" horiz-adv-x="368" 
d="M6 668h111l36 -272q4 -31 11.5 -86t12.5 -98t8 -77h2q4 42 17 141t15 118l33 274h110l-113 -668h-126z" />
    <glyph glyph-name="W" unicode="W" horiz-adv-x="545" 
d="M206 0h-104l-92 668h110q35 -333 41 -492h2q9 85 62 492h100q54 -407 61 -487h2q9 142 43 487h104l-98 -668h-105q-4 35 -27.5 210t-32.5 255h-2q-7 -62 -17.5 -141.5t-25.5 -179.5t-21 -144z" />
    <glyph glyph-name="X" unicode="X" horiz-adv-x="336" 
d="M347 0h-114l-66 242h-1l-71 -242h-106l118 340l-113 328h114l62 -221h1l60 221h108l-112 -313z" />
    <glyph glyph-name="Y" unicode="Y" horiz-adv-x="345" 
d="M223 0h-103v237q0 9 -3 22l-125 409h114q55 -220 68 -306h1q8 51 68 306h110l-128 -418q-2 -8 -2 -25v-225z" />
    <glyph glyph-name="Z" unicode="Z" horiz-adv-x="321" 
d="M11 0v68l187 504h-170v96h283v-81l-181 -492h187l-13 -95h-293z" />
    <glyph glyph-name="bracketleft" unicode="[" horiz-adv-x="254" 
d="M233 -107h-186v812h186v-82h-102v-647h102v-83z" />
    <glyph glyph-name="backslash" unicode="\" horiz-adv-x="266" 
d="M94 668l156 -698h-78l-156 698h78z" />
    <glyph glyph-name="bracketright" unicode="]" horiz-adv-x="254" 
d="M20 705h187v-812h-187v82h102v647h-102v83z" />
    <glyph glyph-name="asciicircum" unicode="^" horiz-adv-x="337" 
d="M326 326h-82l-79 244l-72 -244h-82l110 324h91z" />
    <glyph glyph-name="underscore" unicode="_" horiz-adv-x="530" 
d="M0 -78h530v-51h-530v51z" />
    <glyph glyph-name="grave" unicode="`" horiz-adv-x="400" 
d="M49 707h118l80 -135h-82z" />
    <glyph glyph-name="a" unicode="a" horiz-adv-x="360" 
d="M316 387v-281q0 -66 2 -106h-94q-2 10 -6 38q-26 -46 -86 -46q-55 0 -82 43t-27 107v9q0 162 179 162h12v66q0 33 -7 48t-29 15q-38 0 -38 -56v-8h-101v6q0 142 143 142q134 0 134 -139zM216 175v60h-17q-38 0 -58 -18.5t-20 -64.5v-8q0 -62 45 -62q27 0 38.5 21t11.5 72
z" />
    <glyph glyph-name="b" unicode="b" horiz-adv-x="375" 
d="M43 133v564h103v-223q27 52 92 52q108 0 108 -157v-179q0 -65 -8.5 -105t-36 -66.5t-76.5 -26.5q-63 0 -85 54q-1 -30 -4 -46h-94q1 18 1 133zM243 171v182q0 40 -9 60t-36 20q-29 0 -40.5 -22.5t-11.5 -69.5v-172q0 -84 49 -84q48 0 48 86z" />
    <glyph glyph-name="c" unicode="c" horiz-adv-x="333" 
d="M213 172h101v-7q0 -81 -30.5 -127t-113.5 -46t-112 48t-29 139v177q0 170 146 170q45 0 75 -14.5t42.5 -40.5t17 -49t4.5 -52v-20h-101v22q0 33 -8.5 50t-31.5 17q-41 0 -41 -68v-224q0 -68 41 -68q23 0 31.5 16.5t8.5 51.5v25z" />
    <glyph glyph-name="d" unicode="d" horiz-adv-x="375" 
d="M229 697h103v-553q0 -116 1 -144h-98q-4 26 -4 49q-28 -57 -91 -57q-65 0 -88 44.5t-23 129.5v203q0 72 29 114.5t90 42.5t81 -37v208zM132 363v-205q0 -38 10.5 -56t36.5 -18q29 0 39.5 24t10.5 73v159q0 48 -9.5 70.5t-39.5 22.5q-48 0 -48 -70z" />
    <glyph glyph-name="e" unicode="e" horiz-adv-x="352" 
d="M326 231h-197v-76q0 -76 49 -76q28 0 37 20t9 54v2h100v-2q0 -161 -144 -161q-48 0 -79 13.5t-46 41t-20.5 57.5t-5.5 74v170q0 31 6 58.5t21 56.5t46.5 46t77.5 17q146 0 146 -177v-118zM130 312h97v53q0 38 -10.5 56t-37.5 18q-49 0 -49 -74v-53z" />
    <glyph glyph-name="f" unicode="f" horiz-adv-x="222" 
d="M156 0h-103v427h-51v91h51v50q0 134 124 134q27 0 39 -4v-91q-8 1 -19 1q-24 0 -32.5 -12.5t-8.5 -39.5v-38h63v-91h-63v-427z" />
    <glyph glyph-name="g" unicode="g" horiz-adv-x="375" 
d="M332 388v-359q0 -40 -2 -66.5t-11 -56.5t-25.5 -47.5t-46.5 -29t-73 -11.5q-144 0 -144 135v2h103v-2q0 -10 2.5 -19.5t13.5 -19.5t30 -10q30 0 40 22t10 76v56q-21 -47 -85 -47q-65 0 -90 43t-25 119v195q0 29 6 55t19.5 50t39 38.5t61.5 14.5q70 0 85 -54q0 24 5 46h89
q-2 -64 -2 -130zM132 362v-182q0 -79 46 -79q31 0 41 23t10 75v152q0 40 -8.5 61t-37.5 21q-51 0 -51 -71z" />
    <glyph glyph-name="h" unicode="h" horiz-adv-x="389" 
d="M43 0v697h103v-222q27 51 96 51q104 0 104 -134v-392h-103v365q0 68 -45 68q-30 0 -41 -19.5t-11 -65.5v-348h-103z" />
    <glyph glyph-name="i" unicode="i" horiz-adv-x="190" 
d="M43 0v518h103v-518h-103zM44 587v110h103v-110h-103z" />
    <glyph glyph-name="j" unicode="j" horiz-adv-x="190" 
d="M44 587v110h103v-110h-103zM44 518h103v-542q0 -35 -3.5 -58.5t-14.5 -48t-35.5 -36.5t-62.5 -12q-24 0 -46 3v92q11 -1 24 -1q20 0 27.5 9t7.5 37v557z" />
    <glyph glyph-name="k" unicode="k" horiz-adv-x="343" 
d="M145 697v-403h2q10 26 44.5 108t47.5 116h109q-19 -41 -54 -111t-41 -81l105 -326h-113l-64 226q-5 -9 -18 -35.5t-18 -35.5v-155h-102v697h102z" />
    <glyph glyph-name="l" unicode="l" horiz-adv-x="189" 
d="M146 0h-103v697h103v-697z" />
    <glyph glyph-name="m" unicode="m" horiz-adv-x="563" 
d="M43 0v368q0 126 -1 150h98q2 -11 4 -46q28 54 91 54t83 -56q36 56 99 56q103 0 103 -130v-396h-103v377q0 56 -39 56q-26 0 -35.5 -19t-9.5 -60v-354h-104v375q0 33 -9.5 45.5t-28.5 12.5q-26 0 -35.5 -18.5t-9.5 -58.5v-356h-103z" />
    <glyph glyph-name="n" unicode="n" horiz-adv-x="389" 
d="M43 0v358q0 136 -1 160h98q4 -24 4 -47q28 55 96 55q106 0 106 -136v-390h-103v370q0 63 -45 63q-28 0 -40 -19t-12 -71v-343h-103z" />
    <glyph glyph-name="o" unicode="o" horiz-adv-x="361" 
d="M183 526q71 0 110 -43t39 -124v-199q0 -83 -39.5 -125.5t-112.5 -42.5q-151 0 -151 167v204q0 81 41.5 122t112.5 41zM181 434q-49 0 -49 -69v-210q0 -72 49 -72q48 0 48 74v208q0 69 -48 69z" />
    <glyph glyph-name="p" unicode="p" horiz-adv-x="375" 
d="M43 -174v543q0 117 -1 149h98q4 -20 4 -51q27 59 95 59q107 0 107 -152v-212q0 -88 -29 -129t-89 -41q-57 0 -82 44v-210h-103zM146 353v-180q0 -89 48 -89q28 0 38.5 19.5t10.5 57.5v204q0 68 -45 68q-52 0 -52 -80z" />
    <glyph glyph-name="q" unicode="q" horiz-adv-x="378" 
d="M229 -174v218q-24 -52 -90 -52q-34 0 -57 14t-34 41t-15 55.5t-4 66.5v186q0 73 29 122t93 49t80 -46q1 20 4 38h99q-1 -33 -1 -169v-523h-104zM132 365v-205q0 -76 46 -76q29 0 40.5 24.5t11.5 76.5v161q0 44 -8.5 65.5t-39.5 21.5q-50 0 -50 -68z" />
    <glyph glyph-name="r" unicode="r" horiz-adv-x="262" 
d="M257 525v-127q-53 0 -82 -24.5t-29 -96.5v-277h-103v342q0 150 -1 176h98q3 -30 3 -84q26 91 114 91z" />
    <glyph glyph-name="s" unicode="s" horiz-adv-x="327" 
d="M15 162h104v-24q0 -59 42 -59q40 0 40 51q0 28 -14 48.5t-58 48.5q-57 37 -81 71t-24 87q0 66 35 103.5t102 37.5q137 0 137 -149v-21h-100v32q0 51 -36 51t-36 -46q0 -22 11 -36t46 -36q70 -45 96 -81.5t26 -97.5q0 -150 -147 -150q-143 0 -143 147v23z" />
    <glyph glyph-name="t" unicode="t" horiz-adv-x="228" 
d="M-2 427v91h55v124h103v-124h65v-91h-65v-306q0 -22 6.5 -33t27.5 -11q20 0 28 3v-77q-21 -11 -63 -11q-52 0 -77 23.5t-25 87.5v324h-55z" />
    <glyph glyph-name="u" unicode="u" 
d="M344 518v-367q0 -124 1 -151h-99q-4 22 -4 49q-23 -57 -96 -57q-103 0 -103 135v391h103v-365q0 -69 45 -69q26 0 38 20t12 69v345h103z" />
    <glyph glyph-name="v" unicode="v" horiz-adv-x="342" 
d="M3 518h110q39 -235 60 -403h1q5 65 33.5 232.5t28.5 170.5h103l-111 -518h-116z" />
    <glyph glyph-name="w" unicode="w" horiz-adv-x="521" 
d="M4 518h110q37 -300 42 -373h1q3 28 9.5 69t21 128t28.5 176h95q11 -69 23.5 -144l18 -108t10 -66t6.5 -56h1q13 144 44 374h103l-99 -518h-99q-9 58 -23 134t-23 127.5t-12 85.5h-1q-3 -39 -61 -347h-101z" />
    <glyph glyph-name="x" unicode="x" horiz-adv-x="317" 
d="M-5 518h113q39 -116 53 -161h1q6 21 26 78t28 83h107l-105 -240l107 -278h-111q-7 21 -56 181h-1q-4 -11 -12 -37t-20.5 -67t-23.5 -77h-109l106 266z" />
    <glyph glyph-name="y" unicode="y" horiz-adv-x="342" 
d="M3 518h110q54 -328 58 -395h3q4 40 12 89.5t23 140t27 165.5h103l-116 -543q-11 -53 -26.5 -86.5t-36.5 -47.5t-38 -18t-44 -4q-20 0 -48 4l2 92q18 -2 30 -2q26 0 39 13.5t19 52.5z" />
    <glyph glyph-name="z" unicode="z" horiz-adv-x="293" 
d="M6 0v71q4 8 66 144.5t96 208.5h-147v94h260v-73q-32 -82 -155 -351h158l-8 -94h-270z" />
    <glyph glyph-name="braceleft" unicode="{" horiz-adv-x="296" 
d="M24 252v92h14q44 0 58.5 18.5t14.5 56.5l-5 132q0 85 38.5 119t112.5 34h19v-79h-10q-38 0 -54.5 -17t-16.5 -62l5 -116q2 -115 -73 -130q44 -14 59 -43t14 -89l-5 -119q0 -46 16.5 -62t53.5 -16h11v-80h-24q-72 0 -109 32t-37 112l5 143q0 37 -13.5 55.5t-54.5 18.5h-19
z" />
    <glyph glyph-name="bar" unicode="|" horiz-adv-x="183" 
d="M51 781h81v-1042h-81v1042z" />
    <glyph glyph-name="braceright" unicode="}" horiz-adv-x="296" 
d="M273 343v-92h-15q-44 0 -58 -18.5t-14 -56.5l5 -132q0 -85 -38.5 -119t-112.5 -34h-20v80h10q39 0 55 16.5t16 61.5l-5 116q-2 114 74 131q-44 13 -59.5 41.5t-14.5 89.5l5 119q0 46 -16.5 62.5t-53.5 16.5h-11v79h24q72 0 109.5 -32t37.5 -112l-5 -142q0 -38 13.5 -56.5
t54.5 -18.5h19z" />
    <glyph glyph-name="asciitilde" unicode="~" horiz-adv-x="450" 
d="M125 184h-76v30q0 105 85 105q18 0 34.5 -4t28 -8.5t39.5 -17.5q61 -28 71 -28t14 7.5t4 31.5v14h76v-25q0 -113 -79 -113q-36 0 -104 34q-56 29 -73 29q-20 0 -20 -32v-23z" />
    <glyph glyph-name="uni00A0" unicode="&#xa0;" horiz-adv-x="131" 
 />
    <glyph glyph-name="exclamdown" unicode="&#xa1;" horiz-adv-x="198" 
d="M39 282h91l11 -333v-112h-112v111zM34 518h103v-125h-103v125z" />
    <glyph glyph-name="cent" unicode="&#xa2;" horiz-adv-x="350" 
d="M223 256h102v-9q0 -69 -21.5 -109.5t-74.5 -52.5v-67h-91v66q-105 20 -105 165v158q0 139 105 163v57h91v-56q97 -21 97 -150v-16h-102v16q0 37 -9 53.5t-34 16.5q-43 0 -43 -77v-169q0 -39 9.5 -58.5t33.5 -19.5q23 0 32.5 15.5t9.5 56.5v17z" />
    <glyph glyph-name="sterling" unicode="&#xa3;" horiz-adv-x="377" 
d="M346 0h-320v80q58 33 58 157q0 22 -2 58h-63v84h58q-5 63 -5 116q0 163 141 163q76 0 107 -42t31 -117v-22h-99v21q0 36 -8.5 52.5t-30.5 16.5t-30 -16.5t-8 -56.5q0 -29 6 -115h95v-84h-90v-19q0 -132 -39 -187h209z" />
    <glyph glyph-name="currency" unicode="&#xa4;" horiz-adv-x="374" 
d="M186 422q-54 0 -54 -95v-12q0 -95 55 -95q52 0 52 94v13q0 95 -53 95zM189 501q41 0 72 -21l48 50l57 -57l-56 -59q13 -37 13 -83v-22q0 -45 -12 -78l55 -58l-58 -59l-47 49q-34 -24 -77 -24q-42 0 -73 24l-47 -49l-58 59l57 58q-13 37 -13 82v15q0 48 14 85l-58 59
l57 58l50 -53q34 24 76 24z" />
    <glyph glyph-name="yen" unicode="&#xa5;" horiz-adv-x="352" 
d="M308 171h-83v-171h-103v171h-80v61h80v45h-80v62h70l-117 311h113q53 -165 70 -243h1q20 93 64 243h111l-118 -311h72v-62h-83v-45h83v-61z" />
    <glyph glyph-name="brokenbar" unicode="&#xa6;" horiz-adv-x="183" 
d="M51 689h81v-356h-81v356zM51 179h81v-358h-81v358z" />
    <glyph glyph-name="section" unicode="&#xa7;" horiz-adv-x="339" 
d="M156 226l41 -30q1 0 2.5 -2t2.5 -2q21 27 21 74q0 28 -9.5 50t-39.5 45l-44 34q-26 -30 -26 -77q0 -30 12 -50.5t40 -41.5zM156 -111q-69 0 -103 33.5t-34 108.5v15h92v-17q0 -65 47 -65q40 0 40 57q0 32 -8.5 52t-36.5 40l-54 39q-44 32 -64 65.5t-20 86.5q0 88 57 140
q-34 37 -34 98q0 64 34 99t97 35q67 0 98 -34t31 -105v-18h-88v17q0 34 -9 49t-33 15q-39 0 -39 -49q0 -24 9.5 -39t37.5 -36l55 -40q43 -31 62 -64.5t19 -93.5q0 -90 -52 -139q32 -41 32 -108q0 -142 -136 -142z" />
    <glyph glyph-name="dieresis" unicode="&#xa8;" horiz-adv-x="400" 
d="M174 587h-89v110h89v-110zM315 587h-89v110h89v-110z" />
    <glyph glyph-name="copyright" unicode="&#xa9;" horiz-adv-x="554" 
d="M278 635q107 0 173 -77.5t66 -229.5q0 -151 -66 -230t-173 -79q-108 0 -174.5 78t-66.5 231q0 147 67.5 227t173.5 80zM277 583q-84 0 -133.5 -67t-49.5 -189t48.5 -188.5t134.5 -66.5q88 0 136 67t48 189q0 121 -49.5 188t-134.5 67zM310 290h69v-22q0 -109 -101 -109
q-105 0 -105 120v105q0 113 105 113q50 0 75 -28t25 -76v-24h-69v21q0 48 -32 48q-33 0 -33 -54v-113q0 -52 32 -53q18 -1 26 11.5t8 36.5v24z" />
    <glyph glyph-name="ordfeminine" unicode="&#xaa;" horiz-adv-x="255" 
d="M128 627q97 0 97 -85v-171q0 -43 4 -67h-67q-4 12 -4 29q-23 -35 -65 -35q-38 0 -58 27t-20 69q0 102 122 104h15v35q0 21 -5.5 30t-21.5 9q-29 0 -29 -45v-2h-69v4q0 98 101 98zM89 399q0 -37 30 -37q35 0 35 56v25q-6 1 -17 1q-48 0 -48 -45z" />
    <glyph glyph-name="guillemotleft" unicode="&#xab;" horiz-adv-x="377" 
d="M203 422l-89 -160l89 -160h-87l-90 160l90 160h87zM352 422l-91 -160l91 -160h-87l-92 160l92 160h87z" />
    <glyph glyph-name="logicalnot" unicode="&#xac;" horiz-adv-x="458" 
d="M33 319h382v-232h-78v155h-304v77z" />
    <glyph glyph-name="uni00AD" unicode="&#xad;" horiz-adv-x="223" 
d="M21 312h181v-94h-181v94z" />
    <glyph glyph-name="registered" unicode="&#xae;" horiz-adv-x="251" 
d="M117 493h-31v119h57q41 0 41 -34q0 -18 -17 -27q15 -7 15 -34q0 -18 2 -24h-32q-2 8 -2 26q0 11 -4 15.5t-15 4.5h-14v-46zM119 588v-26h16q16 0 16 13t-16 13h-16zM133 676q51 0 85 -36t34 -90q0 -57 -34 -91.5t-85 -34.5t-84.5 35t-33.5 91q0 54 33 90t85 36zM132 648
q-40 0 -63.5 -27t-23.5 -72q0 -42 24.5 -70t62.5 -28q89 0 89 99q0 41 -24.5 69.5t-64.5 28.5z" />
    <glyph glyph-name="macron" unicode="&#xaf;" horiz-adv-x="400" 
d="M97 676h205v-78h-205v78z" />
    <glyph glyph-name="degree" unicode="&#xb0;" horiz-adv-x="253" 
d="M127 658q48 0 78.5 -30.5t30.5 -81.5q0 -54 -32.5 -84t-76.5 -30q-50 0 -80 29.5t-30 81.5t32 83.5t78 31.5zM127 598q-47 0 -47 -54q0 -23 12.5 -37t34.5 -14q44 0 44 52q0 53 -44 53z" />
    <glyph glyph-name="plusminus" unicode="&#xb1;" horiz-adv-x="483" 
d="M203 511h79v-151h157v-77h-157v-151h-79v151h-160v77h160v151zM439 0h-396v77h396v-77z" />
    <glyph glyph-name="two.sups" unicode="&#xb2;" horiz-adv-x="246" 
d="M221 434h-203v8q-1 43 15.5 78.5t59.5 78.5l12.5 12.5t10.5 11t8.5 9t7.5 8t5.5 7t4.5 7t3 6t2.5 6.5t1 6.5t0.5 7.5q0 43 -29 43q-33 0 -33 -47v-15h-71v13q0 110 107 110q103 0 103 -105q0 -12 -2.5 -23.5t-5 -18.5t-11 -18t-11.5 -14.5t-16 -17t-17 -17.5l-16.5 -16.5
t-18 -18.5t-12.5 -17t-11 -22h128z" />
    <glyph glyph-name="three.sups" unicode="&#xb3;" horiz-adv-x="255" 
d="M13 539h75v-3q0 -47 37 -47q38 0 38 48q0 26 -11.5 36.5t-35.5 10.5h-24v64h22q22 0 30.5 9t8.5 28q0 38 -30 38q-33 0 -33 -43v-2h-71v2q0 47 26.5 75.5t79.5 28.5q52 0 77.5 -26.5t25.5 -67.5q0 -51 -43 -70q54 -23 54 -82q0 -49 -30 -78.5t-84 -29.5q-56 0 -84 29
t-28 75v5z" />
    <glyph glyph-name="acute" unicode="&#xb4;" horiz-adv-x="400" 
d="M220 706h115l-118 -134h-88z" />
    <glyph glyph-name="uni00B5" unicode="&#xb5;" 
d="M247 0q-4 17 -5 39q-13 -26 -27 -36.5t-40 -10.5q-33 0 -46 27q0 -18 5 -193h-97q0 46 2.5 171.5t3.5 180.5v340h103v-363q0 -71 43 -71q24 0 38 19.5t14 72.5v342h103v-367q0 -124 1 -151h-98z" />
    <glyph glyph-name="paragraph" unicode="&#xb6;" horiz-adv-x="383" 
d="M257 151h-56q-96 0 -138.5 47t-42.5 154v65q0 105 42 153.5t135 48.5h60q0 30 8 58h68q-2 -38 -2 -56v-740h-74v270zM257 230v311h-8q-29 0 -41.5 -13.5t-12.5 -56.5v-167q0 -46 12 -60t40 -14h10z" />
    <glyph glyph-name="periodcentered" unicode="&#xb7;" horiz-adv-x="174" 
d="M138 200h-103v148h103v-148z" />
    <glyph glyph-name="cedilla" unicode="&#xb8;" horiz-adv-x="400" 
d="M145 -47l27 51h71l-20 -33q64 -22 64 -75q0 -34 -25 -57t-71 -23q-45 0 -74 13l15 58q20 -9 44 -9q25 0 25 19q0 22 -56 32v24z" />
    <glyph glyph-name="one.sups" unicode="&#xb9;" horiz-adv-x="165" 
d="M129 434h-75v267q-14 -4 -39 0v53q37 4 58 29h56v-349z" />
    <glyph glyph-name="ordmasculine" unicode="&#xba;" horiz-adv-x="253" 
d="M128 627q48 0 76.5 -31.5t28.5 -90.5v-80q0 -127 -109 -127q-104 0 -104 125v85q0 56 28 87.5t80 31.5zM126 563q-33 0 -33 -51v-99q0 -51 34 -51q33 0 33 52v98q0 27 -7.5 39t-26.5 12z" />
    <glyph glyph-name="guillemotright" unicode="&#xbb;" horiz-adv-x="377" 
d="M174 102l90 159l-90 161h87l91 -161l-91 -159h-87zM26 102l90 159l-90 161h87l91 -161l-91 -159h-87z" />
    <glyph glyph-name="onequarter" unicode="&#xbc;" horiz-adv-x="498" 
d="M117 0h-62l291 650h62zM143 304h-75v267q-14 -4 -39 0v53q37 4 58 29h56v-349zM445 0h-70v84h-127v55l106 207h91v-200h36l-6 -62h-30v-84zM318 146h57v42q0 67 2 88h-1q-6 -18 -58 -130z" />
    <glyph glyph-name="onehalf" unicode="&#xbd;" horiz-adv-x="513" 
d="M99 0h-62l291 650h62zM128 304h-75v267q-14 -4 -39 0v53q37 4 58 29h56v-349zM476 0h-203v8q-1 43 15.5 78.5t59.5 78.5l12.5 12.5t10.5 11t8.5 9t7.5 8t5.5 7t4.5 7t3 6t2.5 6.5t1 6.5t0.5 7.5q0 43 -29 43q-33 0 -33 -47v-15h-71v13q0 110 107 110q103 0 103 -105
q0 -12 -2.5 -23.5t-5 -18.5t-11 -18t-11.5 -14.5t-16 -17t-17 -17.5l-16.5 -16.5t-18 -18.5t-12.5 -17t-11 -22h128z" />
    <glyph glyph-name="threequarters" unicode="&#xbe;" horiz-adv-x="551" 
d="M178 0h-62l291 650h62zM498 0h-70v84h-127v55l106 207h91v-200h36l-6 -62h-30v-84zM371 146h57v42q0 67 2 88h-1q-6 -18 -58 -130zM17 409h75v-3q0 -47 37 -47q38 0 38 48q0 26 -11.5 36.5t-35.5 10.5h-24v64h22q22 0 30.5 9t8.5 28q0 38 -30 38q-33 0 -33 -43v-2h-71v2
q0 47 26.5 75.5t79.5 28.5q52 0 77.5 -26.5t25.5 -67.5q0 -51 -43 -70q54 -23 54 -82q0 -49 -30 -78.5t-84 -29.5q-56 0 -84 29t-28 75v5z" />
    <glyph glyph-name="questiondown" unicode="&#xbf;" horiz-adv-x="330" 
d="M105 309h103v-21q0 -79 -50 -168q-39 -73 -39 -133q0 -35 7.5 -49.5t27.5 -14.5q38 0 38 71v27h95v-24q0 -75 -31.5 -115t-107.5 -40q-71 0 -101.5 38t-30.5 110q0 37 8 69.5t17.5 52.5t34.5 68q29 55 29 119v10zM105 518h103v-145h-103v145z" />
    <glyph glyph-name="Agrave" unicode="&#xc0;" horiz-adv-x="380" 
d="M238 179h-103l-23 -179h-105l108 668h145l112 -668h-108zM148 273h78q-26 188 -38 297h-4q-1 -32 -36 -297zM12 810h131l97 -101h-100z" />
    <glyph glyph-name="Aacute" unicode="&#xc1;" horiz-adv-x="380" 
d="M238 179h-103l-23 -179h-105l108 668h145l112 -668h-108zM148 273h78q-26 188 -38 297h-4q-1 -32 -36 -297zM232 813h127l-127 -101h-97z" />
    <glyph glyph-name="Acircumflex" unicode="&#xc2;" horiz-adv-x="380" 
d="M238 179h-103l-23 -179h-105l108 668h145l112 -668h-108zM148 273h78q-26 188 -38 297h-4q-1 -32 -36 -297zM131 803h114l86 -95h-105l-38 43l-37 -43h-105z" />
    <glyph glyph-name="Atilde" unicode="&#xc3;" horiz-adv-x="380" 
d="M238 179h-103l-23 -179h-105l108 668h145l112 -668h-108zM148 273h78q-26 188 -38 297h-4q-1 -32 -36 -297zM121 712h-62v19q0 86 70 86q25 0 62 -15t46 -15q18 0 18 21v10h63v-12q0 -52 -17 -73.5t-53 -21.5q-24 0 -60.5 14t-47.5 14q-19 0 -19 -20v-7z" />
    <glyph glyph-name="Adieresis" unicode="&#xc4;" horiz-adv-x="380" 
d="M238 179h-103l-23 -179h-105l108 668h145l112 -668h-108zM148 273h78q-26 188 -38 297h-4q-1 -32 -36 -297zM164 713h-90v103h90v-103zM305 713h-90v103h90v-103z" />
    <glyph glyph-name="Aring" unicode="&#xc5;" horiz-adv-x="380" 
d="M238 179h-103l-23 -179h-105l108 668h145l112 -668h-108zM148 273h78q-26 188 -38 297h-4q-1 -32 -36 -297zM188 700q-38 0 -61 23.5t-23 58.5q0 37 22 61t61 24q38 0 60.5 -23.5t22.5 -59.5q0 -37 -23 -60.5t-59 -23.5zM188 746q16 0 24.5 11t8.5 26q0 16 -9 27t-25 11
t-25 -10.5t-9 -26.5q0 -15 9 -26.5t26 -11.5z" />
    <glyph glyph-name="AE" unicode="&#xc6;" horiz-adv-x="514" 
d="M164 668h327v-96h-154v-175h146v-94h-146v-208h168l-13 -95h-258v213h-92l-54 -213h-102zM167 305h67v287h-2q-24 -124 -65 -287z" />
    <glyph glyph-name="Ccedilla" unicode="&#xc7;" horiz-adv-x="350" 
d="M231 200h104v-26q0 -25 -2 -44.5t-9 -44t-19 -42t-34.5 -31.5t-52.5 -19l-13 -22q64 -22 64 -75q0 -34 -25 -57t-71 -23q-45 0 -74 13l15 58q20 -9 44 -9q25 0 25 19q0 22 -56 32v24l21 39q-67 9 -92 54.5t-25 122.5v337q0 80 38 126t114 46q45 0 75.5 -14t46 -40
t21.5 -55t6 -67v-30h-103v42q0 35 -10.5 52.5t-36.5 17.5q-25 0 -35.5 -17t-10.5 -53v-353q0 -78 48 -78q26 0 36.5 20t10.5 59v38z" />
    <glyph glyph-name="Egrave" unicode="&#xc8;" horiz-adv-x="325" 
d="M294 400v-95h-147v-210h170l-13 -95h-260v668h258v-96h-155v-172h147zM5 814h131l97 -101h-100z" />
    <glyph glyph-name="Eacute" unicode="&#xc9;" horiz-adv-x="325" 
d="M294 400v-95h-147v-210h170l-13 -95h-260v668h258v-96h-155v-172h147zM217 810h127l-127 -101h-97z" />
    <glyph glyph-name="Ecircumflex" unicode="&#xca;" horiz-adv-x="325" 
d="M294 400v-95h-147v-210h170l-13 -95h-260v668h258v-96h-155v-172h147zM115 807h114l86 -95h-105l-38 43l-37 -43h-105z" />
    <glyph glyph-name="Edieresis" unicode="&#xcb;" horiz-adv-x="325" 
d="M294 400v-95h-147v-210h170l-13 -95h-260v668h258v-96h-155v-172h147zM149 718h-90v103h90v-103zM290 718h-90v103h90v-103z" />
    <glyph glyph-name="Igrave" unicode="&#xcc;" horiz-adv-x="194" 
d="M45 668h103v-668h-103v668zM-79 819h131l97 -101h-100z" />
    <glyph glyph-name="Iacute" unicode="&#xcd;" horiz-adv-x="194" 
d="M45 668h103v-668h-103v668zM142 819h127l-127 -101h-97z" />
    <glyph glyph-name="Icircumflex" unicode="&#xce;" horiz-adv-x="194" 
d="M45 668h103v-668h-103v668zM39 809h114l86 -95h-105l-38 43l-37 -43h-105z" />
    <glyph glyph-name="Idieresis" unicode="&#xcf;" horiz-adv-x="194" 
d="M45 668h103v-668h-103v668zM72 718h-90v103h90v-103zM213 718h-90v103h90v-103z" />
    <glyph glyph-name="Eth" unicode="&#xd0;" horiz-adv-x="406" 
d="M14 402h41v266h143q101 0 138.5 -48.5t37.5 -148.5v-257q0 -45 -5.5 -77.5t-22.5 -66.5t-54 -52t-94 -18h-143v315h-41v87zM158 579v-177h61v-87h-61v-227h33q47 0 62.5 27t15.5 85v279q0 52 -15.5 76t-62.5 24h-33z" />
    <glyph glyph-name="Ntilde" unicode="&#xd1;" horiz-adv-x="414" 
d="M141 0h-96v668h119l89 -341q4 -15 25 -118h1q-5 82 -5 285v174h95v-668h-115l-98 390q-5 21 -18 84h-1q4 -65 4 -291v-183zM139 719h-62v19q0 86 70 86q25 0 62 -15t46 -15q18 0 18 21v10h63v-12q0 -52 -17 -73.5t-53 -21.5q-24 0 -60.5 14t-47.5 14q-19 0 -19 -20v-7z
" />
    <glyph glyph-name="Ograve" unicode="&#xd2;" 
d="M195 678q77 0 119 -46.5t42 -140.5v-312q0 -96 -41.5 -142.5t-126.5 -46.5q-80 0 -118.5 46.5t-38.5 140.5v314q0 93 43.5 140t120.5 47zM193 584q-57 0 -57 -83v-336q0 -82 57 -82q58 0 58 83v336q0 82 -58 82zM26 819h131l97 -101h-100z" />
    <glyph glyph-name="Oacute" unicode="&#xd3;" 
d="M195 678q77 0 119 -46.5t42 -140.5v-312q0 -96 -41.5 -142.5t-126.5 -46.5q-80 0 -118.5 46.5t-38.5 140.5v314q0 93 43.5 140t120.5 47zM193 584q-57 0 -57 -83v-336q0 -82 57 -82q58 0 58 83v336q0 82 -58 82zM234 819h127l-127 -101h-97z" />
    <glyph glyph-name="Ocircumflex" unicode="&#xd4;" 
d="M195 678q77 0 119 -46.5t42 -140.5v-312q0 -96 -41.5 -142.5t-126.5 -46.5q-80 0 -118.5 46.5t-38.5 140.5v314q0 93 43.5 140t120.5 47zM193 584q-57 0 -57 -83v-336q0 -82 57 -82q58 0 58 83v336q0 82 -58 82zM135 809h114l86 -95h-105l-38 43l-37 -43h-105z" />
    <glyph glyph-name="Otilde" unicode="&#xd5;" 
d="M195 678q77 0 119 -46.5t42 -140.5v-312q0 -96 -41.5 -142.5t-126.5 -46.5q-80 0 -118.5 46.5t-38.5 140.5v314q0 93 43.5 140t120.5 47zM193 584q-57 0 -57 -83v-336q0 -82 57 -82q58 0 58 83v336q0 82 -58 82zM125 719h-62v19q0 86 70 86q25 0 62 -15t46 -15
q18 0 18 21v10h63v-12q0 -52 -17 -73.5t-53 -21.5q-24 0 -60.5 14t-47.5 14q-19 0 -19 -20v-7z" />
    <glyph glyph-name="Odieresis" unicode="&#xd6;" 
d="M195 678q77 0 119 -46.5t42 -140.5v-312q0 -96 -41.5 -142.5t-126.5 -46.5q-80 0 -118.5 46.5t-38.5 140.5v314q0 93 43.5 140t120.5 47zM193 584q-57 0 -57 -83v-336q0 -82 57 -82q58 0 58 83v336q0 82 -58 82zM168 718h-90v103h90v-103zM309 718h-90v103h90v-103z" />
    <glyph glyph-name="multiply" unicode="&#xd7;" horiz-adv-x="485" 
d="M439 397l-146 -149l146 -148l-51 -53l-145 149l-145 -149l-52 53l146 148l-146 149l50 51l146 -148l146 148z" />
    <glyph glyph-name="Oslash" unicode="&#xd8;" 
d="M85 0h-43l18 47q-29 45 -29 129v317q0 93 43.5 139t120.5 46q54 0 91 -22l4 12h45l-16 -42q37 -46 37 -134v-314q0 -96 -41 -142t-127 -46q-62 0 -97 25zM193 587q-61 0 -61 -79v-266l116 312q-15 33 -55 33zM192 80q63 0 63 83v291l-120 -321q10 -53 57 -53z" />
    <glyph glyph-name="Ugrave" unicode="&#xd9;" horiz-adv-x="399" 
d="M41 668h103v-508q0 -77 56 -77q54 0 54 77v508h103v-506q0 -172 -159 -172q-157 0 -157 172v506zM29 815h131l97 -101h-100z" />
    <glyph glyph-name="Uacute" unicode="&#xda;" horiz-adv-x="399" 
d="M41 668h103v-508q0 -77 56 -77q54 0 54 77v508h103v-506q0 -172 -159 -172q-157 0 -157 172v506zM239 814h127l-127 -101h-97z" />
    <glyph glyph-name="Ucircumflex" unicode="&#xdb;" horiz-adv-x="399" 
d="M41 668h103v-508q0 -77 56 -77q54 0 54 77v508h103v-506q0 -172 -159 -172q-157 0 -157 172v506zM141 809h114l86 -95h-105l-38 43l-37 -43h-105z" />
    <glyph glyph-name="Udieresis" unicode="&#xdc;" horiz-adv-x="399" 
d="M41 668h103v-508q0 -77 56 -77q54 0 54 77v508h103v-506q0 -172 -159 -172q-157 0 -157 172v506zM175 718h-90v103h90v-103zM316 718h-90v103h90v-103z" />
    <glyph glyph-name="Yacute" unicode="&#xdd;" horiz-adv-x="345" 
d="M223 0h-103v237q0 9 -3 22l-125 409h114q55 -220 68 -306h1q8 51 68 306h110l-128 -418q-2 -8 -2 -25v-225zM213 818h127l-127 -101h-97z" />
    <glyph glyph-name="Thorn" unicode="&#xde;" horiz-adv-x="371" 
d="M47 0v668h103v-119h44q79 0 118 -33.5t39 -128.5v-67q0 -97 -39 -138.5t-134 -41.5h-28v-140h-103zM150 458v-227h21q46 0 62 18t16 66v71q0 42 -15.5 57t-54.5 15h-29z" />
    <glyph glyph-name="germandbls" unicode="&#xdf;" horiz-adv-x="397" 
d="M145 533v-533h-103v532q0 92 46 131t117 39q155 0 155 -168v-47l-82 -103v-2l23 -34q43 -66 59 -104t16 -86q0 -70 -30 -118t-103 -48q-47 0 -79 18v90q30 -20 59 -20q50 0 50 64q0 53 -46 116l-29 38q-30 43 -29.5 68.5t32.5 67.5l59 77v19q0 37 -11.5 59t-44.5 22
q-59 0 -59 -78z" />
    <glyph glyph-name="agrave" unicode="&#xe0;" horiz-adv-x="360" 
d="M316 387v-281q0 -66 2 -106h-94q-2 10 -6 38q-26 -46 -86 -46q-55 0 -82 43t-27 107v9q0 162 179 162h12v66q0 33 -7 48t-29 15q-38 0 -38 -56v-8h-101v6q0 142 143 142q134 0 134 -139zM216 175v60h-17q-38 0 -58 -18.5t-20 -64.5v-8q0 -62 45 -62q27 0 38.5 21t11.5 72
zM29 707h118l80 -135h-82z" />
    <glyph glyph-name="aacute" unicode="&#xe1;" horiz-adv-x="360" 
d="M316 387v-281q0 -66 2 -106h-94q-2 10 -6 38q-26 -46 -86 -46q-55 0 -82 43t-27 107v9q0 162 179 162h12v66q0 33 -7 48t-29 15q-38 0 -38 -56v-8h-101v6q0 142 143 142q134 0 134 -139zM216 175v60h-17q-38 0 -58 -18.5t-20 -64.5v-8q0 -62 45 -62q27 0 38.5 21t11.5 72
zM203 706h115l-118 -134h-88z" />
    <glyph glyph-name="acircumflex" unicode="&#xe2;" horiz-adv-x="360" 
d="M316 387v-281q0 -66 2 -106h-94q-2 10 -6 38q-26 -46 -86 -46q-55 0 -82 43t-27 107v9q0 162 179 162h12v66q0 33 -7 48t-29 15q-38 0 -38 -56v-8h-101v6q0 142 143 142q134 0 134 -139zM216 175v60h-17q-38 0 -58 -18.5t-20 -64.5v-8q0 -62 45 -62q27 0 38.5 21t11.5 72
zM127 696h105l79 -112h-91l-40 56l-40 -56h-91z" />
    <glyph glyph-name="atilde" unicode="&#xe3;" horiz-adv-x="360" 
d="M316 387v-281q0 -66 2 -106h-94q-2 10 -6 38q-26 -46 -86 -46q-55 0 -82 43t-27 107v9q0 162 179 162h12v66q0 33 -7 48t-29 15q-38 0 -38 -56v-8h-101v6q0 142 143 142q134 0 134 -139zM216 175v60h-17q-38 0 -58 -18.5t-20 -64.5v-8q0 -62 45 -62q27 0 38.5 21t11.5 72
zM124 581h-64v30q0 76 63 76q25 0 59.5 -15t43.5 -15q6 0 8 4t2 21v5h63v-28q0 -81 -62 -81q-22 0 -56.5 16t-45.5 16t-11 -22v-7z" />
    <glyph glyph-name="adieresis" unicode="&#xe4;" horiz-adv-x="360" 
d="M316 387v-281q0 -66 2 -106h-94q-2 10 -6 38q-26 -46 -86 -46q-55 0 -82 43t-27 107v9q0 162 179 162h12v66q0 33 -7 48t-29 15q-38 0 -38 -56v-8h-101v6q0 142 143 142q134 0 134 -139zM216 175v60h-17q-38 0 -58 -18.5t-20 -64.5v-8q0 -62 45 -62q27 0 38.5 21t11.5 72
zM154 587h-89v110h89v-110zM295 587h-89v110h89v-110z" />
    <glyph glyph-name="aring" unicode="&#xe5;" horiz-adv-x="360" 
d="M316 387v-281q0 -66 2 -106h-94q-2 10 -6 38q-26 -46 -86 -46q-55 0 -82 43t-27 107v9q0 162 179 162h12v66q0 33 -7 48t-29 15q-38 0 -38 -56v-8h-101v6q0 142 143 142q134 0 134 -139zM216 175v60h-17q-38 0 -58 -18.5t-20 -64.5v-8q0 -62 45 -62q27 0 38.5 21t11.5 72
zM181 567q-38 0 -61 23.5t-23 58.5q0 37 22 61t61 24q38 0 60.5 -23.5t22.5 -59.5q0 -37 -23 -60.5t-59 -23.5zM181 613q16 0 24.5 11t8.5 26q0 16 -9 27t-25 11t-25 -10.5t-9 -26.5q0 -15 9 -26.5t26 -11.5z" />
    <glyph glyph-name="ae" unicode="&#xe6;" horiz-adv-x="531" 
d="M141 -8q-60 0 -89 44.5t-29 109.5v4q0 83 46.5 121t122.5 38h22v74q0 30 -7.5 44.5t-31.5 14.5q-37 0 -37 -57v-19h-101v6q0 72 29 113t108 41q76 0 101 -39q33 39 98 39q69 0 101 -45t32 -120v-129h-195v-76q0 -77 46 -77q25 0 33 19t9 54l1 8h104v-3q0 -27 -3 -49
t-12.5 -44.5t-25 -37.5t-42 -24.5t-61.5 -9.5q-80 0 -113 52q-12 -16 -20.5 -24.5t-31.5 -18t-54 -9.5zM216 186v46h-22q-73 0 -73 -79v-3q0 -68 48 -68q26 0 36.5 24.5t10.5 79.5zM312 309h92v64q0 36 -10 52.5t-35 16.5q-47 0 -47 -70v-63z" />
    <glyph glyph-name="ccedilla" unicode="&#xe7;" horiz-adv-x="333" 
d="M213 172h101v-7q0 -71 -22.5 -115t-82.5 -55l-13 -21q64 -22 64 -75q0 -34 -25 -57t-71 -23q-45 0 -74 13l15 58q19 -9 44 -9t25 19q0 22 -56 32v24l20 38q-63 10 -86 56.5t-23 128.5v177q0 170 146 170q45 0 75 -14.5t42.5 -40.5t17 -49t4.5 -52v-20h-101v22
q0 33 -8.5 50t-31.5 17q-41 0 -41 -68v-224q0 -68 41 -68q23 0 31.5 16.5t8.5 51.5v25z" />
    <glyph glyph-name="egrave" unicode="&#xe8;" horiz-adv-x="352" 
d="M326 231h-197v-76q0 -76 49 -76q28 0 37 20t9 54v2h100v-2q0 -161 -144 -161q-48 0 -79 13.5t-46 41t-20.5 57.5t-5.5 74v170q0 31 6 58.5t21 56.5t46.5 46t77.5 17q146 0 146 -177v-118zM130 312h97v53q0 38 -10.5 56t-37.5 18q-49 0 -49 -74v-53zM28 707h118l80 -135
h-82z" />
    <glyph glyph-name="eacute" unicode="&#xe9;" horiz-adv-x="352" 
d="M326 231h-197v-76q0 -76 49 -76q28 0 37 20t9 54v2h100v-2q0 -161 -144 -161q-48 0 -79 13.5t-46 41t-20.5 57.5t-5.5 74v170q0 31 6 58.5t21 56.5t46.5 46t77.5 17q146 0 146 -177v-118zM130 312h97v53q0 38 -10.5 56t-37.5 18q-49 0 -49 -74v-53zM213 706h115
l-118 -134h-88z" />
    <glyph glyph-name="ecircumflex" unicode="&#xea;" horiz-adv-x="352" 
d="M326 231h-197v-76q0 -76 49 -76q28 0 37 20t9 54v2h100v-2q0 -161 -144 -161q-48 0 -79 13.5t-46 41t-20.5 57.5t-5.5 74v170q0 31 6 58.5t21 56.5t46.5 46t77.5 17q146 0 146 -177v-118zM130 312h97v53q0 38 -10.5 56t-37.5 18q-49 0 -49 -74v-53zM127 696h105l79 -112
h-91l-40 56l-40 -56h-91z" />
    <glyph glyph-name="edieresis" unicode="&#xeb;" horiz-adv-x="352" 
d="M326 231h-197v-76q0 -76 49 -76q28 0 37 20t9 54v2h100v-2q0 -161 -144 -161q-48 0 -79 13.5t-46 41t-20.5 57.5t-5.5 74v170q0 31 6 58.5t21 56.5t46.5 46t77.5 17q146 0 146 -177v-118zM130 312h97v53q0 38 -10.5 56t-37.5 18q-49 0 -49 -74v-53zM149 587h-89v110h89
v-110zM290 587h-89v110h89v-110z" />
    <glyph glyph-name="igrave" unicode="&#xec;" horiz-adv-x="190" 
d="M43 0v518h103v-518h-103zM-59 707h118l80 -135h-82z" />
    <glyph glyph-name="iacute" unicode="&#xed;" horiz-adv-x="190" 
d="M43 0v518h103v-518h-103zM139 706h115l-118 -134h-88z" />
    <glyph glyph-name="icircumflex" unicode="&#xee;" horiz-adv-x="190" 
d="M43 0v518h103v-518h-103zM42 696h105l79 -112h-91l-40 56l-40 -56h-91z" />
    <glyph glyph-name="idieresis" unicode="&#xef;" horiz-adv-x="190" 
d="M43 0v518h103v-518h-103zM69 587h-89v110h89v-110zM210 587h-89v110h89v-110z" />
    <glyph glyph-name="eth" unicode="&#xf0;" horiz-adv-x="361" 
d="M67 620v82q100 -3 160 -49l66 47l26 -43l-55 -39q68 -84 68 -271v-162q0 -193 -154 -193q-45 0 -75.5 15t-46 43t-21.5 58.5t-6 69.5v125q0 185 139 185q38 0 50 -12q-5 52 -33 87l-80 -57l-26 43l67 47q-35 20 -79 24zM179 402q-28 0 -37.5 -20t-9.5 -57v-161
q0 -81 48 -81q29 0 39 20t10 64v157q0 42 -10.5 60t-39.5 18z" />
    <glyph glyph-name="ntilde" unicode="&#xf1;" horiz-adv-x="389" 
d="M43 0v358q0 136 -1 160h98q4 -24 4 -47q28 55 96 55q106 0 106 -136v-390h-103v370q0 63 -45 63q-28 0 -40 -19t-12 -71v-343h-103zM138 581h-64v30q0 76 63 76q25 0 59.5 -15t43.5 -15q6 0 8 4t2 21v5h63v-28q0 -81 -62 -81q-22 0 -56.5 16t-45.5 16t-11 -22v-7z" />
    <glyph glyph-name="ograve" unicode="&#xf2;" horiz-adv-x="361" 
d="M183 526q71 0 110 -43t39 -124v-199q0 -83 -39.5 -125.5t-112.5 -42.5q-151 0 -151 167v204q0 81 41.5 122t112.5 41zM181 434q-49 0 -49 -69v-210q0 -72 49 -72q48 0 48 74v208q0 69 -48 69zM32 707h118l80 -135h-82z" />
    <glyph glyph-name="oacute" unicode="&#xf3;" horiz-adv-x="361" 
d="M183 526q71 0 110 -43t39 -124v-199q0 -83 -39.5 -125.5t-112.5 -42.5q-151 0 -151 167v204q0 81 41.5 122t112.5 41zM181 434q-49 0 -49 -69v-210q0 -72 49 -72q48 0 48 74v208q0 69 -48 69zM210 706h115l-118 -134h-88z" />
    <glyph glyph-name="ocircumflex" unicode="&#xf4;" horiz-adv-x="361" 
d="M183 526q71 0 110 -43t39 -124v-199q0 -83 -39.5 -125.5t-112.5 -42.5q-151 0 -151 167v204q0 81 41.5 122t112.5 41zM181 434q-49 0 -49 -69v-210q0 -72 49 -72q48 0 48 74v208q0 69 -48 69zM128 696h105l79 -112h-91l-40 56l-40 -56h-91z" />
    <glyph glyph-name="otilde" unicode="&#xf5;" horiz-adv-x="361" 
d="M183 526q71 0 110 -43t39 -124v-199q0 -83 -39.5 -125.5t-112.5 -42.5q-151 0 -151 167v204q0 81 41.5 122t112.5 41zM181 434q-49 0 -49 -69v-210q0 -72 49 -72q48 0 48 74v208q0 69 -48 69zM125 581h-64v30q0 76 63 76q25 0 59.5 -15t43.5 -15q6 0 8 4t2 21v5h63v-28
q0 -81 -62 -81q-22 0 -56.5 16t-45.5 16t-11 -22v-7z" />
    <glyph glyph-name="odieresis" unicode="&#xf6;" horiz-adv-x="361" 
d="M183 526q71 0 110 -43t39 -124v-199q0 -83 -39.5 -125.5t-112.5 -42.5q-151 0 -151 167v204q0 81 41.5 122t112.5 41zM181 434q-49 0 -49 -69v-210q0 -72 49 -72q48 0 48 74v208q0 69 -48 69zM155 587h-89v110h89v-110zM296 587h-89v110h89v-110z" />
    <glyph glyph-name="divide" unicode="&#xf7;" horiz-adv-x="482" 
d="M282 345h-79v104h79v-104zM43 288h396v-77h-396v77zM282 51h-79v101h79v-101z" />
    <glyph glyph-name="oslash" unicode="&#xf8;" horiz-adv-x="361" 
d="M183 526q49 0 81 -20l6 13h42l-17 -39q37 -44 37 -130v-186q0 -83 -40 -127.5t-112 -44.5q-52 0 -87 23l-7 -16h-41l19 43q-35 44 -35 122v192q0 82 42 126t112 44zM181 438q-24 0 -38 -21t-14 -55v-169l94 218q-12 27 -42 27zM181 81q51 0 51 81v173l-96 -221
q12 -33 45 -33z" />
    <glyph glyph-name="ugrave" unicode="&#xf9;" 
d="M344 518v-367q0 -124 1 -151h-99q-4 22 -4 49q-23 -57 -96 -57q-103 0 -103 135v391h103v-365q0 -69 45 -69q26 0 38 20t12 69v345h103zM42 707h118l80 -135h-82z" />
    <glyph glyph-name="uacute" unicode="&#xfa;" 
d="M344 518v-367q0 -124 1 -151h-99q-4 22 -4 49q-23 -57 -96 -57q-103 0 -103 135v391h103v-365q0 -69 45 -69q26 0 38 20t12 69v345h103zM226 706h115l-118 -134h-88z" />
    <glyph glyph-name="ucircumflex" unicode="&#xfb;" 
d="M344 518v-367q0 -124 1 -151h-99q-4 22 -4 49q-23 -57 -96 -57q-103 0 -103 135v391h103v-365q0 -69 45 -69q26 0 38 20t12 69v345h103zM140 696h105l79 -112h-91l-40 56l-40 -56h-91z" />
    <glyph glyph-name="udieresis" unicode="&#xfc;" 
d="M344 518v-367q0 -124 1 -151h-99q-4 22 -4 49q-23 -57 -96 -57q-103 0 -103 135v391h103v-365q0 -69 45 -69q26 0 38 20t12 69v345h103zM167 587h-89v110h89v-110zM308 587h-89v110h89v-110z" />
    <glyph glyph-name="yacute" unicode="&#xfd;" horiz-adv-x="342" 
d="M3 518h110q54 -328 58 -395h3q4 40 12 89.5t23 140t27 165.5h103l-116 -543q-11 -53 -26.5 -86.5t-36.5 -47.5t-38 -18t-44 -4q-20 0 -48 4l2 92q18 -2 30 -2q26 0 39 13.5t19 52.5zM209 706h115l-118 -134h-88z" />
    <glyph glyph-name="thorn" unicode="&#xfe;" horiz-adv-x="374" 
d="M43 -174v871h103v-226q27 55 92 55q108 0 108 -163v-195q0 -176 -117 -176q-59 0 -83 45v-211h-103zM146 339v-152q0 -51 10.5 -77t39.5 -26q47 0 47 77v200q0 36 -9.5 54t-36.5 18q-29 0 -40 -23.5t-11 -70.5z" />
    <glyph glyph-name="ydieresis" unicode="&#xff;" horiz-adv-x="342" 
d="M3 518h110q54 -328 58 -395h3q4 40 12 89.5t23 140t27 165.5h103l-116 -543q-11 -53 -26.5 -86.5t-36.5 -47.5t-38 -18t-44 -4q-20 0 -48 4l2 92q18 -2 30 -2q26 0 39 13.5t19 52.5zM145 587h-89v110h89v-110zM286 587h-89v110h89v-110z" />
    <glyph glyph-name="Amacron" unicode="&#x100;" horiz-adv-x="380" 
d="M238 179h-103l-23 -179h-105l108 668h145l112 -668h-108zM148 273h78q-26 188 -38 297h-4q-1 -32 -36 -297zM77 798h225v-77h-225v77z" />
    <glyph glyph-name="amacron" unicode="&#x101;" horiz-adv-x="360" 
d="M316 387v-281q0 -66 2 -106h-94q-2 10 -6 38q-26 -46 -86 -46q-55 0 -82 43t-27 107v9q0 162 179 162h12v66q0 33 -7 48t-29 15q-38 0 -38 -56v-8h-101v6q0 142 143 142q134 0 134 -139zM216 175v60h-17q-38 0 -58 -18.5t-20 -64.5v-8q0 -62 45 -62q27 0 38.5 21t11.5 72
zM77 676h205v-78h-205v78z" />
    <glyph glyph-name="Abreve" unicode="&#x102;" horiz-adv-x="380" 
d="M238 179h-103l-23 -179h-105l108 668h145l112 -668h-108zM148 273h78q-26 188 -38 297h-4q-1 -32 -36 -297zM66 816h73q10 -40 51 -40q39 0 49 40h73q-20 -108 -124 -108q-57 0 -87.5 30.5t-34.5 77.5z" />
    <glyph glyph-name="abreve" unicode="&#x103;" horiz-adv-x="360" 
d="M316 387v-281q0 -66 2 -106h-94q-2 10 -6 38q-26 -46 -86 -46q-55 0 -82 43t-27 107v9q0 162 179 162h12v66q0 33 -7 48t-29 15q-38 0 -38 -56v-8h-101v6q0 142 143 142q134 0 134 -139zM216 175v60h-17q-38 0 -58 -18.5t-20 -64.5v-8q0 -62 45 -62q27 0 38.5 21t11.5 72
zM58 695h78q6 -42 45 -42q37 0 43 42h77q-4 -48 -34.5 -80.5t-87.5 -32.5t-87.5 33.5t-33.5 79.5z" />
    <glyph glyph-name="Aogonek" unicode="&#x104;" horiz-adv-x="380" 
d="M238 179h-103l-23 -179h-105l108 668h145l112 -668q-45 -35 -45 -69q0 -32 36 -32q19 0 30 5l9 -71q-23 -16 -77 -16q-44 0 -70 22.5t-26 63.5q0 53 52 97h-17zM148 273h78q-26 188 -38 297h-4q-1 -32 -36 -297z" />
    <glyph glyph-name="aogonek" unicode="&#x105;" horiz-adv-x="360" 
d="M316 387v-281q0 -66 2 -106h1q-45 -35 -45 -69q0 -32 36 -32q19 0 30 5l9 -71q-23 -16 -77 -16q-44 0 -70 22.5t-26 63.5q0 53 52 97h-4q-2 10 -6 38q-26 -46 -86 -46q-55 0 -82 43t-27 107v9q0 162 179 162h12v66q0 33 -7 48t-29 15q-38 0 -38 -56v-8h-101v6
q0 142 143 142q134 0 134 -139zM216 175v60h-17q-38 0 -58 -18.5t-20 -64.5v-8q0 -62 45 -62q27 0 38.5 21t11.5 72z" />
    <glyph glyph-name="Cacute" unicode="&#x106;" horiz-adv-x="350" 
d="M231 200h104v-26q0 -35 -4.5 -62t-19 -57.5t-47.5 -47.5t-83 -17q-86 0 -118 46.5t-32 132.5v337q0 80 38 126t114 46q45 0 75.5 -14t46 -40t21.5 -55t6 -67v-30h-103v42q0 35 -10.5 52.5t-36.5 17.5q-25 0 -35.5 -17t-10.5 -53v-353q0 -78 48 -78q26 0 36.5 20t10.5 59
v38zM216 819h127l-127 -101h-97z" />
    <glyph glyph-name="cacute" unicode="&#x107;" horiz-adv-x="333" 
d="M213 172h101v-7q0 -81 -30.5 -127t-113.5 -46t-112 48t-29 139v177q0 170 146 170q45 0 75 -14.5t42.5 -40.5t17 -49t4.5 -52v-20h-101v22q0 33 -8.5 50t-31.5 17q-41 0 -41 -68v-224q0 -68 41 -68q23 0 31.5 16.5t8.5 51.5v25zM204 706h115l-118 -134h-88z" />
    <glyph glyph-name="Ccircumflex" unicode="&#x108;" horiz-adv-x="350" 
d="M231 200h104v-26q0 -35 -4.5 -62t-19 -57.5t-47.5 -47.5t-83 -17q-86 0 -118 46.5t-32 132.5v337q0 80 38 126t114 46q45 0 75.5 -14t46 -40t21.5 -55t6 -67v-30h-103v42q0 35 -10.5 52.5t-36.5 17.5q-25 0 -35.5 -17t-10.5 -53v-353q0 -78 48 -78q26 0 36.5 20t10.5 59
v38zM126 809h114l86 -95h-105l-38 43l-37 -43h-105z" />
    <glyph glyph-name="ccircumflex" unicode="&#x109;" horiz-adv-x="333" 
d="M213 172h101v-7q0 -81 -30.5 -127t-113.5 -46t-112 48t-29 139v177q0 170 146 170q45 0 75 -14.5t42.5 -40.5t17 -49t4.5 -52v-20h-101v22q0 33 -8.5 50t-31.5 17q-41 0 -41 -68v-224q0 -68 41 -68q23 0 31.5 16.5t8.5 51.5v25zM123 696h105l79 -112h-91l-40 56l-40 -56
h-91z" />
    <glyph glyph-name="Cdotaccent" unicode="&#x10a;" horiz-adv-x="350" 
d="M231 200h104v-26q0 -35 -4.5 -62t-19 -57.5t-47.5 -47.5t-83 -17q-86 0 -118 46.5t-32 132.5v337q0 80 38 126t114 46q45 0 75.5 -14t46 -40t21.5 -55t6 -67v-30h-103v42q0 35 -10.5 52.5t-36.5 17.5q-25 0 -35.5 -17t-10.5 -53v-353q0 -78 48 -78q26 0 36.5 20t10.5 59
v38zM236 716h-102v110h102v-110z" />
    <glyph glyph-name="cdotaccent" unicode="&#x10b;" horiz-adv-x="333" 
d="M213 172h101v-7q0 -81 -30.5 -127t-113.5 -46t-112 48t-29 139v177q0 170 146 170q45 0 75 -14.5t42.5 -40.5t17 -49t4.5 -52v-20h-101v22q0 33 -8.5 50t-31.5 17q-41 0 -41 -68v-224q0 -68 41 -68q23 0 31.5 16.5t8.5 51.5v25zM226 587h-103v110h103v-110z" />
    <glyph glyph-name="Ccaron" unicode="&#x10c;" horiz-adv-x="350" 
d="M231 200h104v-26q0 -35 -4.5 -62t-19 -57.5t-47.5 -47.5t-83 -17q-86 0 -118 46.5t-32 132.5v337q0 80 38 126t114 46q45 0 75.5 -14t46 -40t21.5 -55t6 -67v-30h-103v42q0 35 -10.5 52.5t-36.5 17.5q-25 0 -35.5 -17t-10.5 -53v-353q0 -78 48 -78q26 0 36.5 20t10.5 59
v38zM240 716h-114l-86 95h106l38 -46l36 46h105z" />
    <glyph glyph-name="ccaron" unicode="&#x10d;" horiz-adv-x="333" 
d="M213 172h101v-7q0 -81 -30.5 -127t-113.5 -46t-112 48t-29 139v177q0 170 146 170q45 0 75 -14.5t42.5 -40.5t17 -49t4.5 -52v-20h-101v22q0 33 -8.5 50t-31.5 17q-41 0 -41 -68v-224q0 -68 41 -68q23 0 31.5 16.5t8.5 51.5v25zM224 578h-104l-79 112h91l40 -56l40 56h91
z" />
    <glyph glyph-name="Dcaron" unicode="&#x10e;" horiz-adv-x="396" 
d="M45 0v668h143q101 0 138.5 -48.5t37.5 -148.5v-257q0 -45 -5.5 -77.5t-22.5 -66.5t-54 -52t-94 -18h-143zM148 579v-491h33q47 0 62.5 27t15.5 85v279q0 52 -15.5 76t-62.5 24h-33zM245 715h-114l-86 95h106l38 -46l36 46h105z" />
    <glyph glyph-name="dcaron" unicode="&#x10f;" horiz-adv-x="412" 
d="M229 697h103v-553q0 -116 1 -144h-98q-4 26 -4 49q-28 -57 -91 -57q-65 0 -88 44.5t-23 129.5v203q0 72 29 114.5t90 42.5t81 -37v208zM132 363v-205q0 -38 10.5 -56t36.5 -18q29 0 39.5 24t10.5 73v159q0 48 -9.5 70.5t-39.5 22.5q-48 0 -48 -70zM363 697h70l-3 -228
h-64z" />
    <glyph glyph-name="Dcroat" unicode="&#x110;" horiz-adv-x="406" 
d="M14 402h41v266h143q101 0 138.5 -48.5t37.5 -148.5v-257q0 -45 -5.5 -77.5t-22.5 -66.5t-54 -52t-94 -18h-143v315h-41v87zM158 579v-177h61v-87h-61v-227h33q47 0 62.5 27t15.5 85v279q0 52 -15.5 76t-62.5 24h-33z" />
    <glyph glyph-name="dcroat" unicode="&#x111;" horiz-adv-x="375" 
d="M103 637h126v60h103v-60h52v-70h-52v-423q0 -116 1 -144h-98q-4 26 -4 49q-27 -57 -91 -57q-65 0 -88 46t-23 136v188q0 73 28.5 118.5t90.5 45.5q61 0 81 -37v78h-126v70zM132 363v-206q0 -73 48 -73q29 0 39 25.5t10 75.5v155q0 48 -9 70.5t-39 22.5q-49 0 -49 -70z
" />
    <glyph glyph-name="Emacron" unicode="&#x112;" horiz-adv-x="325" 
d="M294 400v-95h-147v-210h170l-13 -95h-260v668h258v-96h-155v-172h147zM60 802h225v-77h-225v77z" />
    <glyph glyph-name="emacron" unicode="&#x113;" horiz-adv-x="352" 
d="M326 231h-197v-76q0 -76 49 -76q28 0 37 20t9 54v2h100v-2q0 -161 -144 -161q-48 0 -79 13.5t-46 41t-20.5 57.5t-5.5 74v170q0 31 6 58.5t21 56.5t46.5 46t77.5 17q146 0 146 -177v-118zM130 312h97v53q0 38 -10.5 56t-37.5 18q-49 0 -49 -74v-53zM72 676h205v-78h-205
v78z" />
    <glyph glyph-name="Ebreve" unicode="&#x114;" horiz-adv-x="325" 
d="M294 400v-95h-147v-210h170l-13 -95h-260v668h258v-96h-155v-172h147zM49 820h73q10 -40 51 -40q39 0 49 40h73q-20 -108 -124 -108q-57 0 -87.5 30.5t-34.5 77.5z" />
    <glyph glyph-name="ebreve" unicode="&#x115;" horiz-adv-x="352" 
d="M326 231h-197v-76q0 -76 49 -76q28 0 37 20t9 54v2h100v-2q0 -161 -144 -161q-48 0 -79 13.5t-46 41t-20.5 57.5t-5.5 74v170q0 31 6 58.5t21 56.5t46.5 46t77.5 17q146 0 146 -177v-118zM130 312h97v53q0 38 -10.5 56t-37.5 18q-49 0 -49 -74v-53zM53 693h78
q6 -42 45 -42q37 0 43 42h77q-4 -48 -34.5 -80.5t-87.5 -32.5t-87.5 33.5t-33.5 79.5z" />
    <glyph glyph-name="Edotaccent" unicode="&#x116;" horiz-adv-x="325" 
d="M294 400v-95h-147v-210h170l-13 -95h-260v668h258v-96h-155v-172h147zM225 715h-102v110h102v-110z" />
    <glyph glyph-name="edotaccent" unicode="&#x117;" horiz-adv-x="352" 
d="M326 231h-197v-76q0 -76 49 -76q28 0 37 20t9 54v2h100v-2q0 -161 -144 -161q-48 0 -79 13.5t-46 41t-20.5 57.5t-5.5 74v170q0 31 6 58.5t21 56.5t46.5 46t77.5 17q146 0 146 -177v-118zM130 312h97v53q0 38 -10.5 56t-37.5 18q-49 0 -49 -74v-53zM226 587h-103v110h103
v-110z" />
    <glyph glyph-name="Eogonek" unicode="&#x118;" horiz-adv-x="325" 
d="M294 400v-95h-147v-210h170l-13 -95h-13q-45 -35 -45 -69q0 -32 36 -32q19 0 30 5l9 -71q-23 -16 -77 -16q-44 0 -70 22.5t-26 63.5q0 53 52 97h-156v668h258v-96h-155v-172h147z" />
    <glyph glyph-name="eogonek" unicode="&#x119;" horiz-adv-x="352" 
d="M326 231h-197v-76q0 -76 49 -76q28 0 37 20t9 54v2h100v-2q0 -118 -79 -150q-39 -33 -39 -64q0 -32 36 -32q19 0 30 5l9 -71q-23 -16 -77 -16q-44 0 -70 22.5t-26 63.5q0 44 37 83q-69 10 -92.5 56t-23.5 128v170q0 31 6 58.5t21 56.5t46.5 46t77.5 17q146 0 146 -177
v-118zM130 312h97v53q0 38 -10.5 56t-37.5 18q-49 0 -49 -74v-53z" />
    <glyph glyph-name="Ecaron" unicode="&#x11a;" horiz-adv-x="325" 
d="M294 400v-95h-147v-210h170l-13 -95h-260v668h258v-96h-155v-172h147zM231 715h-114l-86 95h106l38 -46l36 46h105z" />
    <glyph glyph-name="ecaron" unicode="&#x11b;" horiz-adv-x="352" 
d="M326 231h-197v-76q0 -76 49 -76q28 0 37 20t9 54v2h100v-2q0 -161 -144 -161q-48 0 -79 13.5t-46 41t-20.5 57.5t-5.5 74v170q0 31 6 58.5t21 56.5t46.5 46t77.5 17q146 0 146 -177v-118zM130 312h97v53q0 38 -10.5 56t-37.5 18q-49 0 -49 -74v-53zM232 578h-104l-79 112
h91l40 -56l40 56h91z" />
    <glyph glyph-name="Gcircumflex" unicode="&#x11c;" horiz-adv-x="386" 
d="M347 374v-374h-80q-3 14 -6 50q-25 -60 -100 -60q-70 0 -100 47t-30 138v313q0 190 159 190q155 0 155 -175v-22h-103v27q0 76 -53 76t-53 -79v-342q0 -82 53 -82q31 0 43 26t12 81v97h-58v89h161zM130 809h114l86 -95h-105l-38 43l-37 -43h-105z" />
    <glyph glyph-name="gcircumflex" unicode="&#x11d;" horiz-adv-x="375" 
d="M332 388v-359q0 -40 -2 -66.5t-11 -56.5t-25.5 -47.5t-46.5 -29t-73 -11.5q-144 0 -144 135v2h103v-2q0 -10 2.5 -19.5t13.5 -19.5t30 -10q30 0 40 22t10 76v56q-21 -47 -85 -47q-65 0 -90 43t-25 119v195q0 29 6 55t19.5 50t39 38.5t61.5 14.5q70 0 85 -54q0 24 5 46h89
q-2 -64 -2 -130zM132 362v-182q0 -79 46 -79q31 0 41 23t10 75v152q0 40 -8.5 61t-37.5 21q-51 0 -51 -71zM135 696h105l79 -112h-91l-40 56l-40 -56h-91z" />
    <glyph glyph-name="Gbreve" unicode="&#x11e;" horiz-adv-x="386" 
d="M347 374v-374h-80q-3 14 -6 50q-25 -60 -100 -60q-70 0 -100 47t-30 138v313q0 190 159 190q155 0 155 -175v-22h-103v27q0 76 -53 76t-53 -79v-342q0 -82 53 -82q31 0 43 26t12 81v97h-58v89h161zM61 820h73q10 -40 51 -40q39 0 49 40h73q-20 -108 -124 -108
q-57 0 -87.5 30.5t-34.5 77.5z" />
    <glyph glyph-name="gbreve" unicode="&#x11f;" horiz-adv-x="375" 
d="M332 388v-359q0 -40 -2 -66.5t-11 -56.5t-25.5 -47.5t-46.5 -29t-73 -11.5q-144 0 -144 135v2h103v-2q0 -10 2.5 -19.5t13.5 -19.5t30 -10q30 0 40 22t10 76v56q-21 -47 -85 -47q-65 0 -90 43t-25 119v195q0 29 6 55t19.5 50t39 38.5t61.5 14.5q70 0 85 -54q0 24 5 46h89
q-2 -64 -2 -130zM132 362v-182q0 -79 46 -79q31 0 41 23t10 75v152q0 40 -8.5 61t-37.5 21q-51 0 -51 -71zM66 695h78q6 -42 45 -42q37 0 43 42h77q-4 -48 -34.5 -80.5t-87.5 -32.5t-87.5 33.5t-33.5 79.5z" />
    <glyph glyph-name="Gdotaccent" unicode="&#x120;" horiz-adv-x="386" 
d="M347 374v-374h-80q-3 14 -6 50q-25 -60 -100 -60q-70 0 -100 47t-30 138v313q0 190 159 190q155 0 155 -175v-22h-103v27q0 76 -53 76t-53 -79v-342q0 -82 53 -82q31 0 43 26t12 81v97h-58v89h161zM244 715h-102v110h102v-110z" />
    <glyph glyph-name="gdotaccent" unicode="&#x121;" horiz-adv-x="375" 
d="M332 388v-359q0 -40 -2 -66.5t-11 -56.5t-25.5 -47.5t-46.5 -29t-73 -11.5q-144 0 -144 135v2h103v-2q0 -10 2.5 -19.5t13.5 -19.5t30 -10q30 0 40 22t10 76v56q-21 -47 -85 -47q-65 0 -90 43t-25 119v195q0 29 6 55t19.5 50t39 38.5t61.5 14.5q70 0 85 -54q0 24 5 46h89
q-2 -64 -2 -130zM132 362v-182q0 -79 46 -79q31 0 41 23t10 75v152q0 40 -8.5 61t-37.5 21q-51 0 -51 -71zM239 587h-103v110h103v-110z" />
    <glyph glyph-name="uni0122" unicode="&#x122;" horiz-adv-x="386" 
d="M347 374v-374h-80q-3 14 -6 50q-25 -60 -100 -60q-70 0 -100 47t-30 138v313q0 190 159 190q155 0 155 -175v-22h-103v27q0 76 -53 76t-53 -79v-342q0 -82 53 -82q31 0 43 26t12 81v97h-58v89h161zM195 -193h-80q34 74 36 149h98q-6 -97 -54 -149z" />
    <glyph glyph-name="uni0123" unicode="&#x123;" horiz-adv-x="375" 
d="M218 731h82q-46 -63 -67 -160h-91q9 46 31.5 93t44.5 67zM332 388v-359q0 -40 -2 -66.5t-11 -56.5t-25.5 -47.5t-46.5 -29t-73 -11.5q-144 0 -144 135v2h103v-2q0 -10 2.5 -19.5t13.5 -19.5t30 -10q30 0 40 22t10 76v56q-21 -47 -85 -47q-65 0 -90 43t-25 119v195
q0 29 6 55t19.5 50t39 38.5t61.5 14.5q70 0 85 -54q0 24 5 46h89q-2 -64 -2 -130zM132 362v-182q0 -79 46 -79q31 0 41 23t10 75v152q0 40 -8.5 61t-37.5 21q-51 0 -51 -71z" />
    <glyph glyph-name="Hcircumflex" unicode="&#x124;" horiz-adv-x="407" 
d="M45 0v668h103v-264h111v264h103v-668h-103v310h-111v-310h-103zM145 809h114l86 -95h-105l-38 43l-37 -43h-105z" />
    <glyph glyph-name="hcircumflex" unicode="&#x125;" horiz-adv-x="389" 
d="M38 819h114l88 -84h-100l-45 38l-45 -38h-101zM43 0v697h103v-222q27 51 96 51q104 0 104 -134v-392h-103v365q0 68 -45 68q-30 0 -41 -19.5t-11 -65.5v-348h-103z" />
    <glyph glyph-name="Hbar" unicode="&#x126;" horiz-adv-x="407" 
d="M10 564h35v104h103v-104h111v104h103v-104h35v-77h-35v-487h-103v310h-111v-310h-103v487h-35v77zM148 404h111v83h-111v-83z" />
    <glyph glyph-name="hbar" unicode="&#x127;" horiz-adv-x="389" 
d="M43 0v567h-58v70h58v60h103v-60h120v-70h-120v-92q27 51 96 51q104 0 104 -134v-392h-103v365q0 68 -45 68q-30 0 -41 -19.5t-11 -65.5v-348h-103z" />
    <glyph glyph-name="Itilde" unicode="&#x128;" horiz-adv-x="194" 
d="M45 668h103v-668h-103v668zM29 719h-62v19q0 86 70 86q25 0 62 -15t46 -15q18 0 18 21v10h63v-12q0 -52 -17 -73.5t-53 -21.5q-24 0 -60.5 14t-47.5 14q-19 0 -19 -20v-7z" />
    <glyph glyph-name="itilde" unicode="&#x129;" horiz-adv-x="190" 
d="M43 0v518h103v-518h-103zM39 581h-64v30q0 76 63 76q25 0 59.5 -15t43.5 -15q6 0 8 4t2 21v5h63v-28q0 -81 -62 -81q-22 0 -56.5 16t-45.5 16t-11 -22v-7z" />
    <glyph glyph-name="Imacron" unicode="&#x12a;" horiz-adv-x="194" 
d="M45 668h103v-668h-103v668zM-15 802h225v-77h-225v77z" />
    <glyph glyph-name="imacron" unicode="&#x12b;" horiz-adv-x="190" 
d="M43 0v518h103v-518h-103zM-8 676h205v-78h-205v78z" />
    <glyph glyph-name="Iogonek" unicode="&#x12e;" horiz-adv-x="194" 
d="M45 668h103v-668h1q-45 -35 -45 -69q0 -32 36 -32q19 0 30 5l9 -71q-23 -16 -77 -16q-44 0 -70 22.5t-26 63.5q0 53 52 97h-13v668z" />
    <glyph glyph-name="iogonek" unicode="&#x12f;" horiz-adv-x="190" 
d="M43 0v518h103v-518h1q-45 -35 -45 -69q0 -32 36 -32q19 0 30 5l9 -71q-23 -16 -77 -16q-44 0 -70 22.5t-26 63.5q0 53 52 97h-13zM44 587v110h103v-110h-103z" />
    <glyph glyph-name="Idotaccent" unicode="&#x130;" horiz-adv-x="194" 
d="M45 668h103v-668h-103v668zM148 715h-102v110h102v-110z" />
    <glyph glyph-name="dotlessi" unicode="&#x131;" horiz-adv-x="190" 
d="M43 0v518h103v-518h-103z" />
    <glyph glyph-name="Jcircumflex" unicode="&#x134;" horiz-adv-x="223" 
d="M183 668v-516q0 -31 -2 -51.5t-9.5 -43t-21 -35.5t-38 -21.5t-59.5 -8.5q-25 0 -53 5v87q18 -2 31 -2q28 0 38.5 11.5t10.5 46.5v528h103zM75 809h114l86 -95h-105l-38 43l-37 -43h-105z" />
    <glyph glyph-name="jcircumflex" unicode="&#x135;" horiz-adv-x="190" 
d="M44 518h103v-542q0 -35 -3.5 -58.5t-14.5 -48t-35.5 -36.5t-62.5 -12q-24 0 -46 3v92q11 -1 24 -1q20 0 27.5 9t7.5 37v557zM42 696h105l79 -112h-91l-40 56l-40 -56h-91z" />
    <glyph glyph-name="uni0136" unicode="&#x136;" horiz-adv-x="373" 
d="M45 0v668h101v-302h1q70 177 120 302h115l-122 -260l129 -408h-112l-87 301l-44 -90v-211h-101zM201 -183h-80q34 74 36 149h98q-6 -97 -54 -149z" />
    <glyph glyph-name="uni0137" unicode="&#x137;" horiz-adv-x="343" 
d="M145 697v-403h2q10 26 44.5 108t47.5 116h109q-19 -41 -54 -111t-41 -81l105 -326h-113l-64 226q-5 -9 -18 -35.5t-18 -35.5v-155h-102v697h102zM185 -193h-80q34 74 36 149h98q-6 -97 -54 -149z" />
    <glyph glyph-name="kgreenlandic" unicode="&#x138;" horiz-adv-x="343" 
d="M145 518v-226h2q16 38 92 226h109q-10 -20 -44 -90.5t-52 -106.5q19 -55 53.5 -160.5t52.5 -160.5h-114q-8 28 -29 105t-34 120q-2 -4 -36 -65v-160h-102v518h102z" />
    <glyph glyph-name="Lacute" unicode="&#x139;" horiz-adv-x="314" 
d="M45 0v668h103v-576h168l-9 -92h-262zM142 819h127l-127 -101h-97z" />
    <glyph glyph-name="lacute" unicode="&#x13a;" horiz-adv-x="189" 
d="M134 827h126l-122 -92h-93zM146 0h-103v697h103v-697z" />
    <glyph glyph-name="uni013B" unicode="&#x13b;" horiz-adv-x="314" 
d="M45 0v668h103v-576h168l-9 -92h-262zM171 -193h-80q34 74 36 149h98q-6 -97 -54 -149z" />
    <glyph glyph-name="uni013C" unicode="&#x13c;" horiz-adv-x="189" 
d="M146 0h-103v697h103v-697zM89 -193h-80q34 74 36 149h98q-6 -97 -54 -149z" />
    <glyph glyph-name="Lcaron" unicode="&#x13d;" horiz-adv-x="314" 
d="M45 0v668h103v-576h168l-9 -92h-262zM210 668h70l-3 -228h-64z" />
    <glyph glyph-name="lcaron" unicode="&#x13e;" horiz-adv-x="236" 
d="M146 0h-103v697h103v-697zM178 697h70l-3 -228h-64z" />
    <glyph glyph-name="Ldot" unicode="&#x13f;" horiz-adv-x="314" 
d="M293 310h-92v131h92v-131zM45 0v668h103v-576h168l-9 -92h-262z" />
    <glyph glyph-name="ldot" unicode="&#x140;" horiz-adv-x="259" 
d="M271 378h-94v140h94v-140zM146 0h-103v697h103v-697z" />
    <glyph glyph-name="Lslash" unicode="&#x141;" horiz-adv-x="324" 
d="M3 262v76l52 28v302h103v-245l86 47v-78l-86 -46v-254h168l-9 -92h-262v290z" />
    <glyph glyph-name="lslash" unicode="&#x142;" horiz-adv-x="199" 
d="M156 0h-103v345l-46 -30v85l46 30v267h103v-200l53 34v-84l-53 -35v-412z" />
    <glyph glyph-name="Nacute" unicode="&#x143;" horiz-adv-x="414" 
d="M141 0h-96v668h119l89 -341q4 -15 25 -118h1q-5 82 -5 285v174h95v-668h-115l-98 390q-5 21 -18 84h-1q4 -65 4 -291v-183zM248 818h127l-127 -101h-97z" />
    <glyph glyph-name="nacute" unicode="&#x144;" horiz-adv-x="389" 
d="M43 0v358q0 136 -1 160h98q4 -24 4 -47q28 55 96 55q106 0 106 -136v-390h-103v370q0 63 -45 63q-28 0 -40 -19t-12 -71v-343h-103zM229 706h115l-118 -134h-88z" />
    <glyph glyph-name="uni0145" unicode="&#x145;" horiz-adv-x="414" 
d="M141 0h-96v668h119l89 -341q4 -15 25 -118h1q-5 82 -5 285v174h95v-668h-115l-98 390q-5 21 -18 84h-1q4 -65 4 -291v-183zM209 -186h-80q34 74 36 149h98q-6 -97 -54 -149z" />
    <glyph glyph-name="uni0146" unicode="&#x146;" horiz-adv-x="389" 
d="M43 0v358q0 136 -1 160h98q4 -24 4 -47q28 55 96 55q106 0 106 -136v-390h-103v370q0 63 -45 63q-28 0 -40 -19t-12 -71v-343h-103zM193 -193h-80q34 74 36 149h98q-6 -97 -54 -149z" />
    <glyph glyph-name="Ncaron" unicode="&#x147;" horiz-adv-x="414" 
d="M141 0h-96v668h119l89 -341q4 -15 25 -118h1q-5 82 -5 285v174h95v-668h-115l-98 390q-5 21 -18 84h-1q4 -65 4 -291v-183zM264 714h-114l-86 95h106l38 -46l36 46h105z" />
    <glyph glyph-name="ncaron" unicode="&#x148;" horiz-adv-x="389" 
d="M43 0v358q0 136 -1 160h98q4 -24 4 -47q28 55 96 55q106 0 106 -136v-390h-103v370q0 63 -45 63q-28 0 -40 -19t-12 -71v-343h-103zM246 578h-104l-79 112h91l40 -56l40 56h91z" />
    <glyph glyph-name="napostrophe" unicode="&#x149;" horiz-adv-x="389" 
d="M83 570h-73q31 84 42 167h93q-19 -101 -62 -167zM43 0v358q0 136 -1 160h98q4 -24 4 -47q28 55 96 55q106 0 106 -136v-390h-103v370q0 63 -45 63q-28 0 -40 -19t-12 -71v-343h-103z" />
    <glyph glyph-name="Omacron" unicode="&#x14c;" 
d="M195 678q77 0 119 -46.5t42 -140.5v-312q0 -96 -41.5 -142.5t-126.5 -46.5q-80 0 -118.5 46.5t-38.5 140.5v314q0 93 43.5 140t120.5 47zM193 584q-57 0 -57 -83v-336q0 -82 57 -82q58 0 58 83v336q0 82 -58 82zM81 802h225v-77h-225v77z" />
    <glyph glyph-name="omacron" unicode="&#x14d;" horiz-adv-x="361" 
d="M183 526q71 0 110 -43t39 -124v-199q0 -83 -39.5 -125.5t-112.5 -42.5q-151 0 -151 167v204q0 81 41.5 122t112.5 41zM181 434q-49 0 -49 -69v-210q0 -72 49 -72q48 0 48 74v208q0 69 -48 69zM78 676h205v-78h-205v78z" />
    <glyph glyph-name="Ohungarumlaut" unicode="&#x150;" 
d="M195 678q77 0 119 -46.5t42 -140.5v-312q0 -96 -41.5 -142.5t-126.5 -46.5q-80 0 -118.5 46.5t-38.5 140.5v314q0 93 43.5 140t120.5 47zM193 584q-57 0 -57 -83v-336q0 -82 57 -82q58 0 58 83v336q0 82 -58 82zM130 823h101l-78 -103h-92zM276 823h102l-79 -103h-91z
" />
    <glyph glyph-name="ohungarumlaut" unicode="&#x151;" horiz-adv-x="361" 
d="M183 526q71 0 110 -43t39 -124v-199q0 -83 -39.5 -125.5t-112.5 -42.5q-151 0 -151 167v204q0 81 41.5 122t112.5 41zM181 434q-49 0 -49 -69v-210q0 -72 49 -72q48 0 48 74v208q0 69 -48 69zM222 697l-84 -126h-72l63 126h93zM362 697l-85 -126h-71l62 126h94z" />
    <glyph glyph-name="OE" unicode="&#x152;" horiz-adv-x="531" 
d="M509 668v-96h-154v-175h146v-94h-146v-208h168l-13 -95h-232q-3 0 -28 -1.5t-43 -1.5q-47 0 -80.5 11.5t-51.5 28.5t-28.5 45.5t-13 53.5t-2.5 61v281q0 41 7.5 72t26.5 60t58 44.5t96 15.5q15 0 44 -1t30 -1h216zM252 91v487q-14 2 -28 2q-48 0 -68 -23t-20 -87v-281
q0 -52 17 -76t65 -24q14 0 34 2z" />
    <glyph glyph-name="oe" unicode="&#x153;" horiz-adv-x="545" 
d="M370 -8q-66 0 -100 39q-37 -39 -97 -39q-144 0 -144 164v206q0 82 39.5 123t109.5 41q59 0 98 -41q36 41 100 41q143 0 143 -171v-124h-193v-82q0 -70 44 -70q27 0 36.5 17.5t10.5 51.5v22h100v-14q0 -37 -5 -63t-19.5 -50.5t-45 -37.5t-77.5 -13zM179 434q-47 0 -47 -70
v-208q0 -73 48 -73q26 0 36 17.5t10 57.5v207q0 34 -10 51.5t-37 17.5zM327 312h94v51q0 39 -11 57.5t-37 18.5q-25 0 -35.5 -17.5t-10.5 -58.5v-51z" />
    <glyph glyph-name="Racute" unicode="&#x154;" horiz-adv-x="375" 
d="M45 0v668h143q80 0 121 -37t41 -124v-25q0 -110 -68 -140q31 -15 46 -44t15 -93q0 -171 6 -205h-100q-7 35 -7 199q0 62 -13 81t-57 19h-24v-299h-103zM148 583v-199h24q41 0 57.5 19.5t16.5 73.5v23q0 43 -14 63t-55 20h-29zM227 819h127l-127 -101h-97z" />
    <glyph glyph-name="racute" unicode="&#x155;" horiz-adv-x="262" 
d="M257 525v-127q-53 0 -82 -24.5t-29 -96.5v-277h-103v342q0 150 -1 176h98q3 -30 3 -84q26 91 114 91zM173 706h115l-118 -134h-88z" />
    <glyph glyph-name="uni0156" unicode="&#x156;" horiz-adv-x="375" 
d="M45 0v668h143q80 0 121 -37t41 -124v-25q0 -110 -68 -140q31 -15 46 -44t15 -93q0 -171 6 -205h-100q-7 35 -7 199q0 62 -13 81t-57 19h-24v-299h-103zM148 583v-199h24q41 0 57.5 19.5t16.5 73.5v23q0 43 -14 63t-55 20h-29zM194 -185h-80q34 74 36 149h98
q-6 -97 -54 -149z" />
    <glyph glyph-name="uni0157" unicode="&#x157;" horiz-adv-x="262" 
d="M257 525v-127q-53 0 -82 -24.5t-29 -96.5v-277h-103v342q0 150 -1 176h98q3 -30 3 -84q26 91 114 91zM89 -193h-80q34 74 36 149h98q-6 -97 -54 -149z" />
    <glyph glyph-name="Rcaron" unicode="&#x158;" horiz-adv-x="375" 
d="M45 0v668h143q80 0 121 -37t41 -124v-25q0 -110 -68 -140q31 -15 46 -44t15 -93q0 -171 6 -205h-100q-7 35 -7 199q0 62 -13 81t-57 19h-24v-299h-103zM148 583v-199h24q41 0 57.5 19.5t16.5 73.5v23q0 43 -14 63t-55 20h-29zM244 715h-114l-86 95h106l38 -46l36 46h105z
" />
    <glyph glyph-name="rcaron" unicode="&#x159;" horiz-adv-x="262" 
d="M257 525v-127q-53 0 -82 -24.5t-29 -96.5v-277h-103v342q0 150 -1 176h98q3 -30 3 -84q26 91 114 91zM195 578h-104l-79 112h91l40 -56l40 56h91z" />
    <glyph glyph-name="Sacute" unicode="&#x15a;" horiz-adv-x="344" 
d="M13 197h103v-42q0 -77 54 -77q51 0 51 81q0 53 -16 80t-71 71q-62 49 -86.5 86.5t-24.5 105.5q0 177 148 177q142 0 142 -161v-36h-102v33q0 38 -9 56.5t-33 18.5q-43 0 -43 -73q0 -38 12.5 -60.5t55.5 -53.5q78 -57 104.5 -101.5t26.5 -126.5q0 -185 -158 -185
q-154 0 -154 167v40zM212 819h127l-127 -101h-97z" />
    <glyph glyph-name="sacute" unicode="&#x15b;" horiz-adv-x="327" 
d="M15 162h104v-24q0 -59 42 -59q40 0 40 51q0 28 -14 48.5t-58 48.5q-57 37 -81 71t-24 87q0 66 35 103.5t102 37.5q137 0 137 -149v-21h-100v32q0 51 -36 51t-36 -46q0 -22 11 -36t46 -36q70 -45 96 -81.5t26 -97.5q0 -150 -147 -150q-143 0 -143 147v23zM192 706h115
l-118 -134h-88z" />
    <glyph glyph-name="Scircumflex" unicode="&#x15c;" horiz-adv-x="344" 
d="M13 197h103v-42q0 -77 54 -77q51 0 51 81q0 53 -16 80t-71 71q-62 49 -86.5 86.5t-24.5 105.5q0 177 148 177q142 0 142 -161v-36h-102v33q0 38 -9 56.5t-33 18.5q-43 0 -43 -73q0 -38 12.5 -60.5t55.5 -53.5q78 -57 104.5 -101.5t26.5 -126.5q0 -185 -158 -185
q-154 0 -154 167v40zM114 809h114l86 -95h-105l-38 43l-37 -43h-105z" />
    <glyph glyph-name="scircumflex" unicode="&#x15d;" horiz-adv-x="327" 
d="M15 162h104v-24q0 -59 42 -59q40 0 40 51q0 28 -14 48.5t-58 48.5q-57 37 -81 71t-24 87q0 66 35 103.5t102 37.5q137 0 137 -149v-21h-100v32q0 51 -36 51t-36 -46q0 -22 11 -36t46 -36q70 -45 96 -81.5t26 -97.5q0 -150 -147 -150q-143 0 -143 147v23zM110 696h105
l79 -112h-91l-40 56l-40 -56h-91z" />
    <glyph glyph-name="uni015E" unicode="&#x15e;" horiz-adv-x="344" 
d="M13 197h103v-42q0 -77 54 -77q51 0 51 81q0 53 -16 80t-71 71q-62 49 -86.5 86.5t-24.5 105.5q0 177 148 177q142 0 142 -161v-36h-102v33q0 38 -9 56.5t-33 18.5q-43 0 -43 -73q0 -38 12.5 -60.5t55.5 -53.5q78 -57 104.5 -101.5t26.5 -126.5q0 -158 -116 -181l-14 -23
q64 -22 64 -75q0 -34 -25 -57t-71 -23q-45 0 -74 13l15 58q20 -9 44 -9q25 0 25 19q0 22 -56 32v24l20 39q-124 14 -124 165v40z" />
    <glyph glyph-name="uni015F" unicode="&#x15f;" horiz-adv-x="327" 
d="M15 162h104v-24q0 -59 42 -59q40 0 40 51q0 28 -14 48.5t-58 48.5q-57 37 -81 71t-24 87q0 66 35 103.5t102 37.5q137 0 137 -149v-21h-100v32q0 51 -36 51t-36 -46q0 -22 11 -36t46 -36q70 -45 96 -81.5t26 -97.5q0 -127 -105 -146l-15 -25q64 -22 64 -75q0 -34 -25 -57
t-71 -23q-45 0 -74 13l15 58q20 -9 44 -9q25 0 25 19q0 22 -56 32v24l22 41q-114 14 -114 145v23z" />
    <glyph glyph-name="Scaron" unicode="&#x160;" horiz-adv-x="344" 
d="M13 197h103v-42q0 -77 54 -77q51 0 51 81q0 53 -16 80t-71 71q-62 49 -86.5 86.5t-24.5 105.5q0 177 148 177q142 0 142 -161v-36h-102v33q0 38 -9 56.5t-33 18.5q-43 0 -43 -73q0 -38 12.5 -60.5t55.5 -53.5q78 -57 104.5 -101.5t26.5 -126.5q0 -185 -158 -185
q-154 0 -154 167v40zM229 715h-114l-86 95h106l38 -46l36 46h105z" />
    <glyph glyph-name="scaron" unicode="&#x161;" horiz-adv-x="327" 
d="M15 162h104v-24q0 -59 42 -59q40 0 40 51q0 28 -14 48.5t-58 48.5q-57 37 -81 71t-24 87q0 66 35 103.5t102 37.5q137 0 137 -149v-21h-100v32q0 51 -36 51t-36 -46q0 -22 11 -36t46 -36q70 -45 96 -81.5t26 -97.5q0 -150 -147 -150q-143 0 -143 147v23zM215 578h-104
l-79 112h91l40 -56l40 56h91z" />
    <glyph glyph-name="uni0162" unicode="&#x162;" horiz-adv-x="318" 
d="M107 0v572h-107v96h318v-96h-108v-572h-11l-18 -29q64 -22 64 -75q0 -34 -25 -57t-71 -23q-45 0 -74 13l15 58q20 -9 44 -9q25 0 25 19q0 22 -56 32v24l25 47h-21z" />
    <glyph glyph-name="uni0163" unicode="&#x163;" horiz-adv-x="228" 
d="M-2 427v91h55v124h103v-124h65v-91h-65v-306q0 -22 6.5 -33t27.5 -11q20 0 28 3v-77q-17 -9 -56 -11l-13 -21q64 -22 64 -75q0 -34 -25 -57t-71 -23q-45 0 -74 13l15 58q20 -9 44 -9q25 0 25 19q0 22 -56 32v24l26 49q-44 22 -44 101v324h-55z" />
    <glyph glyph-name="Tcaron" unicode="&#x164;" horiz-adv-x="318" 
d="M107 0v572h-107v96h318v-96h-108v-572h-103zM216 706h-114l-86 95h106l38 -46l36 46h105z" />
    <glyph glyph-name="tcaron" unicode="&#x165;" horiz-adv-x="228" 
d="M201 771h77l-4 -188h-70zM-2 427v91h55v124h103v-124h65v-91h-65v-306q0 -22 6.5 -33t27.5 -11q20 0 28 3v-77q-21 -11 -63 -11q-52 0 -77 23.5t-25 87.5v324h-55z" />
    <glyph glyph-name="Utilde" unicode="&#x168;" horiz-adv-x="399" 
d="M41 668h103v-508q0 -77 56 -77q54 0 54 77v508h103v-506q0 -172 -159 -172q-157 0 -157 172v506zM131 720h-62v19q0 86 70 86q25 0 62 -15t46 -15q18 0 18 21v10h63v-12q0 -52 -17 -73.5t-53 -21.5q-24 0 -60.5 14t-47.5 14q-19 0 -19 -20v-7z" />
    <glyph glyph-name="utilde" unicode="&#x169;" 
d="M344 518v-367q0 -124 1 -151h-99q-4 22 -4 49q-23 -57 -96 -57q-103 0 -103 135v391h103v-365q0 -69 45 -69q26 0 38 20t12 69v345h103zM137 581h-64v30q0 76 63 76q25 0 59.5 -15t43.5 -15q6 0 8 4t2 21v5h63v-28q0 -81 -62 -81q-22 0 -56.5 16t-45.5 16t-11 -22v-7z
" />
    <glyph glyph-name="Umacron" unicode="&#x16a;" horiz-adv-x="399" 
d="M41 668h103v-508q0 -77 56 -77q54 0 54 77v508h103v-506q0 -172 -159 -172q-157 0 -157 172v506zM87 802h225v-77h-225v77z" />
    <glyph glyph-name="umacron" unicode="&#x16b;" 
d="M344 518v-367q0 -124 1 -151h-99q-4 22 -4 49q-23 -57 -96 -57q-103 0 -103 135v391h103v-365q0 -69 45 -69q26 0 38 20t12 69v345h103zM90 676h205v-78h-205v78z" />
    <glyph glyph-name="Ubreve" unicode="&#x16c;" horiz-adv-x="399" 
d="M41 668h103v-508q0 -77 56 -77q54 0 54 77v508h103v-506q0 -172 -159 -172q-157 0 -157 172v506zM76 813h73q10 -40 51 -40q39 0 49 40h73q-20 -108 -124 -108q-57 0 -87.5 30.5t-34.5 77.5z" />
    <glyph glyph-name="ubreve" unicode="&#x16d;" 
d="M344 518v-367q0 -124 1 -151h-99q-4 22 -4 49q-23 -57 -96 -57q-103 0 -103 135v391h103v-365q0 -69 45 -69q26 0 38 20t12 69v345h103zM71 695h78q6 -42 45 -42q37 0 43 42h77q-4 -48 -34.5 -80.5t-87.5 -32.5t-87.5 33.5t-33.5 79.5z" />
    <glyph glyph-name="Uring" unicode="&#x16e;" horiz-adv-x="399" 
d="M41 668h103v-508q0 -77 56 -77q54 0 54 77v508h103v-506q0 -172 -159 -172q-157 0 -157 172v506zM198 701q-38 0 -61 23.5t-23 58.5q0 37 22 61t61 24q38 0 60.5 -23.5t22.5 -59.5q0 -37 -23 -60.5t-59 -23.5zM198 747q16 0 24.5 11t8.5 26q0 16 -9 27t-25 11t-25 -10.5
t-9 -26.5q0 -15 9 -26.5t26 -11.5z" />
    <glyph glyph-name="uring" unicode="&#x16f;" 
d="M344 518v-367q0 -124 1 -151h-99q-4 22 -4 49q-23 -57 -96 -57q-103 0 -103 135v391h103v-365q0 -69 45 -69q26 0 38 20t12 69v345h103zM194 567q-38 0 -61 23.5t-23 58.5q0 37 22 61t61 24q38 0 60.5 -23.5t22.5 -59.5q0 -37 -23 -60.5t-59 -23.5zM194 613q16 0 24.5 11
t8.5 26q0 16 -9 27t-25 11t-25 -10.5t-9 -26.5q0 -15 9 -26.5t26 -11.5z" />
    <glyph glyph-name="Uhungarumlaut" unicode="&#x170;" horiz-adv-x="399" 
d="M41 668h103v-508q0 -77 56 -77q54 0 54 77v508h103v-506q0 -172 -159 -172q-157 0 -157 172v506zM146 820h101l-78 -103h-92zM292 820h102l-79 -103h-91z" />
    <glyph glyph-name="uhungarumlaut" unicode="&#x171;" 
d="M344 518v-367q0 -124 1 -151h-99q-4 22 -4 49q-23 -57 -96 -57q-103 0 -103 135v391h103v-365q0 -69 45 -69q26 0 38 20t12 69v345h103zM241 697l-84 -126h-72l63 126h93zM381 697l-85 -126h-71l62 126h94z" />
    <glyph glyph-name="Uogonek" unicode="&#x172;" horiz-adv-x="399" 
d="M41 668h103v-508q0 -77 56 -77q54 0 54 77v508h103v-506q0 -126 -86 -160q-39 -33 -39 -64q0 -32 36 -32q19 0 30 5l9 -71q-23 -16 -77 -16q-44 0 -70 22.5t-26 63.5q0 42 36 82q-129 13 -129 170v506z" />
    <glyph glyph-name="uogonek" unicode="&#x173;" 
d="M344 518v-367q0 -124 1 -151q-45 -35 -45 -69q0 -32 36 -32q19 0 30 5l9 -71q-23 -16 -77 -16q-44 0 -70 22.5t-26 63.5q0 53 52 97h-8q-4 22 -4 49q-23 -57 -96 -57q-103 0 -103 135v391h103v-365q0 -69 45 -69q26 0 38 20t12 69v345h103z" />
    <glyph glyph-name="Wcircumflex" unicode="&#x174;" horiz-adv-x="545" 
d="M206 0h-104l-92 668h110q35 -333 41 -492h2q9 85 62 492h100q54 -407 61 -487h2q9 142 43 487h104l-98 -668h-105q-4 35 -27.5 210t-32.5 255h-2q-7 -62 -17.5 -141.5t-25.5 -179.5t-21 -144zM215 809h114l86 -95h-105l-38 43l-37 -43h-105z" />
    <glyph glyph-name="wcircumflex" unicode="&#x175;" horiz-adv-x="521" 
d="M4 518h110q37 -300 42 -373h1q3 28 9.5 69t21 128t28.5 176h95q11 -69 23.5 -144l18 -108t10 -66t6.5 -56h1q13 144 44 374h103l-99 -518h-99q-9 58 -23 134t-23 127.5t-12 85.5h-1q-3 -39 -61 -347h-101zM207 696h105l79 -112h-91l-40 56l-40 -56h-91z" />
    <glyph glyph-name="Ycircumflex" unicode="&#x176;" horiz-adv-x="345" 
d="M223 0h-103v237q0 9 -3 22l-125 409h114q55 -220 68 -306h1q8 51 68 306h110l-128 -418q-2 -8 -2 -25v-225zM114 809h114l86 -95h-105l-38 43l-37 -43h-105z" />
    <glyph glyph-name="ycircumflex" unicode="&#x177;" horiz-adv-x="342" 
d="M3 518h110q54 -328 58 -395h3q4 40 12 89.5t23 140t27 165.5h103l-116 -543q-11 -53 -26.5 -86.5t-36.5 -47.5t-38 -18t-44 -4q-20 0 -48 4l2 92q18 -2 30 -2q26 0 39 13.5t19 52.5zM118 696h105l79 -112h-91l-40 56l-40 -56h-91z" />
    <glyph glyph-name="Ydieresis" unicode="&#x178;" horiz-adv-x="345" 
d="M223 0h-103v237q0 9 -3 22l-125 409h114q55 -220 68 -306h1q8 51 68 306h110l-128 -418q-2 -8 -2 -25v-225zM147 718h-90v103h90v-103zM288 718h-90v103h90v-103z" />
    <glyph glyph-name="Zacute" unicode="&#x179;" horiz-adv-x="321" 
d="M11 0v68l187 504h-170v96h283v-81l-181 -492h187l-13 -95h-293zM212 816h127l-127 -101h-97z" />
    <glyph glyph-name="zacute" unicode="&#x17a;" horiz-adv-x="293" 
d="M6 0v71q4 8 66 144.5t96 208.5h-147v94h260v-73q-32 -82 -155 -351h158l-8 -94h-270zM193 706h115l-118 -134h-88z" />
    <glyph glyph-name="Zdotaccent" unicode="&#x17b;" horiz-adv-x="321" 
d="M11 0v68l187 504h-170v96h283v-81l-181 -492h187l-13 -95h-293zM221 715h-102v110h102v-110z" />
    <glyph glyph-name="zdotaccent" unicode="&#x17c;" horiz-adv-x="293" 
d="M6 0v71q4 8 66 144.5t96 208.5h-147v94h260v-73q-32 -82 -155 -351h158l-8 -94h-270zM199 587h-103v110h103v-110z" />
    <glyph glyph-name="Zcaron" unicode="&#x17d;" horiz-adv-x="321" 
d="M11 0v68l187 504h-170v96h283v-81l-181 -492h187l-13 -95h-293zM226 713h-114l-86 95h106l38 -46l36 46h105z" />
    <glyph glyph-name="zcaron" unicode="&#x17e;" horiz-adv-x="293" 
d="M6 0v71q4 8 66 144.5t96 208.5h-147v94h260v-73q-32 -82 -155 -351h158l-8 -94h-270zM206 578h-104l-79 112h91l40 -56l40 56h91z" />
    <glyph glyph-name="uni018F" unicode="&#x18f;" horiz-adv-x="388" 
d="M137 481h-106v9q0 188 164 188q83 0 121.5 -48.5t38.5 -145.5v-312q0 -182 -168 -182q-45 0 -77.5 15.5t-48.5 42.5t-23 56t-7 64v196h219v136q0 84 -56 84q-31 0 -44 -20.5t-13 -62.5v-20zM250 273h-115v-114q0 -77 57 -77q58 0 58 78v113z" />
    <glyph glyph-name="florin" unicode="&#x192;" horiz-adv-x="346" 
d="M342 655l-21 -84q-19 7 -39 7t-29 -16.5t-14 -54.5l-11 -84h71v-84h-82l-32 -253q-11 -91 -39 -129.5t-88 -38.5q-49 0 -75 17l18 89q16 -8 41 -11q19 1 25.5 13t11.5 47l37 266h-60v84h71l11 79q5 36 13 63t22 52.5t39 39t59 13.5q55 0 71 -15z" />
    <glyph glyph-name="Ohorn" unicode="&#x1a0;" 
d="M195 678q62 0 101 -30q14 11 14 38q0 16 -9 47h95q8 -24 8 -53q0 -80 -58 -108q10 -38 10 -81v-312q0 -96 -41.5 -142.5t-126.5 -46.5q-80 0 -118.5 46.5t-38.5 140.5v314q0 93 43.5 140t120.5 47zM193 584q-57 0 -57 -83v-336q0 -82 57 -82q58 0 58 83v336q0 82 -58 82z
" />
    <glyph glyph-name="ohorn" unicode="&#x1a1;" horiz-adv-x="361" 
d="M183 526q48 0 80 -19q18 8 18 40q0 16 -9 47h95q8 -24 8 -53q0 -76 -55 -106q12 -33 12 -76v-199q0 -83 -39.5 -125.5t-112.5 -42.5q-151 0 -151 167v204q0 81 41.5 122t112.5 41zM181 434q-49 0 -49 -69v-210q0 -72 49 -72q48 0 48 74v208q0 69 -48 69z" />
    <glyph glyph-name="Uhorn" unicode="&#x1af;" horiz-adv-x="399" 
d="M41 668h103v-508q0 -77 56 -77q54 0 54 77v508h43q29 6 29 44q0 16 -9 47h95q8 -24 8 -53q0 -83 -63 -110v-434q0 -172 -159 -172q-157 0 -157 172v506z" />
    <glyph glyph-name="uhorn" unicode="&#x1b0;" 
d="M242 49q-23 -57 -96 -57q-103 0 -103 135v391h103v-365q0 -69 45 -69q26 0 38 20t12 69v345h44q29 6 29 44q0 16 -9 47h95q8 -24 8 -53q0 -84 -64 -110v-295q0 -124 1 -151h-99q-4 22 -4 49z" />
    <glyph glyph-name="uni01CD" unicode="&#x1cd;" horiz-adv-x="380" 
d="M238 179h-103l-23 -179h-105l108 668h145l112 -668h-108zM148 273h78q-26 188 -38 297h-4q-1 -32 -36 -297zM246 712h-114l-86 95h106l38 -46l36 46h105z" />
    <glyph glyph-name="uni01CE" unicode="&#x1ce;" horiz-adv-x="360" 
d="M316 387v-281q0 -66 2 -106h-94q-2 10 -6 38q-26 -46 -86 -46q-55 0 -82 43t-27 107v9q0 162 179 162h12v66q0 33 -7 48t-29 15q-38 0 -38 -56v-8h-101v6q0 142 143 142q134 0 134 -139zM216 175v60h-17q-38 0 -58 -18.5t-20 -64.5v-8q0 -62 45 -62q27 0 38.5 21t11.5 72
zM232 578h-104l-79 112h91l40 -56l40 56h91z" />
    <glyph glyph-name="uni01CF" unicode="&#x1cf;" horiz-adv-x="194" 
d="M45 668h103v-668h-103v668zM154 715h-114l-86 95h106l38 -46l36 46h105z" />
    <glyph glyph-name="uni01D0" unicode="&#x1d0;" horiz-adv-x="190" 
d="M43 0v518h103v-518h-103zM147 578h-104l-79 112h91l40 -56l40 56h91z" />
    <glyph glyph-name="uni01D1" unicode="&#x1d1;" 
d="M195 678q77 0 119 -46.5t42 -140.5v-312q0 -96 -41.5 -142.5t-126.5 -46.5q-80 0 -118.5 46.5t-38.5 140.5v314q0 93 43.5 140t120.5 47zM193 584q-57 0 -57 -83v-336q0 -82 57 -82q58 0 58 83v336q0 82 -58 82zM250 715h-114l-86 95h106l38 -46l36 46h105z" />
    <glyph glyph-name="uni01D2" unicode="&#x1d2;" horiz-adv-x="361" 
d="M183 526q71 0 110 -43t39 -124v-199q0 -83 -39.5 -125.5t-112.5 -42.5q-151 0 -151 167v204q0 81 41.5 122t112.5 41zM181 434q-49 0 -49 -69v-210q0 -72 49 -72q48 0 48 74v208q0 69 -48 69zM233 578h-104l-79 112h91l40 -56l40 56h91z" />
    <glyph glyph-name="uni01D3" unicode="&#x1d3;" horiz-adv-x="399" 
d="M41 668h103v-508q0 -77 56 -77q54 0 54 77v508h103v-506q0 -172 -159 -172q-157 0 -157 172v506zM256 715h-114l-86 95h106l38 -46l36 46h105z" />
    <glyph glyph-name="uni01D4" unicode="&#x1d4;" 
d="M344 518v-367q0 -124 1 -151h-99q-4 22 -4 49q-23 -57 -96 -57q-103 0 -103 135v391h103v-365q0 -69 45 -69q26 0 38 20t12 69v345h103zM245 578h-104l-79 112h91l40 -56l40 56h91z" />
    <glyph glyph-name="uni01D5" unicode="&#x1d5;" horiz-adv-x="399" 
d="M41 668h103v-508q0 -77 56 -77q54 0 54 77v508h103v-506q0 -172 -159 -172q-157 0 -157 172v506zM306 832h-213v62h213v-62zM171 709h-78v86h78v-86zM306 709h-79v86h79v-86z" />
    <glyph glyph-name="uni01D6" unicode="&#x1d6;" 
d="M344 518v-367q0 -124 1 -151h-99q-4 22 -4 49q-23 -57 -96 -57q-103 0 -103 135v391h103v-365q0 -69 45 -69q26 0 38 20t12 69v345h103zM305 693h-222v71h222v-71zM166 565h-84v89h84v-89zM307 565h-86v89h86v-89z" />
    <glyph glyph-name="uni01D7" unicode="&#x1d7;" horiz-adv-x="399" 
d="M41 668h103v-508q0 -77 56 -77q54 0 54 77v508h103v-506q0 -172 -159 -172q-157 0 -157 172v506zM248 825h-110l80 76h122zM82 795h90v-87h-90v87zM316 708h-90v87h90v-87z" />
    <glyph glyph-name="uni01D8" unicode="&#x1d8;" 
d="M344 518v-367q0 -124 1 -151h-99q-4 22 -4 49q-23 -57 -96 -57q-103 0 -103 135v391h103v-365q0 -69 45 -69q26 0 38 20t12 69v345h103zM230 689h-102l65 88h125zM166 570h-85v90h85v-90zM306 570h-86v90h86v-90z" />
    <glyph glyph-name="uni01D9" unicode="&#x1d9;" horiz-adv-x="399" 
d="M41 668h103v-508q0 -77 56 -77q54 0 54 77v508h103v-506q0 -172 -159 -172q-157 0 -157 172v506zM235 821h-87l-83 87h90l38 -39l34 39h91zM172 708h-90v87h90v-87zM316 708h-90v87h90v-87z" />
    <glyph glyph-name="uni01DA" unicode="&#x1da;" 
d="M344 518v-367q0 -124 1 -151h-99q-4 22 -4 49q-23 -57 -96 -57q-103 0 -103 135v391h103v-365q0 -69 45 -69q26 0 38 20t12 69v345h103zM235 683h-87l-83 90h90l38 -43l34 43h91zM166 568h-85v89h85v-89zM306 568h-86v89h86v-89z" />
    <glyph glyph-name="uni01DB" unicode="&#x1db;" horiz-adv-x="399" 
d="M41 668h103v-508q0 -77 56 -77q54 0 54 77v508h103v-506q0 -172 -159 -172q-157 0 -157 172v506zM259 825h-108l-93 76h122zM82 795h90v-87h-90v87zM316 708h-90v87h90v-87z" />
    <glyph glyph-name="uni01DC" unicode="&#x1dc;" 
d="M344 518v-367q0 -124 1 -151h-99q-4 22 -4 49q-23 -57 -96 -57q-103 0 -103 135v391h103v-365q0 -69 45 -69q26 0 38 20t12 69v345h103zM247 689h-101l-89 88h125zM166 570h-85v90h85v-90zM306 570h-86v90h86v-90z" />
    <glyph glyph-name="Gcaron" unicode="&#x1e6;" horiz-adv-x="386" 
d="M347 374v-374h-80q-3 14 -6 50q-25 -60 -100 -60q-70 0 -100 47t-30 138v313q0 190 159 190q155 0 155 -175v-22h-103v27q0 76 -53 76t-53 -79v-342q0 -82 53 -82q31 0 43 26t12 81v97h-58v89h161zM250 715h-114l-86 95h106l38 -46l36 46h105z" />
    <glyph glyph-name="gcaron" unicode="&#x1e7;" horiz-adv-x="375" 
d="M332 388v-359q0 -40 -2 -66.5t-11 -56.5t-25.5 -47.5t-46.5 -29t-73 -11.5q-144 0 -144 135v2h103v-2q0 -10 2.5 -19.5t13.5 -19.5t30 -10q30 0 40 22t10 76v56q-21 -47 -85 -47q-65 0 -90 43t-25 119v195q0 29 6 55t19.5 50t39 38.5t61.5 14.5q70 0 85 -54q0 24 5 46h89
q-2 -64 -2 -130zM132 362v-182q0 -79 46 -79q31 0 41 23t10 75v152q0 40 -8.5 61t-37.5 21q-51 0 -51 -71zM240 578h-104l-79 112h91l40 -56l40 56h91z" />
    <glyph glyph-name="uni0218" unicode="&#x218;" horiz-adv-x="344" 
d="M13 197h103v-42q0 -77 54 -77q51 0 51 81q0 53 -16 80t-71 71q-62 49 -86.5 86.5t-24.5 105.5q0 177 148 177q142 0 142 -161v-36h-102v33q0 38 -9 56.5t-33 18.5q-43 0 -43 -73q0 -38 12.5 -60.5t55.5 -53.5q78 -57 104.5 -101.5t26.5 -126.5q0 -185 -158 -185
q-154 0 -154 167v40zM165 -193h-80q34 74 36 149h98q-6 -97 -54 -149z" />
    <glyph glyph-name="uni0219" unicode="&#x219;" horiz-adv-x="327" 
d="M15 162h104v-24q0 -59 42 -59q40 0 40 51q0 28 -14 48.5t-58 48.5q-57 37 -81 71t-24 87q0 66 35 103.5t102 37.5q137 0 137 -149v-21h-100v32q0 51 -36 51t-36 -46q0 -22 11 -36t46 -36q70 -45 96 -81.5t26 -97.5q0 -150 -147 -150q-143 0 -143 147v23zM166 -193h-80
q34 74 36 149h98q-6 -97 -54 -149z" />
    <glyph glyph-name="uni021A" unicode="&#x21a;" horiz-adv-x="318" 
d="M107 0v572h-107v96h318v-96h-108v-572h-103zM153 -191h-80q34 74 36 149h98q-6 -97 -54 -149z" />
    <glyph glyph-name="uni021B" unicode="&#x21b;" horiz-adv-x="228" 
d="M-2 427v91h55v124h103v-124h65v-91h-65v-306q0 -22 6.5 -33t27.5 -11q20 0 28 3v-77q-21 -11 -63 -11q-52 0 -77 23.5t-25 87.5v324h-55zM134 -193h-80q34 74 36 149h98q-6 -97 -54 -149z" />
    <glyph glyph-name="uni0237" unicode="&#x237;" horiz-adv-x="190" 
d="M44 518h103v-542q0 -35 -3.5 -58.5t-14.5 -48t-35.5 -36.5t-62.5 -12q-24 0 -46 3v92q11 -1 24 -1q20 0 27.5 9t7.5 37v557z" />
    <glyph glyph-name="uni0251" unicode="&#x251;" horiz-adv-x="375" 
d="M235 518h97v-374q0 -105 4 -144h-98q-7 23 -7 49q-27 -57 -91 -57q-65 0 -88 46t-23 136v188q0 73 28.5 118.5t90.5 45.5q61 0 81 -38zM132 363v-206q0 -73 48 -73q29 0 39 25t10 75v155q0 48 -9 71t-39 23q-49 0 -49 -70z" />
    <glyph glyph-name="uni0259" unicode="&#x259;" horiz-adv-x="351" 
d="M25 287h197v76q0 76 -49 76q-28 0 -37 -20t-9 -54v-2h-100v2q0 161 144 161q48 0 79 -13.5t46 -41t20.5 -57.5t5.5 -74v-170q0 -31 -6 -58.5t-21 -56.5t-46.5 -46t-77.5 -17q-146 0 -146 177v118zM221 206h-97v-53q0 -38 10.5 -56t37.5 -18q49 0 49 74v53z" />
    <glyph glyph-name="uni0261" unicode="&#x261;" horiz-adv-x="375" 
d="M332 388v-359q0 -40 -2 -66.5t-11 -56.5t-25.5 -47.5t-46.5 -29t-73 -11.5q-144 0 -144 135v2h103v-2q0 -10 2.5 -19.5t13.5 -19.5t30 -10q30 0 40 22t10 76v56q-21 -47 -85 -47q-65 0 -90 43t-25 119v195q0 29 6 55t19.5 50t39 38.5t61.5 14.5q70 0 85 -54q0 24 5 46h89
q-2 -64 -2 -130zM132 362v-182q0 -79 46 -79q31 0 41 23t10 75v152q0 40 -8.5 61t-37.5 21q-51 0 -51 -71z" />
    <glyph glyph-name="uni02BB" unicode="&#x2bb;" horiz-adv-x="325" 
d="M150 697h75q-31 -134 -31 -238h-94q2 66 18 135t32 103z" />
    <glyph glyph-name="uni02BC" unicode="&#x2bc;" horiz-adv-x="325" 
d="M176 459h-76q31 127 31 238h94q-1 -66 -17 -134.5t-32 -103.5z" />
    <glyph glyph-name="uni02BE" unicode="&#x2be;" horiz-adv-x="303" 
d="M100 669v59q50 0 76.5 -23t26.5 -60q0 -39 -26 -62.5t-77 -23.5v57q35 1 35 28q0 23 -35 25z" />
    <glyph glyph-name="uni02BF" unicode="&#x2bf;" horiz-adv-x="303" 
d="M203 618v-59q-51 0 -77 23t-26 61t26 61.5t77 23.5v-57q-36 -1 -36 -27q0 -24 36 -26z" />
    <glyph glyph-name="circumflex" unicode="&#x2c6;" horiz-adv-x="400" 
d="M147 696h105l79 -112h-91l-40 56l-40 -56h-91z" />
    <glyph glyph-name="caron" unicode="&#x2c7;" horiz-adv-x="400" 
d="M252 578h-104l-79 112h91l40 -56l40 56h91z" />
    <glyph glyph-name="uni02C8" unicode="&#x2c8;" horiz-adv-x="287" 
d="M187 595h-87v160h87v-160z" />
    <glyph glyph-name="uni02C9" unicode="&#x2c9;" horiz-adv-x="405" 
d="M100 676h205v-78h-205v78z" />
    <glyph glyph-name="uni02CA" unicode="&#x2ca;" horiz-adv-x="395" 
d="M195 706h115l-118 -134h-88z" />
    <glyph glyph-name="uni02CB" unicode="&#x2cb;" horiz-adv-x="396" 
d="M88 707h118l80 -135h-82z" />
    <glyph glyph-name="uni02CC" unicode="&#x2cc;" horiz-adv-x="287" 
d="M187 -205h-87v160h87v-160z" />
    <glyph glyph-name="breve" unicode="&#x2d8;" horiz-adv-x="400" 
d="M78 695h78q6 -42 45 -42q37 0 43 42h77q-4 -48 -34.5 -80.5t-87.5 -32.5t-87.5 33.5t-33.5 79.5z" />
    <glyph glyph-name="dotaccent" unicode="&#x2d9;" horiz-adv-x="400" 
d="M251 587h-103v110h103v-110z" />
    <glyph glyph-name="ring" unicode="&#x2da;" horiz-adv-x="400" 
d="M201 567q-38 0 -61 23.5t-23 58.5q0 37 22 61t61 24q38 0 60.5 -23.5t22.5 -59.5q0 -37 -23 -60.5t-59 -23.5zM201 613q16 0 24.5 11t8.5 26q0 16 -9 27t-25 11t-25 -10.5t-9 -26.5q0 -15 9 -26.5t26 -11.5z" />
    <glyph glyph-name="ogonek" unicode="&#x2db;" horiz-adv-x="400" 
d="M184 12l75 -12q-45 -35 -45 -69q0 -32 36 -32q19 0 30 5l9 -71q-23 -16 -77 -16q-44 0 -70 22.5t-26 63.5q0 62 68 109z" />
    <glyph glyph-name="tilde" unicode="&#x2dc;" horiz-adv-x="400" 
d="M144 581h-64v30q0 76 63 76q25 0 59.5 -15t43.5 -15q6 0 8 4t2 21v5h63v-28q0 -81 -62 -81q-22 0 -56.5 16t-45.5 16t-11 -22v-7z" />
    <glyph glyph-name="hungarumlaut" unicode="&#x2dd;" horiz-adv-x="400" 
d="M241 697l-84 -126h-72l63 126h93zM381 697l-85 -126h-71l62 126h94z" />
    <glyph glyph-name="uni0300" unicode="&#x300;" horiz-adv-x="0" 
d="M-111 707h118l80 -135h-82z" />
    <glyph glyph-name="uni0301" unicode="&#x301;" horiz-adv-x="0" 
d="M-1 706h115l-118 -134h-88z" />
    <glyph glyph-name="uni0302" unicode="&#x302;" horiz-adv-x="0" 
d="M-53 696h105l79 -112h-91l-40 56l-40 -56h-91z" />
    <glyph glyph-name="uni0303" unicode="&#x303;" horiz-adv-x="0" 
d="M-56 581h-64v30q0 76 63 76q25 0 59.5 -15t43.5 -15q6 0 8 4t2 21v5h63v-28q0 -81 -62 -81q-22 0 -56.5 16t-45.5 16t-11 -22v-7z" />
    <glyph glyph-name="uni0304" unicode="&#x304;" horiz-adv-x="0" 
d="M-103 676h205v-78h-205v78z" />
    <glyph glyph-name="uni0306" unicode="&#x306;" horiz-adv-x="0" 
d="M-122 695h78q6 -42 45 -42q37 0 43 42h77q-4 -48 -34.5 -80.5t-87.5 -32.5t-87.5 33.5t-33.5 79.5z" />
    <glyph glyph-name="uni0307" unicode="&#x307;" horiz-adv-x="0" 
d="M51 587h-103v110h103v-110z" />
    <glyph glyph-name="uni0308" unicode="&#x308;" horiz-adv-x="0" 
d="M-26 587h-89v110h89v-110zM115 587h-89v110h89v-110z" />
    <glyph glyph-name="uni0309" unicode="&#x309;" horiz-adv-x="0" 
d="M37 573h-81q37 38 37 60q0 23 -27 23q-14 0 -38 -12l-22 53q37 27 92 27q42 0 63 -19.5t21 -50.5q0 -45 -45 -81z" />
    <glyph glyph-name="uni030A" unicode="&#x30a;" horiz-adv-x="0" 
d="M1 567q-38 0 -61 23.5t-23 58.5q0 37 22 61t61 24q38 0 60.5 -23.5t22.5 -59.5q0 -37 -23 -60.5t-59 -23.5zM1 613q16 0 24.5 11t8.5 26q0 16 -9 27t-25 11t-25 -10.5t-9 -26.5q0 -15 9 -26.5t26 -11.5z" />
    <glyph glyph-name="uni030B" unicode="&#x30b;" horiz-adv-x="0" 
d="M21 697l-84 -126h-72l63 126h93zM161 697l-85 -126h-71l62 126h94z" />
    <glyph glyph-name="uni030C" unicode="&#x30c;" horiz-adv-x="0" 
d="M52 578h-104l-79 112h91l40 -56l40 56h91z" />
    <glyph glyph-name="uni031B" unicode="&#x31b;" horiz-adv-x="0" 
d="M-24 439l-38 79q29 6 29 44q0 16 -9 47h95q8 -24 8 -53q0 -97 -85 -117z" />
    <glyph glyph-name="uni0323" unicode="&#x323;" horiz-adv-x="0" 
d="M51 -160h-103v106h103v-106z" />
    <glyph glyph-name="uni0324" unicode="&#x324;" horiz-adv-x="0" 
d="M-26 -159h-89v110h89v-110zM115 -159h-89v110h89v-110z" />
    <glyph glyph-name="uni0326" unicode="&#x326;" horiz-adv-x="0" 
d="M12 -193h-80q34 74 36 149h98q-6 -97 -54 -149z" />
    <glyph glyph-name="uni0327" unicode="&#x327;" horiz-adv-x="0" 
d="M-55 -47l27 51h71l-20 -33q64 -22 64 -75q0 -34 -25 -57t-71 -23q-45 0 -74 13l15 58q20 -9 44 -9q25 0 25 19q0 22 -56 32v24z" />
    <glyph glyph-name="uni0328" unicode="&#x328;" horiz-adv-x="0" 
d="M-16 12l75 -12q-45 -35 -45 -69q0 -32 36 -32q19 0 30 5l9 -71q-23 -16 -77 -16q-44 0 -70 22.5t-26 63.5q0 62 68 109z" />
    <glyph glyph-name="uni032E" unicode="&#x32e;" horiz-adv-x="0" 
d="M-122 -39h78q6 -42 45 -42q37 0 43 42h77q-4 -48 -34.5 -80.5t-87.5 -32.5t-87.5 33.5t-33.5 79.5z" />
    <glyph glyph-name="uni0331" unicode="&#x331;" horiz-adv-x="0" 
d="M-103 -61h205v-78h-205v78z" />
    <glyph glyph-name="pi" unicode="&#x3c0;" horiz-adv-x="416" 
d="M245 0v424h-79v-424h-103v424q-43 0 -59 -2v92q32 4 147 4h250v-96h-55v-422h-101z" />
    <glyph glyph-name="uni1E0C" unicode="&#x1e0c;" horiz-adv-x="396" 
d="M45 0v668h143q101 0 138.5 -48.5t37.5 -148.5v-257q0 -45 -5.5 -77.5t-22.5 -66.5t-54 -52t-94 -18h-143zM148 579v-491h33q47 0 62.5 27t15.5 85v279q0 52 -15.5 76t-62.5 24h-33zM240 -160h-103v106h103v-106z" />
    <glyph glyph-name="uni1E0D" unicode="&#x1e0d;" horiz-adv-x="375" 
d="M229 697h103v-553q0 -116 1 -144h-98q-4 26 -4 49q-28 -57 -91 -57q-65 0 -88 44.5t-23 129.5v203q0 72 29 114.5t90 42.5t81 -37v208zM132 363v-205q0 -38 10.5 -56t36.5 -18q29 0 39.5 24t10.5 73v159q0 48 -9.5 70.5t-39.5 22.5q-48 0 -48 -70zM239 -160h-103v106h103
v-106z" />
    <glyph glyph-name="uni1E0E" unicode="&#x1e0e;" horiz-adv-x="396" 
d="M45 0v668h143q101 0 138.5 -48.5t37.5 -148.5v-257q0 -45 -5.5 -77.5t-22.5 -66.5t-54 -52t-94 -18h-143zM148 579v-491h33q47 0 62.5 27t15.5 85v279q0 52 -15.5 76t-62.5 24h-33zM78 -58h205v-78h-205v78z" />
    <glyph glyph-name="uni1E0F" unicode="&#x1e0f;" horiz-adv-x="375" 
d="M229 697h103v-553q0 -116 1 -144h-98q-4 26 -4 49q-28 -57 -91 -57q-65 0 -88 44.5t-23 129.5v203q0 72 29 114.5t90 42.5t81 -37v208zM132 363v-205q0 -38 10.5 -56t36.5 -18q29 0 39.5 24t10.5 73v159q0 48 -9.5 70.5t-39.5 22.5q-48 0 -48 -70zM85 -61h205v-78h-205
v78z" />
    <glyph glyph-name="uni1E20" unicode="&#x1e20;" horiz-adv-x="386" 
d="M347 374v-374h-80q-3 14 -6 50q-25 -60 -100 -60q-70 0 -100 47t-30 138v313q0 190 159 190q155 0 155 -175v-22h-103v27q0 76 -53 76t-53 -79v-342q0 -82 53 -82q31 0 43 26t12 81v97h-58v89h161zM81 802h225v-77h-225v77z" />
    <glyph glyph-name="uni1E21" unicode="&#x1e21;" horiz-adv-x="375" 
d="M332 388v-359q0 -40 -2 -66.5t-11 -56.5t-25.5 -47.5t-46.5 -29t-73 -11.5q-144 0 -144 135v2h103v-2q0 -10 2.5 -19.5t13.5 -19.5t30 -10q30 0 40 22t10 76v56q-21 -47 -85 -47q-65 0 -90 43t-25 119v195q0 29 6 55t19.5 50t39 38.5t61.5 14.5q70 0 85 -54q0 24 5 46h89
q-2 -64 -2 -130zM132 362v-182q0 -79 46 -79q31 0 41 23t10 75v152q0 40 -8.5 61t-37.5 21q-51 0 -51 -71zM85 676h205v-78h-205v78z" />
    <glyph glyph-name="uni1E24" unicode="&#x1e24;" horiz-adv-x="407" 
d="M45 0v668h103v-264h111v264h103v-668h-103v310h-111v-310h-103zM254 -159h-103v106h103v-106z" />
    <glyph glyph-name="uni1E25" unicode="&#x1e25;" horiz-adv-x="389" 
d="M43 0v697h103v-222q27 51 96 51q104 0 104 -134v-392h-103v365q0 68 -45 68q-30 0 -41 -19.5t-11 -65.5v-348h-103zM245 -160h-103v106h103v-106z" />
    <glyph glyph-name="uni1E2A" unicode="&#x1e2a;" horiz-adv-x="407" 
d="M45 0v668h103v-264h111v264h103v-668h-103v310h-111v-310h-103zM81 -39h78q6 -42 45 -42q37 0 43 42h77q-4 -48 -34.5 -80.5t-87.5 -32.5t-87.5 33.5t-33.5 79.5z" />
    <glyph glyph-name="uni1E2B" unicode="&#x1e2b;" horiz-adv-x="389" 
d="M43 0v697h103v-222q27 51 96 51q104 0 104 -134v-392h-103v365q0 68 -45 68q-30 0 -41 -19.5t-11 -65.5v-348h-103zM72 -40h78q6 -42 45 -42q37 0 43 42h77q-4 -48 -34.5 -80.5t-87.5 -32.5t-87.5 33.5t-33.5 79.5z" />
    <glyph glyph-name="uni1E36" unicode="&#x1e36;" horiz-adv-x="314" 
d="M45 0v668h103v-576h168l-9 -92h-262zM229 -159h-103v106h103v-106z" />
    <glyph glyph-name="uni1E37" unicode="&#x1e37;" horiz-adv-x="189" 
d="M146 0h-103v697h103v-697zM146 -160h-103v106h103v-106z" />
    <glyph glyph-name="uni1E38" unicode="&#x1e38;" horiz-adv-x="314" 
d="M45 0v668h103v-576h168l-9 -92h-262zM229 -159h-103v106h103v-106zM-15 801h225v-77h-225v77z" />
    <glyph glyph-name="uni1E39" unicode="&#x1e39;" horiz-adv-x="189" 
d="M146 0h-103v697h103v-697zM-8 825h205v-78h-205v78zM146 -160h-103v106h103v-106z" />
    <glyph glyph-name="uni1E3A" unicode="&#x1e3a;" horiz-adv-x="314" 
d="M45 0v668h103v-576h168l-9 -92h-262zM74 -61h205v-78h-205v78z" />
    <glyph glyph-name="uni1E3B" unicode="&#x1e3b;" horiz-adv-x="189" 
d="M146 0h-103v697h103v-697zM-8 -61h205v-78h-205v78z" />
    <glyph glyph-name="uni1E42" unicode="&#x1e42;" horiz-adv-x="529" 
d="M386 0v249q0 215 3 331h-1q-38 -294 -81 -580h-97q-32 254 -75 581h-2q6 -234 6 -344v-237h-94v668h154q47 -307 61 -454h1q5 42 17 116t30 178.5t27 159.5h149v-668h-98zM310 -159h-103v106h103v-106z" />
    <glyph glyph-name="uni1E43" unicode="&#x1e43;" horiz-adv-x="563" 
d="M43 0v368q0 126 -1 150h98q2 -11 4 -46q28 54 91 54t83 -56q36 56 99 56q103 0 103 -130v-396h-103v377q0 56 -39 56q-26 0 -35.5 -19t-9.5 -60v-354h-104v375q0 33 -9.5 45.5t-28.5 12.5q-26 0 -35.5 -18.5t-9.5 -58.5v-356h-103zM332 -160h-103v106h103v-106z" />
    <glyph glyph-name="uni1E44" unicode="&#x1e44;" horiz-adv-x="414" 
d="M141 0h-96v668h119l89 -341q4 -15 25 -118h1q-5 82 -5 285v174h95v-668h-115l-98 390q-5 21 -18 84h-1q4 -65 4 -291v-183zM258 715h-102v110h102v-110z" />
    <glyph glyph-name="uni1E45" unicode="&#x1e45;" horiz-adv-x="389" 
d="M43 0v358q0 136 -1 160h98q4 -24 4 -47q28 55 96 55q106 0 106 -136v-390h-103v370q0 63 -45 63q-28 0 -40 -19t-12 -71v-343h-103zM245 587h-103v110h103v-110z" />
    <glyph glyph-name="uni1E46" unicode="&#x1e46;" horiz-adv-x="414" 
d="M141 0h-96v668h119l89 -341q4 -15 25 -118h1q-5 82 -5 285v174h95v-668h-115l-98 390q-5 21 -18 84h-1q4 -65 4 -291v-183zM258 -150h-103v106h103v-106z" />
    <glyph glyph-name="uni1E47" unicode="&#x1e47;" horiz-adv-x="389" 
d="M43 0v358q0 136 -1 160h98q4 -24 4 -47q28 55 96 55q106 0 106 -136v-390h-103v370q0 63 -45 63q-28 0 -40 -19t-12 -71v-343h-103zM245 -160h-103v106h103v-106z" />
    <glyph glyph-name="uni1E48" unicode="&#x1e48;" horiz-adv-x="414" 
d="M141 0h-96v668h119l89 -341q4 -15 25 -118h1q-5 82 -5 285v174h95v-668h-115l-98 390q-5 21 -18 84h-1q4 -65 4 -291v-183zM104 -61h205v-78h-205v78z" />
    <glyph glyph-name="uni1E49" unicode="&#x1e49;" horiz-adv-x="389" 
d="M43 0v358q0 136 -1 160h98q4 -24 4 -47q28 55 96 55q106 0 106 -136v-390h-103v370q0 63 -45 63q-28 0 -40 -19t-12 -71v-343h-103zM91 -61h205v-78h-205v78z" />
    <glyph glyph-name="uni1E5A" unicode="&#x1e5a;" horiz-adv-x="375" 
d="M45 0v668h143q80 0 121 -37t41 -124v-25q0 -110 -68 -140q31 -15 46 -44t15 -93q0 -171 6 -205h-100q-7 35 -7 199q0 62 -13 81t-57 19h-24v-299h-103zM148 583v-199h24q41 0 57.5 19.5t16.5 73.5v23q0 43 -14 63t-55 20h-29zM248 -150h-103v106h103v-106z" />
    <glyph glyph-name="uni1E5B" unicode="&#x1e5b;" horiz-adv-x="262" 
d="M257 525v-127q-53 0 -82 -24.5t-29 -96.5v-277h-103v342q0 150 -1 176h98q3 -30 3 -84q26 91 114 91zM146 -160h-103v106h103v-106z" />
    <glyph glyph-name="uni1E5C" unicode="&#x1e5c;" horiz-adv-x="375" 
d="M45 0v668h143q80 0 121 -37t41 -124v-25q0 -110 -68 -140q31 -15 46 -44t15 -93q0 -171 6 -205h-100q-7 35 -7 199q0 62 -13 81t-57 19h-24v-299h-103zM148 583v-199h24q41 0 57.5 19.5t16.5 73.5v23q0 43 -14 63t-55 20h-29zM245 -150h-103v106h103v-106zM75 802h225
v-77h-225v77z" />
    <glyph glyph-name="uni1E5D" unicode="&#x1e5d;" horiz-adv-x="262" 
d="M257 525v-127q-53 0 -82 -24.5t-29 -96.5v-277h-103v342q0 150 -1 176h98q3 -30 3 -84q26 91 114 91zM42 676h205v-78h-205v78zM146 -160h-103v106h103v-106z" />
    <glyph glyph-name="uni1E5E" unicode="&#x1e5e;" horiz-adv-x="375" 
d="M45 0v668h143q80 0 121 -37t41 -124v-25q0 -110 -68 -140q31 -15 46 -44t15 -93q0 -171 6 -205h-100q-7 35 -7 199q0 62 -13 81t-57 19h-24v-299h-103zM148 583v-199h24q41 0 57.5 19.5t16.5 73.5v23q0 43 -14 63t-55 20h-29zM85 -61h205v-78h-205v78z" />
    <glyph glyph-name="uni1E5F" unicode="&#x1e5f;" horiz-adv-x="262" 
d="M257 525v-127q-53 0 -82 -24.5t-29 -96.5v-277h-103v342q0 150 -1 176h98q3 -30 3 -84q26 91 114 91zM-7 -61h205v-78h-205v78z" />
    <glyph glyph-name="uni1E60" unicode="&#x1e60;" horiz-adv-x="344" 
d="M13 197h103v-42q0 -77 54 -77q51 0 51 81q0 53 -16 80t-71 71q-62 49 -86.5 86.5t-24.5 105.5q0 177 148 177q142 0 142 -161v-36h-102v33q0 38 -9 56.5t-33 18.5q-43 0 -43 -73q0 -38 12.5 -60.5t55.5 -53.5q78 -57 104.5 -101.5t26.5 -126.5q0 -185 -158 -185
q-154 0 -154 167v40zM223 715h-102v110h102v-110z" />
    <glyph glyph-name="uni1E61" unicode="&#x1e61;" horiz-adv-x="327" 
d="M15 162h104v-24q0 -59 42 -59q40 0 40 51q0 28 -14 48.5t-58 48.5q-57 37 -81 71t-24 87q0 66 35 103.5t102 37.5q137 0 137 -149v-21h-100v32q0 51 -36 51t-36 -46q0 -22 11 -36t46 -36q70 -45 96 -81.5t26 -97.5q0 -150 -147 -150q-143 0 -143 147v23zM214 587h-103
v110h103v-110z" />
    <glyph glyph-name="uni1E62" unicode="&#x1e62;" horiz-adv-x="344" 
d="M13 197h103v-42q0 -77 54 -77q51 0 51 81q0 53 -16 80t-71 71q-62 49 -86.5 86.5t-24.5 105.5q0 177 148 177q142 0 142 -161v-36h-102v33q0 38 -9 56.5t-33 18.5q-43 0 -43 -73q0 -38 12.5 -60.5t55.5 -53.5q78 -57 104.5 -101.5t26.5 -126.5q0 -185 -158 -185
q-154 0 -154 167v40zM223 -160h-103v106h103v-106z" />
    <glyph glyph-name="uni1E63" unicode="&#x1e63;" horiz-adv-x="327" 
d="M15 162h104v-24q0 -59 42 -59q40 0 40 51q0 28 -14 48.5t-58 48.5q-57 37 -81 71t-24 87q0 66 35 103.5t102 37.5q137 0 137 -149v-21h-100v32q0 51 -36 51t-36 -46q0 -22 11 -36t46 -36q70 -45 96 -81.5t26 -97.5q0 -150 -147 -150q-143 0 -143 147v23zM214 -160h-103
v106h103v-106z" />
    <glyph glyph-name="uni1E6C" unicode="&#x1e6c;" horiz-adv-x="318" 
d="M107 0v572h-107v96h318v-96h-108v-572h-103zM210 -160h-103v106h103v-106z" />
    <glyph glyph-name="uni1E6D" unicode="&#x1e6d;" horiz-adv-x="228" 
d="M-2 427v91h55v124h103v-124h65v-91h-65v-306q0 -22 6.5 -33t27.5 -11q20 0 28 3v-77q-21 -11 -63 -11q-52 0 -77 23.5t-25 87.5v324h-55zM176 -160h-103v106h103v-106z" />
    <glyph glyph-name="uni1E6E" unicode="&#x1e6e;" horiz-adv-x="318" 
d="M107 0v572h-107v96h318v-96h-108v-572h-103zM56 -61h205v-78h-205v78z" />
    <glyph glyph-name="uni1E6F" unicode="&#x1e6f;" horiz-adv-x="228" 
d="M-2 427v91h55v124h103v-124h65v-91h-65v-306q0 -22 6.5 -33t27.5 -11q20 0 28 3v-77q-21 -11 -63 -11q-52 0 -77 23.5t-25 87.5v324h-55zM31 -61h205v-78h-205v78z" />
    <glyph glyph-name="Wgrave" unicode="&#x1e80;" horiz-adv-x="545" 
d="M206 0h-104l-92 668h110q35 -333 41 -492h2q9 85 62 492h100q54 -407 61 -487h2q9 142 43 487h104l-98 -668h-105q-4 35 -27.5 210t-32.5 255h-2q-7 -62 -17.5 -141.5t-25.5 -179.5t-21 -144zM100 819h131l97 -101h-100z" />
    <glyph glyph-name="wgrave" unicode="&#x1e81;" horiz-adv-x="521" 
d="M4 518h110q37 -300 42 -373h1q3 28 9.5 69t21 128t28.5 176h95q11 -69 23.5 -144l18 -108t10 -66t6.5 -56h1q13 144 44 374h103l-99 -518h-99q-9 58 -23 134t-23 127.5t-12 85.5h-1q-3 -39 -61 -347h-101zM109 707h118l80 -135h-82z" />
    <glyph glyph-name="Wacute" unicode="&#x1e82;" horiz-adv-x="545" 
d="M206 0h-104l-92 668h110q35 -333 41 -492h2q9 85 62 492h100q54 -407 61 -487h2q9 142 43 487h104l-98 -668h-105q-4 35 -27.5 210t-32.5 255h-2q-7 -62 -17.5 -141.5t-25.5 -179.5t-21 -144zM320 819h127l-127 -101h-97z" />
    <glyph glyph-name="wacute" unicode="&#x1e83;" horiz-adv-x="521" 
d="M4 518h110q37 -300 42 -373h1q3 28 9.5 69t21 128t28.5 176h95q11 -69 23.5 -144l18 -108t10 -66t6.5 -56h1q13 144 44 374h103l-99 -518h-99q-9 58 -23 134t-23 127.5t-12 85.5h-1q-3 -39 -61 -347h-101zM308 706h115l-118 -134h-88z" />
    <glyph glyph-name="Wdieresis" unicode="&#x1e84;" horiz-adv-x="545" 
d="M206 0h-104l-92 668h110q35 -333 41 -492h2q9 85 62 492h100q54 -407 61 -487h2q9 142 43 487h104l-98 -668h-105q-4 35 -27.5 210t-32.5 255h-2q-7 -62 -17.5 -141.5t-25.5 -179.5t-21 -144zM248 718h-90v103h90v-103zM389 718h-90v103h90v-103z" />
    <glyph glyph-name="wdieresis" unicode="&#x1e85;" horiz-adv-x="521" 
d="M4 518h110q37 -300 42 -373h1q3 28 9.5 69t21 128t28.5 176h95q11 -69 23.5 -144l18 -108t10 -66t6.5 -56h1q13 144 44 374h103l-99 -518h-99q-9 58 -23 134t-23 127.5t-12 85.5h-1q-3 -39 -61 -347h-101zM234 587h-89v110h89v-110zM375 587h-89v110h89v-110z" />
    <glyph glyph-name="uni1E8E" unicode="&#x1e8e;" horiz-adv-x="345" 
d="M223 0h-103v237q0 9 -3 22l-125 409h114q55 -220 68 -306h1q8 51 68 306h110l-128 -418q-2 -8 -2 -25v-225zM223 715h-102v110h102v-110z" />
    <glyph glyph-name="uni1E8F" unicode="&#x1e8f;" horiz-adv-x="342" 
d="M3 518h110q54 -328 58 -395h3q4 40 12 89.5t23 140t27 165.5h103l-116 -543q-11 -53 -26.5 -86.5t-36.5 -47.5t-38 -18t-44 -4q-20 0 -48 4l2 92q18 -2 30 -2q26 0 39 13.5t19 52.5zM222 587h-103v110h103v-110z" />
    <glyph glyph-name="uni1E92" unicode="&#x1e92;" horiz-adv-x="321" 
d="M11 0v68l187 504h-170v96h283v-81l-181 -492h187l-13 -95h-293zM212 -160h-103v106h103v-106z" />
    <glyph glyph-name="uni1E93" unicode="&#x1e93;" horiz-adv-x="293" 
d="M6 0v71q4 8 66 144.5t96 208.5h-147v94h260v-73q-32 -82 -155 -351h158l-8 -94h-270zM199 -160h-103v106h103v-106z" />
    <glyph glyph-name="uni1E97" unicode="&#x1e97;" horiz-adv-x="228" 
d="M-2 427v91h55v124h103v-124h65v-91h-65v-306q0 -22 6.5 -33t27.5 -11q20 0 28 3v-77q-21 -11 -63 -11q-52 0 -77 23.5t-25 87.5v324h-55zM79 677h-89v110h89v-110zM220 677h-89v110h89v-110z" />
    <glyph glyph-name="uni1E9E" unicode="&#x1e9e;" horiz-adv-x="424" 
d="M150 510v-510h-103v509q0 169 170 169q165 0 165 -168v-38l-92 -102v-1l36 -42q44 -54 61 -90.5t17 -84.5q0 -160 -141 -160q-51 0 -86 19v91q39 -25 70 -25q27 0 41 14.5t14 51.5q0 49 -48 103l-57 65q-39 46 0 88l87 98v16q0 79 -66 79q-68 0 -68 -82z" />
    <glyph glyph-name="uni1EA0" unicode="&#x1ea0;" horiz-adv-x="380" 
d="M238 179h-103l-23 -179h-105l108 668h145l112 -668h-108zM148 273h78q-26 188 -38 297h-4q-1 -32 -36 -297zM240 -160h-103v106h103v-106z" />
    <glyph glyph-name="uni1EA1" unicode="&#x1ea1;" horiz-adv-x="360" 
d="M316 387v-281q0 -66 2 -106h-94q-2 10 -6 38q-26 -46 -86 -46q-55 0 -82 43t-27 107v9q0 162 179 162h12v66q0 33 -7 48t-29 15q-38 0 -38 -56v-8h-101v6q0 142 143 142q134 0 134 -139zM216 175v60h-17q-38 0 -58 -18.5t-20 -64.5v-8q0 -62 45 -62q27 0 38.5 21t11.5 72
zM231 -160h-103v106h103v-106z" />
    <glyph glyph-name="uni1EA2" unicode="&#x1ea2;" horiz-adv-x="380" 
d="M238 179h-103l-23 -179h-105l108 668h145l112 -668h-108zM148 273h78q-26 188 -38 297h-4q-1 -32 -36 -297zM222 707h-81q37 38 37 60q0 23 -27 23q-14 0 -38 -12l-22 53q37 27 92 27q42 0 63 -19.5t21 -50.5q0 -45 -45 -81z" />
    <glyph glyph-name="uni1EA3" unicode="&#x1ea3;" horiz-adv-x="360" 
d="M316 387v-281q0 -66 2 -106h-94q-2 10 -6 38q-26 -46 -86 -46q-55 0 -82 43t-27 107v9q0 162 179 162h12v66q0 33 -7 48t-29 15q-38 0 -38 -56v-8h-101v6q0 142 143 142q134 0 134 -139zM216 175v60h-17q-38 0 -58 -18.5t-20 -64.5v-8q0 -62 45 -62q27 0 38.5 21t11.5 72
zM217 573h-81q37 38 37 60q0 23 -27 23q-14 0 -38 -12l-22 53q37 27 92 27q42 0 63 -19.5t21 -50.5q0 -45 -45 -81z" />
    <glyph glyph-name="uni1EA4" unicode="&#x1ea4;" horiz-adv-x="380" 
d="M238 179h-103l-23 -179h-105l108 668h145l112 -668h-108zM148 273h78q-26 188 -38 297h-4q-1 -32 -36 -297zM134 804h108l86 -93h-98l-42 46l-42 -46h-99zM366 875h112l-101 -87h-84z" />
    <glyph glyph-name="uni1EA5" unicode="&#x1ea5;" horiz-adv-x="360" 
d="M316 387v-281q0 -66 2 -106h-94q-2 10 -6 38q-26 -46 -86 -46q-55 0 -82 43t-27 107v9q0 162 179 162h12v66q0 33 -7 48t-29 15q-38 0 -38 -56v-8h-101v6q0 142 143 142q134 0 134 -139zM216 175v60h-17q-38 0 -58 -18.5t-20 -64.5v-8q0 -62 45 -62q27 0 38.5 21t11.5 72
zM133 696h97l85 -118h-89l-45 64l-45 -64h-89zM350 770h99l-97 -104h-75z" />
    <glyph glyph-name="uni1EA6" unicode="&#x1ea6;" horiz-adv-x="380" 
d="M238 179h-103l-23 -179h-105l108 668h145l112 -668h-108zM148 273h78q-26 188 -38 297h-4q-1 -32 -36 -297zM134 804h108l86 -93h-98l-42 46l-42 -46h-99zM230 877h108l72 -89h-80z" />
    <glyph glyph-name="uni1EA7" unicode="&#x1ea7;" horiz-adv-x="360" 
d="M316 387v-281q0 -66 2 -106h-94q-2 10 -6 38q-26 -46 -86 -46q-55 0 -82 43t-27 107v9q0 162 179 162h12v66q0 33 -7 48t-29 15q-38 0 -38 -56v-8h-101v6q0 142 143 142q134 0 134 -139zM216 175v60h-17q-38 0 -58 -18.5t-20 -64.5v-8q0 -62 45 -62q27 0 38.5 21t11.5 72
zM133 695h97l85 -118h-89l-45 64l-45 -64h-89zM225 772h103l66 -109h-70z" />
    <glyph glyph-name="uni1EA8" unicode="&#x1ea8;" horiz-adv-x="380" 
d="M238 179h-103l-23 -179h-105l108 668h145l112 -668h-108zM148 273h78q-26 188 -38 297h-4q-1 -32 -36 -297zM362 791h-72q36 39 36 56q0 19 -25 19q-21 0 -40 -13l-21 48q42 29 87 29q38 0 57 -17.5t19 -46.5q0 -42 -41 -75zM134 804h108l86 -93h-98l-42 46l-42 -46h-99z
" />
    <glyph glyph-name="uni1EA9" unicode="&#x1ea9;" horiz-adv-x="360" 
d="M316 387v-281q0 -66 2 -106h-94q-2 10 -6 38q-26 -46 -86 -46q-55 0 -82 43t-27 107v9q0 162 179 162h12v66q0 33 -7 48t-29 15q-38 0 -38 -56v-8h-101v6q0 142 143 142q134 0 134 -139zM216 175v60h-17q-38 0 -58 -18.5t-20 -64.5v-8q0 -62 45 -62q27 0 38.5 21t11.5 72
zM133 694h97l85 -118h-89l-45 64l-45 -64h-89zM353 673h-72q36 37 36 56t-25 19q-21 0 -40 -13l-21 48q39 29 87 29q38 0 57 -17.5t19 -46.5q0 -42 -41 -75z" />
    <glyph glyph-name="uni1EAA" unicode="&#x1eaa;" horiz-adv-x="380" 
d="M238 179h-103l-23 -179h-105l108 668h145l112 -668h-108zM148 273h78q-26 188 -38 297h-4q-1 -32 -36 -297zM129 816h-62v12q0 73 65 73q26 0 59.5 -13t41.5 -13q15 0 15 18v9h61v-13q0 -74 -63 -74q-23 0 -57 12.5t-44 12.5q-16 0 -16 -17v-7zM140 789h97l92 -79h-97
l-46 35l-42 -35h-95z" />
    <glyph glyph-name="uni1EAB" unicode="&#x1eab;" horiz-adv-x="360" 
d="M316 387v-281q0 -66 2 -106h-94q-2 10 -6 38q-26 -46 -86 -46q-55 0 -82 43t-27 107v9q0 162 179 162h12v66q0 33 -7 48t-29 15q-38 0 -38 -56v-8h-101v6q0 142 143 142q134 0 134 -139zM216 175v60h-17q-38 0 -58 -18.5t-20 -64.5v-8q0 -62 45 -62q27 0 38.5 21t11.5 72
zM120 691h-61v11q0 77 64 77q26 0 60.5 -12.5t42.5 -12.5q15 0 15 17v9h60v-13q0 -77 -63 -77q-23 0 -57.5 12.5t-44.5 12.5q-16 0 -16 -17v-7zM126 659h106l90 -89h-97l-48 44l-45 -44h-96z" />
    <glyph glyph-name="uni1EAC" unicode="&#x1eac;" horiz-adv-x="380" 
d="M238 179h-103l-23 -179h-105l108 668h145l112 -668h-108zM148 273h78q-26 188 -38 297h-4q-1 -32 -36 -297zM240 -160h-103v106h103v-106zM131 808h114l86 -95h-105l-38 43l-37 -43h-105z" />
    <glyph glyph-name="uni1EAD" unicode="&#x1ead;" horiz-adv-x="360" 
d="M316 387v-281q0 -66 2 -106h-94q-2 10 -6 38q-26 -46 -86 -46q-55 0 -82 43t-27 107v9q0 162 179 162h12v66q0 33 -7 48t-29 15q-38 0 -38 -56v-8h-101v6q0 142 143 142q134 0 134 -139zM216 175v60h-17q-38 0 -58 -18.5t-20 -64.5v-8q0 -62 45 -62q27 0 38.5 21t11.5 72
zM231 -160h-103v106h103v-106zM127 696h105l79 -112h-91l-40 56l-40 -56h-91z" />
    <glyph glyph-name="uni1EAE" unicode="&#x1eae;" horiz-adv-x="380" 
d="M238 179h-103l-23 -179h-105l108 668h145l112 -668h-108zM148 273h78q-26 188 -38 297h-4q-1 -32 -36 -297zM221 895h117l-109 -74h-90zM60 798h79q13 -31 52 -31q38 0 50 31h80q-9 -39 -41.5 -66.5t-90.5 -27.5q-57 0 -90 28.5t-39 65.5z" />
    <glyph glyph-name="uni1EAF" unicode="&#x1eaf;" horiz-adv-x="360" 
d="M316 387v-281q0 -66 2 -106h-94q-2 10 -6 38q-26 -46 -86 -46q-55 0 -82 43t-27 107v9q0 162 179 162h12v66q0 33 -7 48t-29 15q-38 0 -38 -56v-8h-101v6q0 142 143 142q134 0 134 -139zM216 175v60h-17q-38 0 -58 -18.5t-20 -64.5v-8q0 -62 45 -62q27 0 38.5 21t11.5 72
zM216 769h112l-113 -85h-80zM55 663h78q9 -36 49 -36q38 0 50 36h76q-7 -45 -39 -72.5t-88 -27.5t-87.5 29t-38.5 71z" />
    <glyph glyph-name="uni1EB0" unicode="&#x1eb0;" horiz-adv-x="380" 
d="M238 179h-103l-23 -179h-105l108 668h145l112 -668h-108zM148 273h78q-26 188 -38 297h-4q-1 -32 -36 -297zM47 895h120l78 -74h-91zM60 798h79q13 -31 52 -31q38 0 50 31h80q-9 -39 -41.5 -66.5t-90.5 -27.5q-57 0 -90 28.5t-39 65.5z" />
    <glyph glyph-name="uni1EB1" unicode="&#x1eb1;" horiz-adv-x="360" 
d="M316 387v-281q0 -66 2 -106h-94q-2 10 -6 38q-26 -46 -86 -46q-55 0 -82 43t-27 107v9q0 162 179 162h12v66q0 33 -7 48t-29 15q-38 0 -38 -56v-8h-101v6q0 142 143 142q134 0 134 -139zM216 175v60h-17q-38 0 -58 -18.5t-20 -64.5v-8q0 -62 45 -62q27 0 38.5 21t11.5 72
zM39 769h112l79 -85h-79zM55 663h78q9 -36 49 -36q38 0 50 36h76q-7 -45 -39 -72.5t-88 -27.5t-87.5 29t-38.5 71z" />
    <glyph glyph-name="uni1EB2" unicode="&#x1eb2;" horiz-adv-x="380" 
d="M238 179h-103l-23 -179h-105l108 668h145l112 -668h-108zM148 273h78q-26 188 -38 297h-4q-1 -32 -36 -297zM223 819h-73q35 32 35 49q0 19 -24 19q-20 0 -41 -12l-20 44q39 27 88 27q37 0 57 -17t20 -44q0 -35 -42 -66zM60 798h79q13 -31 52 -31q38 0 50 31h80
q-9 -39 -41.5 -66.5t-90.5 -27.5q-57 0 -90 28.5t-39 65.5z" />
    <glyph glyph-name="uni1EB3" unicode="&#x1eb3;" horiz-adv-x="360" 
d="M316 387v-281q0 -66 2 -106h-94q-2 10 -6 38q-26 -46 -86 -46q-55 0 -82 43t-27 107v9q0 162 179 162h12v66q0 33 -7 48t-29 15q-38 0 -38 -56v-8h-101v6q0 142 143 142q134 0 134 -139zM216 175v60h-17q-38 0 -58 -18.5t-20 -64.5v-8q0 -62 45 -62q27 0 38.5 21t11.5 72
zM212 680h-72q39 34 39 55q0 19 -23 19q-14 0 -34 -11l-19 46q29 21 78 21q36 0 54 -16.5t18 -43.5q0 -39 -41 -70zM55 663h78q9 -37 49 -37q38 0 50 37h76q-7 -46 -39 -73.5t-88 -27.5t-87.5 29t-38.5 72z" />
    <glyph glyph-name="uni1EB4" unicode="&#x1eb4;" horiz-adv-x="380" 
d="M238 179h-103l-23 -179h-105l108 668h145l112 -668h-108zM148 273h78q-26 188 -38 297h-4q-1 -32 -36 -297zM116 824h-62v11q0 77 65 77q26 0 72.5 -13t54.5 -13q15 0 15 18v9h61v-13q0 -77 -63 -77q-23 0 -70.5 12.5t-57.5 12.5q-15 0 -15 -17v-7zM54 793h84
q12 -29 51 -29q37 0 51 31l83 -2q-26 -88 -136 -88q-105 0 -133 88z" />
    <glyph glyph-name="uni1EB5" unicode="&#x1eb5;" horiz-adv-x="360" 
d="M316 387v-281q0 -66 2 -106h-94q-2 10 -6 38q-26 -46 -86 -46q-55 0 -82 43t-27 107v9q0 162 179 162h12v66q0 33 -7 48t-29 15q-38 0 -38 -56v-8h-101v6q0 142 143 142q134 0 134 -139zM216 175v60h-17q-38 0 -58 -18.5t-20 -64.5v-8q0 -62 45 -62q27 0 38.5 21t11.5 72
zM120 688h-61v12q0 76 64 76q26 0 60.5 -12.5t42.5 -12.5q15 0 15 18v9h60v-14q0 -77 -63 -77q-23 0 -57.5 12.5t-44.5 12.5q-16 0 -16 -17v-7zM58 654h74q8 -34 48 -34q37 0 46 34h75q-6 -41 -37 -68t-86 -27q-54 0 -85 28t-35 67z" />
    <glyph glyph-name="uni1EB6" unicode="&#x1eb6;" horiz-adv-x="380" 
d="M238 179h-103l-23 -179h-105l108 668h145l112 -668h-108zM148 273h78q-26 188 -38 297h-4q-1 -32 -36 -297zM240 -150h-103v106h103v-106zM66 817h73q10 -40 51 -40q39 0 49 40h73q-20 -108 -124 -108q-57 0 -87.5 30.5t-34.5 77.5z" />
    <glyph glyph-name="uni1EB7" unicode="&#x1eb7;" horiz-adv-x="360" 
d="M316 387v-281q0 -66 2 -106h-94q-2 10 -6 38q-26 -46 -86 -46q-55 0 -82 43t-27 107v9q0 162 179 162h12v66q0 33 -7 48t-29 15q-38 0 -38 -56v-8h-101v6q0 142 143 142q134 0 134 -139zM216 175v60h-17q-38 0 -58 -18.5t-20 -64.5v-8q0 -62 45 -62q27 0 38.5 21t11.5 72
zM58 695h78q6 -42 45 -42q37 0 43 42h77q-4 -48 -34.5 -80.5t-87.5 -32.5t-87.5 33.5t-33.5 79.5zM231 -160h-103v106h103v-106z" />
    <glyph glyph-name="uni1EB8" unicode="&#x1eb8;" horiz-adv-x="325" 
d="M294 400v-95h-147v-210h170l-13 -95h-260v668h258v-96h-155v-172h147zM226 -160h-103v106h103v-106z" />
    <glyph glyph-name="uni1EB9" unicode="&#x1eb9;" horiz-adv-x="352" 
d="M326 231h-197v-76q0 -76 49 -76q28 0 37 20t9 54v2h100v-2q0 -161 -144 -161q-48 0 -79 13.5t-46 41t-20.5 57.5t-5.5 74v170q0 31 6 58.5t21 56.5t46.5 46t77.5 17q146 0 146 -177v-118zM130 312h97v53q0 38 -10.5 56t-37.5 18q-49 0 -49 -74v-53zM226 -160h-103v106
h103v-106z" />
    <glyph glyph-name="uni1EBA" unicode="&#x1eba;" horiz-adv-x="325" 
d="M294 400v-95h-147v-210h170l-13 -95h-260v668h258v-96h-155v-172h147zM211 708h-81q37 38 37 60q0 23 -27 23q-14 0 -38 -12l-22 53q37 27 92 27q42 0 63 -19.5t21 -50.5q0 -45 -45 -81z" />
    <glyph glyph-name="uni1EBB" unicode="&#x1ebb;" horiz-adv-x="352" 
d="M326 231h-197v-76q0 -76 49 -76q28 0 37 20t9 54v2h100v-2q0 -161 -144 -161q-48 0 -79 13.5t-46 41t-20.5 57.5t-5.5 74v170q0 31 6 58.5t21 56.5t46.5 46t77.5 17q146 0 146 -177v-118zM130 312h97v53q0 38 -10.5 56t-37.5 18q-49 0 -49 -74v-53zM212 573h-81
q37 38 37 60q0 23 -27 23q-14 0 -38 -12l-22 53q37 27 92 27q42 0 63 -19.5t21 -50.5q0 -45 -45 -81z" />
    <glyph glyph-name="uni1EBC" unicode="&#x1ebc;" horiz-adv-x="325" 
d="M294 400v-95h-147v-210h170l-13 -95h-260v668h258v-96h-155v-172h147zM105 719h-62v19q0 86 70 86q25 0 62 -15t46 -15q18 0 18 21v10h63v-12q0 -52 -17 -73.5t-53 -21.5q-24 0 -60.5 14t-47.5 14q-19 0 -19 -20v-7z" />
    <glyph glyph-name="uni1EBD" unicode="&#x1ebd;" horiz-adv-x="352" 
d="M326 231h-197v-76q0 -76 49 -76q28 0 37 20t9 54v2h100v-2q0 -161 -144 -161q-48 0 -79 13.5t-46 41t-20.5 57.5t-5.5 74v170q0 31 6 58.5t21 56.5t46.5 46t77.5 17q146 0 146 -177v-118zM130 312h97v53q0 38 -10.5 56t-37.5 18q-49 0 -49 -74v-53zM119 581h-64v30
q0 76 63 76q25 0 59.5 -15t43.5 -15q6 0 8 4t2 21v5h63v-28q0 -81 -62 -81q-22 0 -56.5 16t-45.5 16t-11 -22v-7z" />
    <glyph glyph-name="uni1EBE" unicode="&#x1ebe;" horiz-adv-x="325" 
d="M294 400v-95h-147v-210h170l-13 -95h-260v668h258v-96h-155v-172h147zM118 804h108l86 -93h-98l-42 46l-42 -46h-99zM350 875h112l-101 -87h-84z" />
    <glyph glyph-name="uni1EBF" unicode="&#x1ebf;" horiz-adv-x="352" 
d="M326 231h-197v-76q0 -76 49 -76q28 0 37 20t9 54v2h100v-2q0 -161 -144 -161q-48 0 -79 13.5t-46 41t-20.5 57.5t-5.5 74v170q0 31 6 58.5t21 56.5t46.5 46t77.5 17q146 0 146 -177v-118zM130 312h97v53q0 38 -10.5 56t-37.5 18q-49 0 -49 -74v-53zM128 696h97l85 -118
h-89l-45 64l-45 -64h-89zM345 770h99l-97 -104h-75z" />
    <glyph glyph-name="uni1EC0" unicode="&#x1ec0;" horiz-adv-x="325" 
d="M294 400v-95h-147v-210h170l-13 -95h-260v668h258v-96h-155v-172h147zM118 804h108l86 -93h-98l-42 46l-42 -46h-99zM214 877h108l72 -89h-80z" />
    <glyph glyph-name="uni1EC1" unicode="&#x1ec1;" horiz-adv-x="352" 
d="M326 231h-197v-76q0 -76 49 -76q28 0 37 20t9 54v2h100v-2q0 -161 -144 -161q-48 0 -79 13.5t-46 41t-20.5 57.5t-5.5 74v170q0 31 6 58.5t21 56.5t46.5 46t77.5 17q146 0 146 -177v-118zM130 312h97v53q0 38 -10.5 56t-37.5 18q-49 0 -49 -74v-53zM128 695h97l85 -118
h-89l-45 64l-45 -64h-89zM220 772h103l66 -109h-70z" />
    <glyph glyph-name="uni1EC2" unicode="&#x1ec2;" horiz-adv-x="325" 
d="M294 400v-95h-147v-210h170l-13 -95h-260v668h258v-96h-155v-172h147zM346 791h-72q36 39 36 56q0 19 -25 19q-21 0 -40 -13l-21 48q42 29 87 29q38 0 57 -17.5t19 -46.5q0 -42 -41 -75zM118 804h108l86 -93h-98l-42 46l-42 -46h-99z" />
    <glyph glyph-name="uni1EC3" unicode="&#x1ec3;" horiz-adv-x="352" 
d="M326 231h-197v-76q0 -76 49 -76q28 0 37 20t9 54v2h100v-2q0 -161 -144 -161q-48 0 -79 13.5t-46 41t-20.5 57.5t-5.5 74v170q0 31 6 58.5t21 56.5t46.5 46t77.5 17q146 0 146 -177v-118zM130 312h97v53q0 38 -10.5 56t-37.5 18q-49 0 -49 -74v-53zM128 694h97l85 -118
h-89l-45 64l-45 -64h-89zM348 673h-72q36 37 36 56t-25 19q-21 0 -40 -13l-21 48q39 29 87 29q38 0 57 -17.5t19 -46.5q0 -42 -41 -75z" />
    <glyph glyph-name="uni1EC4" unicode="&#x1ec4;" horiz-adv-x="325" 
d="M294 400v-95h-147v-210h170l-13 -95h-260v668h258v-96h-155v-172h147zM113 816h-62v12q0 73 65 73q26 0 59.5 -13t41.5 -13q15 0 15 18v9h61v-13q0 -74 -63 -74q-23 0 -57 12.5t-44 12.5q-16 0 -16 -17v-7zM124 789h97l92 -79h-97l-46 35l-42 -35h-95z" />
    <glyph glyph-name="uni1EC5" unicode="&#x1ec5;" horiz-adv-x="352" 
d="M326 231h-197v-76q0 -76 49 -76q28 0 37 20t9 54v2h100v-2q0 -161 -144 -161q-48 0 -79 13.5t-46 41t-20.5 57.5t-5.5 74v170q0 31 6 58.5t21 56.5t46.5 46t77.5 17q146 0 146 -177v-118zM130 312h97v53q0 38 -10.5 56t-37.5 18q-49 0 -49 -74v-53zM115 687h-61v11
q0 77 64 77q26 0 60.5 -12.5t42.5 -12.5q15 0 15 17v9h60v-13q0 -77 -63 -77q-23 0 -57.5 12.5t-44.5 12.5q-16 0 -16 -17v-7zM121 655h106l90 -89h-97l-48 44l-45 -44h-96z" />
    <glyph glyph-name="uni1EC6" unicode="&#x1ec6;" horiz-adv-x="325" 
d="M294 400v-95h-147v-210h170l-13 -95h-260v668h258v-96h-155v-172h147zM231 -159h-103v106h103v-106zM115 809h114l86 -95h-105l-38 43l-37 -43h-105z" />
    <glyph glyph-name="uni1EC7" unicode="&#x1ec7;" horiz-adv-x="352" 
d="M326 231h-197v-76q0 -76 49 -76q28 0 37 20t9 54v2h100v-2q0 -161 -144 -161q-48 0 -79 13.5t-46 41t-20.5 57.5t-5.5 74v170q0 31 6 58.5t21 56.5t46.5 46t77.5 17q146 0 146 -177v-118zM130 312h97v53q0 38 -10.5 56t-37.5 18q-49 0 -49 -74v-53zM226 -160h-103v106
h103v-106zM122 696h105l79 -112h-91l-40 56l-40 -56h-91z" />
    <glyph glyph-name="uni1EC8" unicode="&#x1ec8;" horiz-adv-x="194" 
d="M45 668h103v-668h-103v668zM134 707h-81q37 38 37 60q0 23 -27 23q-14 0 -38 -12l-22 53q37 27 92 27q42 0 63 -19.5t21 -50.5q0 -45 -45 -81z" />
    <glyph glyph-name="uni1EC9" unicode="&#x1ec9;" horiz-adv-x="190" 
d="M43 0v518h103v-518h-103zM132 573h-81q37 38 37 60q0 23 -27 23q-14 0 -38 -12l-22 53q37 27 92 27q42 0 63 -19.5t21 -50.5q0 -45 -45 -81z" />
    <glyph glyph-name="uni1ECA" unicode="&#x1eca;" horiz-adv-x="194" 
d="M45 668h103v-668h-103v668zM148 -160h-103v106h103v-106z" />
    <glyph glyph-name="uni1ECB" unicode="&#x1ecb;" horiz-adv-x="190" 
d="M43 0v518h103v-518h-103zM44 587v110h103v-110h-103zM146 -160h-103v106h103v-106z" />
    <glyph glyph-name="uni1ECC" unicode="&#x1ecc;" 
d="M195 678q77 0 119 -46.5t42 -140.5v-312q0 -96 -41.5 -142.5t-126.5 -46.5q-80 0 -118.5 46.5t-38.5 140.5v314q0 93 43.5 140t120.5 47zM193 584q-57 0 -57 -83v-336q0 -82 57 -82q58 0 58 83v336q0 82 -58 82zM244 -160h-103v106h103v-106z" />
    <glyph glyph-name="uni1ECD" unicode="&#x1ecd;" horiz-adv-x="361" 
d="M183 526q71 0 110 -43t39 -124v-199q0 -83 -39.5 -125.5t-112.5 -42.5q-151 0 -151 167v204q0 81 41.5 122t112.5 41zM181 434q-49 0 -49 -69v-210q0 -72 49 -72q48 0 48 74v208q0 69 -48 69zM232 -160h-103v106h103v-106z" />
    <glyph glyph-name="uni1ECE" unicode="&#x1ece;" 
d="M195 678q77 0 119 -46.5t42 -140.5v-312q0 -96 -41.5 -142.5t-126.5 -46.5q-80 0 -118.5 46.5t-38.5 140.5v314q0 93 43.5 140t120.5 47zM193 584q-57 0 -57 -83v-336q0 -82 57 -82q58 0 58 83v336q0 82 -58 82zM232 707h-81q37 38 37 60q0 23 -27 23q-14 0 -38 -12
l-22 53q37 27 92 27q42 0 63 -19.5t21 -50.5q0 -45 -45 -81z" />
    <glyph glyph-name="uni1ECF" unicode="&#x1ecf;" horiz-adv-x="361" 
d="M183 526q71 0 110 -43t39 -124v-199q0 -83 -39.5 -125.5t-112.5 -42.5q-151 0 -151 167v204q0 81 41.5 122t112.5 41zM181 434q-49 0 -49 -69v-210q0 -72 49 -72q48 0 48 74v208q0 69 -48 69zM218 573h-81q37 38 37 60q0 23 -27 23q-14 0 -38 -12l-22 53q37 27 92 27
q42 0 63 -19.5t21 -50.5q0 -45 -45 -81z" />
    <glyph glyph-name="uni1ED0" unicode="&#x1ed0;" 
d="M195 678q77 0 119 -46.5t42 -140.5v-312q0 -96 -41.5 -142.5t-126.5 -46.5q-80 0 -118.5 46.5t-38.5 140.5v314q0 93 43.5 140t120.5 47zM193 584q-57 0 -57 -83v-336q0 -82 57 -82q58 0 58 83v336q0 82 -58 82zM138 804h108l86 -93h-98l-42 46l-42 -46h-99zM370 875h112
l-101 -87h-84z" />
    <glyph glyph-name="uni1ED1" unicode="&#x1ed1;" horiz-adv-x="361" 
d="M183 526q71 0 110 -43t39 -124v-199q0 -83 -39.5 -125.5t-112.5 -42.5q-151 0 -151 167v204q0 81 41.5 122t112.5 41zM181 434q-49 0 -49 -69v-210q0 -72 49 -72q48 0 48 74v208q0 69 -48 69zM134 695h97l85 -118h-89l-45 64l-45 -64h-89zM351 769h99l-97 -104h-75z" />
    <glyph glyph-name="uni1ED2" unicode="&#x1ed2;" 
d="M195 678q77 0 119 -46.5t42 -140.5v-312q0 -96 -41.5 -142.5t-126.5 -46.5q-80 0 -118.5 46.5t-38.5 140.5v314q0 93 43.5 140t120.5 47zM193 584q-57 0 -57 -83v-336q0 -82 57 -82q58 0 58 83v336q0 82 -58 82zM138 804h108l86 -93h-98l-42 46l-42 -46h-99zM234 877h108
l72 -89h-80z" />
    <glyph glyph-name="uni1ED3" unicode="&#x1ed3;" horiz-adv-x="361" 
d="M183 526q71 0 110 -43t39 -124v-199q0 -83 -39.5 -125.5t-112.5 -42.5q-151 0 -151 167v204q0 81 41.5 122t112.5 41zM181 434q-49 0 -49 -69v-210q0 -72 49 -72q48 0 48 74v208q0 69 -48 69zM134 694h97l85 -118h-89l-45 64l-45 -64h-89zM226 771h103l66 -109h-70z" />
    <glyph glyph-name="uni1ED4" unicode="&#x1ed4;" 
d="M195 678q77 0 119 -46.5t42 -140.5v-312q0 -96 -41.5 -142.5t-126.5 -46.5q-80 0 -118.5 46.5t-38.5 140.5v314q0 93 43.5 140t120.5 47zM193 584q-57 0 -57 -83v-336q0 -82 57 -82q58 0 58 83v336q0 82 -58 82zM366 791h-72q36 39 36 56q0 19 -25 19q-21 0 -40 -13
l-21 48q42 29 87 29q38 0 57 -17.5t19 -46.5q0 -42 -41 -75zM138 804h108l86 -93h-98l-42 46l-42 -46h-99z" />
    <glyph glyph-name="uni1ED5" unicode="&#x1ed5;" horiz-adv-x="361" 
d="M183 526q71 0 110 -43t39 -124v-199q0 -83 -39.5 -125.5t-112.5 -42.5q-151 0 -151 167v204q0 81 41.5 122t112.5 41zM181 434q-49 0 -49 -69v-210q0 -72 49 -72q48 0 48 74v208q0 69 -48 69zM134 693h97l85 -118h-89l-45 64l-45 -64h-89zM354 672h-72q36 37 36 56
t-25 19q-21 0 -40 -13l-21 48q39 29 87 29q38 0 57 -17.5t19 -46.5q0 -42 -41 -75z" />
    <glyph glyph-name="uni1ED6" unicode="&#x1ed6;" 
d="M195 678q77 0 119 -46.5t42 -140.5v-312q0 -96 -41.5 -142.5t-126.5 -46.5q-80 0 -118.5 46.5t-38.5 140.5v314q0 93 43.5 140t120.5 47zM193 584q-57 0 -57 -83v-336q0 -82 57 -82q58 0 58 83v336q0 82 -58 82zM133 816h-62v12q0 73 65 73q26 0 59.5 -13t41.5 -13
q15 0 15 18v9h61v-13q0 -74 -63 -74q-23 0 -57 12.5t-44 12.5q-16 0 -16 -17v-7zM144 789h97l92 -79h-97l-46 35l-42 -35h-95z" />
    <glyph glyph-name="uni1ED7" unicode="&#x1ed7;" horiz-adv-x="361" 
d="M183 526q71 0 110 -43t39 -124v-199q0 -83 -39.5 -125.5t-112.5 -42.5q-151 0 -151 167v204q0 81 41.5 122t112.5 41zM181 434q-49 0 -49 -69v-210q0 -72 49 -72q48 0 48 74v208q0 69 -48 69zM121 687h-61v11q0 77 64 77q26 0 60.5 -12.5t42.5 -12.5q15 0 15 17v9h60v-13
q0 -77 -63 -77q-23 0 -57.5 12.5t-44.5 12.5q-16 0 -16 -17v-7zM127 655h106l90 -89h-97l-48 44l-45 -44h-96z" />
    <glyph glyph-name="uni1ED8" unicode="&#x1ed8;" 
d="M195 678q77 0 119 -46.5t42 -140.5v-312q0 -96 -41.5 -142.5t-126.5 -46.5q-80 0 -118.5 46.5t-38.5 140.5v314q0 93 43.5 140t120.5 47zM193 584q-57 0 -57 -83v-336q0 -82 57 -82q58 0 58 83v336q0 82 -58 82zM244 -160h-103v106h103v-106zM135 809h114l86 -95h-105
l-38 43l-37 -43h-105z" />
    <glyph glyph-name="uni1ED9" unicode="&#x1ed9;" horiz-adv-x="361" 
d="M183 526q71 0 110 -43t39 -124v-199q0 -83 -39.5 -125.5t-112.5 -42.5q-151 0 -151 167v204q0 81 41.5 122t112.5 41zM181 434q-49 0 -49 -69v-210q0 -72 49 -72q48 0 48 74v208q0 69 -48 69zM232 -160h-103v106h103v-106zM128 696h105l79 -112h-91l-40 56l-40 -56h-91z
" />
    <glyph glyph-name="uni1EDA" unicode="&#x1eda;" 
d="M195 678q62 0 101 -30q14 11 14 38q0 16 -9 47h95q8 -24 8 -53q0 -80 -58 -108q10 -38 10 -81v-312q0 -96 -41.5 -142.5t-126.5 -46.5q-80 0 -118.5 46.5t-38.5 140.5v314q0 93 43.5 140t120.5 47zM193 584q-57 0 -57 -83v-336q0 -82 57 -82q58 0 58 83v336q0 82 -58 82z
M234 819h127l-127 -101h-97z" />
    <glyph glyph-name="uni1EDB" unicode="&#x1edb;" horiz-adv-x="361" 
d="M183 526q48 0 80 -19q18 8 18 40q0 16 -9 47h95q8 -24 8 -53q0 -76 -55 -106q12 -33 12 -76v-199q0 -83 -39.5 -125.5t-112.5 -42.5q-151 0 -151 167v204q0 81 41.5 122t112.5 41zM181 434q-49 0 -49 -69v-210q0 -72 49 -72q48 0 48 74v208q0 69 -48 69zM201 706h115
l-118 -134h-88z" />
    <glyph glyph-name="uni1EDC" unicode="&#x1edc;" 
d="M195 678q62 0 101 -30q14 11 14 38q0 16 -9 47h95q8 -24 8 -53q0 -80 -58 -108q10 -38 10 -81v-312q0 -96 -41.5 -142.5t-126.5 -46.5q-80 0 -118.5 46.5t-38.5 140.5v314q0 93 43.5 140t120.5 47zM193 584q-57 0 -57 -83v-336q0 -82 57 -82q58 0 58 83v336q0 82 -58 82z
M26 819h131l97 -101h-100z" />
    <glyph glyph-name="uni1EDD" unicode="&#x1edd;" horiz-adv-x="361" 
d="M183 526q48 0 80 -19q18 8 18 40q0 16 -9 47h95q8 -24 8 -53q0 -76 -55 -106q12 -33 12 -76v-199q0 -83 -39.5 -125.5t-112.5 -42.5q-151 0 -151 167v204q0 81 41.5 122t112.5 41zM181 434q-49 0 -49 -69v-210q0 -72 49 -72q48 0 48 74v208q0 69 -48 69zM31 707h118
l80 -135h-82z" />
    <glyph glyph-name="uni1EDE" unicode="&#x1ede;" 
d="M195 678q62 0 101 -30q14 11 14 38q0 16 -9 47h95q8 -24 8 -53q0 -80 -58 -108q10 -38 10 -81v-312q0 -96 -41.5 -142.5t-126.5 -46.5q-80 0 -118.5 46.5t-38.5 140.5v314q0 93 43.5 140t120.5 47zM193 584q-57 0 -57 -83v-336q0 -82 57 -82q58 0 58 83v336q0 82 -58 82z
M227 711h-81q37 38 37 60q0 23 -27 23q-14 0 -38 -12l-22 53q37 27 92 27q42 0 63 -19.5t21 -50.5q0 -45 -45 -81z" />
    <glyph glyph-name="uni1EDF" unicode="&#x1edf;" horiz-adv-x="361" 
d="M183 526q48 0 80 -19q18 8 18 40q0 16 -9 47h95q8 -24 8 -53q0 -76 -55 -106q12 -33 12 -76v-199q0 -83 -39.5 -125.5t-112.5 -42.5q-151 0 -151 167v204q0 81 41.5 122t112.5 41zM181 434q-49 0 -49 -69v-210q0 -72 49 -72q48 0 48 74v208q0 69 -48 69zM218 573h-81
q37 38 37 60q0 23 -27 23q-14 0 -38 -12l-22 53q37 27 92 27q42 0 63 -19.5t21 -50.5q0 -45 -45 -81z" />
    <glyph glyph-name="uni1EE0" unicode="&#x1ee0;" 
d="M195 678q62 0 101 -30q14 11 14 38q0 16 -9 47h95q8 -24 8 -53q0 -80 -58 -108q10 -38 10 -81v-312q0 -96 -41.5 -142.5t-126.5 -46.5q-80 0 -118.5 46.5t-38.5 140.5v314q0 93 43.5 140t120.5 47zM193 584q-57 0 -57 -83v-336q0 -82 57 -82q58 0 58 83v336q0 82 -58 82z
M127 729h-62v19q0 86 70 86q25 0 62 -15t46 -15q18 0 18 21v10h63v-12q0 -52 -17 -73.5t-53 -21.5q-24 0 -60.5 14t-47.5 14q-19 0 -19 -20v-7z" />
    <glyph glyph-name="uni1EE1" unicode="&#x1ee1;" horiz-adv-x="361" 
d="M183 526q48 0 80 -19q18 8 18 40q0 17 -7 41q-14 -10 -36 -10t-56.5 16t-45.5 16t-11 -22v-7h-64v30q0 76 63 76q25 0 59.5 -15t43.5 -15q6 0 8 4t2 21v5h63v-28q0 -46 -19 -65h86q8 -24 8 -53q0 -76 -55 -106q12 -33 12 -76v-199q0 -83 -39.5 -125.5t-112.5 -42.5
q-151 0 -151 167v204q0 81 41.5 122t112.5 41zM181 434q-49 0 -49 -69v-210q0 -72 49 -72q48 0 48 74v208q0 69 -48 69z" />
    <glyph glyph-name="uni1EE2" unicode="&#x1ee2;" 
d="M195 678q62 0 101 -30q14 11 14 38q0 16 -9 47h95q8 -24 8 -53q0 -80 -58 -108q10 -38 10 -81v-312q0 -96 -41.5 -142.5t-126.5 -46.5q-80 0 -118.5 46.5t-38.5 140.5v314q0 93 43.5 140t120.5 47zM193 584q-57 0 -57 -83v-336q0 -82 57 -82q58 0 58 83v336q0 82 -58 82z
M244 -160h-103v106h103v-106z" />
    <glyph glyph-name="uni1EE3" unicode="&#x1ee3;" horiz-adv-x="361" 
d="M183 526q48 0 80 -19q18 8 18 40q0 16 -9 47h95q8 -24 8 -53q0 -76 -55 -106q12 -33 12 -76v-199q0 -83 -39.5 -125.5t-112.5 -42.5q-151 0 -151 167v204q0 81 41.5 122t112.5 41zM181 434q-49 0 -49 -69v-210q0 -72 49 -72q48 0 48 74v208q0 69 -48 69zM232 -160h-103
v106h103v-106z" />
    <glyph glyph-name="uni1EE4" unicode="&#x1ee4;" horiz-adv-x="399" 
d="M41 668h103v-508q0 -77 56 -77q54 0 54 77v508h103v-506q0 -172 -159 -172q-157 0 -157 172v506zM250 -160h-103v106h103v-106z" />
    <glyph glyph-name="uni1EE5" unicode="&#x1ee5;" 
d="M344 518v-367q0 -124 1 -151h-99q-4 22 -4 49q-23 -57 -96 -57q-103 0 -103 135v391h103v-365q0 -69 45 -69q26 0 38 20t12 69v345h103zM244 -160h-103v106h103v-106z" />
    <glyph glyph-name="uni1EE6" unicode="&#x1ee6;" horiz-adv-x="399" 
d="M41 668h103v-508q0 -77 56 -77q54 0 54 77v508h103v-506q0 -172 -159 -172q-157 0 -157 172v506zM237 707h-81q37 38 37 60q0 23 -27 23q-14 0 -38 -12l-22 53q37 27 92 27q42 0 63 -19.5t21 -50.5q0 -45 -45 -81z" />
    <glyph glyph-name="uni1EE7" unicode="&#x1ee7;" 
d="M344 518v-367q0 -124 1 -151h-99q-4 22 -4 49q-23 -57 -96 -57q-103 0 -103 135v391h103v-365q0 -69 45 -69q26 0 38 20t12 69v345h103zM230 573h-81q37 38 37 60q0 23 -27 23q-14 0 -38 -12l-22 53q37 27 92 27q42 0 63 -19.5t21 -50.5q0 -45 -45 -81z" />
    <glyph glyph-name="uni1EE8" unicode="&#x1ee8;" horiz-adv-x="399" 
d="M41 668h103v-508q0 -77 56 -77q54 0 54 77v508h43q29 6 29 44q0 16 -9 47h95q8 -24 8 -53q0 -83 -63 -110v-434q0 -172 -159 -172q-157 0 -157 172v506zM240 819h127l-127 -101h-97z" />
    <glyph glyph-name="uni1EE9" unicode="&#x1ee9;" 
d="M242 49q-23 -57 -96 -57q-103 0 -103 135v391h103v-365q0 -69 45 -69q26 0 38 20t12 69v345h44q29 6 29 44q0 16 -9 47h95q8 -24 8 -53q0 -84 -64 -110v-295q0 -124 1 -151h-99q-4 22 -4 49zM229 706h115l-118 -134h-88z" />
    <glyph glyph-name="uni1EEA" unicode="&#x1eea;" horiz-adv-x="399" 
d="M41 668h103v-508q0 -77 56 -77q54 0 54 77v508h43q29 6 29 44q0 16 -9 47h95q8 -24 8 -53q0 -83 -63 -110v-434q0 -172 -159 -172q-157 0 -157 172v506zM32 819h131l97 -101h-100z" />
    <glyph glyph-name="uni1EEB" unicode="&#x1eeb;" 
d="M242 49q-23 -57 -96 -57q-103 0 -103 135v391h103v-365q0 -69 45 -69q26 0 38 20t12 69v345h44q29 6 29 44q0 16 -9 47h95q8 -24 8 -53q0 -84 -64 -110v-295q0 -124 1 -151h-99q-4 22 -4 49zM43 707h118l80 -135h-82z" />
    <glyph glyph-name="uni1EEC" unicode="&#x1eec;" horiz-adv-x="399" 
d="M41 668h103v-508q0 -77 56 -77q54 0 54 77v508h43q29 6 29 44q0 16 -9 47h95q8 -24 8 -53q0 -83 -63 -110v-434q0 -172 -159 -172q-157 0 -157 172v506zM237 707h-81q37 38 37 60q0 23 -27 23q-14 0 -38 -12l-22 53q37 27 92 27q42 0 63 -19.5t21 -50.5q0 -45 -45 -81z
" />
    <glyph glyph-name="uni1EED" unicode="&#x1eed;" 
d="M242 49q-23 -57 -96 -57q-103 0 -103 135v391h103v-365q0 -69 45 -69q26 0 38 20t12 69v345h44q29 6 29 44q0 16 -9 47h95q8 -24 8 -53q0 -84 -64 -110v-295q0 -124 1 -151h-99q-4 22 -4 49zM230 573h-81q37 38 37 60q0 23 -27 23q-14 0 -38 -12l-22 53q37 27 92 27
q42 0 63 -19.5t21 -50.5q0 -45 -45 -81z" />
    <glyph glyph-name="uni1EEE" unicode="&#x1eee;" horiz-adv-x="399" 
d="M41 668h103v-508q0 -77 56 -77q54 0 54 77v508h43q29 6 29 44q0 16 -7 41q-15 -34 -61 -34q-24 0 -60.5 14t-47.5 14q-19 0 -19 -20v-7h-62v19q0 86 70 86q25 0 62 -15t46 -15q18 0 18 21v10h63v-12q0 -35 -7 -55h91q8 -24 8 -53q0 -83 -63 -110v-434q0 -172 -159 -172
q-157 0 -157 172v506z" />
    <glyph glyph-name="uni1EEF" unicode="&#x1eef;" 
d="M242 49q-23 -57 -96 -57q-103 0 -103 135v391h103v-365q0 -69 45 -69q26 0 38 20t12 69v345h44q29 6 29 44q0 16 -9 47h95q8 -24 8 -53q0 -84 -64 -110v-295q0 -124 1 -151h-99q-4 22 -4 49zM137 581h-64v30q0 76 63 76q25 0 59.5 -15t43.5 -15q6 0 8 4t2 21v5h63v-28
q0 -81 -62 -81q-22 0 -56.5 16t-45.5 16t-11 -22v-7z" />
    <glyph glyph-name="uni1EF0" unicode="&#x1ef0;" horiz-adv-x="399" 
d="M41 668h103v-508q0 -77 56 -77q54 0 54 77v508h43q29 6 29 44q0 16 -9 47h95q8 -24 8 -53q0 -83 -63 -110v-434q0 -172 -159 -172q-157 0 -157 172v506zM250 -160h-103v106h103v-106z" />
    <glyph glyph-name="uni1EF1" unicode="&#x1ef1;" 
d="M242 49q-23 -57 -96 -57q-103 0 -103 135v391h103v-365q0 -69 45 -69q26 0 38 20t12 69v345h44q29 6 29 44q0 16 -9 47h95q8 -24 8 -53q0 -84 -64 -110v-295q0 -124 1 -151h-99q-4 22 -4 49zM244 -160h-103v106h103v-106z" />
    <glyph glyph-name="Ygrave" unicode="&#x1ef2;" horiz-adv-x="345" 
d="M223 0h-103v237q0 9 -3 22l-125 409h114q55 -220 68 -306h1q8 51 68 306h110l-128 -418q-2 -8 -2 -25v-225zM3 811h131l97 -101h-100z" />
    <glyph glyph-name="ygrave" unicode="&#x1ef3;" horiz-adv-x="342" 
d="M3 518h110q54 -328 58 -395h3q4 40 12 89.5t23 140t27 165.5h103l-116 -543q-11 -53 -26.5 -86.5t-36.5 -47.5t-38 -18t-44 -4q-20 0 -48 4l2 92q18 -2 30 -2q26 0 39 13.5t19 52.5zM20 707h118l80 -135h-82z" />
    <glyph glyph-name="uni1EF4" unicode="&#x1ef4;" horiz-adv-x="345" 
d="M223 0h-103v237q0 9 -3 22l-125 409h114q55 -220 68 -306h1q8 51 68 306h110l-128 -418q-2 -8 -2 -25v-225zM223 -160h-103v106h103v-106z" />
    <glyph glyph-name="uni1EF5" unicode="&#x1ef5;" horiz-adv-x="342" 
d="M3 518h110q54 -328 58 -395h3q4 40 12 89.5t23 140t27 165.5h103l-116 -543q-11 -53 -26.5 -86.5t-36.5 -47.5t-38 -18t-44 -4q-20 0 -48 4l2 92q18 -2 30 -2q26 0 39 13.5t19 52.5zM350 -151h-103v106h103v-106z" />
    <glyph glyph-name="uni1EF6" unicode="&#x1ef6;" horiz-adv-x="345" 
d="M223 0h-103v237q0 9 -3 22l-125 409h114q55 -220 68 -306h1q8 51 68 306h110l-128 -418q-2 -8 -2 -25v-225zM208 697h-81q37 38 37 60q0 23 -27 23q-14 0 -38 -12l-22 53q37 27 92 27q42 0 63 -19.5t21 -50.5q0 -45 -45 -81z" />
    <glyph glyph-name="uni1EF7" unicode="&#x1ef7;" horiz-adv-x="342" 
d="M3 518h110q54 -328 58 -395h3q4 40 12 89.5t23 140t27 165.5h103l-116 -543q-11 -53 -26.5 -86.5t-36.5 -47.5t-38 -18t-44 -4q-20 0 -48 4l2 92q18 -2 30 -2q26 0 39 13.5t19 52.5zM208 573h-81q37 38 37 60q0 23 -27 23q-14 0 -38 -12l-22 53q37 27 92 27
q42 0 63 -19.5t21 -50.5q0 -45 -45 -81z" />
    <glyph glyph-name="uni1EF8" unicode="&#x1ef8;" horiz-adv-x="345" 
d="M223 0h-103v237q0 9 -3 22l-125 409h114q55 -220 68 -306h1q8 51 68 306h110l-128 -418q-2 -8 -2 -25v-225zM104 719h-62v19q0 86 70 86q25 0 62 -15t46 -15q18 0 18 21v10h63v-12q0 -52 -17 -73.5t-53 -21.5q-24 0 -60.5 14t-47.5 14q-19 0 -19 -20v-7z" />
    <glyph glyph-name="uni1EF9" unicode="&#x1ef9;" horiz-adv-x="342" 
d="M3 518h110q54 -328 58 -395h3q4 40 12 89.5t23 140t27 165.5h103l-116 -543q-11 -53 -26.5 -86.5t-36.5 -47.5t-38 -18t-44 -4q-20 0 -48 4l2 92q18 -2 30 -2q26 0 39 13.5t19 52.5zM115 581h-64v30q0 76 63 76q25 0 59.5 -15t43.5 -15q6 0 8 4t2 21v5h63v-28
q0 -81 -62 -81q-22 0 -56.5 16t-45.5 16t-11 -22v-7z" />
    <glyph glyph-name="uni2007" unicode="&#x2007;" horiz-adv-x="369" 
 />
    <glyph glyph-name="uni2010" unicode="&#x2010;" horiz-adv-x="223" 
d="M21 312h181v-94h-181v94z" />
    <glyph glyph-name="figuredash" unicode="&#x2012;" horiz-adv-x="369" 
d="M58 371h251v-90h-251v90z" />
    <glyph glyph-name="endash" unicode="&#x2013;" horiz-adv-x="302" 
d="M21 310h260v-90h-260v90z" />
    <glyph glyph-name="emdash" unicode="&#x2014;" horiz-adv-x="547" 
d="M21 310h505v-90h-505v90z" />
    <glyph glyph-name="uni2015" unicode="&#x2015;" horiz-adv-x="547" 
d="M21 310h505v-90h-505v90z" />
    <glyph glyph-name="quoteleft" unicode="&#x2018;" horiz-adv-x="178" 
d="M77 697h75q-31 -134 -31 -238h-94q2 66 18 135t32 103z" />
    <glyph glyph-name="quoteright" unicode="&#x2019;" horiz-adv-x="178" 
d="M102 459h-76q31 127 31 238h94q-1 -66 -17 -134.5t-32 -103.5z" />
    <glyph glyph-name="quotesinglbase" unicode="&#x201a;" horiz-adv-x="178" 
d="M102 -97h-76q31 127 31 238h94q-1 -66 -17 -134.5t-32 -103.5z" />
    <glyph glyph-name="quotedblleft" unicode="&#x201c;" horiz-adv-x="305" 
d="M210 697h69q-31 -128 -31 -238h-90q1 58 18 130t34 108zM79 697h69q-31 -129 -31 -238h-90q1 58 17 128t35 110z" />
    <glyph glyph-name="quotedblright" unicode="&#x201d;" horiz-adv-x="305" 
d="M96 459h-70q31 128 31 238h90q-1 -58 -17.5 -129.5t-33.5 -108.5zM227 459h-69q31 137 31 238h89q-1 -58 -16.5 -128t-34.5 -110z" />
    <glyph glyph-name="quotedblbase" unicode="&#x201e;" horiz-adv-x="305" 
d="M96 -97h-70q31 128 31 238h90q-1 -58 -17.5 -129.5t-33.5 -108.5zM227 -97h-69q31 137 31 238h89q-1 -58 -16.5 -128t-34.5 -110z" />
    <glyph glyph-name="dagger" unicode="&#x2020;" horiz-adv-x="328" 
d="M110 619h92l-4 -178l105 6v-92l-105 6l4 -412h-92l6 412l-105 -6v92l105 -6z" />
    <glyph glyph-name="daggerdbl" unicode="&#x2021;" horiz-adv-x="328" 
d="M110 617h92l-3 -162l104 5v-90l-104 4v-181l104 6v-91l-104 5l3 -184h-92l5 184l-104 -5v91l104 -6v181l-104 -4v90l104 -5z" />
    <glyph glyph-name="bullet" unicode="&#x2022;" horiz-adv-x="230" 
d="M36 343h157v-166h-157v166z" />
    <glyph glyph-name="ellipsis" unicode="&#x2026;" horiz-adv-x="559" 
d="M138 0h-103v148h103v-148zM321 0h-103v148h103v-148zM510 0h-103v148h103v-148z" />
    <glyph glyph-name="perthousand" unicode="&#x2030;" horiz-adv-x="783" 
d="M651 345q106 0 106 -120v-109q0 -61 -27.5 -92.5t-79.5 -31.5q-107 0 -107 118v116q0 61 29.5 90t78.5 29zM651 281q-37 0 -37 -51v-120q0 -53 36 -53t36 54v122q0 48 -35 48zM134 658q50 0 78 -31t28 -89v-109q0 -61 -27.5 -92.5t-79.5 -31.5q-48 0 -77.5 29t-29.5 89
v116q0 61 29.5 90t78.5 29zM134 594q-37 0 -37 -51v-120q0 -53 36 -53t36 54v121q0 49 -35 49zM140 0h-51l308 650h53zM408 345q50 0 77.5 -30t27.5 -90v-109q0 -60 -27.5 -92t-78.5 -32q-107 0 -107 118v116q0 60 29.5 89.5t78.5 29.5zM407 281q-36 0 -36 -51v-120
q0 -53 36 -53t36 54v122q0 48 -36 48z" />
    <glyph glyph-name="uni2032" unicode="&#x2032;" horiz-adv-x="230" 
d="M130 459h-80l36 238h94z" />
    <glyph glyph-name="uni2033" unicode="&#x2033;" horiz-adv-x="356" 
d="M125 459h-75l36 238h89zM257 459h-75l35 238h89z" />
    <glyph glyph-name="guilsinglleft" unicode="&#x2039;" horiz-adv-x="229" 
d="M203 422l-89 -160l89 -160h-87l-90 160l90 160h87z" />
    <glyph glyph-name="guilsinglright" unicode="&#x203a;" horiz-adv-x="229" 
d="M26 102l89 159l-89 161h87l90 -161l-90 -159h-87z" />
    <glyph glyph-name="fraction" unicode="&#x2044;" horiz-adv-x="95" 
d="M-67 0h-62l291 650h62z" />
    <glyph glyph-name="zero.sups" unicode="&#x2070;" horiz-adv-x="266" 
d="M135 784q107 0 107 -120v-109q0 -125 -110 -125q-108 0 -108 121v113q0 56 27.5 88t83.5 32zM133 721q-33 0 -33 -47v-131q0 -48 34 -48q31 0 31 49v130q0 47 -32 47z" />
    <glyph glyph-name="four.sups" unicode="&#x2074;" horiz-adv-x="263" 
d="M214 434h-70v84h-127v55l106 207h91v-200h36l-6 -62h-30v-84zM87 580h57v42q0 67 2 88h-1q-6 -18 -58 -130z" />
    <glyph glyph-name="five.sups" unicode="&#x2075;" horiz-adv-x="265" 
d="M231 780l-7 -62h-112q-4 -29 -7 -65q17 15 51 15q89 0 89 -115q0 -54 -27 -88.5t-88 -34.5q-54 0 -81.5 28.5t-28.5 75.5h74q2 -43 36 -43q38 0 38 61q0 31 -9 43.5t-29 12.5q-27 0 -40 -29l-63 7q6 47 19 194h185z" />
    <glyph glyph-name="six.sups" unicode="&#x2076;" horiz-adv-x="268" 
d="M242 691h-74q-2 34 -33 34q-21 0 -27.5 -16.5t-6.5 -54.5v-11q21 24 62 24q86 0 86 -109q0 -128 -112 -128q-62 0 -87.5 37.5t-25.5 108.5v55q0 74 25 113.5t90 39.5q52 0 77 -26.5t26 -66.5zM138 492q35 0 35 61q0 28 -8 41t-28 13q-37 0 -37 -56q0 -59 38 -59z" />
    <glyph glyph-name="seven.sups" unicode="&#x2077;" horiz-adv-x="233" 
d="M6 780h208v-58q-77 -121 -100 -288h-85q10 81 44 161.5t63 117.5h-130v67z" />
    <glyph glyph-name="eight.sups" unicode="&#x2078;" horiz-adv-x="267" 
d="M130 430q-49 0 -79.5 26t-30.5 77q0 52 47 79q-38 27 -38 75q0 44 26.5 70.5t79.5 26.5q48 0 74.5 -25.5t26.5 -71.5q0 -50 -37 -73q47 -22 47 -82q0 -49 -30 -75.5t-86 -26.5zM134 723q-32 0 -32 -36v-3q0 -41 32 -41q31 0 31 40v2q0 38 -31 38zM135 492q35 0 35 43v2
q0 45 -36 45q-37 0 -37 -44v-1q0 -45 38 -45z" />
    <glyph glyph-name="nine.sups" unicode="&#x2079;" horiz-adv-x="270" 
d="M26 525h76q2 -17 8 -25.5t24 -8.5q20 0 27.5 19.5t7.5 60.5v12q-19 -27 -61 -27q-38 0 -63 25t-25 77v8q0 59 32.5 88.5t79.5 29.5q114 0 114 -140v-69q0 -76 -27 -110.5t-89 -34.5q-50 0 -76.5 25.5t-27.5 69.5zM133 719q-36 0 -36 -48v-8q0 -46 36 -46q37 0 37 48v8
q0 46 -37 46z" />
    <glyph glyph-name="parenleft.sups" unicode="&#x207d;" horiz-adv-x="177" 
d="M95 853h70q-61 -111 -61 -253t61 -251h-70q-63 91 -63 251q0 148 63 253z" />
    <glyph glyph-name="parenright.sups" unicode="&#x207e;" horiz-adv-x="177" 
d="M81 349h-70q61 111 61 253t-61 251h70q63 -91 63 -251q0 -148 -63 -253z" />
    <glyph glyph-name="n.sups" unicode="&#x207f;" horiz-adv-x="268" 
d="M30 304v212q0 79 -1 106h69q2 -7 4 -33q18 38 64 38q72 0 72 -94v-229h-73v215q0 22 -6 32.5t-23 10.5q-18 0 -25.5 -13t-7.5 -43v-202h-73z" />
    <glyph glyph-name="zero.subs" unicode="&#x2080;" horiz-adv-x="266" 
d="M135 217q107 0 107 -120v-109q0 -125 -110 -125q-108 0 -108 121v113q0 56 27.5 88t83.5 32zM133 154q-33 0 -33 -47v-131q0 -48 34 -48q31 0 31 49v130q0 47 -32 47z" />
    <glyph glyph-name="one.subs" unicode="&#x2081;" horiz-adv-x="165" 
d="M129 -133h-75v267q-14 -4 -39 0v53q37 4 58 29h56v-349z" />
    <glyph glyph-name="two.subs" unicode="&#x2082;" horiz-adv-x="246" 
d="M221 -133h-203v8q-1 43 15.5 78.5t59.5 78.5l12.5 12.5t10.5 11t8.5 9t7.5 8t5.5 7t4.5 7t3 6t2.5 6.5t1 6.5t0.5 7.5q0 43 -29 43q-33 0 -33 -47v-15h-71v13q0 110 107 110q103 0 103 -105q0 -12 -2.5 -23.5t-5 -18.5t-11 -18t-11.5 -14.5t-16 -17t-17 -17.5
l-16.5 -16.5t-18 -18.5t-12.5 -17t-11 -22h128z" />
    <glyph glyph-name="three.subs" unicode="&#x2083;" horiz-adv-x="255" 
d="M13 -28h75v-3q0 -47 37 -47q38 0 38 48q0 26 -11.5 36.5t-35.5 10.5h-24v64h22q22 0 30.5 9t8.5 28q0 38 -30 38q-33 0 -33 -43v-2h-71v2q0 47 26.5 75.5t79.5 28.5q52 0 77.5 -26.5t25.5 -67.5q0 -51 -43 -70q54 -23 54 -82q0 -49 -30 -78.5t-84 -29.5q-56 0 -84 29
t-28 75v5z" />
    <glyph glyph-name="four.subs" unicode="&#x2084;" horiz-adv-x="263" 
d="M214 -133h-70v84h-127v55l106 207h91v-200h36l-6 -62h-30v-84zM87 13h57v42q0 67 2 88h-1q-6 -18 -58 -130z" />
    <glyph glyph-name="five.subs" unicode="&#x2085;" horiz-adv-x="265" 
d="M231 213l-7 -62h-112q-4 -29 -7 -65q17 15 51 15q89 0 89 -115q0 -54 -27 -88.5t-88 -34.5q-54 0 -81.5 28.5t-28.5 75.5h74q2 -43 36 -43q38 0 38 61q0 31 -9 43.5t-29 12.5q-27 0 -40 -29l-63 7q6 47 19 194h185z" />
    <glyph glyph-name="six.subs" unicode="&#x2086;" horiz-adv-x="268" 
d="M242 124h-74q-2 34 -33 34q-21 0 -27.5 -16.5t-6.5 -54.5v-11q21 24 62 24q86 0 86 -109q0 -128 -112 -128q-62 0 -87.5 37.5t-25.5 108.5v55q0 74 25 113.5t90 39.5q52 0 77 -26.5t26 -66.5zM138 -75q35 0 35 61q0 28 -8 41t-28 13q-37 0 -37 -56q0 -59 38 -59z" />
    <glyph glyph-name="seven.subs" unicode="&#x2087;" horiz-adv-x="233" 
d="M6 213h208v-58q-77 -121 -100 -288h-85q10 81 44 161.5t63 117.5h-130v67z" />
    <glyph glyph-name="eight.subs" unicode="&#x2088;" horiz-adv-x="267" 
d="M130 -137q-49 0 -79.5 26t-30.5 77q0 52 47 79q-38 27 -38 75q0 44 26.5 70.5t79.5 26.5q48 0 74.5 -25.5t26.5 -71.5q0 -50 -37 -73q47 -22 47 -82q0 -49 -30 -75.5t-86 -26.5zM134 156q-32 0 -32 -36v-3q0 -41 32 -41q31 0 31 40v2q0 38 -31 38zM135 -75q35 0 35 43v2
q0 45 -36 45q-37 0 -37 -44v-1q0 -45 38 -45z" />
    <glyph glyph-name="nine.subs" unicode="&#x2089;" horiz-adv-x="270" 
d="M26 -42h76q2 -17 8 -25.5t24 -8.5q20 0 27.5 19.5t7.5 60.5v12q-19 -27 -61 -27q-38 0 -63 25t-25 77v8q0 59 32.5 88.5t79.5 29.5q114 0 114 -140v-69q0 -76 -27 -110.5t-89 -34.5q-50 0 -76.5 25.5t-27.5 69.5zM133 152q-36 0 -36 -48v-8q0 -46 36 -46q37 0 37 48v8
q0 46 -37 46z" />
    <glyph glyph-name="parenleft.subs" unicode="&#x208d;" horiz-adv-x="177" 
d="M95 286h70q-61 -111 -61 -253t61 -251h-70q-63 91 -63 251q0 148 63 253z" />
    <glyph glyph-name="parenright.subs" unicode="&#x208e;" horiz-adv-x="177" 
d="M81 -218h-70q61 111 61 253t-61 251h70q63 -91 63 -251q0 -148 -63 -253z" />
    <glyph glyph-name="colonmonetary" unicode="&#x20a1;" horiz-adv-x="366" 
d="M244 204h97v-5q0 -72 -15 -117.5t-58 -65.5v-80h-61v66q-5 -1 -17 -1h-8v-65h-61v76q-28 11 -46.5 31t-26 48.5t-10 52t-2.5 56.5v268q0 133 85 168v66h61v-54h12h13v54h61v-67q43 -19 56.5 -62.5t13.5 -116.5v-11h-95v14q0 53 -9 75.5t-40 22.5q-53 0 -53 -83v-285
q0 -51 12 -74t42 -23t39.5 22t9.5 69v21z" />
    <glyph glyph-name="franc" unicode="&#x20a3;" horiz-adv-x="340" 
d="M62 0v132h-53v70h53v448h262v-90h-159v-159h147v-90h-147v-109h78v-70h-78v-132h-103z" />
    <glyph glyph-name="lira" unicode="&#x20a4;" horiz-adv-x="377" 
d="M346 0h-320v80q58 33 58 157v9h-65v57h63q-1 16 -3 46h-60v57h56q-3 44 -3 89q0 163 141 163q76 0 107 -42t31 -117v-19h-99v24q0 36 -8.5 52.5t-30.5 16.5t-30 -16.5t-8 -56.5q0 -34 5 -94h93v-57h-90q1 -16 3 -46h87v-57h-87q-5 -109 -39 -157h209z" />
    <glyph glyph-name="uni20A6" unicode="&#x20a6;" horiz-adv-x="377" 
d="M119 524q2 -33 4 -97h18l-17 97h-5zM248 158h7q-1 15 -3.5 51.5t-3.5 57.5h-19zM127 0h-81v267h-37v57h37v46h-37v57h37v223h118l38 -223h41v18v205h82v-223h36v-57h-36l1 -46h35v-57h-35v-267h-110l-47 267h-42v-52v-215zM245 324q0 7 -0.5 22.5t-0.5 23.5h-32l8 -46h25
zM159 324l-8 46h-26q1 -15 1 -46h33z" />
    <glyph glyph-name="peseta" unicode="&#x20a7;" horiz-adv-x="377" 
d="M52 0v423h-33v70h33v157h118q84 0 124 -37.5t42 -119.5h29v-70h-29q-3 -85 -42.5 -122t-116.5 -37h-22v-264h-103zM154 568v-75h80v5q0 39 -13.5 54.5t-48.5 15.5h-18zM154 346h16q34 0 49 17t15 60h-80v-77z" />
    <glyph glyph-name="dong" unicode="&#x20ab;" horiz-adv-x="376" 
d="M44 -54h286v-69h-286v69zM229 462v80h-117v72h117v48h103v-48h48v-72h-48v-398q0 -84 2 -144h-95q-5 22 -5 48q-26 -56 -91 -56q-113 0 -113 163v178q0 78 31.5 122t90.5 44q58 0 77 -37zM133 329v-165q0 -76 48 -76q50 0 50 87v142q0 28 -2.5 43.5t-13 28t-31.5 12.5
q-51 0 -51 -72z" />
    <glyph glyph-name="Euro" unicode="&#x20ac;" horiz-adv-x="386" 
d="M270 179h97v-6q0 -181 -155 -181q-49 0 -81 17.5t-46 49t-18.5 59t-4.5 63.5v71h-43v58h43v45h-43v58h43v60q0 33 6.5 62t22 58.5t47.5 47t78 17.5q148 0 148 -170v-16h-95v14q0 37 -10 57.5t-41 20.5q-51 0 -51 -78v-73h134v-58h-134v-45h134v-58h-134v-80
q0 -44 11.5 -65.5t40.5 -21.5q28 0 39.5 22t11.5 66v6z" />
    <glyph glyph-name="uni20B1" unicode="&#x20b1;" horiz-adv-x="403" 
d="M65 0v379h-43v50h43v40h-43v51h43v130h125q148 0 158 -130h41v-51h-40v-40h40v-50h-41q-13 -131 -152 -131h-28v-248h-103zM168 570v-50h80q-8 50 -58 50h-22zM168 330h20q51 0 60 49h-80v-49zM250 429v40h-82v-40h82z" />
    <glyph glyph-name="uni20B2" unicode="&#x20b2;" horiz-adv-x="377" 
d="M344 349v-322q-51 -19 -111 -25v-69h-79v70q-40 6 -65.5 25.5t-37.5 51.5t-16 62.5t-4 75.5v243q0 166 123 186v53h79v-53q66 -12 89 -58.5t23 -120.5v-16h-103v27q0 45 -10.5 65t-41.5 20q-32 0 -43 -21t-11 -63v-261q0 -73 15 -101t58 -28q18 0 32 5v254h103z" />
    <glyph glyph-name="uni20B4" unicode="&#x20b4;" horiz-adv-x="370" 
d="M141 488h-97v5q0 165 138 165q139 0 139 -152q0 -57 -20 -100h42v-55h-76q-6 -9 -39 -46h100v-54h-148q-37 -48 -37 -103q0 -70 44 -70q48 0 48 84v8h98v-7q0 -91 -37.5 -131t-112.5 -40q-142 0 -142 155q0 60 23 104h-40v54h78q24 28 42 46h-105v55h151q29 43 28 103
q-2 65 -38 65q-39 0 -39 -64v-22z" />
    <glyph glyph-name="uni20B5" unicode="&#x20b5;" horiz-adv-x="365" 
d="M244 203h97v-5q0 -84 -22.5 -133t-88.5 -61v-70h-79v70q-26 4 -46 14.5t-32 27t-20 33.5t-11.5 40.5t-4.5 40.5t-1 42v265q0 155 115 177v56h79v-55q66 -10 87 -56.5t21 -131.5v-11h-95v18q0 52 -9.5 74.5t-39.5 22.5q-29 0 -41 -21t-12 -63v-289q0 -51 12 -75t42 -24
t39.5 22t9.5 68v24z" />
    <glyph glyph-name="uni20B9" unicode="&#x20b9;" horiz-adv-x="375" 
d="M32 579v71h316v-58h-97q22 -25 30 -55h67v-58h-60v-17q0 -132 -111 -167l147 -295h-115l-137 282h-40v87h52q54 0 78 20.5t24 73.5v16h-154v58h145q-19 42 -95 42h-50z" />
    <glyph glyph-name="uni20BA" unicode="&#x20ba;" horiz-adv-x="375" 
d="M167 0h-99v276l-61 -26v71l61 26v52l-61 -26v72l61 26v179h102v-135l93 40v-72l-93 -40v-53l93 40v-71l-93 -40v-227q43 0 64.5 31t23.5 107h94q-4 -230 -185 -230z" />
    <glyph glyph-name="uni20BD" unicode="&#x20bd;" horiz-adv-x="374" 
d="M59 0v188h-53v69h53v46h-53v75h53v272h129q95 0 130 -40.5t35 -108.5v-37q0 -80 -37 -120.5t-130 -40.5h-26v-46h91v-69h-91v-188h-101zM160 568v-190h26q40 0 53 20t13 64v35q0 36 -12.5 53.5t-49.5 17.5h-30z" />
    <glyph glyph-name="uni2113" unicode="&#x2113;" horiz-adv-x="358" 
d="M167 551v-186q57 73 57 186q0 55 -28 55q-29 0 -29 -55zM248 147h91q1 -89 -36 -122t-103 -33q-73 0 -102.5 38t-29.5 119v29q-4 -4 -48 -33v101q26 18 47 37v242q0 88 35.5 129.5t92.5 41.5q120 0 123 -153q2 -178 -151 -304v-74q0 -27 1.5 -41t11 -27t28.5 -13
q21 0 30 14.5t10 48.5z" />
    <glyph glyph-name="uni2116" unicode="&#x2116;" horiz-adv-x="683" 
d="M142 0h-95v650h119q101 -383 113 -443h1q-4 66 -4 269v174h95v-650h-116q-77 287 -116 462h-1q4 -65 4 -279v-183zM532 618q55 0 88.5 -33.5t33.5 -102.5v-95q0 -143 -123 -143q-121 0 -121 144v94q0 67 33 101.5t89 34.5zM531 538q-36 0 -36 -54v-101q0 -58 38 -58
q36 0 36 58v100q0 55 -38 55zM428 194h208v-76h-208v76z" />
    <glyph glyph-name="uni2117" unicode="&#x2117;" horiz-adv-x="554" 
d="M196 167v324h92q100 0 100 -93v-19q0 -94 -102 -94h-27v-118h-63zM259 436v-98h18q25 0 36 8.5t11 32.5v20q0 22 -12 29.5t-38 7.5h-15zM278 635q107 0 173 -77.5t66 -229.5q0 -151 -66 -230t-173 -79q-108 0 -174.5 78t-66.5 231q0 147 67.5 227t173.5 80zM277 583
q-84 0 -133.5 -67t-49.5 -189t48.5 -188.5t134.5 -66.5q88 0 136 67t48 189q0 121 -49.5 188t-134.5 67z" />
    <glyph glyph-name="uni2120" unicode="&#x2120;" horiz-adv-x="383" 
d="M13 502h51q0 -30 19 -30q16 0 16 18q0 19 -25 33q-35 18 -46.5 36t-11.5 44q0 31 18 48.5t50 17.5q66 0 66 -74h-48q0 29 -19 29q-14 0 -14 -16q0 -14 25 -28q35 -21 47 -37.5t12 -46.5q0 -69 -71 -69q-69 0 -69 75zM388 431h-57v76q0 25 4 109h-2q-6 -31 -16.5 -92.5
t-16.5 -91.5h-48q-6 34 -15 95.5t-14 90.5h-2q4 -72 4 -129v-58h-53v237h86q16 -99 20 -139h1q4 33 27 139h82v-237z" />
    <glyph glyph-name="trademark" unicode="&#x2122;" horiz-adv-x="375" 
d="M2 668h146v-51h-44v-186h-58v186h-44v51zM380 431h-57v76q0 25 4 109h-2q-5 -27 -15.5 -89t-17.5 -95h-48q-6 34 -15 95.5t-14 90.5h-1q5 -95 5 -134v-53h-55v237h86q16 -98 21 -139h1q6 46 26 139h82v-237z" />
    <glyph glyph-name="uni2126" unicode="&#x2126;" horiz-adv-x="395" 
d="M305 95h64v-95h-157v84q27 25 34 72.5t7 192.5v133q0 51 -10 75.5t-44 24.5q-32 0 -44 -24t-12 -74v-133q0 -143 8.5 -192t32.5 -75v-84h-157v95h63q-30 30 -41 84t-11 148v159q3 190 163 190q82 0 119.5 -47.5t37.5 -141.5v-153q0 -109 -11 -160t-42 -79z" />
    <glyph glyph-name="estimated" unicode="&#x212e;" horiz-adv-x="574" 
d="M557 306h-417q-3 0 -3 -3v-99q0 -9 4 -21q19 -58 58 -88t90 -30q50 0 79 18t49 58h102q-25 -65 -88 -107t-144 -42q-112 0 -187 92.5t-75 242.5q0 147 77 241t189 94q118 0 192 -88t74 -259v-9zM447 385v76q0 17 -6 29q-44 102 -148 102t-150 -98q-6 -12 -6 -23v-86
q0 -5 3 -5h303q4 0 4 5z" />
    <glyph glyph-name="onethird" unicode="&#x2153;" horiz-adv-x="520" 
d="M107 0h-62l291 650h62zM128 304h-75v267q-14 -4 -39 0v53q37 4 58 29h56v-349zM267 103h75v-3q0 -47 37 -47q38 0 38 48q0 26 -11.5 36.5t-35.5 10.5h-24v64h22q22 0 30.5 9t8.5 28q0 38 -30 38q-33 0 -33 -43v-2h-71v2q0 47 26.5 75.5t79.5 28.5q52 0 77.5 -26.5
t25.5 -67.5q0 -51 -43 -70q54 -23 54 -82q0 -49 -30 -78.5t-84 -29.5q-56 0 -84 29t-28 75v5z" />
    <glyph glyph-name="twothirds" unicode="&#x2154;" horiz-adv-x="594" 
d="M185 0h-62l291 650h62zM221 304h-203v8q-1 43 15.5 78.5t59.5 78.5l12.5 12.5t10.5 11t8.5 9t7.5 8t5.5 7t4.5 7t3 6t2.5 6.5t1 6.5t0.5 7.5q0 43 -29 43q-33 0 -33 -47v-15h-71v13q0 110 107 110q103 0 103 -105q0 -12 -2.5 -23.5t-5 -18.5t-11 -18t-11.5 -14.5t-16 -17
t-17 -17.5l-16.5 -16.5t-18 -18.5t-12.5 -17t-11 -22h128zM340 104h75v-3q0 -47 37 -47q38 0 38 48q0 26 -11.5 36.5t-35.5 10.5h-24v64h22q22 0 30.5 9t8.5 28q0 38 -30 38q-33 0 -33 -43v-2h-71v2q0 47 26.5 75.5t79.5 28.5q52 0 77.5 -26.5t25.5 -67.5q0 -51 -43 -70
q54 -23 54 -82q0 -49 -30 -78.5t-84 -29.5q-56 0 -84 29t-28 75v5z" />
    <glyph glyph-name="oneeighth" unicode="&#x215b;" horiz-adv-x="519" 
d="M103 0h-62l291 650h62zM129 304h-75v267q-14 -4 -39 0v53q37 4 58 29h56v-349zM377 -6q-49 0 -79.5 26t-30.5 77q0 52 47 79q-38 27 -38 75q0 44 26.5 70.5t79.5 26.5q48 0 74.5 -25.5t26.5 -71.5q0 -50 -37 -73q47 -22 47 -82q0 -49 -30 -75.5t-86 -26.5zM381 287
q-32 0 -32 -36v-3q0 -41 32 -41q31 0 31 40v2q0 38 -31 38zM382 56q35 0 35 43v2q0 45 -36 45q-37 0 -37 -44v-1q0 -45 38 -45z" />
    <glyph glyph-name="threeeighths" unicode="&#x215c;" horiz-adv-x="585" 
d="M172 0h-62l291 650h62zM439 -5q-49 0 -79.5 26t-30.5 77q0 52 47 79q-38 27 -38 75q0 44 26.5 70.5t79.5 26.5q48 0 74.5 -25.5t26.5 -71.5q0 -50 -37 -73q47 -22 47 -82q0 -49 -30 -75.5t-86 -26.5zM443 288q-32 0 -32 -36v-3q0 -41 32 -41q31 0 31 40v2q0 38 -31 38z
M444 57q35 0 35 43v2q0 45 -36 45q-37 0 -37 -44v-1q0 -45 38 -45zM13 409h75v-3q0 -47 37 -47q38 0 38 48q0 26 -11.5 36.5t-35.5 10.5h-24v64h22q22 0 30.5 9t8.5 28q0 38 -30 38q-33 0 -33 -43v-2h-71v2q0 47 26.5 75.5t79.5 28.5q52 0 77.5 -26.5t25.5 -67.5
q0 -51 -43 -70q54 -23 54 -82q0 -49 -30 -78.5t-84 -29.5q-56 0 -84 29t-28 75v5z" />
    <glyph glyph-name="fiveeighths" unicode="&#x215d;" horiz-adv-x="592" 
d="M178 0h-62l291 650h62zM232 650l-7 -62h-112q-4 -29 -7 -65q17 15 51 15q89 0 89 -115q0 -54 -27 -88.5t-88 -34.5q-54 0 -81.5 28.5t-28.5 75.5h74q2 -43 36 -43q38 0 38 61q0 31 -9 43.5t-29 12.5q-27 0 -40 -29l-63 7q6 47 19 194h185zM446 -5q-49 0 -79.5 26
t-30.5 77q0 52 47 79q-38 27 -38 75q0 44 26.5 70.5t79.5 26.5q48 0 74.5 -25.5t26.5 -71.5q0 -50 -37 -73q47 -22 47 -82q0 -49 -30 -75.5t-86 -26.5zM450 288q-32 0 -32 -36v-3q0 -41 32 -41q31 0 31 40v2q0 38 -31 38zM451 57q35 0 35 43v2q0 45 -36 45q-37 0 -37 -44v-1
q0 -45 38 -45z" />
    <glyph glyph-name="seveneighths" unicode="&#x215e;" horiz-adv-x="541" 
d="M119 0h-62l291 650h62zM392 -6q-49 0 -79.5 26t-30.5 77q0 52 47 79q-38 27 -38 75q0 44 26.5 70.5t79.5 26.5q48 0 74.5 -25.5t26.5 -71.5q0 -50 -37 -73q47 -22 47 -82q0 -49 -30 -75.5t-86 -26.5zM396 287q-32 0 -32 -36v-3q0 -41 32 -41q31 0 31 40v2q0 38 -31 38z
M397 56q35 0 35 43v2q0 45 -36 45q-37 0 -37 -44v-1q0 -45 38 -45zM26 650h208v-58q-77 -121 -100 -288h-85q10 81 44 161.5t63 117.5h-130v67z" />
    <glyph glyph-name="uni2190" unicode="&#x2190;" horiz-adv-x="651" 
d="M621 280h-453l243 -237l-50 -57l-331 332v2l331 333l49 -58l-241 -239h452v-76z" />
    <glyph glyph-name="arrowup" unicode="&#x2191;" horiz-adv-x="682" 
d="M301 -4v520l-218 -238l-53 56l310 329h1l311 -329l-54 -55l-219 238v-521h-78z" />
    <glyph glyph-name="uni2192" unicode="&#x2192;" horiz-adv-x="651" 
d="M30 359h453l-243 237l50 57l331 -332v-2l-331 -333l-49 58l241 239h-452v76z" />
    <glyph glyph-name="arrowdown" unicode="&#x2193;" horiz-adv-x="682" 
d="M381 653v-520l218 238l53 -56l-310 -329h-1l-311 329l54 55l219 -238v521h78z" />
    <glyph glyph-name="partialdiff" unicode="&#x2202;" horiz-adv-x="382" 
d="M61 576v92q24 8 71 8q52 0 90.5 -15.5t61 -40t36 -63.5t18 -78.5t4.5 -92.5v-226q-1 -88 -41 -128t-118 -40q-71 0 -110 40.5t-39 123.5v113q0 71 36 114t102 43q51 0 66 -19v5q0 40 -4 67.5t-16.5 52.5t-37.5 37t-64 12q-28 0 -55 -5zM190 76q50 0 50 73v124
q0 68 -52 68q-49 0 -49 -65v-128q0 -72 51 -72z" />
    <glyph glyph-name="uni2206" unicode="&#x2206;" horiz-adv-x="385" 
d="M18 0v73l103 595h134l113 -594v-74h-350zM117 95h141q-8 52 -36 223.5t-37 243.5h-1q-12 -109 -67 -467z" />
    <glyph glyph-name="product" unicode="&#x220f;" horiz-adv-x="410" 
d="M47 668h317v-728h-104v632h-110v-632h-103v728z" />
    <glyph glyph-name="summation" unicode="&#x2211;" horiz-adv-x="305" 
d="M296 -60h-294v77l122 287l-116 280v84h278v-96h-162l107 -263l-115 -273h192z" />
    <glyph glyph-name="minus" unicode="&#x2212;" horiz-adv-x="483" 
d="M43 288h396v-77h-396v77z" />
    <glyph glyph-name="uni2215" unicode="&#x2215;" horiz-adv-x="95" 
d="M-67 0h-62l291 650h62z" />
    <glyph glyph-name="uni2219" unicode="&#x2219;" horiz-adv-x="174" 
d="M138 200h-103v148h103v-148z" />
    <glyph glyph-name="radical" unicode="&#x221a;" horiz-adv-x="434" 
d="M430 811l-149 -942h-63l-112 374l-65 -23l-20 74l152 57q38 -144 70 -279q1 18 5 50t13.5 97.5t20 133t31 201.5t38.5 257h79z" />
    <glyph glyph-name="infinity" unicode="&#x221e;" horiz-adv-x="636" 
d="M160 115q-59 0 -95.5 38t-36.5 98q0 57 37.5 96.5t100.5 39.5q46 0 80 -21t72 -59q40 39 74 59.5t79 20.5q61 0 97.5 -37t36.5 -99q0 -59 -38.5 -97t-100.5 -39q-45 -1 -79 20.5t-72 60.5q-27 -27 -44.5 -41.5t-47.5 -27t-63 -12.5zM466 194q32 0 45.5 17t13.5 40
q0 25 -15.5 41.5t-43.5 16.5q-46 0 -98 -56q20 -19 31.5 -29t30.5 -20t36 -10zM167 194q29 0 49.5 13t48.5 42q-23 23 -33 32t-28 18.5t-35 9.5q-26 0 -43.5 -14.5t-17.5 -43.5q0 -27 18 -42t41 -15z" />
    <glyph glyph-name="integral" unicode="&#x222b;" horiz-adv-x="243" 
d="M248 800l-9 -93q-12 3 -26 3q-30 0 -39.5 -19.5t-8.5 -67.5q0 -64 3.5 -277.5t3.5 -276.5q0 -104 -8 -140q-22 -95 -113 -95q-40 0 -58 10l12 99q12 -5 36 -5t31 24.5t6 106.5q-1 66 -3.5 266t-3.5 261q-1 46 3 80t16 66.5t38.5 49.5t65.5 17q37 0 54 -9z" />
    <glyph glyph-name="approxequal" unicode="&#x2248;" horiz-adv-x="479" 
d="M118 273h-74v21q0 103 92 103q41 0 107.5 -26.5t90.5 -26.5q28 0 28 40v7h72v-15q0 -109 -94 -109q-43 0 -108.5 26t-86.5 26q-27 0 -27 -40v-6zM118 111h-74v20q0 59 23.5 81.5t66.5 22.5q40 0 108 -26.5t92 -26.5q15 0 21.5 7.5t6.5 32.5v8h72v-19q0 -60 -24.5 -83
t-69.5 -23q-47 0 -110.5 26t-84.5 26q-27 0 -27 -40v-6z" />
    <glyph glyph-name="notequal" unicode="&#x2260;" horiz-adv-x="481" 
d="M381 453l-40 -79h97v-77h-136l-47 -95h183v-77h-222l-41 -81h-74l41 81h-99v77h137l48 95h-185v77h223l40 79h75z" />
    <glyph glyph-name="lessequal" unicode="&#x2264;" horiz-adv-x="459" 
d="M46 271v81l367 158v-84l-282 -113l282 -115v-84zM46 76h367v-76h-367v76z" />
    <glyph glyph-name="greaterequal" unicode="&#x2265;" horiz-adv-x="459" 
d="M413 353v-81l-367 -158v84l282 113l-282 115v84zM46 76h367v-76h-367v76z" />
    <glyph glyph-name="uni25A0" unicode="&#x25a0;" horiz-adv-x="284" 
d="M50 165v184h184v-184h-184z" />
    <glyph glyph-name="triagup" unicode="&#x25b2;" horiz-adv-x="463" 
d="M433 9h-403l197 530h2z" />
    <glyph glyph-name="uni25B3" unicode="&#x25b3;" horiz-adv-x="463" 
d="M134 87h184l-93 263zM433 9h-403l197 530h2z" />
    <glyph glyph-name="uni25B6" unicode="&#x25b6;" horiz-adv-x="549" 
d="M60 72v402l459 -197v-2z" />
    <glyph glyph-name="uni25B7" unicode="&#x25b7;" horiz-adv-x="549" 
d="M134 369v-183l217 91zM60 72v402l458 -197v-2z" />
    <glyph glyph-name="triagdn" unicode="&#x25bc;" horiz-adv-x="463" 
d="M30 519h403l-197 -530h-2z" />
    <glyph glyph-name="uni25BD" unicode="&#x25bd;" horiz-adv-x="463" 
d="M328 450h-184l93 -263zM30 528h403l-197 -530h-2z" />
    <glyph glyph-name="uni25C0" unicode="&#x25c0;" horiz-adv-x="549" 
d="M489 474v-402l-459 197v1z" />
    <glyph glyph-name="uni25C1" unicode="&#x25c1;" horiz-adv-x="549" 
d="M415 177v183l-218 -91zM489 474v-402l-459 197v1z" />
    <glyph glyph-name="uni25C6" unicode="&#x25c6;" horiz-adv-x="336" 
d="M40 258l127 131l129 -134l-126 -132z" />
    <glyph glyph-name="uni25C9" unicode="&#x25c9;" horiz-adv-x="373" 
d="M189 404q60 0 102 -45t42 -108q-1 -64 -42.5 -108.5t-102.5 -44.5q-63 0 -105.5 44t-41.5 109q-1 63 42 108t106 45zM188 348q-39 0 -64 -28.5t-24 -68.5q0 -42 25 -70t63 -28t63 28.5t25 69.5q0 40 -25.5 68.5t-62.5 28.5zM188 301q21 0 34.5 -15t13.5 -35
q0 -22 -13.5 -37.5t-34.5 -15.5q-22 0 -35.5 15t-13.5 38q0 20 13.5 35t35.5 15z" />
    <glyph glyph-name="lozenge" unicode="&#x25ca;" horiz-adv-x="433" 
d="M397 330l-150 -336h-65l-146 334l150 335h63zM319 328l-82 191q-12 28 -20 50h-3q-3 -15 -19 -50l-81 -189l81 -194q16 -34 19 -49h2q1 2 9.5 22.5t11.5 25.5z" />
    <glyph glyph-name="uni2610" unicode="&#x2610;" horiz-adv-x="787" 
d="M115 652h592v-616l-36 -36h-591v617zM119 603v-561h535v561h-535z" />
    <glyph glyph-name="uni2611" unicode="&#x2611;" horiz-adv-x="787" 
d="M115 652h592v-616l-36 -36h-591v617zM119 603v-561h535v561h-535zM508 552h89q-123 -188 -253 -468h-23q-68 93 -124 217l73 51q38 -111 59 -146q91 206 179 346z" />
    <glyph glyph-name="uni2713" unicode="&#x2713;" horiz-adv-x="552" 
d="M442 675h99q-23 -37 -47.5 -79.5t-43 -76.5t-46 -89t-41.5 -82t-45 -93t-40 -84.5t-44 -94t-40 -87.5h-25q-76 111 -151 287l83 54q37 -125 82 -201q132 330 259 546z" />
    <glyph glyph-name="uni2752" unicode="&#x2752;" horiz-adv-x="392" 
d="M51 345l66 66h224v-239l-61 -65h-228zM101 327v-168h159v168h-159z" />
    <glyph glyph-name="fi" unicode="&#xfb01;" horiz-adv-x="404" 
d="M156 0h-103v427h-51v91h51v50q0 134 124 134q27 0 39 -4v-91q-8 1 -19 1q-24 0 -32.5 -12.5t-8.5 -39.5v-38h63v-91h-63v-427zM259 0v518h103v-518h-103zM260 587v110h103v-110h-103z" />
    <glyph glyph-name="fl" unicode="&#xfb02;" horiz-adv-x="402" 
d="M156 0h-103v427h-51v91h51v50q0 134 124 134q27 0 39 -4v-91q-8 1 -19 1q-24 0 -32.5 -12.5t-8.5 -39.5v-38h63v-91h-63v-427zM362 0h-103v697h103v-697z" />
    <glyph glyph-name="uni00470303" horiz-adv-x="386" 
d="M347 374v-374h-80q-3 14 -6 50q-25 -60 -100 -60q-70 0 -100 47t-30 138v313q0 190 159 190q155 0 155 -175v-22h-103v27q0 76 -53 76t-53 -79v-342q0 -82 53 -82q31 0 43 26t12 81v97h-58v89h161zM125 719h-62v19q0 86 70 86q25 0 62 -15t46 -15q18 0 18 21v10h63v-12
q0 -52 -17 -73.5t-53 -21.5q-24 0 -60.5 14t-47.5 14q-19 0 -19 -20v-7z" />
    <glyph glyph-name="uni00670303" horiz-adv-x="375" 
d="M332 388v-359q0 -40 -2 -66.5t-11 -56.5t-25.5 -47.5t-46.5 -29t-73 -11.5q-144 0 -144 135v2h103v-2q0 -10 2.5 -19.5t13.5 -19.5t30 -10q30 0 40 22t10 76v56q-21 -47 -85 -47q-65 0 -90 43t-25 119v195q0 29 6 55t19.5 50t39 38.5t61.5 14.5q70 0 85 -54q0 24 5 46h89
q-2 -64 -2 -130zM132 362v-182q0 -79 46 -79q31 0 41 23t10 75v152q0 40 -8.5 61t-37.5 21q-51 0 -51 -71zM132 581h-64v30q0 76 63 76q25 0 59.5 -15t43.5 -15q6 0 8 4t2 21v5h63v-28q0 -81 -62 -81q-22 0 -56.5 16t-45.5 16t-11 -22v-7z" />
    <glyph glyph-name="zero.slash" horiz-adv-x="368" 
d="M186 658q79 0 114.5 -46t35.5 -119v-328q0 -173 -156 -173q-149 0 -149 172v322q0 78 39 125t116 47zM184 569q-53 0 -53 -72v-246l104 265q-5 53 -51 53zM184 81q52 0 52 74v254l-105 -267q3 -61 53 -61z" />
    <glyph glyph-name="zero.slashtab" horiz-adv-x="369" 
d="M187 658q79 0 114.5 -46t35.5 -119v-328q0 -173 -156 -173q-149 0 -149 172v322q0 78 39 125t116 47zM185 569q-53 0 -53 -72v-246l104 265q-5 53 -51 53zM185 81q52 0 52 74v254l-105 -267q3 -61 53 -61z" />
    <glyph glyph-name="zero.tab" horiz-adv-x="369" 
d="M187 658q150 0 150 -173v-312q0 -84 -34 -132.5t-122 -48.5q-149 0 -149 180v306q0 180 155 180zM185 565q-52 0 -52 -75v-330q0 -75 52 -75q50 0 50 78v330q0 72 -50 72z" />
    <glyph glyph-name="one.tab" horiz-adv-x="369" 
d="M325 0h-271v89h85v440q-44 -4 -79 -1v75q67 4 101 48h81v-562h83v-89z" />
    <glyph glyph-name="two.tab" horiz-adv-x="369" 
d="M321 0h-290v12q1 85 29 149.5t86 147.5q33 46 44.5 64t20 45t8.5 62q0 52 -9 72t-36 20q-46 0 -46 -76v-34h-95v37q0 159 146 159q79 0 111 -44t32 -127q0 -50 -12 -89.5t-27 -63t-49 -68.5q-82 -110 -88 -177h189z" />
    <glyph glyph-name="three.tab" horiz-adv-x="369" 
d="M128 482h-92v21q0 155 143 155q139 0 139 -155v-23q0 -100 -64 -126v-1q79 -27 79 -130v-52q0 -85 -35 -132.5t-120 -47.5q-150 0 -150 153v22h96v-21q0 -70 53 -70q30 0 41.5 21t11.5 61v64q0 45 -17 64.5t-57 19.5h-28v89h27q36 0 49.5 17t13.5 59v34q0 33 -9 51
t-35 18q-46 0 -46 -64v-27z" />
    <glyph glyph-name="four.tab" horiz-adv-x="369" 
d="M299 0h-95v162h-183v76l139 412h139v-404h48l-7 -84h-41v-162zM118 246h86v116q0 37 2 106t2 90h-1q-34 -129 -89 -312z" />
    <glyph glyph-name="five.tab" horiz-adv-x="369" 
d="M324 650l-10 -90h-161q-7 -97 -12 -158q22 30 78 30q120 0 120 -173v-68q0 -95 -35.5 -147t-123.5 -52q-80 0 -116 44.5t-36 118.5v15h102v-24q0 -70 50 -70q31 0 42 23.5t11 79.5v76q0 49 -11 69.5t-41 20.5q-26 0 -37 -14t-17 -47l-92 9q17 159 28 357h261z" />
    <glyph glyph-name="six.tab" horiz-adv-x="369" 
d="M329 498h-97v9q0 66 -46 66q-29 0 -40.5 -22.5t-11.5 -75.5v-87q30 44 90 44q58 0 86 -41.5t28 -112.5v-106q0 -180 -154 -180q-38 0 -65.5 10.5t-44 27.5t-26 42t-12.5 49t-3 54v283q0 94 33.5 147t120.5 53q142 0 142 -156v-4zM185 76q29 0 40 20.5t11 60.5v107
q0 38 -10.5 57.5t-38.5 19.5q-29 0 -41 -19.5t-12 -61.5v-103q0 -81 51 -81z" />
    <glyph glyph-name="seven.tab" horiz-adv-x="369" 
d="M38 650h292v-78q-124 -240 -163 -572h-105q17 154 63 305t101 255h-188v90z" />
    <glyph glyph-name="eight.tab" horiz-adv-x="369" 
d="M182 -8q-70 0 -111.5 36t-41.5 128v64q0 54 17.5 80.5t48.5 45.5q-57 36 -57 127v25q0 80 39 119.5t110 39.5q143 0 143 -161v-23q0 -91 -56 -126q65 -33 65 -128v-56q0 -92 -40 -131.5t-117 -39.5zM184 570q-49 0 -49 -65v-51q0 -30 13 -47.5t37 -17.5q47 0 47 67v49
q0 65 -48 65zM183 80q53 0 53 70v83q0 69 -53 69q-52 0 -52 -68v-85q0 -69 52 -69z" />
    <glyph glyph-name="nine.tab" horiz-adv-x="369" 
d="M37 149h101v-11q0 -61 46 -61q27 0 37 25.5t10 91.5v88q-25 -39 -82 -39q-118 0 -118 160v88q0 79 38.5 123t112.5 44q151 0 151 -172v-269q0 -40 -2 -67t-10.5 -59.5t-24 -52t-44.5 -33t-69 -13.5q-146 0 -146 153v4zM182 574q-49 0 -49 -71v-103q0 -68 48 -68
q29 0 39.5 21.5t10.5 67.5v82q0 36 -11 53.5t-38 17.5z" />
    <glyph glyph-name="zero.slashcap" horiz-adv-x="378" 
d="M191 676q80 0 117.5 -49t37.5 -125v-326q0 -184 -161 -184q-153 0 -153 183v326q0 80 40 127.5t119 47.5zM189 586q-57 0 -57 -74v-254l112 276q-9 52 -55 52zM189 82q56 0 56 78v272l-113 -279q2 -33 16.5 -52t40.5 -19z" />
    <glyph glyph-name="zero.cap" horiz-adv-x="378" 
d="M191 676q80 0 117.5 -49t37.5 -125v-326q0 -184 -161 -184q-153 0 -153 183v326q0 80 40 127.5t119 47.5zM189 584q-53 0 -53 -75v-349q0 -75 53 -75q52 0 52 77v349q0 73 -52 73z" />
    <glyph glyph-name="one.cap" horiz-adv-x="231" 
d="M179 0h-103v550q-21 -4 -64 -2v78q58 6 90 45h77v-671z" />
    <glyph glyph-name="two.cap" horiz-adv-x="336" 
d="M316 0h-298v9q1 91 26 150t92 156q45 66 59 100t14 84q0 47 -8.5 67.5t-35.5 20.5q-47 0 -47 -73v-34h-98v37q0 159 150 159q145 0 145 -171q0 -40 -4 -67.5t-18.5 -58t-25 -47t-40.5 -61.5q-33 -49 -44.5 -68t-27 -52.5t-18.5 -59.5h193z" />
    <glyph glyph-name="three.cap" horiz-adv-x="363" 
d="M122 493h-93v17q0 77 33 121.5t116 44.5q141 0 141 -157v-21q0 -100 -61 -127v-1q77 -28 77 -142v-60q0 -176 -160 -176q-79 0 -115.5 40t-36.5 124v25h96v-30q0 -74 55 -74q33 0 44.5 20t11.5 66v66q0 48 -15 66t-60 18h-24v91h23q38 0 50.5 16.5t12.5 60.5v40
q0 35 -10 51.5t-36 16.5q-49 0 -49 -71v-25z" />
    <glyph glyph-name="four.cap" horiz-adv-x="359" 
d="M300 0h-95v166h-190v79l144 423h141v-415h48l-8 -87h-40v-166zM115 253h90v128q0 1 3 202h-1q-54 -214 -92 -330z" />
    <glyph glyph-name="five.cap" horiz-adv-x="372" 
d="M330 668l-11 -96h-166q-5 -101 -12 -162q24 30 81 30q66 0 95 -40t29 -125v-90q0 -94 -36 -143.5t-128 -49.5q-152 0 -152 168v13h103v-23q0 -72 54 -72q32 0 43.5 22.5t11.5 68.5v100q0 43 -12.5 63t-43.5 20q-47 0 -58 -64l-95 9q14 104 29 371h268z" />
    <glyph glyph-name="six.cap" horiz-adv-x="372" 
d="M333 511h-99v14q0 31 -9.5 47.5t-37.5 16.5q-30 0 -40.5 -25t-10.5 -86v-84q28 47 94 47q116 0 116 -157v-107q0 -87 -35.5 -136t-122.5 -49q-156 0 -156 184v291q0 33 2 57t11 55t25 50.5t46 33t72 13.5q145 0 145 -149v-16zM189 78q52 0 52 78v122q0 70 -49 70
q-56 0 -56 -76v-117q0 -77 53 -77z" />
    <glyph glyph-name="seven.cap" horiz-adv-x="308" 
d="M6 668h293v-83q-128 -245 -160 -585h-108q13 152 58.5 306.5t101.5 265.5h-185v96z" />
    <glyph glyph-name="eight.cap" horiz-adv-x="374" 
d="M185 -8q-157 0 -157 171v53q0 97 64 136q-28 21 -41.5 49.5t-13.5 85.5v29q0 79 40.5 119t112.5 40q67 0 107 -39t40 -122v-28q0 -60 -13.5 -87.5t-39.5 -46.5q62 -36 62 -137v-50q0 -92 -41 -132.5t-120 -40.5zM187 587q-50 0 -50 -69v-53q0 -68 50 -68q49 0 49 68v55
q0 67 -49 67zM186 82q55 0 55 75v80q0 69 -55 69q-53 0 -53 -70v-79q0 -75 53 -75z" />
    <glyph glyph-name="nine.cap" horiz-adv-x="368" 
d="M31 151h103v-7q0 -65 46 -65q31 0 41 28t10 101v92q-23 -40 -85 -40q-59 0 -89.5 40t-30.5 113v98q0 77 39 121t116 44q155 0 155 -171v-280q0 -45 -2.5 -74.5t-11.5 -62.5t-26 -52t-46.5 -31.5t-72.5 -12.5q-146 0 -146 159v3v-3zM181 590q-51 0 -51 -70v-94
q0 -76 50 -76q51 0 51 80v92q0 68 -50 68z" />
    <glyph glyph-name="period.sups" horiz-adv-x="120" 
d="M100 434h-80v95h80v-95z" />
    <glyph glyph-name="comma.sups" horiz-adv-x="140" 
d="M90 357h-74q24 76 24 172h79q0 -112 -29 -172z" />
    <glyph glyph-name="dollar.sups" horiz-adv-x="264" 
d="M162 396h-61v40q-44 7 -66 35.5t-22 70.5h74q3 -48 47 -48q16 0 24.5 9t8.5 22q0 19 -9.5 29t-40.5 21q-54 18 -75.5 43.5t-21.5 63.5q0 40 21 65t60 31v33h61v-34q41 -9 59.5 -36t17.5 -62h-73q-4 44 -38 44q-31 0 -31 -31q0 -17 10.5 -25.5t40.5 -19.5
q56 -19 77.5 -42.5t21.5 -68.5q0 -88 -85 -100v-40z" />
    <glyph glyph-name="cent.sups" horiz-adv-x="253" 
d="M161 558h71q0 -85 -70 -99v-40h-61v40q-74 16 -74 121v54q0 97 74 114v36h61v-36q71 -14 71 -98h-71q0 25 -7 35t-25 10q-32 0 -32 -58v-61q0 -63 33 -63q30 0 30 45z" />
    <glyph glyph-name="hyphen.sups" horiz-adv-x="194" 
d="M26 641h142v-69h-142v69z" />
    <glyph glyph-name="period.subs" horiz-adv-x="120" 
d="M100 -133h-80v95h80v-95z" />
    <glyph glyph-name="comma.subs" horiz-adv-x="140" 
d="M90 -210h-74q24 76 24 172h79q0 -112 -29 -172z" />
    <glyph glyph-name="dollar.subs" horiz-adv-x="264" 
d="M162 -171h-61v40q-44 7 -66 35.5t-22 70.5h74q3 -48 47 -48q16 0 24.5 9t8.5 22q0 19 -9.5 29t-40.5 21q-54 18 -75.5 43.5t-21.5 63.5q0 40 21 65t60 31v33h61v-34q41 -9 59.5 -36t17.5 -62h-73q-4 44 -38 44q-31 0 -31 -31q0 -17 10.5 -25.5t40.5 -19.5
q56 -19 77.5 -42.5t21.5 -68.5q0 -88 -85 -100v-40z" />
    <glyph glyph-name="cent.subs" horiz-adv-x="253" 
d="M161 -9h71q0 -85 -70 -99v-40h-61v40q-74 16 -74 121v54q0 97 74 114v36h61v-36q71 -14 71 -98h-71q0 25 -7 35t-25 10q-32 0 -32 -58v-61q0 -63 33 -63q30 0 30 45z" />
    <glyph glyph-name="hyphen.subs" horiz-adv-x="194" 
d="M26 74h142v-69h-142v69z" />
    <glyph glyph-name="zero.numr" horiz-adv-x="266" 
d="M135 654q107 0 107 -120v-109q0 -125 -110 -125q-108 0 -108 121v113q0 56 27.5 88t83.5 32zM133 591q-33 0 -33 -47v-131q0 -48 34 -48q31 0 31 49v130q0 47 -32 47z" />
    <glyph glyph-name="one.numr" horiz-adv-x="165" 
d="M129 304h-75v267q-14 -4 -39 0v53q37 4 58 29h56v-349z" />
    <glyph glyph-name="two.numr" horiz-adv-x="246" 
d="M221 304h-203v8q-1 43 15.5 78.5t59.5 78.5l12.5 12.5t10.5 11t8.5 9t7.5 8t5.5 7t4.5 7t3 6t2.5 6.5t1 6.5t0.5 7.5q0 43 -29 43q-33 0 -33 -47v-15h-71v13q0 110 107 110q103 0 103 -105q0 -12 -2.5 -23.5t-5 -18.5t-11 -18t-11.5 -14.5t-16 -17t-17 -17.5l-16.5 -16.5
t-18 -18.5t-12.5 -17t-11 -22h128z" />
    <glyph glyph-name="three.numr" horiz-adv-x="255" 
d="M13 409h75v-3q0 -47 37 -47q38 0 38 48q0 26 -11.5 36.5t-35.5 10.5h-24v64h22q22 0 30.5 9t8.5 28q0 38 -30 38q-33 0 -33 -43v-2h-71v2q0 47 26.5 75.5t79.5 28.5q52 0 77.5 -26.5t25.5 -67.5q0 -51 -43 -70q54 -23 54 -82q0 -49 -30 -78.5t-84 -29.5q-56 0 -84 29
t-28 75v5z" />
    <glyph glyph-name="four.numr" horiz-adv-x="263" 
d="M214 304h-70v84h-127v55l106 207h91v-200h36l-6 -62h-30v-84zM87 450h57v42q0 67 2 88h-1q-6 -18 -58 -130z" />
    <glyph glyph-name="five.numr" horiz-adv-x="265" 
d="M231 650l-7 -62h-112q-4 -29 -7 -65q17 15 51 15q89 0 89 -115q0 -54 -27 -88.5t-88 -34.5q-54 0 -81.5 28.5t-28.5 75.5h74q2 -43 36 -43q38 0 38 61q0 31 -9 43.5t-29 12.5q-27 0 -40 -29l-63 7q6 47 19 194h185z" />
    <glyph glyph-name="six.numr" horiz-adv-x="268" 
d="M242 561h-74q-2 34 -33 34q-21 0 -27.5 -16.5t-6.5 -54.5v-11q21 24 62 24q86 0 86 -109q0 -128 -112 -128q-62 0 -87.5 37.5t-25.5 108.5v55q0 74 25 113.5t90 39.5q52 0 77 -26.5t26 -66.5zM138 362q35 0 35 61q0 28 -8 41t-28 13q-37 0 -37 -56q0 -59 38 -59z" />
    <glyph glyph-name="seven.numr" horiz-adv-x="233" 
d="M6 650h208v-58q-77 -121 -100 -288h-85q10 81 44 161.5t63 117.5h-130v67z" />
    <glyph glyph-name="eight.numr" horiz-adv-x="267" 
d="M130 300q-49 0 -79.5 26t-30.5 77q0 52 47 79q-38 27 -38 75q0 44 26.5 70.5t79.5 26.5q48 0 74.5 -25.5t26.5 -71.5q0 -50 -37 -73q47 -22 47 -82q0 -49 -30 -75.5t-86 -26.5zM134 593q-32 0 -32 -36v-3q0 -41 32 -41q31 0 31 40v2q0 38 -31 38zM135 362q35 0 35 43v2
q0 45 -36 45q-37 0 -37 -44v-1q0 -45 38 -45z" />
    <glyph glyph-name="nine.numr" horiz-adv-x="270" 
d="M26 395h76q2 -17 8 -25.5t24 -8.5q20 0 27.5 19.5t7.5 60.5v12q-19 -27 -61 -27q-38 0 -63 25t-25 77v8q0 59 32.5 88.5t79.5 29.5q114 0 114 -140v-69q0 -76 -27 -110.5t-89 -34.5q-50 0 -76.5 25.5t-27.5 69.5zM133 589q-36 0 -36 -48v-8q0 -46 36 -46q37 0 37 48v8
q0 46 -37 46z" />
    <glyph glyph-name="parenleft.numr" horiz-adv-x="177" 
d="M95 723h70q-61 -111 -61 -253t61 -251h-70q-63 91 -63 251q0 148 63 253z" />
    <glyph glyph-name="parenright.numr" horiz-adv-x="177" 
d="M81 219h-70q61 111 61 253t-61 251h70q63 -91 63 -251q0 -148 -63 -253z" />
    <glyph glyph-name="period.numr" horiz-adv-x="120" 
d="M100 304h-80v95h80v-95z" />
    <glyph glyph-name="comma.numr" horiz-adv-x="140" 
d="M90 227h-74q24 76 24 172h79q0 -112 -29 -172z" />
    <glyph glyph-name="dollar.numr" horiz-adv-x="264" 
d="M162 266h-61v40q-44 7 -66 35.5t-22 70.5h74q3 -48 47 -48q16 0 24.5 9t8.5 22q0 19 -9.5 29t-40.5 21q-54 18 -75.5 43.5t-21.5 63.5q0 40 21 65t60 31v33h61v-34q41 -9 59.5 -36t17.5 -62h-73q-4 44 -38 44q-31 0 -31 -31q0 -17 10.5 -25.5t40.5 -19.5
q56 -19 77.5 -42.5t21.5 -68.5q0 -88 -85 -100v-40z" />
    <glyph glyph-name="cent.numr" horiz-adv-x="253" 
d="M161 428h71q0 -85 -70 -99v-40h-61v40q-74 16 -74 121v54q0 97 74 114v36h61v-36q71 -14 71 -98h-71q0 25 -7 35t-25 10q-32 0 -32 -58v-61q0 -63 33 -63q30 0 30 45z" />
    <glyph glyph-name="hyphen.numr" horiz-adv-x="194" 
d="M26 511h142v-69h-142v69z" />
    <glyph glyph-name="zero.dnom" horiz-adv-x="266" 
d="M135 350q107 0 107 -120v-109q0 -125 -110 -125q-108 0 -108 121v113q0 56 27.5 88t83.5 32zM133 287q-33 0 -33 -47v-131q0 -48 34 -48q31 0 31 49v130q0 47 -32 47z" />
    <glyph glyph-name="one.dnom" horiz-adv-x="165" 
d="M129 0h-75v267q-14 -4 -39 0v53q37 4 58 29h56v-349z" />
    <glyph glyph-name="two.dnom" horiz-adv-x="246" 
d="M221 0h-203v8q-1 43 15.5 78.5t59.5 78.5l12.5 12.5t10.5 11t8.5 9t7.5 8t5.5 7t4.5 7t3 6t2.5 6.5t1 6.5t0.5 7.5q0 43 -29 43q-33 0 -33 -47v-15h-71v13q0 110 107 110q103 0 103 -105q0 -12 -2.5 -23.5t-5 -18.5t-11 -18t-11.5 -14.5t-16 -17t-17 -17.5l-16.5 -16.5
t-18 -18.5t-12.5 -17t-11 -22h128z" />
    <glyph glyph-name="three.dnom" horiz-adv-x="255" 
d="M13 105h75v-3q0 -47 37 -47q38 0 38 48q0 26 -11.5 36.5t-35.5 10.5h-24v64h22q22 0 30.5 9t8.5 28q0 38 -30 38q-33 0 -33 -43v-2h-71v2q0 47 26.5 75.5t79.5 28.5q52 0 77.5 -26.5t25.5 -67.5q0 -51 -43 -70q54 -23 54 -82q0 -49 -30 -78.5t-84 -29.5q-56 0 -84 29
t-28 75v5z" />
    <glyph glyph-name="four.dnom" horiz-adv-x="263" 
d="M214 0h-70v84h-127v55l106 207h91v-200h36l-6 -62h-30v-84zM87 146h57v42q0 67 2 88h-1q-6 -18 -58 -130z" />
    <glyph glyph-name="five.dnom" horiz-adv-x="265" 
d="M231 346l-7 -62h-112q-4 -29 -7 -65q17 15 51 15q89 0 89 -115q0 -54 -27 -88.5t-88 -34.5q-54 0 -81.5 28.5t-28.5 75.5h74q2 -43 36 -43q38 0 38 61q0 31 -9 43.5t-29 12.5q-27 0 -40 -29l-63 7q6 47 19 194h185z" />
    <glyph glyph-name="six.dnom" horiz-adv-x="268" 
d="M242 257h-74q-2 34 -33 34q-21 0 -27.5 -16.5t-6.5 -54.5v-11q21 24 62 24q86 0 86 -109q0 -128 -112 -128q-62 0 -87.5 37.5t-25.5 108.5v55q0 74 25 113.5t90 39.5q52 0 77 -26.5t26 -66.5zM138 58q35 0 35 61q0 28 -8 41t-28 13q-37 0 -37 -56q0 -59 38 -59z" />
    <glyph glyph-name="seven.dnom" horiz-adv-x="233" 
d="M6 346h208v-58q-77 -121 -100 -288h-85q10 81 44 161.5t63 117.5h-130v67z" />
    <glyph glyph-name="eight.dnom" horiz-adv-x="267" 
d="M130 -4q-49 0 -79.5 26t-30.5 77q0 52 47 79q-38 27 -38 75q0 44 26.5 70.5t79.5 26.5q48 0 74.5 -25.5t26.5 -71.5q0 -50 -37 -73q47 -22 47 -82q0 -49 -30 -75.5t-86 -26.5zM134 289q-32 0 -32 -36v-3q0 -41 32 -41q31 0 31 40v2q0 38 -31 38zM135 58q35 0 35 43v2
q0 45 -36 45q-37 0 -37 -44v-1q0 -45 38 -45z" />
    <glyph glyph-name="nine.dnom" horiz-adv-x="270" 
d="M26 91h76q2 -17 8 -25.5t24 -8.5q20 0 27.5 19.5t7.5 60.5v12q-19 -27 -61 -27q-38 0 -63 25t-25 77v8q0 59 32.5 88.5t79.5 29.5q114 0 114 -140v-69q0 -76 -27 -110.5t-89 -34.5q-50 0 -76.5 25.5t-27.5 69.5zM133 285q-36 0 -36 -48v-8q0 -46 36 -46q37 0 37 48v8
q0 46 -37 46z" />
    <glyph glyph-name="parenleft.dnom" horiz-adv-x="177" 
d="M95 419h70q-61 -111 -61 -253t61 -251h-70q-63 91 -63 251q0 148 63 253z" />
    <glyph glyph-name="parenright.dnom" horiz-adv-x="177" 
d="M81 -85h-70q61 111 61 253t-61 251h70q63 -91 63 -251q0 -148 -63 -253z" />
    <glyph glyph-name="period.dnom" horiz-adv-x="120" 
d="M100 0h-80v95h80v-95z" />
    <glyph glyph-name="comma.dnom" horiz-adv-x="140" 
d="M90 -77h-74q24 76 24 172h79q0 -112 -29 -172z" />
    <glyph glyph-name="dollar.dnom" horiz-adv-x="264" 
d="M162 -38h-61v40q-44 7 -66 35.5t-22 70.5h74q3 -48 47 -48q16 0 24.5 9t8.5 22q0 19 -9.5 29t-40.5 21q-54 18 -75.5 43.5t-21.5 63.5q0 40 21 65t60 31v33h61v-34q41 -9 59.5 -36t17.5 -62h-73q-4 44 -38 44q-31 0 -31 -31q0 -17 10.5 -25.5t40.5 -19.5
q56 -19 77.5 -42.5t21.5 -68.5q0 -88 -85 -100v-40z" />
    <glyph glyph-name="cent.dnom" horiz-adv-x="253" 
d="M161 124h71q0 -85 -70 -99v-40h-61v40q-74 16 -74 121v54q0 97 74 114v36h61v-36q71 -14 71 -98h-71q0 25 -7 35t-25 10q-32 0 -32 -58v-61q0 -63 33 -63q30 0 30 45z" />
    <glyph glyph-name="hyphen.dnom" horiz-adv-x="194" 
d="M26 207h142v-69h-142v69z" />
    <glyph glyph-name="a.sups" horiz-adv-x="255" 
d="M128 627q97 0 97 -85v-171q0 -43 4 -67h-67q-4 12 -4 29q-23 -35 -65 -35q-38 0 -58 27t-20 69q0 102 122 104h15v35q0 21 -5.5 30t-21.5 9q-29 0 -29 -45v-2h-69v4q0 98 101 98zM89 399q0 -37 30 -37q35 0 35 56v25q-6 1 -17 1q-48 0 -48 -45z" />
    <glyph glyph-name="b.sups" horiz-adv-x="265" 
d="M99 303h-70q1 20 1 81v351h72v-143q21 34 65 34q78 0 78 -118v-88q0 -122 -85 -122q-43 0 -59 36q0 -15 -2 -31zM172 431v77q0 52 -35 52q-37 0 -37 -59v-70q0 -32 7 -49t29 -17q36 0 36 66z" />
    <glyph glyph-name="c.sups" horiz-adv-x="233" 
d="M150 416h71v-5q0 -113 -99 -113q-56 0 -79 31t-23 100v78q0 120 104 120q51 0 74 -30t23 -75v-12h-71v6q0 26 -6 36.5t-22 10.5q-29 0 -29 -52v-92q0 -30 5.5 -43.5t23.5 -13.5q28 0 28 50v4z" />
    <glyph glyph-name="d.sups" horiz-adv-x="265" 
d="M235 735v-335q0 -75 1 -96h-70q-3 12 -3 31q-19 -36 -62 -36q-81 0 -81 120v91q0 117 90 117q39 0 50 -26v134h75zM93 506v-84q0 -17 1.5 -27t9.5 -20t23 -10q24 0 30.5 15t6.5 51v60q0 18 -0.5 27t-3.5 20.5t-10.5 16.5t-20.5 5q-36 0 -36 -54z" />
    <glyph glyph-name="e.sups" horiz-adv-x="244" 
d="M228 442h-136v-22q0 -61 35 -61q31 0 31 41v2h67v-3q0 -39 -23.5 -69.5t-76.5 -30.5q-59 0 -82 36t-23 107v56q0 54 24.5 91.5t81.5 37.5q56 0 79 -35t23 -102v-48zM92 496h67v20q0 51 -33 51q-34 0 -34 -54v-17z" />
    <glyph glyph-name="f.sups" horiz-adv-x="155" 
d="M112 304h-73v255h-33v63h33v27q0 45 18 67.5t62 22.5q21 0 30 -3v-63q-6 1 -14 1q-12 0 -17.5 -7t-5.5 -25v-20h42v-63h-42v-255z" />
    <glyph glyph-name="g.sups" horiz-adv-x="267" 
d="M235 525v-187q0 -37 -2.5 -59t-13 -45.5t-34 -34.5t-61.5 -11q-53 0 -77.5 26.5t-24.5 67.5h72q3 -36 35 -36q22 0 28.5 17t6.5 50v28q-16 -31 -60 -31q-84 0 -84 121v69q0 58 23 92.5t67 34.5q46 0 59 -35q3 25 4 30h64q-2 -40 -2 -97zM93 504v-72q0 -57 35 -57
q22 0 29 18.5t7 56.5v46q0 21 -1.5 33t-9.5 21.5t-24 9.5q-36 0 -36 -56z" />
    <glyph glyph-name="h.sups" horiz-adv-x="268" 
d="M30 304v431h73v-141q19 33 63 33q72 0 72 -92v-231h-72v216q0 40 -30 40q-20 0 -26.5 -14t-6.5 -43v-199h-73z" />
    <glyph glyph-name="i.sups" horiz-adv-x="133" 
d="M103 304h-73v317h73v-317zM103 657h-73v78h73v-78z" />
    <glyph glyph-name="j.sups" horiz-adv-x="133" 
d="M103 657h-73v78h73v-78zM-9 189v66l5 -1h11q13 0 18 9.5t5 31.5v327h73v-312q0 -62 -17 -92t-68 -30q-15 0 -27 1z" />
    <glyph glyph-name="k.sups" horiz-adv-x="247" 
d="M103 735v-251q8 20 33.5 71t32.5 67h78q-12 -22 -35 -59.5t-35 -58.5q50 -127 76 -200h-80q-21 66 -47 137q-13 -18 -23 -37v-100h-73v431h73z" />
    <glyph glyph-name="l.sups" horiz-adv-x="133" 
d="M103 304h-73v431h73v-431z" />
    <glyph glyph-name="m.sups" horiz-adv-x="394" 
d="M29 622h67q4 -16 4 -28q26 33 65 33q24 0 36.5 -8.5t21.5 -27.5q26 36 69 36q71 0 71 -96v-227h-71v215q0 44 -28 44q-18 0 -25 -12t-7 -38v-209h-71v216q0 22 -5.5 32.5t-22.5 10.5q-32 0 -32 -51v-208h-71v214q0 41 -0.5 72t-0.5 32z" />
    <glyph glyph-name="o.sups" horiz-adv-x="253" 
d="M128 627q48 0 76.5 -31.5t28.5 -90.5v-80q0 -127 -109 -127q-104 0 -104 125v85q0 56 28 87.5t80 31.5zM126 563q-33 0 -33 -51v-99q0 -51 34 -51q33 0 33 52v98q0 27 -7.5 39t-26.5 12z" />
    <glyph glyph-name="p.sups" horiz-adv-x="265" 
d="M30 194v335q0 18 -0.5 53.5t-0.5 39.5h66q4 -14 4 -33q23 37 68 37q41 0 60 -31.5t19 -96.5v-78q0 -122 -88 -122q-40 0 -56 28v-132h-72zM172 430v77q0 53 -34 53q-37 0 -37 -59v-70q0 -35 8.5 -50.5t27.5 -15.5q35 0 35 65z" />
    <glyph glyph-name="q.sups" horiz-adv-x="268" 
d="M164 192v138q-18 -31 -60 -31q-81 0 -81 126v83q0 59 24 89t64 30q46 0 60 -34q3 25 4 28h66q-2 -34 -2 -81v-348h-75zM96 508v-87q0 -56 35 -56q17 0 25.5 13t10 27t1.5 40v38q0 41 -6.5 59t-28.5 18q-37 0 -37 -52z" />
    <glyph glyph-name="r.sups" horiz-adv-x="186" 
d="M30 304v209q0 86 -2 109h71q3 -30 3 -51q19 56 77 56v-83q-37 1 -56.5 -18t-19.5 -63v-159h-73z" />
    <glyph glyph-name="s.sups" horiz-adv-x="228" 
d="M16 401h67v-4q0 -42 32 -42q26 0 26 30q0 29 -36 44q-50 22 -67.5 45.5t-17.5 59.5q0 43 25.5 68t69.5 25q45 0 69.5 -23t24.5 -65v-11h-67v5q0 36 -28 36q-24 0 -24 -28q0 -22 33 -38q53 -23 72 -45.5t19 -63.5q0 -43 -25.5 -69.5t-74.5 -26.5q-98 0 -98 95v8z" />
    <glyph glyph-name="t.sups" horiz-adv-x="163" 
d="M3 622h33v81h73v-81h45v-63h-45v-172q0 -24 24 -24q13 0 19 1v-61q-15 -5 -42 -5q-40 0 -57 17.5t-17 61.5v182h-33v63z" />
    <glyph glyph-name="u.sups" horiz-adv-x="263" 
d="M238 622v-212q0 -90 1 -106h-71q-3 24 -3 31q-19 -36 -63 -36q-72 0 -72 90v233h73v-206q0 -53 30 -53q18 0 25 13.5t7 46.5v199h73z" />
    <glyph glyph-name="v.sups" horiz-adv-x="243" 
d="M6 622h77q31 -175 39 -239h1q9 77 40 239h73l-73 -318h-85z" />
    <glyph glyph-name="w.sups" horiz-adv-x="376" 
d="M9 622h77q27 -179 31 -227h2q4 41 33 227h77q31 -174 35 -228h1q3 41 29 228h73l-66 -318h-75q-31 153 -36 221h-2q-9 -68 -40 -221h-75z" />
    <glyph glyph-name="x.sups" horiz-adv-x="233" 
d="M1 622h80q19 -50 37 -104h1q2 7 9 24.5t14 38t15 41.5h74l-67 -150l69 -168h-79q-17 47 -38 115h-1q-35 -104 -39 -115h-76l70 160z" />
    <glyph glyph-name="y.sups" horiz-adv-x="244" 
d="M4 621h81q25 -128 38 -221h1q3 25 44 221h72q-6 -19 -34.5 -135.5t-45.5 -180.5q-18 -69 -40.5 -90.5t-63.5 -21.5q-18 0 -36 3v65q8 -1 22 -1q17 0 26.5 10t14.5 38z" />
    <glyph glyph-name="z.sups" horiz-adv-x="212" 
d="M9 304v48q8 13 48.5 92.5t59.5 114.5h-102v62h183v-49q-4 -9 -23 -46.5t-44.5 -87.5t-36.5 -72h109l-7 -62h-187z" />
    <glyph glyph-name="egrave.sups" horiz-adv-x="244" 
d="M18 731h88l62 -76h-68zM228 442h-136v-22q0 -61 35 -61q31 0 31 41v2h67v-3q0 -39 -23.5 -69.5t-76.5 -30.5q-59 0 -82 36t-23 107v56q0 54 24.5 91.5t81.5 37.5q56 0 79 -35t23 -102v-48zM92 496h67v20q0 51 -33 51q-34 0 -34 -54v-17z" />
    <glyph glyph-name="eacute.sups" horiz-adv-x="244" 
d="M149 731h91l-88 -76h-68zM228 442h-136v-22q0 -61 35 -61q31 0 31 41v2h67v-3q0 -39 -23.5 -69.5t-76.5 -30.5q-59 0 -82 36t-23 107v56q0 54 24.5 91.5t81.5 37.5q56 0 79 -35t23 -102v-48zM92 496h67v20q0 51 -33 51q-34 0 -34 -54v-17z" />
    <glyph glyph-name="dong.alt" horiz-adv-x="376" 
d="M229 462v80h-117v72h117v48h103v-48h48v-72h-48v-398q0 -84 2 -144h-95q-5 22 -5 48q-26 -56 -91 -56q-113 0 -113 163v178q0 78 31.5 122t90.5 44q58 0 77 -37zM133 329v-165q0 -76 48 -76q50 0 50 87v142q0 28 -2.5 43.5t-13 28t-31.5 12.5q-51 0 -51 -72z" />
    <glyph glyph-name="currency.tab" horiz-adv-x="369" 
d="M184 422q-54 0 -54 -95v-12q0 -95 55 -95q52 0 52 94v13q0 95 -53 95zM187 501q41 0 72 -21l48 50l57 -57l-56 -59q13 -37 13 -83v-22q0 -45 -12 -78l55 -58l-58 -59l-47 49q-34 -24 -77 -24q-42 0 -73 24l-47 -49l-58 59l57 58q-13 37 -13 82v15q0 48 14 85l-58 59
l57 58l50 -53q35 24 76 24z" />
    <glyph glyph-name="dollar.tab" horiz-adv-x="369" 
d="M224 -67h-79v68q-120 18 -120 164v17h101v-23q0 -77 58 -77q30 0 43 19.5t13 59.5q0 44 -15.5 72t-63.5 57q-69 42 -99 84t-30 113q0 142 113 160v53h79v-53q34 -6 56.5 -21t33.5 -37t15 -44t4 -49v-17h-101v16q0 74 -50 74t-49 -69q1 -37 17.5 -60t66.5 -55
q70 -44 97.5 -88t27.5 -122t-28.5 -120.5t-89.5 -52.5v-69z" />
    <glyph glyph-name="sterling.tab" horiz-adv-x="369" 
d="M343 0h-320v80q58 33 58 157q0 22 -2 58h-63v84h58q-5 63 -5 116q0 163 141 163q76 0 107 -42t31 -117v-22h-99v21q0 36 -8.5 52.5t-30.5 16.5t-30 -16.5t-8 -56.5q0 -29 6 -115h95v-84h-90v-19q0 -132 -39 -187h209z" />
    <glyph glyph-name="yen.tab" horiz-adv-x="369" 
d="M317 171h-83v-171h-103v171h-80v61h80v45h-80v62h70l-117 311h113q53 -165 70 -243h1q20 93 64 243h111l-118 -311h72v-62h-83v-45h83v-61z" />
    <glyph glyph-name="Euro.tab" horiz-adv-x="369" 
d="M253 179h97v-6q0 -181 -155 -181q-49 0 -81 17.5t-46 49t-18.5 59t-4.5 63.5v71h-43v58h43v45h-43v58h43v60q0 33 6.5 62t22 58.5t47.5 47t78 17.5q148 0 148 -170v-16h-95v14q0 37 -10 57.5t-41 20.5q-51 0 -51 -78v-73h134v-58h-134v-45h134v-58h-134v-80
q0 -44 11.5 -65.5t40.5 -21.5q28 0 39.5 22t11.5 66v6z" />
    <glyph glyph-name="cent.tab" horiz-adv-x="369" 
d="M227 256h102v-9q0 -69 -21.5 -109.5t-74.5 -52.5v-67h-91v66q-105 20 -105 165v158q0 139 105 163v57h91v-56q97 -21 97 -150v-16h-102v16q0 37 -9 53.5t-34 16.5q-43 0 -43 -77v-169q0 -39 9.5 -58.5t33.5 -19.5q23 0 32.5 15.5t9.5 56.5v17z" />
    <glyph glyph-name="florin.tab" horiz-adv-x="369" 
d="M360 654l-21 -84q-19 7 -39 7t-29 -16.5t-14 -54.5l-11 -84h71v-84h-82l-32 -253q-11 -91 -39 -129.5t-88 -38.5q-49 0 -75 17l18 89q16 -8 41 -11q19 1 25.5 13t11.5 47l37 266h-60v84h71l11 79q5 36 13 63t22 52.5t39 39t59 13.5q55 0 71 -15z" />
    <glyph glyph-name="colonmonetary.tab" horiz-adv-x="369" 
d="M239 204h97v-5q0 -72 -15 -117.5t-58 -65.5v-80h-61v66q-5 -1 -17 -1h-8v-65h-61v76q-28 11 -46.5 31t-26 48.5t-10 52t-2.5 56.5v268q0 133 85 168v66h61v-54h12h13v54h61v-67q43 -19 56.5 -62.5t13.5 -116.5v-11h-95v14q0 53 -9 75.5t-40 22.5q-53 0 -53 -83v-285
q0 -51 12 -74t42 -23t39.5 22t9.5 69v21z" />
    <glyph glyph-name="lira.tab" horiz-adv-x="369" 
d="M340 0h-320v80q58 33 58 157v9h-65v57h63q-1 16 -3 46h-60v57h56q-3 44 -3 89q0 163 141 163q76 0 107 -42t31 -117v-19h-99v24q0 36 -8.5 52.5t-30.5 16.5t-30 -16.5t-8 -56.5q0 -34 5 -94h93v-57h-90q1 -16 3 -46h87v-57h-87q-5 -109 -39 -157h209z" />
    <glyph glyph-name="franc.tab" horiz-adv-x="369" 
d="M74 0v132h-53v70h53v448h262v-90h-159v-159h147v-90h-147v-109h78v-70h-78v-132h-103z" />
    <glyph glyph-name="uni20A6.tab" horiz-adv-x="369" 
d="M111 524q2 -33 4 -97h18l-17 97h-5zM240 158h7q-1 15 -3.5 51.5t-3.5 57.5h-19zM119 0h-81v267h-37v57h37v46h-37v57h37v223h118l38 -223h41v18v205h82v-223h36v-57h-36l1 -46h35v-57h-35v-267h-110l-47 267h-42v-52v-215zM237 324q0 7 -0.5 22.5t-0.5 23.5h-32l8 -46h25
zM151 324l-8 46h-26q1 -15 1 -46h33z" />
    <glyph glyph-name="peseta.tab" horiz-adv-x="369" 
d="M43 0v423h-33v70h33v157h118q84 0 124 -37.5t42 -119.5h29v-70h-29q-3 -85 -42.5 -122t-116.5 -37h-22v-264h-103zM145 568v-75h80v5q0 39 -13.5 54.5t-48.5 15.5h-18zM145 346h16q34 0 49 17t15 60h-80v-77z" />
    <glyph glyph-name="dong.tab" horiz-adv-x="369" 
d="M38 -54h286v-69h-286v69zM223 462v80h-117v72h117v48h103v-48h48v-72h-48v-398q0 -84 2 -144h-95q-5 22 -5 48q-26 -56 -91 -56q-113 0 -113 163v178q0 78 31.5 122t90.5 44q58 0 77 -37zM127 329v-165q0 -76 48 -76q50 0 50 87v142q0 28 -2.5 43.5t-13 28t-31.5 12.5
q-51 0 -51 -72z" />
    <glyph glyph-name="dong.alttab" horiz-adv-x="369" 
d="M223 462v80h-117v72h117v48h103v-48h48v-72h-48v-398q0 -84 2 -144h-95q-5 22 -5 48q-26 -56 -91 -56q-113 0 -113 163v178q0 78 31.5 122t90.5 44q58 0 77 -37zM127 329v-165q0 -76 48 -76q50 0 50 87v142q0 28 -2.5 43.5t-13 28t-31.5 12.5q-51 0 -51 -72z" />
    <glyph glyph-name="uni20B1.tab" horiz-adv-x="369" 
d="M34 0v379h-43v50h43v40h-43v51h43v130h125q148 0 158 -130h41v-51h-40v-40h40v-50h-41q-13 -131 -152 -131h-28v-248h-103zM137 570v-50h80q-8 50 -58 50h-22zM137 330h20q51 0 60 49h-80v-49zM219 429v40h-82v-40h82z" />
    <glyph glyph-name="uni20B2.tab" horiz-adv-x="369" 
d="M333 349v-322q-51 -19 -111 -25v-69h-79v70q-40 6 -65.5 25.5t-37.5 51.5t-16 62.5t-4 75.5v243q0 166 123 186v53h79v-53q66 -12 89 -58.5t23 -120.5v-16h-103v27q0 45 -10.5 65t-41.5 20q-32 0 -43 -21t-11 -63v-261q0 -73 15 -101t58 -28q18 0 32 5v254h103z" />
    <glyph glyph-name="uni20B4.tab" horiz-adv-x="369" 
d="M140 488h-97v5q0 165 138 165q139 0 139 -152q0 -57 -20 -100h42v-55h-76q-6 -9 -39 -46h100v-54h-148q-37 -48 -37 -103q0 -70 44 -70q48 0 48 84v8h98v-7q0 -91 -37.5 -131t-112.5 -40q-142 0 -142 155q0 60 23 104h-40v54h78q24 28 42 46h-105v55h151q29 43 28 103
q-2 65 -38 65q-39 0 -39 -64v-22z" />
    <glyph glyph-name="uni20B5.tab" horiz-adv-x="369" 
d="M244 203h97v-5q0 -84 -22.5 -133t-88.5 -61v-70h-79v70q-26 4 -46 14.5t-32 27t-20 33.5t-11.5 40.5t-4.5 40.5t-1 42v265q0 155 115 177v56h79v-55q66 -10 87 -56.5t21 -131.5v-11h-95v18q0 52 -9.5 74.5t-39.5 22.5q-29 0 -41 -21t-12 -63v-289q0 -51 12 -75t42 -24
t39.5 22t9.5 68v24z" />
    <glyph glyph-name="uni20B9.tab" horiz-adv-x="369" 
d="M35 579v71h316v-58h-97q22 -25 30 -55h67v-58h-60v-17q0 -132 -111 -167l147 -295h-115l-137 282h-40v87h52q54 0 78 20.5t24 73.5v16h-154v58h145q-19 42 -95 42h-50z" />
    <glyph glyph-name="uni20BA.tab" horiz-adv-x="369" 
d="M160 0h-99v276l-61 -26v71l61 26v52l-61 -26v72l61 26v179h102v-135l93 40v-72l-93 -40v-53l93 40v-71l-93 -40v-227q43 0 64.5 31t23.5 107h94q-4 -230 -185 -230z" />
    <glyph glyph-name="uni20BD.tab" horiz-adv-x="369" 
d="M54 0v188h-53v69h53v46h-53v75h53v272h129q95 0 130 -40.5t35 -108.5v-37q0 -80 -37 -120.5t-130 -40.5h-26v-46h91v-69h-91v-188h-101zM155 568v-190h26q40 0 53 20t13 64v35q0 36 -12.5 53.5t-49.5 17.5h-30z" />
    <glyph glyph-name="currency.cap" horiz-adv-x="376" 
d="M186 442q-54 0 -54 -95v-12q0 -95 55 -95q52 0 52 94v13q0 95 -53 95zM189 521q41 0 72 -21l48 50l57 -57l-56 -59q13 -37 13 -83v-22q0 -45 -12 -78l55 -58l-58 -59l-47 49q-34 -24 -77 -24q-42 0 -73 24l-47 -49l-58 59l57 58q-13 37 -13 82v15q0 48 14 85l-58 59
l57 58l50 -53q34 24 76 24z" />
    <glyph glyph-name="dollar.cap" horiz-adv-x="369" 
d="M221 -69h-81v68q-122 18 -122 165v19h103v-21q0 -80 59 -80q57 0 57 83q0 44 -16 73.5t-64 60.5q-70 45 -101.5 88.5t-31.5 112.5q0 144 116 166v54h81v-54q66 -12 88.5 -53t22.5 -102v-16h-103v15q0 38 -11 57.5t-40 19.5q-52 0 -51 -74q1 -38 18 -61t69 -59
q71 -50 99.5 -94.5t28.5 -118.5q0 -80 -29 -124.5t-92 -54.5v-70z" />
    <glyph glyph-name="sterling.cap" horiz-adv-x="383" 
d="M354 0h-330v80q58 34 58 157q0 11 -0.5 31.5t-0.5 30.5h-64v84h59q-6 84 -6 124q0 169 148 169q141 0 141 -164v-17h-100v25q0 66 -43 66q-42 0 -42 -68q0 -33 6 -135h104v-84h-100v-23q0 -135 -38 -187h218z" />
    <glyph glyph-name="yen.cap" horiz-adv-x="351" 
d="M309 171h-86v-171h-106v171h-82v64h82v47h-82v65h75l-123 321h116q60 -200 70 -245h1q18 76 68 245h114l-126 -321h79v-65h-86v-47h86v-64z" />
    <glyph glyph-name="Euro.cap" horiz-adv-x="399" 
d="M277 180h99v-12q0 -89 -37 -132.5t-122 -43.5q-41 0 -70.5 12.5t-45.5 30.5t-25 45.5t-11 49t-2 50.5v84h-45v58h45v45h-45v58h45v67q0 184 158 184q39 0 67.5 -10.5t44.5 -26.5t25 -40.5t12 -46.5t3 -51v-14h-98v10q0 47 -10 67.5t-42 20.5q-28 0 -40 -19t-12 -64v-77
h127v-58h-127v-45h127v-58h-127v-80q0 -52 11.5 -75t41.5 -23q28 0 40.5 18.5t12.5 65.5v10z" />
    <glyph glyph-name="cent.cap" horiz-adv-x="360" 
d="M229 253h105v-4q0 -138 -98 -161v-67h-94v65q-108 22 -108 181v149q0 147 108 171v53h94v-54q32 -7 53 -22.5t30.5 -38.5t12.5 -43.5t3 -46.5v-9h-105v7q0 35 -8.5 53t-34.5 18q-25 0 -35 -21.5t-10 -69.5v-158q0 -45 10 -64t34 -19q23 0 33 17t10 58v6z" />
    <glyph glyph-name="florin.cap" horiz-adv-x="340" 
d="M347 671l-21 -86q-19 7 -39 7t-30 -17t-15 -56l-11 -85h72v-87h-83l-33 -258q-12 -94 -40.5 -133.5t-90.5 -39.5q-51 0 -76 17l19 91q13 -7 41 -10q19 1 26 13.5t12 47.5l37 272h-61v87h73l11 80q5 37 13 64.5t23 54t40 40.5t60 14q55 0 73 -16z" />
    <glyph glyph-name="colonmonetary.cap" horiz-adv-x="376" 
d="M251 199h100v-8q0 -70 -15.5 -115t-60.5 -66v-77h-62v63q-6 -1 -18 -1h-9v-62h-62v74q-28 12 -46.5 34t-27 52t-11 56t-2.5 60v265q0 141 87 180v63h62v-49h12h15v49h62v-62q44 -19 58.5 -60.5t14.5 -109.5v-14h-98v18q0 45 -10.5 68t-41.5 23q-29 0 -41 -22t-12 -70
v-300q0 -59 12 -81t44 -22q29 0 39.5 23t10.5 68v23z" />
    <glyph glyph-name="lira.cap" horiz-adv-x="382" 
d="M354 0h-330v80q58 34 58 157v19h-66v56h64q-2 28 -2 41h-62v58h58q-4 64 -4 96q0 169 148 169q141 0 141 -164v-17h-100v25q0 66 -43 66q-42 0 -42 -68q0 -25 4 -107h96v-58h-92q0 -7 0.5 -21t0.5 -20h91v-56h-90q-2 -118 -38 -167h218z" />
    <glyph glyph-name="franc.cap" horiz-adv-x="349" 
d="M63 0v132h-55v74h55v462h266v-93h-163v-169h152v-93h-152v-107h80v-74h-80v-132h-103z" />
    <glyph glyph-name="uni20A6.cap" 
d="M121 538q4 -64 5 -99h18l-17 99h-6zM254 162h7q-1 16 -3.5 53.5t-3.5 58.5h-19zM130 0h-84v274h-37v59h37v47h-37v59h37v229h122l39 -229h42v19v210h84v-229h37v-59h-37l1 -47h36v-59h-36v-274h-113l-48 274h-43v-53v-221zM251 333q0 7 -0.5 23t-0.5 24h-33l8 -47h26z
M163 333l-8 47h-27q1 -15 1 -47h34z" />
    <glyph glyph-name="peseta.cap" horiz-adv-x="392" 
d="M51 0v437h-32v72h32v159h121q85 0 126 -38t43 -121h33v-72h-33q-4 -87 -44 -124.5t-118 -37.5h-23v-275h-105zM155 585v-76h82v3q0 39 -14 56t-49 17h-19zM155 358h17q34 0 49.5 18t15.5 61h-82v-79z" />
    <glyph glyph-name="dong.cap" 
d="M50 -54h294v-71h-294v71zM234 471v83h-120v72h120v49h104v-49h48v-72h-48v-407q0 -85 2 -147h-97q-5 22 -5 49q-26 -57 -93 -57q-114 0 -114 166v183q0 79 31.5 124t91.5 45t80 -39zM135 340v-175q0 -78 49 -78q51 0 51 90v149q0 44 -8.5 65t-39.5 21q-52 0 -52 -72z" />
    <glyph glyph-name="dong.altcap" 
d="M234 471v83h-120v72h120v49h104v-49h48v-72h-48v-407q0 -85 2 -147h-97q-5 22 -5 49q-26 -57 -93 -57q-114 0 -114 166v183q0 79 31.5 124t91.5 45t80 -39zM135 340v-175q0 -78 49 -78q51 0 51 90v149q0 44 -8.5 65t-39.5 21q-52 0 -52 -72z" />
    <glyph glyph-name="uni20B1.cap" horiz-adv-x="396" 
d="M54 0v392h-44v52h44v39h-44v51h44v134h126q153 0 163 -134h41v-51h-40v-39h40v-52h-41q-13 -133 -156 -133h-29v-259h-104zM158 587v-53h83q-7 53 -59 53h-24zM158 342h21q52 0 61 50h-82v-50zM243 444v39h-85v-39h85z" />
    <glyph glyph-name="uni20B2.cap" horiz-adv-x="390" 
d="M350 359v-331q-54 -19 -110 -26v-71h-80v72q-34 5 -58 20.5t-37.5 35.5t-20.5 50.5t-9 56.5t-2 63v245q0 172 127 191v53h80v-54q111 -20 111 -172v-10h-105v8q0 44 -10 64.5t-41 20.5q-32 0 -43 -22.5t-11 -61.5v-258q0 -77 14.5 -107t57.5 -30q16 0 31 5v258h106z" />
    <glyph glyph-name="uni20B4.cap" horiz-adv-x="377" 
d="M141 502h-99v13q0 161 142 161q143 0 143 -151q0 -58 -20 -104h43v-57h-77q-20 -27 -40 -48h102v-56h-150q-41 -55 -41 -117q0 -66 45 -66q27 0 38.5 18.5t11.5 58.5v19h101v-6q0 -93 -38.5 -134t-116.5 -41q-145 0 -145 156q0 62 25 112h-43v56h82q14 16 44 48h-112v57
h158q30 47 28 108q-1 36 -9.5 50.5t-30.5 14.5q-41 0 -41 -68v-24z" />
    <glyph glyph-name="uni20B5.cap" horiz-adv-x="376" 
d="M251 199h100v-8q0 -39 -4 -67t-15 -56t-34.5 -45.5t-59.5 -23.5v-66h-81v65q-39 7 -64.5 28t-37 53.5t-15 61.5t-3.5 68v265q0 167 120 190v51h81v-50q66 -10 88 -55.5t22 -124.5v-14h-98v18q0 45 -10.5 68t-41.5 23q-29 0 -41 -21.5t-12 -70.5v-299q0 -59 12 -81.5
t44 -22.5q29 0 39.5 23t10.5 68v23z" />
    <glyph glyph-name="uni20B9.cap" horiz-adv-x="382" 
d="M32 595v73h323v-59h-99q19 -22 30 -56h69v-59h-62v-21q0 -135 -113 -171l149 -302h-116l-141 289h-40v88h53q55 0 79.5 22t24.5 75v20h-157v59h148q-19 42 -98 42h-50z" />
    <glyph glyph-name="uni20BA.cap" horiz-adv-x="384" 
d="M176 0h-99v287l-63 -27v71l63 27v52l-63 -27v72l63 27v186h102v-143l91 39v-72l-91 -39v-52l91 39v-71l-91 -39v-238q43 0 64.5 31.5t23.5 106.5h94q-4 -230 -185 -230z" />
    <glyph glyph-name="uni20BD.cap" horiz-adv-x="390" 
d="M70 0v187h-54v69h54v46h-54v76h54v290h128q94 0 130 -42t36 -110v-50q0 -81 -37.5 -122.5t-129.5 -41.5h-26v-46h90v-69h-90v-187h-101zM171 586v-208h25q40 0 53.5 21.5t13.5 64.5v48q0 36 -13.5 55t-49.5 19h-29z" />
    <glyph glyph-name="at.cap" horiz-adv-x="616" 
d="M440 4l21 -62q-59 -47 -163 -47q-131 0 -199 89.5t-68 264.5v22q0 113 29.5 200.5t96.5 142t163 54.5q125 0 194.5 -75.5t69.5 -226.5v-21q0 -282 -143 -282q-69 0 -84 63q-26 -63 -93 -63q-44 0 -68 35t-18 107l12 146q12 152 104 152q28 0 45 -13t21 -32l5 36h84
l-30 -290q-6 -59 29 -59q32 0 47.5 59t15.5 139v25q0 124 -47 177.5t-146 53.5q-73 0 -121 -45.5t-67 -115.5t-19 -165v-25q0 -282 193 -282q74 0 136 38zM319 417q-20 0 -30 -16t-14 -58l-10 -118q-7 -73 30 -73q38 0 46 88l9 103q8 74 -31 74z" />
    <glyph glyph-name="emdash.cap" horiz-adv-x="547" 
d="M21 396h505v-90h-505v90z" />
    <glyph glyph-name="endash.cap" horiz-adv-x="302" 
d="M21 396h260v-90h-260v90z" />
    <glyph glyph-name="hyphen.cap" horiz-adv-x="223" 
d="M21 398h181v-94h-181v94z" />
    <glyph glyph-name="uni00AD.cap" horiz-adv-x="223" 
d="M21 398h181v-94h-181v94z" />
    <glyph glyph-name="exclamdown.cap" horiz-adv-x="198" 
d="M39 432h91l11 -333v-112h-112v111zM34 668h103v-125h-103v125z" />
    <glyph glyph-name="questiondown.cap" horiz-adv-x="330" 
d="M112 459h103v-21q0 -79 -50 -168q-39 -73 -39 -133q0 -35 7.5 -49.5t27.5 -14.5q38 0 38 71v27h95v-24q0 -75 -31.5 -115t-107.5 -40q-71 0 -101.5 38t-30.5 110q0 37 8 69.5t17.5 52.5t34.5 68q29 55 29 119v10zM112 668h103v-145h-103v145z" />
    <glyph glyph-name="guillemotleft.cap" horiz-adv-x="377" 
d="M203 498l-89 -160l89 -160h-87l-90 160l90 160h87zM352 498l-91 -160l91 -160h-87l-92 160l92 160h87z" />
    <glyph glyph-name="guillemotright.cap" horiz-adv-x="377" 
d="M174 178l90 159l-90 161h87l91 -161l-91 -159h-87zM26 178l90 159l-90 161h87l91 -161l-91 -159h-87z" />
    <glyph glyph-name="guilsinglleft.cap" horiz-adv-x="229" 
d="M203 498l-89 -160l89 -160h-87l-90 160l90 160h87z" />
    <glyph glyph-name="guilsinglright.cap" horiz-adv-x="229" 
d="M26 178l89 159l-89 161h87l90 -161l-90 -159h-87z" />
    <glyph glyph-name="parenleft.cap" horiz-adv-x="267" 
d="M135 731h98q-109 -186 -109 -400q0 -216 109 -413h-98q-105 175 -105 414q0 221 105 399z" />
    <glyph glyph-name="parenright.cap" horiz-adv-x="267" 
d="M113 -81h-97q108 188 108 400q0 216 -108 412h97q106 -172 106 -413q0 -219 -106 -399z" />
    <glyph glyph-name="braceleft.cap" horiz-adv-x="296" 
d="M24 277v92h14q44 0 58.5 18.5t14.5 56.5l-5 132q0 85 38.5 119t112.5 34h19v-79h-10q-38 0 -54.5 -17t-16.5 -62l5 -116q2 -115 -73 -130q44 -14 59 -43t14 -89l-5 -119q0 -46 16.5 -62t53.5 -16h11v-80h-24q-72 0 -109 32t-37 112l5 143q0 37 -13.5 55.5t-54.5 18.5h-19
z" />
    <glyph glyph-name="braceright.cap" horiz-adv-x="296" 
d="M273 368v-92h-15q-44 0 -58 -18.5t-14 -56.5l5 -132q0 -85 -38.5 -119t-112.5 -34h-20v80h10q39 0 55 16.5t16 61.5l-5 116q-2 114 74 131q-44 13 -59.5 41.5t-14.5 89.5l5 119q0 46 -16.5 62.5t-53.5 16.5h-11v79h24q72 0 109.5 -32t37.5 -112l-5 -142q0 -38 13.5 -56.5
t54.5 -18.5h19z" />
    <glyph glyph-name="bracketleft.cap" horiz-adv-x="254" 
d="M233 -82h-186v812h186v-82h-102v-647h102v-83z" />
    <glyph glyph-name="bracketright.cap" horiz-adv-x="254" 
d="M20 705h187v-812h-187v82h102v647h-102v83z" />
    <glyph glyph-name="bullet.cap" horiz-adv-x="230" 
d="M36 430h157v-166h-157v166z" />
    <glyph glyph-name="periodcentered.cap" horiz-adv-x="174" 
d="M138 276h-103v148h103v-148z" />
    <glyph glyph-name="bulletoperator.cap" horiz-adv-x="174" 
d="M138 276h-103v148h103v-148z" />
    <glyph glyph-name="slash.frac" horiz-adv-x="95" 
d="M-67 0h-62l291 650h62z" />
    <glyph glyph-name="percent.alt" horiz-adv-x="362" 
d="M87 595q67 0 67 -69v-87q0 -75 -68 -75q-65 0 -65 75v85q0 34 18 52.5t48 18.5zM87 552q-20 0 -20 -27v-88q0 -30 20 -30q21 0 21 31v88q0 26 -21 26zM114 199h-32l164 390h32zM272 423q67 0 67 -69v-87q0 -75 -68 -75q-66 0 -66 75v85q0 34 18.5 52.5t48.5 18.5z
M272 380q-21 0 -21 -27v-88q0 -30 21 -30q20 0 20 31v88q0 26 -20 26z" />
    <glyph glyph-name="estimated.alt" horiz-adv-x="371" 
d="M133 389h100v101q0 75 -49 75q-51 0 -51 -75v-101zM236 181h98v-12q0 -87 -34 -131t-114 -46q-89 0 -122 49.5t-33 141.5v286q0 189 156 189q149 0 149 -185v-172h-203v-118q0 -50 10.5 -74.5t40.5 -24.5q26 0 39 18.5t13 67.5v11z" />
    <glyph glyph-name="caron.alt" horiz-adv-x="400" 
d="M165 697h70l-3 -228h-64z" />
    <glyph glyph-name="uni00A80304" horiz-adv-x="400" 
d="M305 692h-222v71h222v-71zM166 564h-84v89h84v-89zM307 564h-86v89h86v-89z" />
    <glyph glyph-name="uni00A80301" horiz-adv-x="400" 
d="M231 689h-102l65 88h125zM167 570h-85v90h85v-90zM307 570h-86v90h86v-90z" />
    <glyph glyph-name="uni00A8030C" horiz-adv-x="400" 
d="M236 679h-87l-83 90h90l38 -43l34 43h91zM167 564h-85v89h85v-89zM307 564h-86v89h86v-89z" />
    <glyph glyph-name="uni00A80300" horiz-adv-x="400" 
d="M248 689h-101l-89 88h125zM167 570h-85v90h85v-90zM307 570h-86v90h86v-90z" />
    <glyph glyph-name="uni02C60301" horiz-adv-x="400" 
d="M153 696h97l85 -118h-89l-45 64l-45 -64h-89zM370 770h99l-97 -104h-75z" />
    <glyph glyph-name="uni02C60300" horiz-adv-x="400" 
d="M153 695h97l85 -118h-89l-45 64l-45 -64h-89zM245 772h103l66 -109h-70z" />
    <glyph glyph-name="uni02C60309" horiz-adv-x="400" 
d="M153 694h97l85 -118h-89l-45 64l-45 -64h-89zM373 673h-72q36 37 36 56t-25 19q-21 0 -40 -13l-21 48q39 29 87 29q38 0 57 -17.5t19 -46.5q0 -42 -41 -75z" />
    <glyph glyph-name="uni02C60303" horiz-adv-x="400" 
d="M140 687h-61v11q0 77 64 77q26 0 60.5 -12.5t42.5 -12.5q15 0 15 17v9h60v-13q0 -77 -63 -77q-23 0 -57.5 12.5t-44.5 12.5q-16 0 -16 -17v-7zM146 655h106l90 -89h-97l-48 44l-45 -44h-96z" />
    <glyph glyph-name="uni02D80301" horiz-adv-x="400" 
d="M236 769h112l-113 -85h-80zM75 663h78q9 -36 49 -36q38 0 50 36h76q-7 -45 -39 -72.5t-88 -27.5t-87.5 29t-38.5 71z" />
    <glyph glyph-name="uni02D80300" horiz-adv-x="400" 
d="M59 769h112l79 -85h-79zM75 663h78q9 -36 49 -36q38 0 50 36h76q-7 -45 -39 -72.5t-88 -27.5t-87.5 29t-38.5 71z" />
    </font>
</defs>
</svg>
