<svg xmlns="http://www.w3.org/2000/svg" width="14" height="14" viewBox="0 0 14 14">
  <path id="icon_open_new_window_copy_8" data-name="icon_open_new_window copy 8" d="M1107.434,5347a1.434,1.434,0,0,1-1.434-1.435v-11.13a1.436,1.436,0,0,1,1.434-1.436h3.407v1.667h-2.461a.715.715,0,0,0-.715.714v9.238a.716.716,0,0,0,.715.716h9.238a.715.715,0,0,0,.715-.716v-2.46H1120v3.407a1.434,1.434,0,0,1-1.435,1.435Zm3.964-6.583,5.75-5.75H1113V5333h5.566a1.436,1.436,0,0,1,1.435,1.436V5340h-1.667v-4.164l-5.758,5.757Z" transform="translate(-1106 -5332.999)" fill="#0072ce"/>
</svg>
