<svg xmlns="http://www.w3.org/2000/svg" width="40" height="40">
    <path fill="#FFF" fill-rule="evenodd" d="M38.981 34.054l-9.678-9.675a15.899 15.899 0 0 0 2.068-12.01c.091.006.182.013.274.013a3.972 3.972 0 1 0 0-7.943c-.845 0-1.626.266-2.27.716a2.9 2.9 0 0 0-4.953-2.664C18.276-1.435 10.02-.716 4.651 4.653c-6.204 6.202-6.204 16.258 0 22.46 5.357 5.357 13.588 6.083 19.73 2.187l9.677 9.675a3.48 3.48 0 1 0 4.923-4.921zM31.645 6.459a1.952 1.952 0 1 1 0 3.904 1.952 1.952 0 0 1 0-3.904zm-9.451 15.733a8.927 8.927 0 0 1-12.621 0 8.921 8.921 0 0 1 0-12.618 8.925 8.925 0 0 1 12.621 0 8.921 8.921 0 0 1 0 12.618zm4.373-16.328a1.426 1.426 0 1 1 0 0z"/>
</svg>
