<svg xmlns="http://www.w3.org/2000/svg" width="52" height="50">
    <path fill="#FFF" fill-rule="evenodd" d="M26 50C12.089 50 .813 38.807.813 25S12.089 0 26 0c13.911 0 25.187 11.193 25.187 25S39.911 50 26 50zm17.027-32.205c-.081-1.773-.365-2.985-.78-4.045a8.168 8.168 0 0 0-1.937-2.953 8.25 8.25 0 0 0-2.974-1.922c-1.069-.412-2.289-.694-4.077-.775-1.791-.081-2.363-.1-6.923-.1-4.561 0-5.132.019-6.924.1-1.787.081-3.008.363-4.076.775a8.25 8.25 0 0 0-2.974 1.922 8.155 8.155 0 0 0-1.937 2.953c-.415 1.06-.699 2.272-.78 4.045-.082 1.778-.102 2.345-.102 6.872 0 4.526.02 5.093.102 6.871.081 1.774.365 2.986.78 4.046a8.16 8.16 0 0 0 1.937 2.952 8.253 8.253 0 0 0 2.974 1.923c1.068.412 2.289.693 4.076.774 1.792.081 2.363.1 6.924.1 4.56 0 5.132-.019 6.923-.1 1.788-.081 3.008-.362 4.077-.774a8.253 8.253 0 0 0 2.974-1.923 8.173 8.173 0 0 0 1.937-2.952c.415-1.06.699-2.272.78-4.046.082-1.778.101-2.345.101-6.871 0-4.527-.019-5.094-.101-6.872zm-3.6 16.701a5.159 5.159 0 0 1-1.257 1.916 5.192 5.192 0 0 1-1.93 1.247c-.592.228-1.481.5-3.119.574-1.77.08-2.301.097-6.785.097s-5.015-.017-6.786-.097c-1.637-.074-2.526-.346-3.118-.574a5.196 5.196 0 0 1-1.931-1.247 5.169 5.169 0 0 1-1.256-1.916c-.23-.587-.503-1.469-.578-3.094-.081-1.758-.098-2.286-.098-6.735 0-4.451.017-4.978.098-6.735.075-1.625.348-2.508.578-3.095a5.169 5.169 0 0 1 1.256-1.916 5.208 5.208 0 0 1 1.931-1.247c.592-.228 1.481-.5 3.118-.574 1.771-.079 2.302-.097 6.786-.097s5.015.018 6.785.097c1.638.074 2.527.346 3.119.574a5.204 5.204 0 0 1 1.93 1.247 5.159 5.159 0 0 1 1.257 1.916c.229.587.503 1.47.578 3.095.08 1.757.097 2.284.097 6.735 0 4.449-.017 4.977-.097 6.735-.075 1.625-.349 2.507-.578 3.094zM26.336 16.108c-4.763 0-8.623 3.832-8.623 8.559 0 4.727 3.86 8.558 8.623 8.558 4.762 0 8.623-3.831 8.623-8.558s-3.861-8.559-8.623-8.559zM35.3 13.77a2.008 2.008 0 0 0-2.015 2c0 1.105.902 2 2.015 2a2.007 2.007 0 0 0 2.015-2c0-1.104-.902-2-2.015-2zm-8.964 16.452c-3.092 0-5.598-2.488-5.598-5.555 0-3.069 2.506-5.555 5.598-5.555 3.091 0 5.597 2.486 5.597 5.555 0 3.067-2.506 5.555-5.597 5.555z"/>
</svg>
