<svg xmlns="http://www.w3.org/2000/svg" width="48" height="49">
    <path fill="#FFF" fill-rule="evenodd" stroke="#0072CE" stroke-width="2" d="M23.312 1.844c12.237 0 22.157 9.919 22.157 22.156 0 12.237-9.92 22.156-22.157 22.156-12.236 0-22.156-9.919-22.156-22.156 0-12.237 9.92-22.156 22.156-22.156z"/>
    <path fill="#0072CE" fill-rule="evenodd" d="M32.005 31.329c0 2.026-1.619 3.667-3.617 3.667s-3.617-1.641-3.617-3.667V16.663c0-2.023 1.619-3.666 3.617-3.666s3.617 1.642 3.617 3.666v14.666zm-14.392 3.667c-1.998 0-3.617-1.641-3.617-3.667l-.001-14.666c0-2.023 1.62-3.666 3.618-3.666 1.997 0 3.617 1.642 3.617 3.666v14.666c0 2.026-1.619 3.667-3.617 3.667z"/>
</svg>
