<svg xmlns="http://www.w3.org/2000/svg" width="122.5" height="122.5">
    <path fill="#000000" fill-rule="evenodd" stroke="#FFF" stroke-width="5" d="M60 2.5c31.756 0 57.5 25.744 57.5 57.5 0 31.757-25.744 57.5-57.5 57.5S2.5 91.757 2.5 60C2.5 28.244 28.244 2.5 60 2.5z"/>
    <path fill="#FFF" fill-rule="evenodd" d="M86.159 43.341l-16.32 16.32L85.498 75.32c2.706 2.706 2.685 7.114-.046 9.845-2.731 2.731-7.139 2.751-9.844.047l-15.66-15.66L44.34 85.16c-2.706 2.705-7.104 2.695-9.822-.024-2.719-2.719-2.73-7.117-.024-9.823l15.608-15.608-16.314-16.314c-2.706-2.706-2.685-7.113.046-9.843 2.731-2.732 7.139-2.753 9.844-.048l16.315 16.315 16.32-16.321c2.706-2.704 7.104-2.694 9.822.024 2.719 2.72 2.73 7.116.024 9.823z"/>
</svg>
