<svg xmlns="http://www.w3.org/2000/svg" width="46" height="60">
    <path fill="#0072CE" fill-rule="evenodd" d="M12.118 17.758c-.072.064-.151.128-.226.204-9.468 9.408-10.009 12.655-8.777 19.39.269 1.444.731 2.79 1.29 4.028C6 44.979 8.319 47.725 8.582 49.676c.347 2.613-3.884 6.9-7.629 7.882-2.063.544-.103 2.253-.103 2.253s.843.75 4.25-.826c5.976-2.767 6.988-7.321 6.988-7.321s12.658 1.058 21.812-7.331c4.669-4.296 7.423-12.594 7.625-25.941C41.755 5.044 45.992.007 45.992.007S20.895 9.288 12.118 17.758m13.473 4.028c-4.008 6.108-3.319 5.041-5.817 10.863-.912 2.139-2.524 5.95-3.403 7.86-1.577 3.44-4.011 5.951-5.11 7.152-.595.651 2.367-4.083 3.512-7.95 1.836-6.211 1.83-9.733 4.878-14.916 2.123-3.598 17.16-18.803 21.506-20.762 0 0-9.009 7.749-15.566 17.753"/>
</svg>
