<svg xmlns="http://www.w3.org/2000/svg" width="41" height="40">
    <path fill="#5F2167" fill-rule="evenodd" d="M20.424.159C31.382.159 40.265 9.042 40.265 20c0 10.958-8.883 19.841-19.841 19.841C9.467 39.841.583 30.958.583 20 .583 9.042 9.467.159 20.424.159z"/>
    <path fill="#FFF" fill-rule="evenodd" d="M30.743 18.088l-2.153 2.154a1.171 1.171 0 0 1-1.657-1.656l2.154-2.155a3.025 3.025 0 0 0 .892-2.154c0-.813-.317-1.578-.892-2.153a3.027 3.027 0 0 0-2.154-.893 3.03 3.03 0 0 0-2.154.893l-4.307 4.307a3.05 3.05 0 0 0 0 4.308 1.171 1.171 0 0 1-1.657 1.656 5.394 5.394 0 0 1 0-7.62l4.308-4.307a5.352 5.352 0 0 1 3.81-1.579 5.35 5.35 0 0 1 3.81 1.579 5.351 5.351 0 0 1 1.579 3.809c0 1.44-.561 2.793-1.579 3.811zm-17.411 5.483a3.024 3.024 0 0 0-.892 2.154c0 .813.316 1.579.892 2.154a3.05 3.05 0 0 0 4.307 0l4.308-4.308a3.05 3.05 0 0 0 0-4.308 1.171 1.171 0 0 1 1.657-1.656 5.395 5.395 0 0 1 0 7.621l-4.308 4.307a5.372 5.372 0 0 1-3.81 1.576c-1.38 0-2.76-.526-3.811-1.576a5.395 5.395 0 0 1 0-7.621l2.154-2.153a1.17 1.17 0 1 1 1.657 1.656l-2.154 2.154z"/>
</svg>
