<svg xmlns="http://www.w3.org/2000/svg" width="56" height="37">
    <path fill="#0072CE" fill-rule="evenodd" d="M55.324 3.488c-.572-1.152-1.807-2.4-3.333-2.551-1.502-.164-2.697.302-3.845 1.058l.083-.056c-6.224 3.853-12.542 7.622-18.667 11.742-.668-2.66-1.946-5.153-3.808-7.107-2.772-2.959-6.712-4.697-10.689-4.705-3.979.008-7.919 1.746-10.691 4.705C1.577 9.509-.025 13.636.013 17.762c.007 4.127 1.652 8.212 4.455 11.089.916.955 1.993 1.701 3.121 2.356-.85.857-1.64 1.788-2.422 2.726H2.363c-.556 0-1.008.473-1.008 1.056 0 .582.452 1.055 1.008 1.055h43.856c.556 0 1.009-.473 1.009-1.055 0-.583-.453-1.056-1.009-1.056H16.164c1.464-.45 2.936-.873 4.382-1.387 7.72-2.804 15.164-6.408 22.348-10.51l.047-.026.922-.518-.402-.921-1.442-3.301 10.921-6.666-.006-.009c1.139-.657 2.074-1.484 2.689-2.838.645-1.401.329-3.129-.299-4.269zM2.47 17.762c-.13-7.048 5.94-13.277 12.595-13.04 5.808-.207 11.057 4.54 12.231 10.435-1.245.844-2.417 1.807-3.64 2.688.001-.003.005-.006.005-.01.033-.368-.226-.694-.577-.728l-6.665-.646-.547-10.251a.656.656 0 0 0-.589-.628.648.648 0 0 0-.685.615l-.822 11.166a1.663 1.663 0 0 0-.001.187c.004.085.079.132.097.212 0 .047-.042.079-.038.127.067.777.724 1.351 1.468 1.282l7.517-.706c-4.681 3.424-9.207 7.082-13.469 11.103-4.105-2.277-7.041-6.868-6.88-11.806zm13.081.159a.49.49 0 0 1-.686.187.54.54 0 0 1-.178-.718.488.488 0 0 1 .685-.187.538.538 0 0 1 .179.718zm4.402 12.948c-2.699 1.143-5.451 2.141-8.226 3.064H7.169c.597-.648 1.178-1.31 1.833-1.904 6.042-5.558 12.898-10.117 19.612-14.812 2.605-1.798 5.292-3.465 7.978-5.137.717 1.076 1.957 3.333 2.964 5.347.005.011.017.014.023.025l1.302 2.976a157.146 157.146 0 0 1-20.928 10.441zm23.77-19.051c-.574.34-1.304.13-1.63-.471-.325-.601-.123-1.365.451-1.706.574-.34 1.304-.129 1.63.472.325.601.124 1.365-.451 1.705zm7.219-4.283c-.574.341-1.304.129-1.63-.472-.325-.601-.124-1.365.451-1.705.574-.341 1.304-.13 1.629.471.326.601.124 1.365-.45 1.706zm1.321 1.855l.013-.008.085.184-.098-.176z"/>
</svg>
