<svg xmlns="http://www.w3.org/2000/svg" width="62" height="76">
    <path fill="#0072CE" fill-rule="evenodd" d="M35.68 22.402l.368 23.02s.047 2.932 2.738 2.857c2.69-.076 2.643-3.007 2.643-3.007l-.368-23.021s2.652-2.473 2.591-6.283l-.235-7.838c-.012-.729-.494-1.312-1.205-1.293-.711.02-1.174.63-1.162 1.36l-.001 6.808a.774.774 0 0 1-.738.792.752.752 0 0 1-.763-.75l-.22-6.802c-.012-.73-.493-1.313-1.204-1.293-.711.02-1.175.63-1.163 1.359l.001 6.809a.776.776 0 0 1-.739.791.752.752 0 0 1-.763-.749l-.221-6.803c-.012-.729-.491-1.312-1.202-1.293-.711.02-1.198.631-1.187 1.36l.041 7.843c.061 3.811 2.789 6.133 2.789 6.133zm26.317 37.284l-.726-7.354v-.001c.662-1.481.699-2.945.603-4.218L57.552 5.741c0-3.161-2.617-5.734-5.833-5.734H8.5c-3.216 0-5.833 2.573-5.83 5.638L-.014 57.511v.002l.001.936.009 1.819.017 3.64c.004 1.162.424 2.291 1.107 3.228.086.12.15.255.246.367.284.331.606.628.962.882.572.492 1.323.751 2.066.911.976.21 1.942.23 2.486.191l3.701-.018 7.63-.036v6.554l4.966-2.563 4.965 2.563v-6.601l26.84-.129-.155-.008c1.46.07 2.768-.169 4.038-1.074 1.261-.896 1.865-2.432 1.969-3.691.025-.402.012-.711.01-1.049h.865l-.408-3.749h.696zM8.431 3.649c.024-.001.044-.013.069-.013h43.219c1.183 0 2.142.942 2.153 2.286l4.326 42.513c.106 1.103-.045 2.134-.399 2.68a1.505 1.505 0 0 1-.662.573c-.237.136-.778.192-.951.18l-.178-.014h-.044l-29.601-.03-14.801.069-4.979.024L8.431 3.649zm49.554 60.543c-.095.795-.371 1.364-.855 1.704-.435.366-1.354.537-1.992.493l-.117-.008h-.039l-26.84-.128v-2.818h29.847l-.004.757zM7.386 57.871v1.815h52.056l.212 1.935H7.685v1.814h10.526v2.771l-7.63-.037-3.701-.018c-.734.008-1.195.008-1.555-.052-.36-.06-.617-.18-.943-.413a2.224 2.224 0 0 1-.905-1.783l.017-3.635.009-1.819.006-.756.115-.696c.087-.295.23-.577.439-.81.229-.254.516-.458.829-.585.186-.063.318-.104.477-.129.16-.024.347-.032.643-.029l1.85.009 3.7.017 14.801.069 29.601-.03-.221-.013c1.149.078 1.961-.077 2.929-.487.34-.149.645-.38.949-.607l.343 3.469H7.386zm12.308-29.733l-.558 17.024s-.096 2.91 2.624 2.919c2.72.009 2.816-2.891 2.816-2.891l1.176-35.881s.099-2.133-1.714-2.139c-2.125-.006-5.36 3.396-5.908 20.114 0 0-.07.849 1.564.854z"/>
</svg>
