<svg xmlns="http://www.w3.org/2000/svg" width="64" height="29">
    <path fill="#0072CE" fill-rule="evenodd" d="M61.059 15.593a10.418 10.418 0 0 0-5.526-4.441c1.446-1.436 2.118-3.596 1.47-5.561-.708-2.51-3.326-4.414-6.14-4.406-2.811.014-5.418 1.928-6.103 4.441-.63 1.951.042 4.09 1.474 5.513-.905.293-1.761.666-2.555 1.18-.913.607-1.669 1.387-2.342 2.224-1.098-.777-2.356-1.325-3.686-1.731 1.97-1.797 2.954-4.592 2.155-7.178-.85-3.193-4.188-5.575-7.707-5.578-3.526-.052-6.885 2.305-7.798 5.482-.84 2.603.128 5.443 2.115 7.267-1.347.42-2.609.994-3.708 1.789-.682-.857-1.451-1.656-2.383-2.275-.794-.514-1.651-.887-2.556-1.18 1.432-1.423 2.104-3.562 1.475-5.513-.686-2.513-3.292-4.427-6.104-4.441C10.327 1.177 7.708 3.081 7 5.591c-.648 1.965.024 4.125 1.471 5.561a10.43 10.43 0 0 0-5.528 4.441C1.47 18.091.963 20.914.951 23.628h1.966c-.03-2.523.419-5.05 1.637-7.185 1.19-2.096 3.432-3.753 5.806-4.141l2.014-.33-1.638-1.163-.019-.014C9.176 9.723 8.551 7.79 9.099 6.175c.53-1.63 2.273-2.782 4.034-2.717 1.76-.058 3.508 1.097 4.029 2.736.545 1.619-.088 3.559-1.641 4.632l-1.536 1.061 1.903.394h.001c1.114.2 2.346.759 3.3 1.477.803.596 1.447 1.354 1.993 2.172-.824.811-1.575 1.684-2.163 2.654-.987 1.578-1.537 3.319-1.977 5.053-.382 1.752-.523 3.514-.569 5.276h2.138c.024-1.648.135-3.287.462-4.884.382-1.573.853-3.142 1.698-4.521.824-1.38 1.902-2.616 3.233-3.563 1.297-.943 2.937-1.65 4.442-1.886l2.191-.345-1.782-1.278-.059-.042c-2.077-1.411-2.919-4.031-2.138-6.186.732-2.167 3.022-3.756 5.424-3.683 2.397-.043 4.688 1.558 5.385 3.744.763 2.167-.113 4.79-2.215 6.186l-1.849 1.227 2.247.355.019.002c3.179.544 6.081 2.736 7.633 5.494.836 1.378 1.291 2.945 1.664 4.513.316 1.593.417 3.226.432 4.867h2.309c-.055-1.764-.206-3.529-.595-5.279-.451-1.735-1.006-3.477-2.003-5.052-.606-.996-1.388-1.886-2.245-2.711.538-.794 1.167-1.531 1.95-2.113.955-.718 2.186-1.277 3.3-1.477h.002l1.903-.394-1.536-1.061c-1.554-1.073-2.187-3.013-1.641-4.632.521-1.639 2.268-2.794 4.028-2.736 1.761-.065 3.504 1.087 4.034 2.717.548 1.615-.076 3.548-1.617 4.62l-.02.014-1.638 1.163 2.015.33c2.373.388 4.616 2.045 5.804 4.141 1.218 2.135 1.668 4.662 1.638 7.185h1.967c-.013-2.714-.519-5.537-1.994-8.035z"/>
</svg>
