<svg xmlns="http://www.w3.org/2000/svg" width="40" height="40">
    <path fill="#00B140" fill-rule="evenodd" d="M19.87.159C30.828.159 39.711 9.042 39.711 20c0 10.958-8.883 19.841-19.841 19.841C8.912 39.841.029 30.958.029 20 .029 9.042 8.912.159 19.87.159z"/>
    <path fill="#FFF" fill-rule="evenodd" d="M31.831 11.27H7.894c-.84 0-1.523.718-1.523 1.601v14.257c0 .883.683 1.601 1.523 1.601h23.937c.84 0 1.523-.718 1.523-1.601V12.871c0-.883-.683-1.601-1.523-1.601zM7.925 13.681l8.128 6.147-8.128 6.487V13.681zm14.089 5.387a.76.76 0 0 0-.238.181l-1.913 1.446-2.048-1.548-.007-.005-8.248-6.238h20.606l-8.152 6.164zm-4.641 1.757l2.036 1.541a.752.752 0 0 0 .454.154.751.751 0 0 0 .453-.154l2.024-1.531 7.842 6.26H9.519l7.854-6.27zm6.287-.988l8.14-6.156v12.654l-8.14-6.498z"/>
</svg>
