<svg xmlns="http://www.w3.org/2000/svg" width="31" height="60">
    <path fill="#0072CE" fill-rule="evenodd" d="M26.499 22.912v31.353c0 4.634-1.752 5.721-3.924 5.721-1.083 0-2.068-.274-2.78-1.122-.709-.854-1.153-2.282-1.153-4.599V22.93c-2.65-3.151-4.513-3.973-4.513-9.764 0-7.897 3.185-13.158 8.435-13.158 5.249 0 8.434 5.261 8.434 13.158 0 5.785-3.793 7.896-4.499 9.746zM10.044 54.801c0 4.2-1.758 5.185-3.927 5.185-1.086 0-2.065-.244-2.777-1.017-.714-.773-1.153-2.072-1.153-4.168V30.554C.713 30.1.001 29.595.001 27.777c0-1.821-.045-6.637.301-13.197C.606 8.594 3.976-.263 7.974.014c2.174.152 2.067 1.846 2.067 1.846v25.547l.003 27.394z"/>
</svg>
