<svg xmlns="http://www.w3.org/2000/svg" width="41" height="40">
    <path fill="#1DA1F2" fill-rule="evenodd" d="M20.671.158C9.631.158.681 9.041.681 19.998c0 10.959 8.95 19.842 19.99 19.842 11.041 0 19.991-8.883 19.991-19.842 0-10.957-8.95-19.84-19.991-19.84zm10.04 16.079c.01.205.014.41.014.618 0 6.321-4.848 13.609-13.712 13.609-2.721 0-5.254-.791-7.387-2.148a9.92 9.92 0 0 0 1.15.067 9.714 9.714 0 0 0 5.985-2.048 4.82 4.82 0 0 1-4.502-3.324 4.832 4.832 0 0 0 2.177-.08c-2.205-.44-3.867-2.373-3.867-4.689l.001-.062c.65.359 1.392.575 2.183.599a4.772 4.772 0 0 1-2.145-3.982c0-.875.239-1.698.653-2.404a13.715 13.715 0 0 0 9.933 4.998 4.783 4.783 0 0 1-.125-1.091c0-2.64 2.159-4.782 4.82-4.782 1.386 0 2.639.58 3.518 1.511a9.68 9.68 0 0 0 3.06-1.161 4.804 4.804 0 0 1-2.119 2.646 9.708 9.708 0 0 0 2.767-.753 9.755 9.755 0 0 1-2.404 2.476z"/>
</svg>
