<svg xmlns="http://www.w3.org/2000/svg" width="69" height="60">
    <path fill="#0072CE" fill-rule="evenodd" d="M68.948 26.557c.19.437-.031.938-.49 1.118l-8.239 3.209c-.456.178-.989-.035-1.176-.47l-3.651-8.463c-.155-.358-.046-.709.074-.971a9.517 9.517 0 0 1-2.142-.926c-2.02 8.965-3.207 13.722-4.851 22.495 5.146 12.014-5.192 17.524-13.743 17.439-8.568.085-19.382-5.425-14.236-17.439-2.241-8.569-3.23-13.737-4.848-22.495-6.334 3.822-13.723-1.013-15.651-7.213C2.72 4.372 16.294 4.289 20.04 10.068c2.806-3.189 4.412-4.659 6.839-6.105 1.5-.888 4.713-3.968 7.576-3.974h.02c2.842.006 6.115 3.086 7.607 3.974 2.43 1.446 4.036 2.916 6.839 6.105 3.757-5.779 17.325-5.696 20.047 2.773-.645 2.085-1.944 3.98-3.582 5.48l3.562 8.236zM65.65 23.21c.149-.056.332.102.441.417.135.386.038.668-.166.742l-.043.011.195.741c.054-.056.115-.12.207-.152.203-.073.441.161.59.597.155.446.121.833-.097.912-.204.079-.433-.14-.597-.542l-.444.283c.315.766.837 1.154 1.279.988.508-.193.663-.965.384-1.786-.198-.572-.528-.915-.866-.924.163-.33.187-.708.049-1.104-.224-.652-.74-1.072-1.185-.907-.436.164-.565.671-.381 1.507l.507-.026c-.109-.405-.074-.688.127-.757zm-.652 4.749c.48-.182.62-.916.296-1.868-.307-.907-.855-1.393-1.271-1.238-.181.066-.295.259-.324.559-.264-.868-.313-1.358-.046-1.459.161-.062.321.093.459.421l.448-.276c-.327-.737-.732-1.025-1.128-.874-.596.219-.663 1.159-.12 2.739.522 1.547 1.121 2.201 1.686 1.996zm-2.145.803c.247-.09.439-.347.493-.751.049-.379-.017-.816-.152-1.212-.275-.793-.817-1.433-1.316-1.25-.132.05-.213.148-.284.277l-.193-.825.933-.344-.281-.827-1.314.489.573 2.497.436-.038c.035-.26.121-.431.262-.481.235-.09.493.155.685.703.195.582.152.973-.066 1.057-.186.065-.425-.131-.585-.522l-.465.275c.362.836.889 1.1 1.274.952zm-3.373.123l1.052-.397.324.933.479-.178-.321-.933.327-.116-.273-.781-.318.114-1.004-2.934-.413.155-.12 3.362.267.775zM15.428 11.11C12.697 7.034 5.437 9.621 4 12.59c1.119 6.15 10.843 7.368 11.999 2.858.548-1.501.553-2.622-.571-4.338zm3.462 14.887c0 .347.21.586.324.886.319-.769.97-1.387 1.911-1.387.909 0 1.535.586 1.87 1.314.095-.279.296-.495.296-.813 0-1.377-.984-2.503-2.201-2.503-1.216 0-2.2 1.126-2.2 2.503zM34.546 2.792c-.017-.011-.042-.011-.063-.011-.023 0-.043 0-.063.011-2.739.123-10.455 6.188-12.423 10.806 4.833 3.397 7.9 8.39 6.99 18.11-.556 6.091-5.573 12.251-5.628 16.385-.074 5.847 6.804 8.303 11.575 8.387v.009c4.77-.075 11.02-2.878 10.949-8.731-.063-4.129-5.344-9.959-5.909-16.05-.901-9.72 2.16-14.713 6.993-18.11C44.996 8.98 37.286 2.915 34.546 2.792zm13.161 20.702c-1.216 0-2.2 1.126-2.2 2.503 0 .283.189.472.267.723.355-.681.964-1.224 1.833-1.224.975 0 1.655.656 1.947 1.471.132-.32.353-.591.353-.97 0-1.377-.986-2.503-2.2-2.503zm14.928-13.442c-1.105-.58-1.357-.733-3.514-1.101-2.146-.36-3.549.539-4.303.994-1.302.786-1.549 2.095-1.85 2.936-.304.836-.106 1.886.347 2.931.45 1.049 1.153 1.57 2.108 1.99.511.224 1.019.32 1.521.385.321-1.332.307-2.693.112-3.211l-.003-.003c-.006-.023-.018-.044-.023-.064l-.006-.008c0-.006 0-.006-.006-.013-.152-.433.132-1.039.568-1.206.376-.148.895.061 1.136.379.009.015.017.024.023.038l.006.006c.014.023.029.052.049.084.361.565 1.646 2.063 3.247 2.779 2.687-1.43 3.167-4.378 3.167-4.378s-1.481-1.961-2.579-2.538zM40.69 46.131c1.107 1.809-1.254 5.67-3.91 5.797-2.613.336 1.773-7.058 3.91-5.797zm-8.43 5.799c-2.651-.129-5.012-3.989-3.904-5.798 2.131-1.264 6.52 6.129 3.904 5.798zM11.714 16.48c-1.632 0-2.963-1.39-2.963-3.103 0-1.713 1.331-3.1 2.963-3.1 1.641 0 2.972 1.387 2.972 3.1s-1.331 3.103-2.972 3.103zm48.553 11.226l-.591.221.055-1.797.536 1.576zm4.549-1.43c.183.544.154.876-.047.949-.2.079-.49-.239-.668-.769-.175-.519-.126-.848.063-.921.207-.078.454.175.652.741z"/>
</svg>
