<svg xmlns="http://www.w3.org/2000/svg" width="218" height="41">
    <path fill="none" stroke="#0072CE" stroke-dasharray="2, 4, 2, 4, 2, 4" stroke-linecap="round" stroke-linejoin="round" stroke-width="2" d="M51 36.998l166 .001"/>
    <text x="49" y="-2713.25" fill="#0072CE" font-family="Roboto Slab" font-size="24" font-weight="bold">
        PRINT RECIPE
    </text>
    <path fill-rule="evenodd" d="M37.088 30.494h-8.715v5.033c0 .23-.092.451-.254.614l-3.61 3.604c-.014.014-.033.019-.047.032a.866.866 0 0 1-.233.154.863.863 0 0 1-.334.068H12.538a1.912 1.912 0 0 1-1.911-1.909v-7.596H1.911A1.913 1.913 0 0 1 0 28.585V15.758c0-1.052.858-1.909 1.911-1.909h7.746V1.908c0-1.053.857-1.909 1.911-1.909h15.864c1.054 0 1.911.856 1.911 1.909v11.941h7.745c1.055 0 1.912.857 1.912 1.909v12.827a1.913 1.913 0 0 1-1.912 1.909zm-12.324 6.543l.663-.662h-.663v.662zm-12.399-7.411v8.464c0 .094.079.174.173.174h10.488v-1.382H14.74a.868.868 0 1 1 0-1.735h8.369a.866.866 0 0 1 .786-.508h2.74V23.528a.176.176 0 0 0-.173-.174H12.538a.176.176 0 0 0-.173.174v6.098zM27.606 1.908a.177.177 0 0 0-.174-.175H11.568a.176.176 0 0 0-.173.175v11.941h16.211V1.908zm9.656 13.85a.175.175 0 0 0-.174-.173H1.911a.175.175 0 0 0-.173.173v12.827c0 .094.079.173.173.173h8.716v-5.23c0-1.052.857-1.908 1.911-1.908h13.924c1.054 0 1.911.856 1.911 1.908v5.23h8.715a.175.175 0 0 0 .174-.173V15.758zM31.5 19.275a1.077 1.077 0 1 1 0-2.153 1.077 1.077 0 0 1 0 2.153zm-3.026 0a1.077 1.077 0 1 1 0-2.153 1.077 1.077 0 0 1 0 2.153zM14.74 24.736h9.52a.869.869 0 1 1 0 1.736h-9.52a.868.868 0 1 1 0-1.736zm0 3.471h9.52a.868.868 0 1 1 0 1.735h-9.52a.869.869 0 1 1 0-1.735zm0 3.47h9.52a.868.868 0 1 1 0 1.735h-9.52a.868.868 0 1 1 0-1.735z"/>
</svg>
