<svg xmlns="http://www.w3.org/2000/svg" width="67" height="129">
    <path fill="#FFF" fill-rule="evenodd" d="M101.273 49.262v67.408c0 9.962-3.789 12.3-8.483 12.3-2.34 0-4.468-.589-6.007-2.412-1.532-1.836-2.493-4.906-2.493-9.888V49.298c-5.728-6.773-9.752-8.54-9.752-20.991C74.538 11.328 81.42.018 92.766.018c11.346 0 18.229 11.31 18.229 28.289 0 12.438-8.197 16.975-9.722 20.955zm-35.564 68.561c0 9.029-3.8 11.148-8.488 11.148-2.348 0-4.463-.527-6.002-2.188-1.544-1.66-2.492-4.455-2.492-8.96V65.691c-3.187-.976-4.725-2.062-4.725-5.97 0-3.917-.097-14.27.65-28.374.657-12.87 7.942-31.911 16.581-31.316 4.7.327 4.469 3.966 4.469 3.966v54.927l.007 58.899z"/>
    <text y="-3754.08" fill="#FFF" font-family="Acumin Pro ExtraCondensed" font-size="30">
        FOOD SECURITY
    </text>
</svg>
