<svg xmlns="http://www.w3.org/2000/svg" width="83" height="83">
    <defs>
        <radialGradient id="a">
            <stop offset="0%" stop-color="#FFDC80"/>
            <stop offset="20%" stop-color="#FCAF45"/>
            <stop offset="30%" stop-color="#F77737"/>
            <stop offset="35%" stop-color="#F56040"/>
            <stop offset="50%" stop-color="#FD1D1D"/>
            <stop offset="65%" stop-color="#E1306C"/>
            <stop offset="70%" stop-color="#C13584"/>
            <stop offset="80%" stop-color="#833AB4"/>
            <stop offset="90%" stop-color="#5851DB"/>
            <stop offset="100%" stop-color="#405DE6"/>
        </radialGradient>
    </defs>
    <path fill="#405DE6" fill-rule="evenodd" d="M52.28 41.841c-11.04 0-19.99-8.883-19.99-19.841 0-10.958 8.95-19.841 19.99-19.841S72.27 11.042 72.27 22c0 10.958-8.95 19.841-19.99 19.841zm13.5-25.56c-.065-1.408-.29-2.37-.62-3.212a6.479 6.479 0 0 0-1.537-2.342 6.542 6.542 0 0 0-2.36-1.525c-.848-.328-1.817-.551-3.235-.615-1.422-.065-1.876-.079-5.495-.079-3.62 0-4.074.014-5.495.079-1.419.064-2.387.287-3.235.615-.876.338-1.62.79-2.361 1.525a6.505 6.505 0 0 0-1.537 2.342c-.329.842-.555 1.804-.619 3.212-.065 1.41-.08 1.861-.08 5.454 0 3.592.015 4.043.08 5.453.064 1.408.29 2.369.619 3.21a6.487 6.487 0 0 0 1.537 2.344 6.56 6.56 0 0 0 2.361 1.525c.848.328 1.816.551 3.235.615 1.421.065 1.875.08 5.495.08 3.619 0 4.073-.015 5.495-.08 1.418-.064 2.387-.287 3.235-.615a6.556 6.556 0 0 0 2.36-1.525 6.46 6.46 0 0 0 1.537-2.344c.33-.841.555-1.802.62-3.21.064-1.41.08-1.861.08-5.453 0-3.593-.016-4.044-.08-5.454zm-2.858 13.255a4.108 4.108 0 0 1-.997 1.521c-.466.461-.91.749-1.532.989-.47.18-1.176.397-2.475.455-1.405.064-1.827.077-5.385.077-3.559 0-3.98-.013-5.386-.077-1.299-.058-2.005-.275-2.474-.455a4.151 4.151 0 0 1-1.532-.989 4.083 4.083 0 0 1-.997-1.521c-.183-.466-.4-1.167-.459-2.457-.064-1.394-.078-1.814-.078-5.344 0-3.532.014-3.951.078-5.346.059-1.29.276-1.989.459-2.455.241-.618.53-1.06.997-1.522.466-.462.91-.749 1.532-.989.469-.181 1.175-.397 2.474-.455 1.406-.064 1.827-.078 5.386-.078 3.558 0 3.98.014 5.385.078 1.299.058 2.005.274 2.475.455.622.24 1.066.527 1.532.989.466.462.755.904.997 1.522.182.466.4 1.165.459 2.455.064 1.395.078 1.814.078 5.346 0 3.53-.014 3.95-.078 5.344-.059 1.29-.277 1.991-.459 2.457zM52.533 14.942c-3.78 0-6.844 3.04-6.844 6.793 0 3.75 3.064 6.792 6.844 6.792 3.779 0 6.843-3.042 6.843-6.792 0-3.753-3.064-6.793-6.843-6.793zm7.114-1.856c-.883 0-1.599.711-1.599 1.588 0 .877.716 1.586 1.599 1.586s1.599-.709 1.599-1.586c0-.877-.716-1.588-1.599-1.588zm-7.114 13.057c-2.454 0-4.443-1.974-4.443-4.408 0-2.436 1.989-4.41 4.443-4.41 2.453 0 4.442 1.974 4.442 4.41 0 2.434-1.989 4.408-4.442 4.408z"/>
    <path fill="#0072CE" fill-rule="evenodd" d="M41.5 0C64.42 0 83 18.58 83 41.5S64.42 83 41.5 83 0 64.42 0 41.5 18.58 0 41.5 0z"/>
    <path fill="url(#a)" d="M41.5 0C64.42 0 83 18.58 83 41.5S64.42 83 41.5 83 0 64.42 0 41.5 18.58 0 41.5 0z"/>
</svg>
