<svg xmlns="http://www.w3.org/2000/svg" width="41" height="40">
    <path fill="#E60023" fill-rule="evenodd" d="M20.391.158C9.425.158.534 9.034.534 19.982c0 8.404 5.23 15.583 12.617 18.471-.18-1.566-.327-3.981.065-5.694.36-1.55 2.321-9.855 2.321-9.855s-.588-1.192-.588-2.938c0-2.757 1.601-4.813 3.595-4.813 1.7 0 2.517 1.273 2.517 2.791 0 1.696-1.079 4.241-1.651 6.607-.474 1.975.997 3.59 2.942 3.59 3.53 0 6.243-3.72 6.243-9.072 0-4.748-3.416-8.061-8.302-8.061-5.655 0-8.972 4.227-8.972 8.599 0 1.697.653 3.524 1.471 4.52a.59.59 0 0 1 .13.571c-.147.62-.49 1.975-.555 2.253-.082.358-.295.439-.67.26-2.484-1.159-4.037-4.764-4.037-7.685 0-6.249 4.543-11.993 13.123-11.993 6.88 0 12.241 4.896 12.241 11.454 0 6.837-4.315 12.336-10.296 12.336-2.01 0-3.906-1.044-4.543-2.285l-1.243 4.716c-.441 1.729-1.65 3.883-2.467 5.205 1.863.571 3.824.881 5.883.881 10.966 0 19.856-8.876 19.856-19.825C40.247 9.034 31.357.158 20.391.158z"/>
</svg>
