<svg xmlns="http://www.w3.org/2000/svg" width="68" height="60">
    <path fill="#0072CE" fill-rule="evenodd" d="M68.002.004c-.904 17.603-4.087 33.619-2.873 51.248.014.293 1.266.846 1.286 1.139.105 2.225.126 4.833.126 7.534-5.304 0-11.955.078-12.09-.145-.72-1.2-1.654-4.232-2.614-3.985-3.136 1.484-5.164 2.843-6.841 3.154-10.155 1.35-17.376 1.35-27.385-.093-.572-5.492-2.308-11.76 2.223-13.166 10.739-1.707 20.529-2.639 22.285-12.529 1.652-9.317-2.403-21.586-2.158-33.157h28.041zM26.526 47.752c-6.675-1.132-6.272 6.872-1.418 6.872 4.257 1.162 10.343 0 11.541 0 6.075 0-15.587-.081-10.123-6.872zm23.59-14.653c2.226-9.546 1.724-18.576 2.2-27.913h-7.189c0 8.748 5.395 24.388-1.692 37.04.957 0 3.848-1.037 6.681-9.127zm-20.083-3.374c-.849.429-1.803.222-2.141-.471l-1.596-3.302c-.344-.7.073-1.61.919-2.036.846-.433 1.803-.221 2.135.47l1.602 3.305c.341.692-.076 1.603-.919 2.034zm-1.363.36l1.338 2.756c.284.577-.175 1.396-1.018 1.821-.84.433-1.753.313-2.03-.268l-1.336-2.759c-.286-.581.175-1.399 1.015-1.827.843-.427 1.751-.305 2.031.277zm-4.277 5.617c.28.578-.169 1.394-1.015 1.821-.838.43-1.754.311-2.034-.273l-1.339-2.759c-.283-.578.178-1.397 1.018-1.825.58-.291 1.17-.31 1.584-.12a1.144 1.144 0 0 1-.353-.425l-1.604-3.302c-.333-.693.078-1.603.924-2.036.846-.432 1.803-.217 2.136.477l1.607 3.299c.336.694-.081 1.607-.93 2.036-.569.291-1.179.268-1.626.021a.841.841 0 0 1 .293.32l1.339 2.766zm3.172-13.38C21.036 25.648 8.083 32.264 2.75 34.977c-1.595.81-.041 3.738-.583 3.439-.435-.241-1.155-1.054-1.52-1.81-1.307-2.684-.248-3.439-.239-3.465.817-2.898 23.986-14.243 27.169-13.824 0 0 1.199-.588 2.512 2.132.341.696.607 1.71.571 2.134-.052.741-1.047-2.303-3.095-1.261zM4.657 35.399c.843-.429 1.803-.22 2.136.471l1.604 3.302c.336.692-.075 1.606-.927 2.036-.84.43-1.8.221-2.142-.473L3.73 37.429c-.333-.694.078-1.603.927-2.03zm5.137 2.982c.532-.267 1.069-.296 1.478-.155a1.134 1.134 0 0 1-.302-.361L9.371 34.56c-.333-.691.076-1.6.925-2.033.846-.433 1.8-.217 2.138.476l1.599 3.3c.338.697-.073 1.603-.919 2.036a1.797 1.797 0 0 1-1.503.077c.082.072.171.139.219.239l1.336 2.762c.283.578-.169 1.394-1.015 1.824-.846.428-1.75.305-2.033-.274l-1.336-2.758c-.283-.581.175-1.395 1.012-1.828zm5.614-2.856c.554-.283 1.12-.306 1.534-.138a1.133 1.133 0 0 1-.329-.391l-1.602-3.305c-.333-.691.079-1.603.925-2.036.843-.43 1.803-.218 2.135.47l1.602 3.311c.338.688-.076 1.601-.922 2.031-.546.278-1.126.263-1.568.047.103.08.201.165.259.283l1.339 2.762c.28.579-.178 1.389-1.016 1.822-.845.43-1.756.31-2.03-.27l-1.342-2.762c-.28-.578.169-1.397 1.015-1.824z"/>
</svg>
