<svg xmlns="http://www.w3.org/2000/svg" width="71" height="60">
    <path fill="#0072CE" fill-rule="evenodd" d="M69.096 24.828c-.205.071-.61.158-1.097.23-.283.041-.613.084-1.252.288-.753.262-1.879.651-3.586.651h-.106c-.735-.055-1.807-.317-2.788-.578-.813 1.967-2.298 5.032-4.482 7.511-3.267 3.705-8.61 11.34-9.225 12.968-.565 1.494-2.247 6.675-.203 10.592l1.831 3.507-3.901-.082-4.222-.089-1.286-.027-.647-1.136c-.347-.61-1.454-3.132-1.12-9.969.1-2.105-.279-4.062-.673-5.466-.105.035-.259.059-.368.09.009.066.069.104.069.171v16.455H20.023V48.519l-.59.573h-1.009c-.659 0-1.286-.247-1.865-.735-.638.851-1.428 1.06-2.052 1.06l-.36-.009-.276-.072a3.363 3.363 0 0 1-1.209-.628c-.1.337-.188.63-.254.831l-.168.462-.026.064c-.424 1.092-1.553 3.983-.404 6.282l1.693 3.394H4.97l-.621-.497c-.191-.151-.693-.607-1.141-1.481l-.185.851-2.42-9.176c-.046-.175-1.115-4.335-.297-10.264.368-2.667.795-10.954.704-12.724-.025-.558-.08-1.115-.128-1.63-.185-1.964-.348-3.658 1.035-4.664.525-.38 3.424-2.309 8.943-2.798 2.603-.232 4.71-.401 6.988-.494l1.659-4.092c.325-1.196 1.5-2.809 3.775-3.413l.447-.111c-.302-.866-.476-2.042-.174-3.524-.416-.799-.41-1.712.015-2.729.627-1.502 2.132-2.694 3.655-2.894.373-.049.886-.105 1.471-.105 1.023 0 1.972.174 2.819.52 1.029.425 1.731 1.134 2.141 1.91 1.437.601 2.327 1.33 2.458 2.588l.028 1.236-.675.773c-.414.473-.97.784-1.531.987-.057.43-.148.823-.266 1.183l1.828.444.228.056.214.101 5.357 2.592c.245.07 2.434.744 3.421 2.976.06.153.14.375.234.642.191-.038.376-.084.561-.128 2.88-.73 4.955-1.633 6.372-2.415-.641-.866-.966-2.008-.886-3.3l.256-1.473 1.246-.585c.812-.378 1.733-.807 3.033-.807.268 0 .551.017.859.06.895.12 1.627.546 2.169 1.102.539-.134.992-.218 1.454-.218h.003c1.1.035 1.896.694 2.341 1.38l1.878 2.171c.499.493.816 1.025.947 1.59.422.444 1.394 1.461 2.326 2.437 1.101 1.15 2.144 2.246 2.227 2.333.328.349 1.337 1.412 1.268 2.918-.048 1.096-.139 3.135-1.91 3.759zM29.329 57.533h4.344V43.817c-.769.114-1.582.207-2.497.207-.607 0-1.229-.116-1.847-.18v13.689zm-6.94-12.864v12.864h4.613V43.518c-1.083-.229-2.144-.476-3.104-.77l-.183.206c-.006.004-.707.786-1.403 1.532.015.067.077.114.077.183zm22.734-21.026c-.844-2.263-1.066-3.06-1.255-3.716-.151-.502-.268-.912-.664-1.944-.003-.012.006-.021.003-.032-.262-.747-.496-1.415-.621-1.738-.525-1.191-1.899-1.58-1.899-1.58l-5.716-2.727s-4.285-1.033-5.585-1.354c2.514-1.01 2.414-3.289 2.255-4.486 1.177-.009 2.238-.426 2.198-.802-.04-.377-2.013-1.037-2.013-1.037s.031-1.052-1.166-1.543c-.67-.278-1.365-.357-1.964-.357-.471 0-.878.049-1.175.09-.681.087-1.525.729-1.847 1.494-.32.767-.052.845.419 1.252-1.597 4.382 2.001 5.404 2.001 5.404l-4.27 1.061c-1.757.465-2.11 1.767-2.11 1.767l-1.323 3.286 17.054-.442h.029c.49 0 .929.303 1.126.759l3.19 7.54c.108.192.995 1.651 2.831.985.924-.401.619-1.543.502-1.88zm22.918-3.922c-.133-.146-4.621-4.839-4.735-4.966-.114-.128-.405-.34-.348-.666.057-.325-.276-.57-.405-.717-.131-.149-2.052-2.372-2.052-2.372s-.183-.415-.55-.427h-.02c-.38 0-1.286.279-1.876.445a1 1 0 0 1-.268.04c-.368 0-.442-.275-.442-.275s-.271-.98-1.255-1.113a3.833 3.833 0 0 0-.556-.042c-.863 0-1.456.309-2.252.678-.117 1.956 1.118 2.368 1.628 2.478.513.11 1.103.573 1.103.573-.59.592-3.466 3.144-9.947 4.783-.057.014-.128.02-.185.031.14.405.242.733.334 1.052.179.622.404 1.381 1.209 3.56.538 1.482.467 4.045-1.925 5.068a5.267 5.267 0 0 1-1.782.328c-2.178 0-3.612-1.552-4.139-2.563l-2.903-6.857-17.809.464h-.026c-.043 0-.068-.04-.111-.043-2.546.081-4.818.247-7.669.5-4.599.409-7.15 1.895-7.815 2.377-.436.32-.045 2.309.055 4.271.097 1.965-.354 10.466-.727 13.172-.762 5.524.242 9.33.242 9.33.031-.151 1.913-1.921 2.355-1.921.025 0 .042.006.057.015.302.2.362 1.052-.348 5.134-.71 4.083.878 5.347.878 5.347h4.014c-1.824-3.65.206-7.793.465-8.595.259-.805.932-3.252.952-3.347.003-.012.037-.018.097-.018.425 0 2.113.284 2.195.618.092.381.616.923.955 1.008.026.01.049.013.072.013.293 0 .436-.503.553-.794.125-.313.807-.517 1.092-.552.282-.035 1.157-.101 1.18-.104-.012 0-.237.031.584.83.217.216.385.295.508.295.356 0 .382-.661.37-.811-.017-.201.137-.787.431-1.268.291-.478 2.794-3.292 2.794-3.292-.721-1.264-1.816-1.676-2.962-1.676-1.779 0-3.675.999-4.439 1.372-1.26.606-3.43 1.702-3.43 1.702.439-.339 1.414-2.042 2.634-3.577 1.223-1.534 4.16-1.772 4.16-1.772.57.613 4.256 2.821 10.098 3.951 1.112.216 2.149.302 3.096.302 4.037 0 6.5-1.577 6.5-1.577s1.85 3.978 1.619 8.697c-.322 6.677.819 8.685.819 8.685l4.222.091c-2.449-4.693-.713-10.406.091-12.524.798-2.122 6.5-10.11 9.656-13.693 3.156-3.58 4.741-8.647 4.741-8.647.02 0 .043-.003.066-.003.667 0 3.073.857 4.333.95.094.009.191.011.285.011 1.209 0 2.398-.537 2.994-.708.639-.183 1.565-.25 1.847-.349.283-.099.345-1.112.371-1.661.026-.551-.544-1.094-.679-1.241zm-3.607 1.672c-1.548-2.507-6.189-1.087-7.05-.68-.966-.773-2.415-3.877 0-5.538 2.654-2.406 4.984 1.603 5.619 0 1.953 2.659 5.645 5.306 1.431 6.218zM44.723 41.039c-2.05 1.566-.368 4.571-2.383 6.614-.479.485-.978-.111-1.192-1.145-.217-1.032.117-1.023.416-1.543 1.063-1.857-.408-1.485-.499-2.165-.091-.679.462-4.083 1.674-4.623 0 0 2.585-1.102 3.255-1.188.667-.093.921.61.85 1.272-.074.663-1.18 2.054-2.121 2.778zm-13.481-3.726c-.622.271-1.249.418-1.862.422-.025 0-.057 0-.088-.004a4.563 4.563 0 0 1-1.337-.281h-.003c-2.004-.707-4.06-2.656-5.348-5.316-1.948-4.006-1.409-8.115 1.211-9.167 1.568-.63 3.535-.014 5.269 1.456 1.653-1.528 3.583-2.214 5.203-1.635 2.677.967 3.478 5.049 1.784 9.12-1.086 2.61-2.936 4.583-4.829 5.405zm-17.464-7.53c-.33 1.316.28.95-.139 2.609-.417 1.659-2.144 2.65-3.045 2.507-.901-.142-1.351-.6-1.559-1.341-.209-.742-.277-2.613-.069-3.32.205-.705.345-1.905-.485-3.245-.832-1.342.497-.288.668-1.557.173-1.276-1.258-2.115-.149-2.505 0 0 1.662-.248 1.178-.811-.485-.566.034-.424.484-1.022.451-.602.588-.384 1.908-.282 1.257.093 1.662.246 2.631.671.966.421.864.811 1.109 2.473.242 1.656-.097 2.446-.972 3.173-.707.59-.952.241-1.56 2.65zM5.713 40.784c.753-4.78-4.023-14.339.311-17.228-1.85 4.013 3.948 10.717-.311 17.228z"/>
</svg>
