<svg xmlns="http://www.w3.org/2000/svg" width="61" height="73">
    <path fill="#0072CE" fill-rule="evenodd" d="M51.587 22.429c-5.033-5.088-12.021-8.162-19.187-8.554v-2.14c2.276-.693 4.043-2.896 3.966-5.308.062-2.947-2.597-5.561-5.527-5.468-2.929-.093-5.588 2.521-5.526 5.468-.079 2.449 1.743 4.685 4.069 5.341v2.105c-7.199.38-14.216 3.471-19.257 8.582l-1.693-1.689.218-.218a.992.992 0 0 0 0-1.402l-3.485-3.312a1.001 1.001 0 0 0-1.407 0l-2.5 2.493a.993.993 0 0 0 0 1.403l3.486 3.311a.998.998 0 0 0 1.406 0l.219-.217 1.803 1.797c-4.214 5.186-6.583 11.837-6.528 18.497.008 7.63 3.189 15.185 8.625 20.513 5.394 5.372 12.975 8.454 20.57 8.392 7.596.049 15.165-3.048 20.541-8.421 5.438-5.311 8.633-12.854 8.654-20.484.078-7.627-3.023-15.255-8.447-20.689zM26.306 6.427c-.08-2.415 2.086-4.613 4.533-4.564 2.448-.049 4.614 2.149 4.534 4.564.038 1.872-1.269 3.565-2.973 4.202V9.311c1.039-.563 1.771-1.623 1.771-2.884a3.327 3.327 0 0 0-3.332-3.322 3.326 3.326 0 0 0-3.331 3.322c0 1.307.774 2.411 1.874 2.953v1.281c-1.753-.606-3.115-2.324-3.076-4.234zm22.57 54.678c-4.703 4.752-11.325 7.513-18.037 7.513-6.711-.014-13.321-2.789-18.007-7.542-4.718-4.724-7.41-11.32-7.355-17.958.016-6.639 2.774-13.175 7.502-17.809 4.699-4.667 11.258-7.327 17.86-7.273 6.602-.04 13.149 2.634 17.831 7.303 4.73 4.617 7.502 11.14 7.531 17.779.07 6.638-2.608 13.246-7.325 17.987zm-18.015-39.42c-.022 0-.042-.003-.064-.003-11.889 0-21.527 9.611-21.527 21.467 0 11.855 9.638 21.466 21.527 21.466 6.199 0 11.77-2.628 15.698-6.81L30.797 43.149l.064-21.464z"/>
</svg>
