<svg xmlns="http://www.w3.org/2000/svg" width="108" height="54">
    <path fill="#0072CE" fill-rule="evenodd" d="M46.504 13.885c.165.703.839 1.132 1.505.958.666-.175 1.072-.887.907-1.59L45.965.684c-.072-.303-.351-.509-.65-.465-.322.046-.547.359-.503.699l1.667 12.83c.006.045.014.091.025.137zm11.923.855c.679.113 1.315-.376 1.422-1.092L61.781.749c.045-.309-.136-.614-.428-.697-.313-.089-.636.107-.72.439l-3.212 12.611c-.011.044-.02.091-.027.136-.107.716.355 1.388 1.033 1.502zm9.761 3.603c.61.332 1.359.079 1.674-.565l5.894-12.071a.643.643 0 0 0-.202-.804.568.568 0 0 0-.813.181L67.716 16.46a1.596 1.596 0 0 0-.063.115c-.314.645-.075 1.436.535 1.768zm12.556 4.864l5.987-8.698a.648.648 0 0 0-.071-.817.567.567 0 0 0-.832.025l-6.994 7.815c-.034.04-.072.087-.102.13-.404.587-.281 1.408.274 1.835.556.426 1.334.296 1.738-.29zm5.609 7.77c-.616.321-.869 1.108-.565 1.759.304.65 1.05.917 1.666.597l8.9-4.637a.636.636 0 0 0 .297-.756c-.105-.326-.438-.499-.746-.389l-9.4 3.359a1.562 1.562 0 0 0-.152.067zm6.355 8.595c-.631.119-1.052.755-.94 1.421.111.667.714 1.111 1.345.993l9.197-1.72a.572.572 0 0 0 .452-.596c-.013-.321-.27-.568-.572-.554l-9.331.438a1.321 1.321 0 0 0-.151.018zM36.343 18.125c.019.039.041.08.064.118.369.61 1.137.79 1.716.401.579-.39.749-1.202.38-1.812L31.715 5.593a.574.574 0 0 0-.758-.221.639.639 0 0 0-.263.833l5.649 11.92zm70.006 33.051c-5.564-3.678-11.666-6.262-17.936-8.163-2.914-7.063-7.859-13.201-14.045-17.384-6.195-4.263-13.594-6.577-21.011-6.586-7.419.057-14.8 2.447-20.963 6.76-6.102 4.198-10.963 10.313-13.834 17.324C12.327 45.043 6.26 47.6.694 51.164c-.604.396-.868 1.222-.568 1.926.326.769 1.18 1.113 1.908.768 8.051-3.699 16.567-6.063 25.222-7.503 8.666-1.394 17.457-2.035 26.265-2.013 8.81-.015 17.606.607 26.278 1.971 8.656 1.419 17.195 3.725 25.167 7.532l.023.012c.648.31 1.43.074 1.818-.581.422-.714.218-1.653-.458-2.1zM80.71 40.999c-8.959-1.988-18.096-2.711-27.188-2.773-9.095.054-18.238.797-27.193 2.816-1.096.245-2.181.562-3.273.841 2.879-5.068 6.793-9.448 11.464-12.63 5.599-3.794 12.221-5.826 18.853-5.779 6.629-.08 13.267 1.873 18.893 5.626 4.731 3.165 8.702 7.556 11.625 12.65a111.066 111.066 0 0 0-3.181-.751zm-75.298-.733l8.961 1.692c.048.009.104.017.155.019.64.029 1.182-.496 1.209-1.173.027-.676-.47-1.248-1.11-1.277l-9.095-.411a.557.557 0 0 0-.564.477c-.053.316.145.617.444.673zm14.397-7.483c.042.02.091.043.135.058.649.239 1.357-.123 1.583-.808.225-.685-.118-1.433-.766-1.671l-10.538-3.871a.576.576 0 0 0-.722.315.637.637 0 0 0 .272.83l10.036 5.147zm5.621-8.88c.033.04.072.082.11.117a1.197 1.197 0 0 0 1.756-.106 1.366 1.366 0 0 0-.101-1.854l-7.775-7.318a.566.566 0 0 0-.778-.005.646.646 0 0 0-.057.876l6.845 8.29z"/>
</svg>
