<svg xmlns="http://www.w3.org/2000/svg" width="84" height="70">
    <path fill="#0072CE" fill-rule="evenodd" d="M26.286 38.49c-2.309-.875-4.68-1.638-6.814-2.882-.916-.535-1.798-1.172-2.421-2.031-.654-.901-.986-1.998-1.181-3.095a14.584 14.584 0 0 1-.222-2.868c.016-.752.076-1.559-.321-2.196-.404-.647-1.221-.958-1.98-.897-.76.06-1.462.442-2.054.922-1.352 1.098-2.127 2.825-2.733 4.413-.714 1.875-.83 4.019-.402 5.972a10.8 10.8 0 0 0 3.513 5.861c.911.776 1.946 1.393 2.995 1.968a48.558 48.558 0 0 0 6.103 2.806c.308.116.627.231.957.223.744-.017 1.314-.629 1.921-1.06.964-.686 2.154-.962 3.319-1.161.923-.158 1.941-.324 2.539-1.048.734-.891.474-2.301-.278-3.177-.751-.877-1.863-1.342-2.941-1.75zm-3.69 22.254s.994 2.318 18.291 2.318c17.323 0 17.834-2.164 17.834-2.164s2.264-2.781-18.322-2.781c-19.95 0-17.803 2.627-17.803 2.627zM81.332 31.26c-.59-.705-1.273-1.214-1.876-1.661a15.32 15.32 0 0 1-.752-.584c-1.755-1.508-2.578-3.96-3.451-6.559-.323-.959-.647-1.922-1.016-2.843-2.803-7.013-8.898-12.938-16.721-16.25C51.051.624 43.364-.451 34.704.174c-1.866.131-3.854.354-5.745 1.084-1.792.692-3.291 1.75-4.743 2.771l-.572.402a66.554 66.554 0 0 1-11.762 6.521c-2.725 1.174-6.116 2.637-7.515 5.937-.737 1.738-.704 3.53-.674 5.108.015.778.037 1.556-.06 2.318-.153 1.212-.641 2.44-1.156 3.737-.537 1.356-1.094 2.753-1.353 4.315-.746 4.499 1.315 9.546 5.38 13.169 3.152 2.813 7.356 4.716 10.757 6.138v12.079c0 2.27 2.45 5.29 23.631 5.29 19.292 0 21.591-2.487 22.346-3.304.712-.772.77-1.537.743-1.661l.504-9.404c.027 0 .052 0 .079.004 3.875.089 7.728-.807 11.134-2.688 2.038-1.129 3.542-2.411 4.598-3.915 1.866-2.664 2.241-5.932 2.542-8.559.315-2.746.483-5.874-1.506-8.256zm-2.539 7.79c-.261 2.28-.556 4.863-1.826 6.677-.694.989-1.752 1.868-3.236 2.689-2.763 1.527-5.873 2.263-9.036 2.18a19.342 19.342 0 0 1-1.878-.15l-1.222-.152a29.963 29.963 0 0 0-1.852-.936 28.205 28.205 0 0 0-4.383-1.475 41.688 41.688 0 0 0-8.899-1.197c-2.964-.134-5.907.024-8.827.27-2.918.288-5.804.733-8.672 1.24a.506.506 0 0 0-.404.543c.031.27.275.465.545.433 2.878-.261 5.75-.458 8.62-.499 2.868.001 5.73.09 8.542.457 2.818.311 5.581.924 8.19 1.807 1.309.434 2.555.992 3.733 1.612.783.419 1.63.985 2.258 1.504l-.473 9.062c-1.038.501-5.124 1.846-19.081 1.846-14.264 0-18.474-1.454-19.561-2.008V48.941l-1.261-.519c-4.28-1.767-8.051-3.431-10.864-5.935-2.372-2.117-4.686-5.71-4.066-9.45.186-1.129.639-2.267 1.118-3.473.588-1.479 1.195-3.007 1.413-4.735.121-.957.11-1.933.091-2.908-.024-1.286-.047-2.5.351-3.438.76-1.792 3.106-2.802 5.58-3.868a70.314 70.314 0 0 0 12.274-6.83l.588-.414c1.308-.922 2.543-1.792 3.866-2.306 1.315-.507 2.778-.694 4.571-.823 8.032-.557 15.071.393 20.941 2.883 6.83 2.892 12.124 7.998 14.526 14.005.342.854.638 1.741.937 2.631.659 1.962 1.377 3.945 2.492 5.725-.039 2.023.287 3.961-.015 6.005-.125.845-.306 1.708-.134 2.546.172.837.816 1.652 1.667 1.696.554.029 1.088-.277 1.438-.709.35-.431.538-.973.651-1.518.318-1.525.071-3.07-.39-4.572.433.32.841.628 1.105.948h.001c.954 1.141.811 3.178.582 5.168z"/>
</svg>
