<svg xmlns="http://www.w3.org/2000/svg" width="1052" height="19">
    <path fill-opacity=".4" fill-rule="evenodd" d="M1051.989 9.277l-87.216 9.297 7.337-7.156h-20.377c-.991 4.327-5.31 7.588-10.477 7.588-5.174 0-9.495-3.261-10.485-7.588H121.19c-1.022 4.275-5.308 7.49-10.449 7.49-5.149 0-9.442-3.215-10.467-7.49H79.393l7.831 7.588L-.001 9.708 87.224.396 80.175 7.27h20.152c1.111-4.178 5.349-7.284 10.414-7.284 5.058 0 9.288 3.106 10.397 7.284h809.726c1.146-4.134 5.366-7.2 10.392-7.2 5.019 0 9.238 3.066 10.383 7.2h20.669l-7.535-7.284 87.216 9.291z"/>
</svg>
