<svg xmlns="http://www.w3.org/2000/svg" width="85" height="76">
    <path fill-rule="evenodd" d="M67.003 17.783c-1.328 0-2.637.15-3.915.449a20.716 20.716 0 0 0-6.053-11.838A20.633 20.633 0 0 0 42.544.49a20.634 20.634 0 0 0-14.49 5.904 20.732 20.732 0 0 0-6.272 14.327v.052c0 4.326 1.31 8.474 3.788 11.996a1.915 1.915 0 0 0 2.674.464 1.928 1.928 0 0 0 .462-2.683 16.91 16.91 0 0 1-3.086-9.75c.272-9.232 7.7-16.461 16.924-16.461 9.232 0 16.666 7.243 16.924 16.488.017.628.339 1.207.861 1.553a1.913 1.913 0 0 0 1.761.185 13.324 13.324 0 0 1 4.913-.933c7.379 0 13.383 6.02 13.383 13.42 0 7.399-6.004 13.42-13.383 13.42-1.06 0-1.92.862-1.92 1.925v13.57H20.004v-13.57a1.922 1.922 0 0 0-1.919-1.925c-7.38 0-13.384-6.021-13.384-13.42 0-7.045 5.486-12.927 12.487-13.391a1.922 1.922 0 0 0 1.789-2.047 1.923 1.923 0 0 0-2.041-1.794C7.923 18.417.863 25.987.863 35.052c0 8.872 6.706 16.203 15.303 17.162V73.59c0 1.063.859 1.925 1.919 1.925h48.918c1.06 0 1.919-.862 1.919-1.925V52.214c8.596-.959 15.303-8.29 15.303-17.162 0-9.522-7.726-17.269-17.222-17.269zM20.004 71.666v-3.85h45.079v3.85H20.004z"/>
</svg>
