<svg xmlns="http://www.w3.org/2000/svg" width="82" height="82">
    <path fill="none" fill-rule="evenodd" stroke="#000" stroke-width="4" d="M68.795 77.515a8.336 8.336 0 0 1-8.336-8.336V10.826a8.336 8.336 0 0 1 8.336-8.336 8.336 8.336 0 0 1 8.336 8.336v58.353a8.336 8.336 0 0 1-8.336 8.336zm-30.01 0a8.336 8.336 0 0 1-8.336-8.336V35a8.335 8.335 0 0 1 8.336-8.335A8.335 8.335 0 0 1 47.121 35v34.179a8.336 8.336 0 0 1-8.336 8.336zm-28.343 0a8.336 8.336 0 0 1-8.336-8.336V55.007a8.336 8.336 0 0 1 8.336-8.336 8.336 8.336 0 0 1 8.336 8.336v14.172a8.336 8.336 0 0 1-8.336 8.336z"/>
</svg>
