<svg xmlns="http://www.w3.org/2000/svg" width="61" height="73">
    <path fill="#0072CE" fill-rule="evenodd" d="M51.587 22.429c-5.033-5.088-12.021-8.162-19.187-8.554v-2.14c2.276-.693 4.043-2.896 3.966-5.309.062-2.946-2.597-5.56-5.527-5.467-2.93-.093-5.588 2.521-5.526 5.467-.079 2.45 1.743 4.686 4.069 5.342v2.104c-7.199.381-14.216 3.472-19.257 8.583l-1.693-1.689.218-.218a.992.992 0 0 0 0-1.402l-3.485-3.312a1 1 0 0 0-1.407 0l-2.5 2.493a.993.993 0 0 0 0 1.403l3.486 3.311a.996.996 0 0 0 1.406 0l.219-.217 1.803 1.798c-4.214 5.185-6.583 11.835-6.528 18.497.008 7.629 3.189 15.184 8.625 20.512 5.394 5.372 12.975 8.455 20.57 8.392 7.596.049 15.165-3.047 20.541-8.421 5.438-5.311 8.633-12.854 8.654-20.483.078-7.628-3.023-15.256-8.447-20.69zM26.306 6.426c-.08-2.413 2.086-4.612 4.533-4.563 2.448-.049 4.614 2.15 4.534 4.563.038 1.873-1.269 3.566-2.973 4.203V9.31c1.039-.562 1.771-1.622 1.771-2.884a3.328 3.328 0 0 0-3.332-3.322 3.327 3.327 0 0 0-3.331 3.322c0 1.308.774 2.412 1.874 2.954v1.28c-1.753-.605-3.115-2.323-3.076-4.234zm22.57 54.679c-4.703 4.752-11.325 7.513-18.037 7.513-6.711-.014-13.321-2.788-18.007-7.542-4.718-4.723-7.41-11.32-7.355-17.957.015-6.639 2.774-13.175 7.502-17.81 4.699-4.667 11.258-7.327 17.86-7.272 6.602-.041 13.149 2.633 17.83 7.302 4.731 4.617 7.503 11.141 7.532 17.78.07 6.637-2.608 13.245-7.325 17.986zm-18.015-39.42c-.022 0-.042-.003-.064-.003-11.889 0-21.527 9.61-21.527 21.467 0 11.855 9.638 21.466 21.527 21.466 6.199 0 11.77-2.628 15.698-6.81L30.797 43.149l.064-21.464z"/>
</svg>
