<svg xmlns="http://www.w3.org/2000/svg" width="102" height="74">
    <path fill-rule="evenodd" d="M100.692 32.527l-21.084 9.739c-.306.142-.627.21-.944.21a2.258 2.258 0 0 1-.946-4.309l21.084-9.74a2.253 2.253 0 0 1 2.993 1.104 2.26 2.26 0 0 1-1.103 2.996zM64.1 24.554a2.255 2.255 0 1 1-4.157-1.753L68.961 1.38A2.254 2.254 0 0 1 71.915.176a2.259 2.259 0 0 1 1.203 2.957L64.1 24.554zm9.173 26.199c0 1.546-.159 3.074-.469 4.569 4.954.205 9.833.476 14.602.822a2.258 2.258 0 0 1-.326 4.503c-11.552-.835-23.728-1.259-36.189-1.259-12.461 0-24.637.424-36.189 1.259a2.257 2.257 0 1 1-.325-4.503c4.769-.346 9.646-.617 14.601-.822a22.483 22.483 0 0 1-.469-4.569c0-12.355 10.041-22.405 22.382-22.405 12.341 0 22.382 10.05 22.382 22.405zM50.891 32.864c-9.854 0-17.871 8.026-17.871 17.889 0 1.496.185 2.97.546 4.4a539.452 539.452 0 0 1 17.325-.281c5.849 0 11.633.098 17.324.281.362-1.43.547-2.904.547-4.4 0-9.863-8.017-17.889-17.871-17.889zm-10.114-7.106a2.255 2.255 0 0 1-2.954-1.204L28.805 3.133A2.259 2.259 0 0 1 30.008.176a2.254 2.254 0 0 1 2.954 1.204l9.018 21.421a2.26 2.26 0 0 1-1.203 2.957zM23.345 42.476c-.317 0-.638-.068-.944-.21L1.316 32.527a2.259 2.259 0 0 1-1.102-2.996 2.253 2.253 0 0 1 2.993-1.104l21.084 9.74a2.259 2.259 0 0 1-.946 4.309zm-2.383 27.009a520.934 520.934 0 0 1 29.929-.843c10.193 0 20.263.284 29.929.843a2.258 2.258 0 0 1-.26 4.508 516.456 516.456 0 0 0-29.669-.835c-10.107 0-20.089.281-29.669.835a2.251 2.251 0 0 1-2.382-2.123 2.258 2.258 0 0 1 2.122-2.385z"/>
</svg>
