<svg xmlns="http://www.w3.org/2000/svg" width="41" height="40">
    <path fill-rule="evenodd" d="M38.437 15.318h-2.562v9.361c0 3.286-2.683 5.959-5.981 5.959h-18.79c-3.297 0-5.979-2.673-5.979-5.959v-9.361H2.562A2.56 2.56 0 0 1 0 12.765v-2.553c0-.471.383-.852.854-.852h3.417V8.213c0-.683.404-1.297 1.031-1.563 1.503-.642 6.028-2.204 10.927-2.872V1.973c0-1.457 2.301-1.975 4.271-1.975 1.97 0 4.271.518 4.271 1.975v1.805c4.899.668 9.424 2.23 10.928 2.872.626.266 1.03.88 1.03 1.563V9.36h3.417c.471 0 .854.381.854.852v2.553a2.56 2.56 0 0 1-2.563 2.553zM5.125 11.061H1.708v1.704c0 .468.384.851.854.851h2.563v-2.555zm1.708 13.618c0 2.347 1.916 4.255 4.271 4.255h18.79c2.356 0 4.273-1.908 4.273-4.255V11.061H6.833v13.618zm16.23-22.516c-.3-.189-1.208-.462-2.563-.462-1.355 0-2.263.273-2.563.462v1.418a29.886 29.886 0 0 1 2.563-.119c.847 0 1.706.045 2.563.119V2.163zm11.958 6.05c-1.505-.643-8.395-3.05-14.521-3.05-6.126 0-13.016 2.407-14.526 3.052l.003 1.145h29.044V8.213zm4.271 2.848h-3.417v2.555h2.562a.855.855 0 0 0 .855-.851v-1.704zm-10.25 5.959c-.701 0-1.224.349-1.829.754-.664.445-1.417.948-2.442.948-1.221 0-2.086-.579-2.781-1.044-.55-.368-.985-.658-1.49-.658s-.94.29-1.49.658c-.696.465-1.561 1.044-2.781 1.044-1.025 0-1.778-.503-2.442-.948-.605-.405-1.129-.754-1.829-.754s-1.223.349-1.829.754c-.664.445-1.416.948-2.442.948V17.02c.506 0 .941-.29 1.491-.659.695-.465 1.56-1.043 2.78-1.043 1.221 0 2.086.578 2.781 1.043.55.369.985.659 1.49.659.7 0 1.223-.35 1.829-.755.664-.444 1.416-.947 2.442-.947 1.025 0 1.778.503 2.442.947.606.405 1.129.755 1.829.755.505 0 .94-.29 1.49-.659.695-.465 1.56-1.043 2.781-1.043 1.22 0 2.085.578 2.78 1.043.55.369.985.659 1.49.659v1.702c-1.025 0-1.778-.503-2.441-.948-.606-.405-1.129-.754-1.829-.754zM16.229 31.065l.636.705c.041.046 1.018 1.135 1.792 2.332l-1.437.921a16.91 16.91 0 0 0-.994-1.363c-.904 1.128-1.705 2.393-1.705 2.934a1.708 1.708 0 0 0 2.847 1.269l1.139 1.269a3.418 3.418 0 0 1-2.278.866 3.414 3.414 0 0 1-3.417-3.404c0-1.652 2.317-4.309 2.782-4.824l.635-.705zm4.49.705l.635-.705.636.705c.464.515 2.781 3.172 2.781 4.824a3.414 3.414 0 0 1-3.417 3.404 3.414 3.414 0 0 1-3.417-3.404c0-1.652 2.317-4.309 2.782-4.824zm.635 6.527c.942 0 1.709-.765 1.709-1.703 0-.528-.801-1.803-1.709-2.937-.906 1.129-1.708 2.395-1.708 2.937 0 .938.766 1.703 1.708 1.703zm5.125 0c.942 0 1.709-.765 1.709-1.703 0-.526-.8-1.8-1.706-2.933-.305.38-.673.865-.994 1.362l-1.436-.921c.773-1.197 1.75-2.286 1.791-2.332l.636-.705.636.705c.464.515 2.781 3.172 2.781 4.824a3.414 3.414 0 0 1-3.417 3.404 3.418 3.418 0 0 1-2.278-.866l1.139-1.269c.314.279.718.434 1.139.434z"/>
</svg>
