<svg xmlns="http://www.w3.org/2000/svg" width="51" height="50">
    <path fill="#FFF" fill-rule="evenodd" d="M25.811 0C11.9 0 .623 11.193.623 25S11.9 50 25.811 50C39.723 50 51 38.807 51 25S39.723 0 25.811 0zm12.651 20.26c.012.259.018.519.018.779 0 7.964-6.108 17.147-17.277 17.147-3.43 0-6.621-.997-9.309-2.706.476.055.959.083 1.449.083 2.845 0 5.463-.963 7.542-2.58a6.072 6.072 0 0 1-5.673-4.185 6.116 6.116 0 0 0 2.742-.104c-2.778-.553-4.871-2.989-4.871-5.908l.001-.077a6.065 6.065 0 0 0 2.75.754 6.01 6.01 0 0 1-2.702-5.016c0-1.105.3-2.14.823-3.03a17.28 17.28 0 0 0 12.516 6.297 5.995 5.995 0 0 1-.158-1.375c0-3.327 2.72-6.026 6.073-6.026 1.746 0 3.324.734 4.433 1.905a12.265 12.265 0 0 0 3.855-1.463 6.059 6.059 0 0 1-2.67 3.334 12.223 12.223 0 0 0 3.487-.949 12.289 12.289 0 0 1-3.029 3.12z"/>
</svg>
