<svg xmlns="http://www.w3.org/2000/svg" width="25" height="25">
    <path fill-rule="evenodd" d="M22.811 10.741c.102 2.151.536 11.384.536 12.041 0 1.255-.935 2.165-2.222 2.165s-2.222-.91-2.222-2.165c0-.657.434-9.89.536-12.041-1.462-.505-2.203-1.913-2.203-4.193 0-3.065 1.663-6.493 3.889-6.493s3.889 3.428 3.889 6.493c0 2.28-.741 3.688-2.203 4.193zm-1.686-9.604c-1.35 0-2.778 2.781-2.778 5.411 0 2.6 1.016 3.103 1.779 3.258l.465.093-.022.462c-.192 4.05-.555 11.858-.555 12.421 0 .647.446 1.082 1.111 1.082.664 0 1.111-.435 1.111-1.082 0-.563-.363-8.371-.555-12.421l-.022-.462.465-.093c.763-.155 1.779-.658 1.779-3.258 0-2.63-1.428-5.411-2.778-5.411zm-7.647 8.998l-.115.036.539 12.589c.001 1.265-.975 2.237-2.221 2.237a2.195 2.195 0 0 1-2.223-2.215l.54-12.611-.115-.036c-1.185-.365-2.091-.862-2.091-3.587V.055h1.111v6.493c0 2.149.494 2.302 1.315 2.554.185.058.374.116.564.193l.359.145-.572 13.364c0 .624.478 1.11 1.112 1.11.633 0 1.111-.486 1.111-1.132L12.22 9.44l.359-.145c.19-.077.379-.135.564-.193.821-.252 1.315-.405 1.315-2.554V.055h1.111v6.493c0 2.725-.906 3.222-2.091 3.587zM12.236.055h1.111v6.493h-1.111V.055zm-2.222 0h1.111v6.493h-1.111V.055zM3.347 24.947c-1.226 0-2.222-.971-2.222-2.165l.534-7.299-1.645-1.069V5.466C.014.641 4.904.064 4.954.058l.615-.066v22.79c0 1.194-.996 2.165-2.222 2.165zM4.458 1.258c-1.113.299-3.333 1.264-3.333 4.208v8.368l1.688 1.097-.579 7.891c.002.556.501 1.042 1.113 1.042.613 0 1.111-.486 1.111-1.082V1.258z"/>
</svg>
