<svg xmlns="http://www.w3.org/2000/svg" width="62" height="76">
    <path fill-rule="evenodd" d="M55.21 16.185l-2.099 2.155-2.295-2.357 2.098-2.157-2.098-2.155 2.295-2.357 6.493 6.669-2.295 2.357-2.099-2.155zm-19.48-3.621c14.906 2.422 25.974 15.61 25.974 31.272 0 17.467-13.837 31.678-30.844 31.678C13.852 75.514.016 61.303.016 43.836c0-15.662 11.067-28.85 25.974-31.272v-2.072h-4.87V.489H40.6v10.003h-4.87v2.072zM3.263 43.836c0 15.63 12.38 28.344 27.597 28.344s27.597-12.714 27.597-28.344c0-14.462-10.546-26.568-24.529-28.157l-1.445-.163v-5.024h-3.246v5.024l-1.446.163C13.808 17.268 3.263 29.374 3.263 43.836zm34.09-36.677V3.823H24.366v3.336H37.353zm-8.116 13.336h3.246v16.91c2.793.746 4.87 3.334 4.87 6.431 0 3.099-2.077 5.687-4.87 6.434v3.57h-3.246v-3.57c-2.793-.747-4.871-3.335-4.871-6.434 0-3.097 2.078-5.685 4.871-6.431v-16.91zm-1.624 23.341c0 1.84 1.456 3.335 3.247 3.335 1.79 0 3.247-1.495 3.247-3.335 0-1.837-1.457-3.334-3.247-3.334-1.791 0-3.247 1.497-3.247 3.334zM8.609 18.34l-2.1-2.155-2.098 2.155-2.296-2.357 6.494-6.669 2.295 2.357-2.099 2.155 2.099 2.157-2.295 2.357z"/>
</svg>
