<svg xmlns="http://www.w3.org/2000/svg" width="34" height="33">
    <path fill="#FFF" fill-rule="evenodd" stroke="#0072CE" stroke-width="2" d="M16.317.999c8.285 0 15 6.716 15 15 0 8.283-6.715 15-15 15-8.284 0-15-6.717-15-15 0-8.284 6.716-15 15-15z"/>
    <path fill="#0072CE" fill-rule="evenodd" d="M19.353 16.499l1.768 1.767a2.501 2.501 0 0 1-3.536 3.536l-1.768-1.768-1.767 1.768a2.501 2.501 0 0 1-3.536-3.536l1.767-1.767-1.767-1.767a2.501 2.501 0 0 1 3.536-3.537l1.767 1.768 1.768-1.768a2.501 2.501 0 0 1 3.536 3.537l-1.768 1.767z"/>
</svg>
