<svg xmlns="http://www.w3.org/2000/svg" width="85" height="52">
    <path fill-rule="evenodd" d="M.018 44.157v2.346h34.984c1.131 3.177 4.045 5.453 7.492 5.453 3.448 0 6.362-2.276 7.493-5.453H84.97v-2.346c0-24.356-19.053-44.168-42.476-44.168S.018 19.801.018 44.157zM61.312 9.931L45.906 36.11c-1.038-.511-2.186-.82-3.412-.82-1.222 0-2.368.307-3.406.817L23.682 9.927c5.553-3.314 11.962-5.245 18.812-5.245 6.852 0 13.263 1.933 18.818 5.249zm-13.524 27.48l15.464-26.277c9.758 6.655 16.411 17.848 17.137 30.676H50.305a8.35 8.35 0 0 0-2.517-4.399zM14.442 27.64c.414-.929 1.474-1.333 2.368-.902L43.828 39.77c.143.07.303.16.44.251 1.755 1.163 2.271 3.587 1.152 5.412-1.119 1.825-3.449 2.362-5.205 1.198L15.101 29.983c-.743-.491-1.04-1.491-.659-2.343z"/>
</svg>
