<svg xmlns="http://www.w3.org/2000/svg" width="55" height="40">
    <path fill-rule="evenodd" d="M55 32.773c0 .596-.49 1.079-1.094 1.079a1.087 1.087 0 0 1-1.094-1.079c0-6.302-3.431-11.778-8.343-13.317a1.077 1.077 0 0 1-.763-1.009c-.008-.464.286-.88.729-1.034 3.177-1.108 5.311-4.083 5.311-7.406 0-4.331-3.573-7.854-7.966-7.854a8.044 8.044 0 0 0-6.411 3.192 1.105 1.105 0 0 1-1.53.225 1.069 1.069 0 0 1-.229-1.508c1.909-2.546 4.963-4.066 8.17-4.066 5.599 0 10.154 4.491 10.154 10.011 0 3.411-1.765 6.535-4.567 8.36C51.956 20.929 55 26.51 55 32.773zm-21.893-8.262c4.59 2.565 7.633 8.145 7.633 14.407 0 .596-.489 1.08-1.094 1.08a1.087 1.087 0 0 1-1.094-1.08c0-6.302-3.43-11.777-8.343-13.315a1.079 1.079 0 0 1-.762-1.01c-.008-.465.285-.88.728-1.035 3.177-1.108 5.312-4.083 5.312-7.405 0-4.331-3.574-7.855-7.966-7.855-4.393 0-7.967 3.524-7.967 7.855 0 3.322 2.135 6.297 5.312 7.405.443.155.736.57.729 1.035a1.08 1.08 0 0 1-.763 1.01c-4.913 1.538-8.343 7.013-8.343 13.315 0 .596-.49 1.08-1.094 1.08a1.087 1.087 0 0 1-1.094-1.08c0-6.262 3.043-11.842 7.633-14.407-2.802-1.823-4.567-4.948-4.567-8.358 0-5.521 4.555-10.011 10.154-10.011 5.598 0 10.154 4.49 10.154 10.011 0 3.41-1.766 6.535-4.568 8.358zM19.629 5.345a8.039 8.039 0 0 0-6.41-3.192c-4.393 0-7.966 3.523-7.966 7.854 0 3.323 2.134 6.298 5.311 7.406.443.154.736.57.729 1.034a1.077 1.077 0 0 1-.763 1.009c-4.912 1.539-8.343 7.015-8.343 13.317 0 .596-.49 1.079-1.094 1.079a1.087 1.087 0 0 1-1.094-1.079c0-6.263 3.043-11.844 7.633-14.406-2.802-1.825-4.567-4.949-4.567-8.36 0-5.52 4.555-10.011 10.154-10.011 3.207 0 6.261 1.52 8.17 4.066.359.48.256 1.153-.23 1.508a1.105 1.105 0 0 1-1.53-.225z"/>
</svg>
