<svg xmlns="http://www.w3.org/2000/svg" width="164" height="164">
    <path fill="#FFF" fill-rule="evenodd" d="M82 0c45.287 0 82 36.712 82 82 0 45.287-36.713 82-82 82S0 127.287 0 82C0 36.712 36.713 0 82 0z"/>
    <path fill="#0072CE" fill-rule="evenodd" d="M119.234 39.221H51.127a2.381 2.381 0 0 1-2.387-2.376 2.382 2.382 0 0 1 2.387-2.376h68.107a2.382 2.382 0 0 1 2.387 2.376 2.382 2.382 0 0 1-2.387 2.376zm19.71 20.864v52.396a3.424 3.424 0 0 1-2.561 3.309l-28.884 7.582a3.45 3.45 0 0 1-.876.112H35.246a3.498 3.498 0 0 1-3.506-3.489V92.503a12.358 12.358 0 0 0 2.244 3.303 3.04 3.04 0 0 0 3.138.815c1.953-.913 2.936-3.099 3.816-4.885l.201.051c-.14 1.404-.381 2.858-.587 4.295-.403 4.145-.94 8.339-.688 12.671.377 2.493.904 5.438 3.571 6.468a2.998 2.998 0 0 0 2.776-.993c2.21-2.399 1.552-5.996 2.101-9.087.31-2.073.285-4.331 1.149-6.15.302.001.234.437.35.654.354 4.081.103 8.277 2.224 11.595a2.866 2.866 0 0 0 2.903.948c2.726-1.345 2.638-4.571 3.571-7.009.169-.251.272-.618.608-.733.42.001.603.419.753.738.862 2.996 1.52 6.576 4.656 8.159 1.896.577 3.397-.772 4.561-2.072a14.026 14.026 0 0 0 1.995-3.32 2.874 2.874 0 0 0 3.092-.155 8.192 8.192 0 0 0 3.038-4.035c.394 2.476.804 5.353 3.287 6.583 2.097.31 3.549-1.809 4.564-3.343.134-.033.167.117.201.201.043 1.958-.017 4.314 2.046 5.108a2.083 2.083 0 0 0 1.698-.328c1.486-1.633 1.025-4.143 1.183-6.282a.927.927 0 0 1 .406-.535c.37.036.486.387.653.655 1.129 3.315 3.719 6.936 7.379 7.77 3.288.743 6.334-.614 8.442-3.021v6.14a1.716 1.716 0 0 0 2.157 1.654l24.011-6.302a1.713 1.713 0 0 0 1.28-1.655V61.42c0-.534-.251-1.038-.678-1.361l-11.287-8.547a1.725 1.725 0 0 0-2.399.313l-12.722 16.313c-.234.3-.361.669-.361 1.049v39.27a7.362 7.362 0 0 1-3.309 2.376c-1.9.662-3.796-.165-5.117-1.623a13.9 13.9 0 0 1-3.022-9.275c-.23-1.289 1.297-1.4 1.857-2.284 2.545-2.582 4.054-5.97 2.977-9.653-.365-1.439-1.182-2.981-2.845-3.188-2.671.124-4.328 2.509-5.896 4.443-.254-.001-.185-.269-.252-.403.038-1.036.562-1.87.734-2.856a70.821 70.821 0 0 0 2.23-12.063c-.11-1.991-.101-4.415-2.164-5.226-1.378-.189-2.607.826-3.235 1.994-2.847 6.862-3.179 14.819-3.864 22.542l-.405 9.228-.008 2.005c-.59.467-.946 1.603-1.819 1.265-.586-.47-.65-1.257-.882-1.927-.646-2.593-.147-5.5.232-8.057l1.646-8.672c.497-2.773 1.586-6.498-.892-8.698a2.396 2.396 0 0 0-2.215-.661c-2.623.86-3.072 3.902-3.535 6.291-.721 4.361-.37 8.977-.37 13.408a17.492 17.492 0 0 1-1.785 5.478c-.203.3-.541.616-.892.364-.786-.923-.529-2.309-.507-3.496.16-2.525.56-5.733-1.871-7.063a2.67 2.67 0 0 0-2.909.541c-1.352 1.867-1.444 4.325-1.353 6.749.208 2.593 1.157 4.887 2.107 7.182a2.625 2.625 0 0 1-2.023 1.513c-1.174-.272-1.303-1.543-1.772-2.414-1.978-5.241-.996-11.691-2.302-17.214-.249-.92-.664-2.126-1.773-2.331-.58-.09-1.17.079-1.614.462-2.278 2.734-2.444 6.362-2.86 9.871-.051.084-.034.218-.153.284-.268.05-.351-.252-.452-.403-.623-4.032-.404-8.462-.439-12.692 0-.996-.453-1.939-1.232-2.564a1.887 1.887 0 0 0-1.528-.206 5.845 5.845 0 0 0-1.314.993c-1.223 1.238-1.884 2.952-2.622 4.443a77.238 77.238 0 0 0-3.094 9.786c-.068.117-.236.267-.371.149-.434-.654-.112-1.522-.158-2.291.46-6.401 1.845-12.517 3.179-18.598.124-1.905.688-4.512-1.071-5.705a2.551 2.551 0 0 0-2.624.994c-1.536 1.916-2.083 4.255-2.848 6.493-1.191 3.941-1.409 8.271-3.74 11.74-.811 1.083-1.89 2.166-3.284 2.161a3.733 3.733 0 0 1-3.1-2.068 13.967 13.967 0 0 1-.773-2.105V68.261c0-.758.253-1.494.718-2.093l15.947-20.533a3.448 3.448 0 0 1 2.722-1.329h68.036c.767 0 1.512.25 2.123.713l16.302 12.343a3.414 3.414 0 0 1 1.356 2.723zM74.517 83.92c-.586-.804-1.356-1.459-2.415-1.296a5.057 5.057 0 0 0-3.555 2.795c-.762 1.553-1.09 3.893.098 5.352.651.788 1.608.909 2.617.879 1.378-.045 2.607-1.111 3.234-2.312.611-1.603.972-3.859.021-5.418zm20.69 6.382c-.199-.803-1.326-.356-1.815-.09a6.655 6.655 0 0 0-2.592 5.892c2.155-1.112 4.464-3.16 4.407-5.802z"/>
</svg>
