<svg xmlns="http://www.w3.org/2000/svg" width="40" height="40" viewBox="0 0 40 40">
  <defs>
    <style>
      .cls-1 {
        fill: #fff;
        fill-rule: evenodd;
      }
    </style>
  </defs>
  <path id="icon_search" class="cls-1" d="M3059.98,397.054l-9.68-9.675a15.857,15.857,0,0,0,2.07-12.011c0.09,0.007.18,0.014,0.28,0.014a3.972,3.972,0,1,0-2.27-7.228,3.357,3.357,0,0,0,.09-0.716,2.9,2.9,0,0,0-5.05-1.948,15.883,15.883,0,1,0-.04,26.81l9.68,9.676A3.48,3.48,0,1,0,3059.98,397.054Zm-7.33-27.595a1.952,1.952,0,1,1-1.96,1.951A1.955,1.955,0,0,1,3052.65,369.459Zm-9.46,15.733a8.923,8.923,0,1,1,0-12.618A8.927,8.927,0,0,1,3043.19,385.192Zm4.38-16.329a1.425,1.425,0,1,1,1.42-1.425A1.427,1.427,0,0,1,3047.57,368.863Z" transform="translate(-3021 -363)"/>
</svg>
