<svg xmlns="http://www.w3.org/2000/svg" width="56.41" height="55.75" viewBox="0 0 56.41 55.75">
  <defs>
    <style>
      .cls-1 {
        fill: #fff;
      }
    </style>
  </defs>
  <path id="icon_burger_menu_copy_2" data-name="icon_burger_menu copy 2" class="cls-1" d="M3083.66,58.84l-41.82,41.82a6.943,6.943,0,0,1-9.82-.024h0a6.95,6.95,0,0,1-.03-9.822l41.82-41.82a6.955,6.955,0,0,1,9.83.024h0A6.949,6.949,0,0,1,3083.66,58.84Zm-10.55,41.871-41.82-41.82a6.958,6.958,0,0,1,.04-9.844h0a6.968,6.968,0,0,1,9.85-.047L3083,90.82a6.969,6.969,0,0,1-.05,9.845h0A6.955,6.955,0,0,1,3073.11,100.711Z" transform="translate(-3029.28 -46.969)"/>
</svg>
