<svg xmlns="http://www.w3.org/2000/svg" width="42" height="84">
    <path fill="#0072CE" fill-rule="evenodd" d="M10.24 8.108h20c5.523 0 10 4.477 10 9.999v54c0 5.523-4.477 10-10 10h-20c-5.523 0-10-4.477-10-10v-54c0-5.522 4.477-9.999 10-9.999z"/>
    <path fill="#FFF" fill-rule="evenodd" d="M7.24 53.108v-2h26v2h-26zm0-9.001h26v2h-26v-2zm0-6.999h26v1.999h-26v-1.999z"/>
    <path fill="#FFF" fill-rule="evenodd" stroke="#0072CE" stroke-width="2" d="M29.5 1a6.5 6.5 0 1 1 0 13 6.5 6.5 0 0 1 0-13z"/>
    <path fill="#FFF" fill-rule="evenodd" stroke="#0072CE" stroke-width="2" d="M19 5a5 5 0 1 1-.001 10.001A5 5 0 0 1 19 5z"/>
</svg>
