<svg xmlns="http://www.w3.org/2000/svg" width="75" height="50">
    <path fill="#0072CE" fill-rule="evenodd" d="M10 9h54c5.523 0 10 4.477 10 10v20c0 5.523-4.477 10-10 10H10C4.477 49 0 44.523 0 39V19C0 13.477 4.477 9 10 9z"/>
    <path fill="#FFF" fill-rule="evenodd" d="M43 42V16h2v26h-2zm-7-26h2v26h-2V16zm-7 0h2v26h-2V16z"/>
    <path fill="#FFF" fill-rule="evenodd" stroke="#0072CE" stroke-width="2" d="M58.5 1a6.5 6.5 0 1 1 0 13 6.5 6.5 0 0 1 0-13z"/>
    <path fill="#FFF" fill-rule="evenodd" stroke="#0072CE" stroke-width="2" d="M48 5a5 5 0 1 1 0 10 5 5 0 0 1 0-10z"/>
</svg>
