<svg xmlns="http://www.w3.org/2000/svg" width="14" height="14" viewBox="0 0 14 14">
  <path id="icon_open_new_window" d="M937.435,3405a1.436,1.436,0,0,1-1.435-1.435v-11.131a1.435,1.435,0,0,1,1.435-1.435h3.407v1.665h-2.461a.716.716,0,0,0-.716.717v9.239a.715.715,0,0,0,.716.715h9.238a.716.716,0,0,0,.716-.715v-2.462H950v3.408a1.435,1.435,0,0,1-1.434,1.435Zm3.964-6.584,5.75-5.751H943V3391h5.566a1.434,1.434,0,0,1,1.434,1.435V3398h-1.665v-4.164l-5.759,5.759Z" transform="translate(-936 -3390.999)" fill="#fff"/>
</svg>
